<?xml version="1.0" encoding="UTF-8" standalone="no"?>
<!DOCTYPE svg  PUBLIC '-//W3C//DTD SVG 1.1//EN'  'http://www.w3.org/Graphics/SVG/1.1/DTD/svg11.dtd'>
<svg xmlns="http://www.w3.org/2000/svg">
<defs>
<font id="CenturySchoolbook-Italic" horiz-adv-x="682">
<font-face slope="-15" underline-position="-154" font-weight="400" descent="-410" panose-1="2 4 6 4 5 5 5 9 3 4" units-per-em="2048" unicode-range="U+0020-F003" bbox="-319 -441 2530 1989" x-height="954" underline-thickness="102" font-family="CenturySchoolbook" ascent="1638" font-style="italic" cap-height="1479"/>
<missing-glyph horiz-adv-x="2048"/>
<glyph glyph-name=".notdef" horiz-adv-x="2048"/>
<glyph glyph-name=".null" horiz-adv-x="0"/>
<glyph glyph-name="nonmarkingreturn" horiz-adv-x="2048"/>
<glyph glyph-name="space" horiz-adv-x="569" unicode=" "/>
<glyph glyph-name="exclam" d="M256 219q50 0 86 -36t36 -88q0 -51 -36 -87.5t-86 -36.5t-86 36.5t-36 87.5q0 52 36 88t86 36zM368 389h-65q130 497 178 842q20 145 37 192t48.5 70.5t66.5 23.5q43 0 74 -32.5t31 -81.5q0 -28 -17 -82t-92 -222q-79 -176 -115 -274q-56 -152 -146 -436z" unicode="!"/>
<glyph glyph-name="quotedbl" horiz-adv-x="819" unicode='&quot;' d="M690 820l36 356q14 135 54.5 186t100.5 51q35 0 56.5 -19.5t21.5 -49.5q0 -26 -8 -51q-12 -38 -53 -123l-164 -350h-44zM318 820l37 356q14 135 54.5 186t99.5 51q36 0 57 -19.5t21 -49.5q0 -26 -8 -51q-12 -37 -53 -123l-164 -350h-44z"/>
<glyph glyph-name="numbersign" horiz-adv-x="1241" unicode="#" d="M942 927h-353l-77 -376h353zM490 1052l88 427h124l-88 -427h352l90 427h123l-87 -427h197v-125h-223l-76 -376h299v-124h-323l-88 -427h-125l87 427h-350l-89 -427h-126l87 427h-199v124h225l77 376h-302v125h327z"/>
<glyph glyph-name="dollar" horiz-adv-x="1139" unicode="$" d="M694 597l-148 -553q139 3 225 81t86 185q0 68 -34 133.5t-129 153.5zM694 858l125 483q-130 -1 -200.5 -66t-70.5 -164q0 -54 27.5 -106.5t118.5 -146.5zM867 1517h75l-31 -113q115 -35 174 -104.5t59 -156.5q0 -66 -30.5 -104t-75.5 -38q-39 0 -63.5 25t-24.5 64 q0 42 39 88q31 36 31 55q0 25 -31 53.5t-97 46.5l-144 -528q156 -154 200 -238.5t44 -182.5q0 -176 -128.5 -294t-337.5 -121l-64 -240h-76l67 251q-141 37 -219 124.5t-78 183.5q0 75 41.5 126t93.5 51q44 0 75 -31t31 -78q0 -32 -14 -54.5t-55 -47.5q-47 -29 -47 -58 q0 -35 50.5 -79t139.5 -64l163 599q-118 111 -163.5 200t-45.5 180q0 167 113.5 275t302.5 108z"/>
<glyph glyph-name="percent" horiz-adv-x="1706" unicode="%" d="M1446 661q-42 0 -77 -36q-51 -51 -97.5 -213t-46.5 -289q0 -62 17.5 -86.5t49.5 -24.5q43 0 87 43.5t86 189.5q60 201 60 308q0 54 -22 81t-57 27zM1456 701q85 0 138.5 -64.5t53.5 -177.5q0 -168 -98.5 -328t-254.5 -160q-87 0 -143.5 64.5t-56.5 174.5q0 132 55.5 254 t137 179.5t168.5 57.5zM1374 1394h87l-956 -1394h-85zM604 1372q-43 0 -78 -35q-51 -52 -97 -213.5t-46 -289.5q0 -62 17.5 -86.5t48.5 -24.5q43 0 87 44t87 189q59 201 59 308q0 54 -21.5 81t-56.5 27zM613 1413q85 0 139 -65t54 -178q0 -167 -99 -327t-255 -160 q-87 0 -143 64.5t-56 174.5q0 132 55 254t136.5 179.5t168.5 57.5z"/>
<glyph glyph-name="ampersand" horiz-adv-x="1745" unicode="&amp;" d="M671 793q-155 -72 -222.5 -170.5t-67.5 -225.5q0 -133 87 -225t211 -92q122 0 248 80q-82 121 -139.5 260t-116.5 373zM860 929q335 100 335 327q0 85 -47.5 136.5t-118.5 51.5q-85 0 -142.5 -75.5t-57.5 -218.5q0 -82 31 -221zM875 861q24 -118 62.5 -236.5t79.5 -208.5 q26 -58 77 -134q126 116 201 235q44 69 44 121q0 43 -40 72.5t-126 29.5h-34l19 71h516v-71h-41q-31 0 -65 -17t-78 -65q-30 -33 -115 -157q-64 -96 -115.5 -154.5t-126.5 -124.5q96 -116 194 -116q131 0 268 199l51 -42q-94 -160 -191.5 -226t-210.5 -66q-157 0 -273 132 q-197 -132 -410 -132q-186 0 -300.5 109.5t-114.5 272.5q0 107 49.5 203t145 166t313.5 147q-26 120 -26 201q0 133 52.5 233.5t149 157t208.5 56.5q127 0 214 -82.5t87 -192.5q0 -94 -80 -188.5t-384 -192.5z"/>
<glyph glyph-name="quotesingle" horiz-adv-x="569" unicode="&apos;" d="M373 820l35 343q15 146 53.5 198t99.5 52q39 0 60.5 -19t21.5 -50q0 -44 -51 -151l-175 -373h-44z"/>
<glyph glyph-name="parenleft" d="M414 -399q-151 170 -222.5 361t-71.5 414q0 323 175 613t546 528h82q-313 -256 -469.5 -575t-156.5 -675q0 -360 171 -666h-54z" unicode="("/>
<glyph glyph-name="parenright" d="M300 1517h65q292 -326 292 -789q0 -205 -74.5 -399t-227 -375.5t-406.5 -352.5h-87q307 247 462 566.5t155 695.5q0 362 -179 654z" unicode=")"/>
<glyph glyph-name="asterisk" horiz-adv-x="1024" unicode="*" d="M564 1118q37 11 68 28q23 13 82 61q61 51 88 63.5t53 12.5q42 0 70.5 -27.5t28.5 -68.5q0 -45 -34.5 -73t-106.5 -28l-38 1l-66 3q-64 0 -131 -22q52 -62 144 -120q61 -38 79.5 -64.5t18.5 -59.5q0 -41 -28 -69.5t-65 -28.5q-40 0 -69 27t-48 100q-21 84 -37 122 q-12 29 -34 60q-22 -30 -36 -61q-10 -23 -30 -99q-25 -91 -42 -112q-28 -36 -79 -36q-44 0 -71.5 25.5t-27.5 64.5q0 69 95 131q70 46 87 60q23 20 59 60q-53 21 -122 21l-47 -2l-50 -2q-78 0 -114.5 28.5t-36.5 78.5q0 38 26.5 64t66.5 26q59 0 146 -74q47 -40 79 -59 q23 -14 70 -31l1 31q0 47 -26 116q-43 112 -43 144q0 46 28 77t67 31q40 0 68 -29t28 -71q0 -28 -40 -140q-26 -73 -31 -159z"/>
<glyph glyph-name="plus" horiz-adv-x="1241" unicode="+" d="M165 759h485v486h134v-486h485v-133h-485v-482h-134v482h-485v133z"/>
<glyph glyph-name="comma" horiz-adv-x="569" unicode="," d="M46 -310l-31 57q116 53 177 118q47 50 47 87q0 21 -31 24q-94 8 -94 106q0 56 35 92t87 36q55 0 92.5 -42.5t37.5 -111.5q0 -107 -77 -203t-243 -163z"/>
<glyph glyph-name="hyphen" d="M171 542h405l-43 -152h-405z" unicode="-"/>
<glyph glyph-name="hyphen" d="M171 542h405l-43 -152h-405z" unicode="­"/>
<glyph glyph-name="period" horiz-adv-x="569" unicode="." d="M231 218q50 0 86 -36t36 -87q0 -52 -36 -88t-86 -36q-51 0 -86.5 36t-35.5 88q0 51 35.5 87t86.5 36z"/>
<glyph glyph-name="slash" horiz-adv-x="1241" unicode="/" d="M1145 1442l-777 -1474h-134l777 1474h134z"/>
<glyph glyph-name="zero" horiz-adv-x="1139" unicode="0" d="M822 1343q-109 0 -180 -88q-94 -116 -203.5 -492.5t-109.5 -517.5q0 -99 45.5 -151t124.5 -52q87 0 163 60.5t133 210.5q73 196 151 495q58 225 58 331q0 93 -50 148.5t-132 55.5zM822 1413q97 0 173 -50.5t120 -153.5t44 -257q0 -241 -115 -494.5t-263.5 -370 t-284.5 -116.5q-142 0 -232 112t-90 336q0 270 142 558q101 205 229.5 320.5t276.5 115.5z"/>
<glyph glyph-name="one" horiz-adv-x="1139" unicode="1" d="M908 1414h58l-333 -1244q-3 -12 -3 -24q0 -33 25 -52t73 -19h132l-21 -75h-641l22 75h67q153 0 181 107l254 941q2 11 2 21q0 30 -27.5 49t-91.5 19h-120l19 73q135 11 228.5 42t175.5 87z"/>
<glyph glyph-name="two" horiz-adv-x="1139" unicode="2" d="M266 157h462q65 0 109.5 40.5t112.5 193.5h80l-136 -391h-815l21 75q87 124 202.5 236t349.5 298q161 128 195 161q71 71 106.5 152t35.5 173q0 108 -66.5 172t-184.5 64q-117 0 -195.5 -64t-78.5 -134q0 -21 14 -36q14 -16 58 -31q59 -22 80.5 -49t21.5 -69 q0 -48 -32 -79.5t-84 -31.5q-70 0 -118 55.5t-48 148.5q0 155 117.5 263.5t304.5 108.5q190 0 302.5 -98.5t112.5 -250.5q0 -81 -36.5 -158t-117.5 -152t-275 -194q-206 -126 -304 -207.5t-194 -195.5z"/>
<glyph glyph-name="three" horiz-adv-x="1139" unicode="3" d="M749 710q133 -51 199.5 -132.5t66.5 -194.5q0 -161 -142.5 -286.5t-341.5 -125.5q-117 0 -210.5 45t-142.5 122.5t-49 164.5q0 80 41.5 128.5t98.5 48.5q50 0 83 -32.5t33 -82.5q0 -42 -16 -68t-67 -56q-31 -17 -35 -24q-7 -9 -7 -24q0 -48 62.5 -93t156.5 -45 q89 0 166.5 49t127 148t49.5 205q0 95 -62 157t-159 62q-26 0 -60 -4q-37 -5 -51 -5q-32 0 -46.5 11.5t-14.5 32.5q0 19 15 30.5t48 11.5l34 -2q39 -3 60 -3q172 0 283 106q110 106 110 265q0 104 -57 161.5t-160 57.5q-90 0 -149 -37t-59 -65q0 -16 28 -40q51 -47 51 -100 q0 -46 -30 -76.5t-74 -30.5q-49 0 -82.5 38t-33.5 99q0 109 108 198t267 89q164 0 272 -96t108 -228q0 -136 -104.5 -230.5t-314.5 -148.5z"/>
<glyph glyph-name="four" horiz-adv-x="1139" unicode="4" d="M907 1110l-631 -653h446zM1075 1414h85l-266 -957h189l-23 -85h-191l-53 -198q-4 -15 -4 -29q0 -33 24 -51.5t71 -18.5h68l-19 -75h-535l21 75q101 3 145.5 31t58.5 78l52 188h-559l32 107z"/>
<glyph glyph-name="five" horiz-adv-x="1139" unicode="5" d="M608 1217l-136 -385q122 51 218 51q158 0 257.5 -101t99.5 -267q0 -245 -170.5 -394.5t-396.5 -149.5q-145 0 -228 75t-83 188q0 86 45.5 138.5t111.5 52.5q50 0 82.5 -33.5t32.5 -84.5q0 -95 -106 -117q-30 -6 -39.5 -15.5t-9.5 -28.5q0 -35 41 -62q59 -38 137 -38 q97 0 180.5 59.5t148.5 206.5t65 278q0 96 -60 154t-165 58q-51 0 -99.5 -17t-91.5 -49q-23 -17 -41 -52q-22 -42 -51 -42q-17 0 -27.5 9.5t-10.5 22.5q0 25 34 64q12 13 17 23l224 625q9 27 30 27q13 0 48 -19q45 -24 116 -41t142 -17q76 0 147.5 20.5t111.5 48.5 q12 7 17 7q11 0 11 -11q0 -21 -45 -70q-70 -75 -159 -115t-194 -40q-92 0 -204 41z"/>
<glyph glyph-name="six" horiz-adv-x="1139" unicode="6" d="M719 749q-135 0 -226 -149.5t-91 -322.5q0 -114 46.5 -173.5t117.5 -59.5q68 0 128 50.5t111 190.5q67 185 67 301q0 76 -41.5 119.5t-111.5 43.5zM470 709q155 135 300 135q123 0 207.5 -93.5t84.5 -244.5q0 -133 -72.5 -258t-196 -201t-241.5 -76q-138 0 -238 126 t-100 333q0 247 120 493t292 368t343 122q125 0 198 -61.5t73 -149.5q0 -65 -39.5 -106.5t-97.5 -41.5q-50 0 -84.5 33t-34.5 79q0 40 29 77q28 35 28 52q0 22 -17 35t-54 13q-106 0 -200 -67t-173 -219q-45 -87 -127 -348z"/>
<glyph glyph-name="seven" horiz-adv-x="1139" unicode="7" d="M482 1416h56q47 -22 96 -22h644l-13 -61q-217 -240 -345 -436t-198 -380t-98 -375q-15 -101 -47 -136t-85 -35q-48 0 -76.5 31t-28.5 83q0 108 154 400q202 382 538 755h-374q-112 0 -172.5 -53.5t-133.5 -250.5h-82z"/>
<glyph glyph-name="eight" horiz-adv-x="1139" unicode="8" d="M637 661q-180 -66 -270.5 -169t-90.5 -203q0 -97 82 -171t203 -74q137 0 229.5 80.5t92.5 188.5q0 69 -45 141t-201 207zM775 791q296 117 296 318q0 100 -68.5 166t-175.5 66q-117 0 -195.5 -69t-78.5 -163q0 -64 42 -132t180 -186zM836 740q132 -131 169 -204.5 t37 -157.5q0 -161 -132 -276q-148 -131 -346 -131q-177 0 -296.5 98.5t-119.5 221.5q0 75 45.5 157.5t127.5 142t261 119.5q-158 141 -158 320q0 169 122 276t301 107q156 0 247 -81t91 -208q0 -117 -74.5 -208.5t-274.5 -175.5z"/>
<glyph glyph-name="nine" horiz-adv-x="1139" unicode="9" d="M823 1344q-70 0 -128.5 -50.5t-116.5 -207t-58 -282.5q0 -81 41 -125.5t111 -44.5q130 0 225 148.5t95 338.5q0 110 -46.5 166.5t-122.5 56.5zM918 678q-165 -137 -298 -137q-128 0 -210 101.5t-82 252.5q0 193 147 344q168 174 359 174q146 0 244 -121.5t98 -341.5 q0 -247 -120 -489t-295 -366t-341 -124q-123 0 -196.5 62t-73.5 152q0 66 39 108t95 42q52 0 85.5 -32.5t33.5 -80.5q0 -23 -8 -44q-6 -15 -31 -47q-18 -22 -18 -41q0 -21 17.5 -33.5t55.5 -12.5q91 0 185 58.5t168.5 184.5t145.5 391z"/>
<glyph glyph-name="colon" horiz-adv-x="569" unicode=":" d="M175 218q50 0 86 -36t36 -87q0 -52 -36 -88t-86 -36q-51 0 -86.5 36t-35.5 88q0 51 35.5 87t86.5 36zM389 965q51 0 87 -36t36 -87q0 -52 -36 -88t-86 -36q-51 0 -86.5 36t-35.5 88q0 51 35.5 87t85.5 36z"/>
<glyph glyph-name="less" horiz-adv-x="1241" unicode="&lt;" d="M1268 170l-1101 464v120l1101 463v-144l-922 -378l922 -380v-145z"/>
<glyph glyph-name="equal" horiz-adv-x="1241" unicode="=" d="M165 526h1104v-133h-1104v133zM165 1001h1104v-134h-1104v134z"/>
<glyph glyph-name="greater" horiz-adv-x="1241" unicode="&gt;" d="M167 1217l1101 -464v-120l-1101 -463v144l922 379l-922 380v144z"/>
<glyph glyph-name="question" horiz-adv-x="909" unicode="?" d="M355 218q50 0 85 -36t35 -87q0 -52 -35.5 -88t-84.5 -36q-50 0 -86 36t-36 88q0 51 35.5 87t86.5 36zM620 643l53 -31q-79 -220 -232 -220q-79 0 -129 54.5t-50 148.5q0 60 23.5 119.5t75.5 123t188 178.5q144 122 174.5 168t30.5 101q0 68 -48.5 115.5t-121.5 47.5 q-112 0 -196 -88.5t-84 -215.5q0 -35 8 -75l-59 -12q-13 50 -13 87q0 96 48 184.5t128.5 137t170.5 48.5q118 0 197 -80.5t79 -203.5q0 -72 -25.5 -132.5t-81 -117.5t-187.5 -140q-124 -78 -169.5 -142.5t-45.5 -128.5q0 -49 29.5 -81t68.5 -32q100 0 168 187z"/>
<glyph glyph-name="at" horiz-adv-x="1530" unicode="@" d="M961 1087q-108 0 -225 -198.5t-117 -330.5q0 -58 28.5 -90.5t71.5 -32.5q54 0 122 57q92 78 157 215t65 251q0 63 -28.5 96t-73.5 33zM1260 1121l-121 -411l-44 -153q-13 -55 -13 -89t17.5 -52.5t45.5 -18.5q67 0 146.5 63.5t137.5 201t58 285.5q0 139 -70.5 261.5 t-189.5 186.5t-277 64q-195 0 -360.5 -100t-261.5 -278.5t-96 -399.5q0 -209 81.5 -359t235.5 -238t341 -88q224 0 404.5 123t264.5 335h60q-70 -228 -273 -375t-462 -147q-321 0 -532 213.5t-211 539.5q0 230 107.5 422t292.5 301t402 109q183 0 319.5 -73t213 -207.5 t76.5 -301.5q0 -226 -130 -413.5t-335 -187.5q-68 0 -101.5 31t-33.5 88q0 47 16 122q-119 -145 -196 -193.5t-139 -48.5q-63 0 -108.5 52.5t-45.5 142.5q0 130 80.5 280t194.5 234.5t196 84.5q59 0 95 -29t49 -88l28 93z"/>
<glyph glyph-name="A" horiz-adv-x="1442" unicode="A" d="M873 1175l-383 -604h466zM961 1479h81l180 -1304q7 -52 41.5 -76t106.5 -24h50l-20 -75h-600l20 75h53q86 0 112.5 18t26.5 56q0 15 -3 35l-41 299h-534l-131 -206q-35 -55 -35 -110q0 -44 32.5 -68t105.5 -24h49l-21 -75h-526l20 75q80 6 138 45t118 133z"/>
<glyph glyph-name="B" horiz-adv-x="1479" unicode="B" d="M603 728l-154 -574q-3 -11 -3 -20q0 -28 21 -41q29 -18 90 -18h206q207 0 318 128q91 103 91 276q0 113 -76 181t-208 68h-285zM623 802h254q106 0 192 49.5t133.5 139t47.5 197.5q0 115 -83 176q-57 42 -218 42q-118 0 -144.5 -17t-47.5 -96zM331 1479h728 q148 0 235.5 -40t133 -113t45.5 -177q0 -152 -107.5 -244t-323.5 -125q182 -37 271.5 -128.5t89.5 -215.5q0 -182 -144 -293q-184 -143 -458 -143h-809l22 75h124q73 0 92 71l313 1158q7 24 7 48q0 27 -19 39.5t-82 12.5h-136z"/>
<glyph glyph-name="C" horiz-adv-x="1479" unicode="C" d="M1374 1348l105 99h67l-108 -541h-64q-1 167 -29 262q-38 133 -122.5 204.5t-206.5 71.5q-152 0 -289 -120t-226 -383q-75 -226 -75 -441q0 -216 108 -332t290 -116q158 0 287 98.5t209 299.5l64 -25q-81 -209 -206 -315q-164 -139 -395 -139q-257 0 -426 170.5 t-169 430.5q0 244 122 475t305 349.5t390 118.5q100 0 186 -37.5t183 -129.5z"/>
<glyph glyph-name="D" horiz-adv-x="1593" unicode="D" d="M716 75q145 0 253.5 53.5t194 166t136.5 295.5q68 240 68 420q0 228 -126 325q-91 71 -297 71q-120 0 -145 -14.5t-43 -80.5l-307 -1142q-6 -21 -6 -38q0 -26 19 -41t59 -15h194zM338 1479h667q280 0 434.5 -156t154.5 -438q0 -186 -67.5 -360.5t-168.5 -281.5 t-268.5 -175t-337.5 -68h-757l20 75h80q67 0 97 22.5t45 80.5l308 1145q2 11 2 23q0 27 -24.5 42.5t-92.5 15.5h-110z"/>
<glyph glyph-name="E" horiz-adv-x="1479" unicode="E" d="M350 1479h1181l-114 -477h-71q17 96 17 156q0 126 -68 186t-216 60h-205q-42 0 -64 -21.5t-41 -93.5l-131 -489h104q237 0 317 264h75l-179 -670h-73q21 92 21 135q0 97 -50 147.5t-141 50.5h-92l-148 -558q-5 -17 -5 -33q0 -29 16 -42q24 -19 60 -19h235 q183 0 317 101.5t232 337.5h72l-157 -514h-1204l9 75h78q103 0 123 74l311 1159q5 19 5 36q0 28 -23.5 44t-87.5 16h-123z"/>
<glyph glyph-name="F" horiz-adv-x="1366" unicode="F" d="M330 1479h1217l-85 -475h-70q7 69 7 107q0 151 -72.5 222t-222.5 71h-247q-42 0 -61.5 -16t-30.5 -57l-141 -528h141q131 0 211.5 61.5t127.5 209.5h74l-180 -677h-72q21 80 21 136q0 97 -49 148t-133 51h-161l-152 -582q-2 -8 -2 -18q0 -26 18 -39q27 -18 74 -18h164 l-19 -75h-685l15 75h94q60 0 86 22t46 99l299 1110q7 24 7 47q0 27 -18.5 39t-78.5 12h-141z"/>
<glyph glyph-name="G" horiz-adv-x="1593" unicode="G" d="M1395 1357l88 103h68l-87 -524h-69q-5 250 -111.5 378t-276.5 128q-161 0 -304.5 -128.5t-234.5 -407.5q-75 -232 -75 -434q0 -207 98 -316.5t263 -109.5q94 0 165 30t127 95t73 127l58 213l10 30l1 15q0 26 -21.5 42.5t-65.5 16.5h-102l18 72h542l-8 -72h-55 q-81 0 -101 -76l-142 -539h-65l-11 170q-112 -106 -225 -152.5t-243 -46.5q-241 0 -396 162t-155 425q0 241 128 471.5t326 359t407 128.5q107 0 193.5 -35.5t182.5 -124.5z"/>
<glyph glyph-name="H" horiz-adv-x="1706" unicode="H" d="M376 1479h634l-16 -75h-88q-61 0 -89.5 -21.5t-43.5 -77.5l-134 -491h651l135 503q4 15 4 29q0 26 -26.5 42t-97.5 16h-92l19 75h632l-13 -75h-80q-59 0 -88.5 -21.5t-43.5 -71.5l-305 -1141q-5 -18 -5 -35q0 -29 24.5 -44.5t94.5 -15.5h71l-17 -75h-615l19 75h73 q63 0 94.5 22t45.5 73l146 549h-649l-151 -556q-5 -19 -5 -28q0 -26 26 -43t96 -17h103l-17 -75h-623l20 75h48q112 0 131 71l310 1150q9 33 9 49q0 28 -24.5 43.5t-89.5 15.5h-90z"/>
<glyph glyph-name="I" horiz-adv-x="834" unicode="I" d="M347 1479h669l-15 -75h-102q-51 0 -78 -21.5t-40 -72.5l-302 -1127q-4 -17 -4 -43q0 -32 23.5 -48.5t84.5 -16.5h124l-17 -75h-682l19 75h96q117 0 138 78l307 1169q4 13 4 25q0 27 -21 42t-72 15h-148z"/>
<glyph glyph-name="J" horiz-adv-x="1251" unicode="J" d="M773 1479h639l-13 -75h-81q-88 0 -109 -78l-241 -902q-65 -242 -178 -340q-138 -119 -365 -119q-180 0 -279.5 87.5t-99.5 229.5q0 139 70 221.5t171 82.5q71 0 115.5 -41t44.5 -101q0 -56 -35.5 -92t-91.5 -36q-42 0 -93 30q-32 18 -47 18q-23 0 -40.5 -26.5 t-17.5 -80.5q0 -88 73 -149t192 -61q132 0 218.5 77.5t127.5 231.5l257 956q4 15 4 30q0 31 -22 46.5t-79 15.5h-139z"/>
<glyph glyph-name="K" horiz-adv-x="1518" unicode="K" d="M331 1479h628l-17 -75h-106q-94 0 -114 -75l-173 -636l674 552q56 47 56 81q0 35 -27.5 56.5t-85.5 21.5h-59l17 75h596l-17 -75q-93 0 -151 -22.5t-147 -95.5l-494 -408l343 -728q36 -75 163 -75h80l-17 -75h-673l19 75h85q66 0 91.5 15.5t25.5 38.5q0 22 -16 55 l-265 560l-233 -191l-109 -403q-3 -9 -3 -19q0 -25 18 -38q26 -18 67 -18h148l-15 -75h-654l19 75h90q92 0 113 75l320 1179q2 9 2 19q0 25 -24 40.5t-81 15.5h-94z"/>
<glyph glyph-name="L" horiz-adv-x="1366" unicode="L" d="M339 1479h704l-17 -75h-123q-66 0 -93.5 -19.5t-42.5 -75.5l-302 -1137q-6 -23 -6 -38q0 -28 20 -43.5t66 -15.5h194q156 0 285 97.5t244 333.5h64l-145 -506h-1140l11 75h64q102 0 124 84l306 1150q5 19 5 37q0 28 -23.5 43t-84.5 15h-132z"/>
<glyph glyph-name="M" horiz-adv-x="1933" unicode="M" d="M360 1479h499l111 -1133l711 1133h457l-17 -75h-70q-64 0 -93.5 -19t-39.5 -56l-315 -1179q-3 -9 -3 -18q0 -25 22 -39q28 -18 87 -18h113l-18 -75h-651l17 75h98q60 0 88.5 20.5t41.5 69.5l324 1211l-863 -1376h-54l-140 1376l-277 -1030q-22 -82 -22 -119 q0 -47 22 -80.5t64.5 -52.5t123.5 -19l-20 -75h-556l19 75q97 4 165.5 61t91.5 143l280 1050q2 9 2 18q0 26 -23 41.5t-83 15.5h-113z"/>
<glyph glyph-name="N" horiz-adv-x="1669" unicode="N" d="M350 1479h419l515 -1135l229 869q7 25 7 50q0 67 -41.5 104t-122.5 37h-42l17 75h517l-18 -75q-171 -9 -216 -175l-330 -1229h-67l-581 1273l-254 -958q-18 -66 -18 -98q0 -46 20 -77t53 -43q62 -22 124 -22h34l-18 -75h-559l19 75q116 15 161 57.5t83 182.5l267 987 q3 9 3 17q0 35 -33 55q-48 30 -125 30h-58z"/>
<glyph glyph-name="O" horiz-adv-x="1593" unicode="O" d="M1042 1447q-119 0 -223 -55.5t-200 -191t-158.5 -347.5t-62.5 -414q0 -197 87.5 -297.5t242.5 -100.5q161 0 295.5 105t231.5 350q117 293 117 561q0 188 -90 289t-240 101zM1035 1517q245 0 403.5 -164t158.5 -427q0 -255 -121.5 -476.5t-328.5 -350t-424 -128.5 q-239 0 -397 164.5t-158 424.5q0 252 123 478t325 352.5t419 126.5z"/>
<glyph glyph-name="P" horiz-adv-x="1366" unicode="P" d="M592 743q107 -13 183 -13q231 0 342 108q124 122 124 327q0 120 -74 179.5t-261 59.5q-88 0 -117 -16.5t-39 -56.5zM333 1479h570q215 0 328.5 -43t173.5 -130t60 -197q0 -192 -141 -305q-182 -146 -517 -146q-79 0 -233 12l-137 -509q-4 -13 -4 -26q0 -28 22.5 -44 t74.5 -16h124l-18 -75h-639l18 75h76q103 0 123 71l316 1170q3 13 3 27q0 30 -22.5 45.5t-85.5 15.5h-111z"/>
<glyph glyph-name="Q" horiz-adv-x="1593" unicode="Q" d="M924 87q21 92 21 155q0 109 -50 167t-136 58q-97 0 -161.5 -65.5t-64.5 -164.5q0 -104 84 -173q56 -18 112 -18q45 0 93.5 10.5t101.5 30.5zM1091 212q114 118 201.5 362.5t87.5 478.5q0 196 -89.5 294t-247.5 98q-176 0 -323.5 -133t-230.5 -394.5t-83 -480.5 q0 -99 16.5 -159t57.5 -116q-7 57 -7 92q0 126 85.5 206.5t226.5 80.5q81 0 141 -33.5t101 -101t64 -194.5zM1108 75q8 -234 38 -295t78 -61q91 0 132 142l32 -8q-30 -132 -96.5 -189.5t-176.5 -57.5q-107 0 -162 63t-55 194q0 61 11 137q-49 -14 -94 -21.5t-87 -7.5 q-154 0 -282 75.5t-200 214t-72 310.5q0 239 125.5 467t326 353.5t416.5 125.5q247 0 405 -163.5t158 -426.5q0 -245 -122.5 -475t-374.5 -377z"/>
<glyph glyph-name="R" horiz-adv-x="1518" unicode="R" d="M632 802h200q160 0 254 44t135 117q57 100 57 219q0 108 -74.5 165t-246.5 57q-108 0 -140.5 -17t-45.5 -63zM328 1479h682q252 0 370.5 -94.5t118.5 -251.5q0 -119 -66 -199t-201 -128q-93 -33 -282 -54q107 -32 159 -81t73 -120q16 -54 16 -271q1 -126 15 -155 q14 -30 48 -30q73 0 145 179l53 -18q-97 -271 -290 -271q-89 0 -143.5 61.5t-54.5 183.5q0 64 14 146q17 104 17 141q0 113 -55.5 163.5t-190.5 50.5h-143l-157 -582q-2 -8 -2 -16q0 -27 19 -40q27 -18 76 -18h149l-17 -75h-679l18 75h122q78 0 98 74l317 1173q3 12 3 22 q0 27 -25 43.5t-79 16.5h-146z"/>
<glyph glyph-name="S" horiz-adv-x="1366" unicode="S" d="M1214 1354q38 27 110 93h68l-109 -511h-69q0 147 -27 233q-39 125 -130 195.5t-216 70.5q-141 0 -232 -81.5t-91 -200.5q0 -61 24.5 -108.5t72 -80t185.5 -82.5q196 -72 259 -105q100 -52 152.5 -135.5t52.5 -199.5q0 -130 -66.5 -237t-198.5 -173.5t-288 -66.5 q-116 0 -215.5 38t-201.5 127l-120 -97h-65l109 531h70q0 -193 48 -298t151.5 -166.5t226.5 -61.5q160 0 268.5 92.5t108.5 217.5q0 61 -27.5 112t-88.5 92q-43 30 -211 93q-204 77 -270 124.5t-102.5 121.5t-36.5 171q0 185 141.5 317t344.5 132q188 0 373 -157z"/>
<glyph glyph-name="T" horiz-adv-x="1403" unicode="T" d="M379 1479h1221l-129 -543h-75q29 138 29 224q0 132 -58.5 192.5t-181.5 60.5q-72 0 -98 -18.5t-41 -73.5l-312 -1163q-3 -10 -3 -21q0 -30 23 -46t77 -16h151l-20 -75h-729l19 75h139q60 0 89.5 20.5t40.5 62.5l310 1151q6 21 6 40q0 29 -24 46.5t-79 17.5 q-92 0 -174 -48t-162 -158q-47 -63 -155 -271h-70z"/>
<glyph glyph-name="U" horiz-adv-x="1669" unicode="U" d="M318 1479h661l-18 -75h-127q-36 0 -62.5 -20.5t-35.5 -53.5l-220 -813q-19 -70 -19 -142q0 -148 89.5 -234t249.5 -86q189 0 307 103q147 128 211 388l152 621q12 48 12 82q0 73 -44.5 114t-119.5 41h-47l17 75h533l-17 -75q-97 -2 -147 -45q-62 -53 -87 -152l-174 -690 q-51 -201 -136.5 -315.5t-206.5 -172.5t-295 -58q-253 0 -378 106t-125 292q0 114 36 250l189 702q3 15 3 34q0 23 -18 36t-58 13h-142z"/>
<glyph glyph-name="V" horiz-adv-x="1442" unicode="V" d="M214 1479h588l-16 -75h-70q-69 0 -95.5 -19t-26.5 -59q0 -34 9 -91l157 -983l576 932q44 71 44 124q0 47 -32.5 71.5t-104.5 24.5h-42l15 75h499l-16 -75q-135 -16 -207 -131l-808 -1308h-88l-218 1345q-8 52 -36.5 73t-94.5 21h-45z"/>
<glyph glyph-name="W" horiz-adv-x="1896" unicode="W" d="M255 1479h495l-17 -75h-62q-49 0 -68 -18.5t-19 -63.5v-12l77 -962l441 855q-4 142 -23 167q-26 34 -99 34h-88l17 75h598l-18 -75h-83q-56 0 -83 -20t-27 -52l1 -14l78 -970l467 914q17 33 17 64q0 36 -26.5 57t-75.5 21h-42l14 75h406l-14 -75q-62 -9 -101 -42 q-55 -47 -96 -128l-646 -1269h-69l-93 1084l-554 -1084h-68l-116 1336q-5 62 -27.5 80.5t-103.5 22.5z"/>
<glyph glyph-name="X" horiz-adv-x="1442" unicode="X" d="M264 1479h631l-13 -75h-54q-74 0 -102.5 -18t-28.5 -44q0 -17 11 -44l174 -410l336 355q37 38 37 82q0 37 -26.5 58t-80.5 21h-55l20 75h549l-19 -75h-42q-43 0 -105.5 -30t-106.5 -76l-469 -493l258 -607q32 -74 72 -97.5t155 -25.5l-16 -75h-625l12 75h52 q84 0 116.5 18.5t32.5 44.5q0 18 -11 44l-202 467l-325 -346q-75 -79 -75 -133q0 -40 35.5 -64.5t134.5 -30.5l-19 -75h-560l19 75q72 9 121 36q87 49 133 97l502 525l-236 553q-30 71 -68.5 94.5t-132.5 23.5h-40z"/>
<glyph glyph-name="Y" horiz-adv-x="1403" unicode="Y" d="M274 1479h577l-14 -75h-79q-68 0 -93 -15.5t-25 -40.5q0 -13 7 -28l239 -577l381 479q55 70 55 108q0 65 -169 74l24 75h455l-19 -75q-108 -15 -192 -121l-489 -615l-137 -516q-2 -8 -2 -17q0 -27 22 -41q29 -19 86 -19h110l-19 -75h-666l17 75h103q108 0 126 63l138 502 l-293 705q-25 59 -110 59h-51z"/>
<glyph glyph-name="Z" horiz-adv-x="1366" unicode="Z" d="M475 1479h988v-52l-1132 -1352h245q175 0 286.5 44t205 140.5t173.5 270.5l61 -25l-150 -505h-1104v43l1137 1361h-253q-186 0 -299 -83q-137 -101 -261 -350l-63 23z"/>
<glyph glyph-name="bracketleft" d="M492 1479h393l-20 -75h-151q-42 0 -65.5 -21t-38.5 -77l-396 -1498q-4 -16 -4 -32q0 -31 21.5 -48t68.5 -17h115l-17 -71h-392z" unicode="["/>
<glyph glyph-name="backslash" horiz-adv-x="1241" unicode="\" d="M653 1442l188 -1474h-134l-188 1474h134z"/>
<glyph glyph-name="bracketright" d="M351 1479h390l-494 -1839h-393l19 70h146q46 0 71.5 22.5t41.5 81.5l404 1510q2 9 2 19q0 28 -19.5 44.5t-58.5 16.5h-129z" unicode="]"/>
<glyph glyph-name="asciicircum" horiz-adv-x="1241" unicode="^" d="M735 1413l431 -727h-129l-319 558l-321 -558h-129l437 727h30z"/>
<glyph glyph-name="underscore" horiz-adv-x="1024" unicode="_" d="M-12 -154h1048v-102h-1048v102z"/>
<glyph glyph-name="grave" d="M719 1110l-22 -22l-310 183q-106 63 -106 128q0 31 24.5 56t54.5 25q48 0 97 -58z" unicode="`"/>
<glyph glyph-name="a" horiz-adv-x="1176" unicode="a" d="M610 886q-79 0 -159.5 -63.5t-142 -211.5t-61.5 -305q0 -124 51 -183.5t145 -59.5q84 0 156.5 59t143.5 231.5t71 306.5q0 96 -61 161t-143 65zM715 157q-60 -92 -139 -139t-156 -47q-149 0 -252 108.5t-103 275.5q0 152 80.5 297.5t206.5 229t245 83.5q96 0 169.5 -56.5 t99.5 -149.5l58 177l157 18l-219 -762q-9 -31 -9 -62q0 -28 11.5 -43t27.5 -15q30 0 68 41q74 79 139 212l58 -26q-157 -328 -321 -328q-53 0 -88 40.5t-35 104.5z"/>
<glyph glyph-name="b" horiz-adv-x="1139" unicode="b" d="M682 869q-75 0 -146 -60q-90 -75 -160.5 -239t-70.5 -312q0 -113 46 -167.5t129 -54.5q82 0 160.5 64t144.5 224.5t66 313.5q0 117 -46 174t-123 57zM638 1498l-204 -699q148 166 311 166q124 0 208 -93t84 -243q0 -174 -83 -330.5t-216.5 -242t-277.5 -85.5 q-146 0 -231 84t-85 224q0 81 24 162l256 884q3 10 3 20q0 27 -30.5 43t-120.5 16l18 75z"/>
<glyph glyph-name="c" horiz-adv-x="909" unicode="c" d="M762 246l50 -38q-96 -128 -193 -182.5t-206 -54.5q-144 0 -239.5 103.5t-95.5 270.5q0 157 81.5 306.5t209.5 231.5t261 82q112 0 176 -57.5t64 -149.5q0 -71 -33 -110.5t-82 -39.5q-42 0 -71.5 28.5t-29.5 68.5q0 68 72 90q38 12 38 35t-33.5 46.5t-85.5 23.5 q-86 0 -172.5 -66t-147 -208t-60.5 -302q0 -136 55 -202.5t146 -66.5q146 0 296 191z"/>
<glyph glyph-name="d" horiz-adv-x="1251" unicode="d" d="M640 880q-92 0 -179 -82t-146 -272q-45 -144 -45 -245q0 -102 50.5 -161t126.5 -59q89 0 177.5 85t145 255.5t56.5 271.5q0 95 -52 151t-134 56zM1247 1498l-370 -1280q-16 -55 -16 -94q0 -23 12.5 -36t34.5 -13q89 0 235 258l57 -28q-94 -182 -183 -258t-161 -76 q-65 0 -100 46.5t-39 139.5q-139 -186 -309 -186q-85 0 -160.5 45t-117.5 127.5t-42 184.5q0 155 83 314t202.5 241t241.5 82q84 0 151 -42t117 -127l150 531q3 11 3 20q0 26 -21 41.5t-65 15.5h-104l20 75z"/>
<glyph glyph-name="e" horiz-adv-x="909" unicode="e" d="M266 429q191 42 272 87t122.5 112t41.5 141q0 59 -30.5 92t-83.5 33q-96 0 -185.5 -109.5t-136.5 -355.5zM252 364q-5 -47 -5 -79q0 -110 53.5 -168.5t145.5 -58.5q72 0 142 37.5t175 150.5l46 -42q-189 -233 -400 -233q-144 0 -243 108t-99 276q0 148 83 290.5 t221.5 231t258.5 88.5q103 0 168.5 -59.5t65.5 -145.5q0 -73 -51.5 -145.5t-166 -129.5t-394.5 -121z"/>
<glyph glyph-name="f" d="M501 936h212l-23 -84h-210l-180 -760q-63 -265 -132 -428q-59 -16 -115 -38q-68 -26 -86 -26q-15 0 -15 15q0 11 29 74q76 167 118 289.5t92 334.5l129 539h-160l21 84h156q57 199 137.5 342.5t151 190t143.5 46.5q66 0 105 -36t39 -90q0 -48 -25.5 -77.5t-66.5 -29.5 q-33 0 -54.5 20.5t-34.5 76.5q-10 43 -38 43q-37 0 -66 -54q-57 -109 -127 -432z" unicode="f"/>
<glyph glyph-name="g" horiz-adv-x="1100" unicode="g" d="M413 18q-179 0 -252.5 -53.5t-73.5 -134.5q0 -73 67.5 -120t222.5 -47q199 0 297 73q76 56 76 132q0 63 -73.5 106.5t-263.5 43.5zM632 905q-104 0 -182 -90t-78 -222q0 -95 50.5 -149.5t131.5 -54.5q99 0 174 89t75 232q0 90 -48 142.5t-123 52.5zM784 936 q117 99 221 99q57 0 90.5 -28t33.5 -70q0 -36 -22 -59.5t-55 -23.5q-41 0 -68 45q-18 29 -29 37q-12 7 -32 7q-43 0 -83 -40q136 -91 136 -229q0 -140 -113.5 -242t-290.5 -102q-38 0 -104 8q-62 7 -94 7q-84 0 -128.5 -30t-44.5 -70q0 -22 15 -39.5t49 -25.5q23 -5 132 -10 q233 -11 322.5 -38t130.5 -79t41 -121q0 -81 -57.5 -157.5t-183.5 -125.5t-292 -49q-144 0 -242 32t-141 84.5t-43 103.5q0 65 61.5 117t208.5 102q-63 26 -94.5 64t-31.5 89q0 77 69 137.5t189 71.5q-138 84 -138 221q0 82 53 161t157.5 130.5t217.5 51.5q42 0 82 -7 t78 -22z"/>
<glyph glyph-name="h" horiz-adv-x="1251" unicode="h" d="M678 1498l-240 -828q206 295 405 295q90 0 145 -54.5t55 -147.5q0 -80 -31 -177l-126 -394q-13 -40 -13 -75q0 -22 11.5 -34.5t29.5 -12.5q41 0 88 49q74 78 134 217l59 -19q-63 -164 -156.5 -249.5t-175.5 -85.5q-65 0 -103 43.5t-38 125.5q0 40 15 87l126 398 q16 53 16 106q0 58 -28 89.5t-71 31.5q-54 0 -124 -48q-106 -74 -194 -208.5t-125 -270.5l-91 -336l-168 -10l381 1326q5 17 5 34q0 26 -25.5 40t-101.5 14h-58l21 75z"/>
<glyph glyph-name="i" d="M527 954l-222 -783q-9 -30 -9 -52q0 -25 11.5 -37.5t30.5 -12.5q36 0 85 46q81 77 157 216l53 -31q-73 -159 -174 -244t-182 -85q-54 0 -92 42.5t-38 111.5q0 68 22 144l148 511q4 13 4 25q0 27 -23 42q-31 20 -93 20h-63l20 69zM506 1475q46 0 77 -32.5t31 -80.5 q0 -47 -31 -78.5t-76 -31.5q-47 0 -79.5 32t-32.5 79q0 48 32 80t79 32z" unicode="i"/>
<glyph glyph-name="j" horiz-adv-x="645" unicode="j" d="M205 936l347 18l-201 -834q-66 -274 -188 -410q-99 -110 -215 -110q-72 0 -114 37t-42 94q0 48 29.5 78.5t73.5 30.5q35 0 56 -21t21 -53q0 -14 -2 -33l-2 -19q0 -19 8.5 -28t23.5 -9q36 0 62 47q59 105 127 384l162 661q4 18 4 35q0 31 -20 47t-60 16h-86zM498 1475 q46 0 78.5 -32.5t32.5 -78.5t-32.5 -78.5t-78.5 -32.5t-78.5 32.5t-32.5 78.5t32.5 78.5t78.5 32.5z"/>
<glyph glyph-name="k" horiz-adv-x="1139" unicode="k" d="M658 1494l-239 -835q132 173 236 239.5t198 66.5q88 0 144 -51.5t56 -123.5q0 -93 -94.5 -184.5t-306.5 -154.5q66 -29 95 -80q22 -38 37 -165q8 -70 16 -89q12 -28 35 -28q67 0 204 218l52 -30q-172 -295 -322 -295q-66 0 -105.5 50t-39.5 147v166q0 59 -35 81 q-40 -9 -60 -9q-33 0 -49.5 12.5t-16.5 32.5q0 18 13 28.5t39 10.5q11 0 38 -4q26 -4 44 -4q115 0 211 87t96 176q0 54 -32.5 87.5t-79.5 33.5q-74 0 -166 -70.5t-192 -236.5q-74 -123 -118 -276l-85 -294l-169 -9l383 1325q4 14 4 28q0 28 -23.5 44t-81.5 16h-66l17 75z "/>
<glyph glyph-name="l" d="M310 1479l374 19l-368 -1285q-19 -64 -19 -93q0 -28 10 -41t26 -13q83 0 222 259l56 -30q-163 -324 -332 -324q-60 0 -97 41t-37 114q0 56 29 159l296 1034q5 20 5 31q0 24 -22 37q-29 17 -92 17h-72z" unicode="l"/>
<glyph glyph-name="m" horiz-adv-x="1821" unicode="m" d="M1026 672q100 141 196 211.5t188 70.5q81 0 130.5 -50.5t49.5 -134.5q0 -86 -31 -182l-135 -422q-5 -16 -5 -33q0 -20 11.5 -32.5t29.5 -12.5q31 0 70 37q54 51 145 204l55 -34q-101 -179 -192 -256q-68 -56 -142 -56q-60 0 -95.5 41.5t-35.5 123.5q0 32 11 68l141 447 q15 44 15 86q0 45 -26.5 73t-66.5 28q-49 0 -108 -40q-88 -61 -150 -163q-95 -156 -130 -280l-106 -366l-167 -10l179 626q22 77 22 121q0 58 -24.5 85.5t-70.5 27.5q-54 0 -106 -36q-72 -50 -151.5 -178.5t-120.5 -269.5l-108 -366l-163 -10l221 784q4 15 4 29q0 29 -22 45 t-75 16h-52l20 72l322 18l-74 -292q180 292 378 292q84 0 129.5 -50t45.5 -150q0 -34 -6 -82z"/>
<glyph glyph-name="n" horiz-adv-x="1251" unicode="n" d="M526 954l-86 -325q230 326 430 326q77 0 125.5 -51.5t48.5 -140.5q0 -75 -34 -178l-107 -333l-26 -83q-6 -28 -6 -46q0 -21 12 -35.5t28 -14.5q43 0 110 66t120 199l62 -21q-65 -164 -163 -249.5t-183 -85.5q-59 0 -98.5 44t-39.5 113q0 58 23 127l118 363q20 60 20 117 q0 48 -25 76t-64 28q-89 0 -224.5 -147t-209.5 -404l-87 -299l-165 -8l221 778q5 18 5 35q0 30 -19 45q-26 19 -73 19h-89l19 67z"/>
<glyph glyph-name="o" horiz-adv-x="1024" unicode="o" d="M592 897q-75 0 -151.5 -63.5t-138 -222.5t-61.5 -318q0 -123 53 -189t135 -66q78 0 152 62t137 226.5t63 322.5q0 117 -53.5 182.5t-135.5 65.5zM588 965q154 0 261.5 -114.5t107.5 -290.5q0 -152 -76.5 -294.5t-196.5 -218.5t-249 -76q-154 0 -263.5 116.5t-109.5 291.5 q0 146 78 288.5t199.5 220t248.5 77.5z"/>
<glyph glyph-name="p" horiz-adv-x="1176" unicode="p" d="M729 874q-85 0 -177 -86.5t-148 -249t-56 -269.5q0 -97 50.5 -152.5t134.5 -55.5q83 0 160.5 64t143.5 223.5t66 313.5q0 98 -49.5 155t-124.5 57zM298 163l-108 -377q-7 -23 -7 -37q0 -27 22.5 -43.5t78.5 -16.5h62l-19 -74h-489l21 74h35q104 0 132 97l286 993 q4 12 4 25q0 29 -22.5 45.5t-74.5 16.5h-73l22 70l338 18l-51 -203q85 121 163 167.5t166 46.5q124 0 211.5 -99t87.5 -258q0 -160 -81.5 -315t-204 -238.5t-243.5 -83.5q-185 0 -256 192z"/>
<glyph glyph-name="q" horiz-adv-x="1139" unicode="q" d="M641 902q-75 0 -159.5 -70t-151 -225.5t-66.5 -311.5q0 -111 47.5 -168.5t123.5 -57.5t158 69t149.5 234.5t67.5 324.5q0 93 -48 149t-121 56zM1013 964h65l-338 -1180q-6 -21 -6 -38q0 -25 22 -41.5t65 -16.5h70l-22 -73h-484l22 73h41q102 0 129 96l103 358 q-79 -96 -149 -133.5t-151 -37.5q-134 0 -219.5 95t-85.5 254q0 163 83.5 316t220.5 241t270 88q81 0 139.5 -34.5t114.5 -123.5z"/>
<glyph glyph-name="r" horiz-adv-x="909" unicode="r" d="M275 0l-167 -13l179 642q29 103 29 141q0 48 -30.5 72.5t-99.5 24.5h-44l21 69l334 18l-94 -404q90 207 138 278t104 104t110 33q65 0 108.5 -42t43.5 -104q0 -58 -31.5 -93.5t-77.5 -35.5q-37 0 -63 26t-26 63q0 15 10 41q6 16 6 26q0 14 -7 21t-22 7q-27 0 -62 -29 q-66 -57 -130 -201q-116 -261 -164 -423z"/>
<glyph glyph-name="s" horiz-adv-x="909" unicode="s" d="M546 965q143 0 220 -58t77 -144q0 -55 -30.5 -89.5t-74.5 -34.5q-41 0 -69 28t-28 68q0 26 21 57q17 23 17 36q0 26 -33.5 47.5t-100.5 21.5q-104 0 -166.5 -54.5t-62.5 -131.5q0 -53 36 -85t191 -81q135 -42 187 -102q51 -61 51 -147q0 -131 -112 -228t-292 -97 q-155 0 -240 67.5t-85 167.5q0 61 33.5 98.5t81.5 37.5q43 0 71 -28t28 -69q0 -20 -7.5 -36t-32.5 -40q-22 -22 -22 -41q0 -34 45.5 -63t131.5 -29q110 0 179.5 58.5t69.5 139.5q0 58 -37 95q-38 37 -163 77q-150 48 -198 101q-49 53 -49 133q0 130 106 227.5t257 97.5z"/>
<glyph glyph-name="t" horiz-adv-x="721" unicode="t" d="M433 1259h164l-95 -323h172l-21 -84h-174l-175 -614q-15 -52 -15 -92q0 -38 16 -57.5t40 -19.5q103 0 252 259l56 -31q-173 -326 -369 -326q-73 0 -115 44.5t-42 115.5q0 61 20 130l169 591h-183l25 84h182z"/>
<glyph glyph-name="u" horiz-adv-x="1251" unicode="u" d="M552 954l-199 -617q-32 -100 -32 -163q0 -46 25.5 -72.5t68.5 -26.5q87 0 216.5 130.5t212.5 383.5l113 347h162l-239 -740q-16 -49 -16 -84q0 -26 11.5 -39t33.5 -13q90 0 229 260l57 -20q-78 -173 -170 -251t-175 -78q-60 0 -95 36.5t-35 100.5q0 53 23 149 q-126 -164 -221 -225t-180 -61q-87 0 -138 49.5t-51 129.5q0 66 43 198l135 422q5 16 5 31q0 27 -24 43q-32 20 -92 20h-55l20 72z"/>
<glyph glyph-name="v" horiz-adv-x="1063" unicode="v" d="M140 867l20 69l347 18l-130 -457q-41 -147 -41 -244q0 -94 42 -144t104 -50q79 0 168 72t164 233t75 303q0 41 -9 64t-37 52q-38 41 -47 57t-9 37q0 38 24 63t58 25q46 0 80.5 -51.5t34.5 -150.5q0 -153 -63 -334q-82 -235 -232 -358q-120 -100 -250 -100 q-111 0 -185.5 83.5t-74.5 227.5q0 98 42 240l77 263q4 12 4 24q0 27 -26 40q-37 18 -136 18z"/>
<glyph glyph-name="w" horiz-adv-x="1593" unicode="w" d="M749 268q-106 -162 -208.5 -229.5t-196.5 -67.5q-85 0 -142.5 57.5t-57.5 144.5q0 48 28 128l13 39l142 434q4 12 4 24q0 29 -28.5 47.5t-94.5 18.5h-35l24 72l346 18l-216 -671q-19 -57 -19 -111q0 -50 27.5 -79t70.5 -29q98 0 202 120q135 154 221 458l84 294h162 l-137 -477q-13 -46 -30 -133l-5 -35q-2 -23 -2 -48q0 -92 34.5 -134.5t92.5 -42.5q71 0 155 70t157.5 230.5t73.5 292.5q0 37 -9.5 61.5t-44.5 67.5q-38 47 -45 60.5t-7 28.5q0 33 26.5 60.5t58.5 27.5q41 0 76.5 -50.5t35.5 -138.5q0 -160 -64 -350q-78 -231 -210 -343 t-262 -112q-71 0 -122 31t-73 83t-25 183z"/>
<glyph glyph-name="x" horiz-adv-x="1024" unicode="x" d="M578 614q126 201 161 243q51 63 94.5 85.5t86.5 22.5q55 0 88 -31.5t33 -84.5q0 -51 -26.5 -81t-67.5 -30q-50 0 -77 58q-18 37 -40 37q-23 0 -47 -26t-184 -281l71 -317q15 -69 33.5 -90t45.5 -21q79 0 203 198l49 -28q-89 -160 -175.5 -228.5t-150.5 -68.5 q-69 0 -102.5 48.5t-89.5 320.5q-135 -243 -214 -317q-56 -52 -132 -52q-60 0 -97 36.5t-37 91.5q0 44 28 73.5t68 29.5q30 0 50.5 -14t34.5 -51q12 -31 19.5 -38.5t19.5 -7.5q22 0 43 25q45 53 195 309l-72 330q-8 38 -25 56.5t-44 18.5q-76 0 -156 -191l-51 30 q70 171 137.5 233.5t136.5 62.5q65 0 101 -50.5t90 -300.5z"/>
<glyph glyph-name="y" horiz-adv-x="1024" unicode="y" d="M623 238q104 158 163 306q38 93 38 159q0 28 -14 89q-11 49 -11 74q0 43 25.5 71t61.5 28q38 0 62 -27.5t24 -76.5q0 -48 -36 -149q-49 -138 -134 -287l-235 -412q-79 -139 -182 -254q-75 -83 -153.5 -121t-139.5 -38q-76 0 -126.5 42t-50.5 101q0 48 31 81.5t72 33.5 q38 0 65.5 -27.5t27.5 -63.5l-2 -35l-1 -12q0 -17 12 -27q12 -11 33 -11q56 0 127 63q110 97 219 285l-65 340q-55 287 -113 396q-34 62 -63 62q-53 0 -116 -183l-61 25q57 160 132 238q54 57 112 57q60 0 95 -53q51 -75 121 -352z"/>
<glyph glyph-name="z" horiz-adv-x="948" unicode="z" d="M162 188q133 21 182 21q38 0 75 -8q25 -5 84 -29q70 -28 94.5 -34t52.5 -6q56 0 100.5 36.5t96.5 145.5l48 -33q-63 -148 -158.5 -229t-173.5 -81q-37 0 -80.5 12t-154.5 60q-102 44 -132.5 54t-73.5 17q-10 -27 -15 -62q-7 -54 -17 -67.5t-32 -13.5t-32.5 10t-10.5 31 q0 38 22.5 96t77.5 129.5t127.5 130.5t219.5 144q197 114 265 168t98 100q-67 -23 -134 -23q-51 0 -164 32q-110 32 -156 32q-60 0 -104 -32t-94 -127l-51 30q72 142 158.5 207.5t170.5 65.5q38 0 79.5 -9.5t116.5 -41.5q118 -50 161 -50q63 0 80 69q9 32 25 32 q15 0 28 -12.5t13 -28.5q0 -54 -54 -138q-86 -135 -232 -250q-86 -68 -291 -185q-124 -70 -158 -97.5t-57 -65.5z"/>
<glyph glyph-name="braceleft" d="M500 -363l-10 -36q-135 18 -213.5 104t-78.5 203q0 47 15.5 100t66.5 162q49 103 59 135t10 60q0 66 -47 113.5t-134 59.5l11 42q97 12 169.5 61.5t105 113.5t37.5 200q4 129 36.5 212t102 157.5t163.5 124t211 68.5l-10 -38q-109 -24 -175.5 -71.5t-100.5 -115.5 t-39 -186q-5 -123 -17 -170q-19 -80 -70.5 -152.5t-136.5 -129.5t-196 -93q103 -41 160 -117.5t57 -163.5q0 -42 -13.5 -90.5t-59.5 -142.5q-53 -111 -66 -152t-13 -75q0 -140 176 -183z" unicode="{"/>
<glyph glyph-name="bar" horiz-adv-x="1241" unicode="|" d="M650 1479h134v-1864h-134v1864z"/>
<glyph glyph-name="braceright" d="M-169 -363q115 25 189.5 84t102.5 142q17 49 24 184q8 146 49.5 228.5t140.5 162.5t230 123q-110 43 -164.5 115.5t-54.5 161.5q0 43 16 96.5t75 171.5q60 123 60 190q0 139 -175 183l10 38q143 -24 217.5 -106.5t74.5 -197.5q0 -52 -15.5 -107.5t-64.5 -150.5 q-70 -140 -70 -198q0 -70 46 -117.5t135 -59.5l-12 -42q-99 -13 -176 -67t-108 -127q-17 -41 -25 -174q-10 -161 -47 -241q-60 -129 -191 -219t-277 -109z" unicode="}"/>
<glyph glyph-name="asciitilde" horiz-adv-x="1241" unicode="~" d="M1212 849h53q-3 -144 -77.5 -226.5t-185.5 -82.5q-51 0 -108 16.5t-271 105.5q-152 63 -217 63q-149 0 -183 -183h-53q8 153 79 231t174 78q52 0 108 -17q104 -30 279 -106q94 -41 150 -57q32 -8 69 -8q74 0 123.5 47.5t59.5 138.5z"/>
<glyph glyph-name="nbspace" horiz-adv-x="588" unicode=" "/>
<glyph glyph-name="exclamdown" d="M402 729h64l-129 -526q-26 -123 -59 -345q-24 -165 -53 -211.5t-93 -46.5q-45 0 -76 31.5t-31 79.5q0 31 11.5 68.5t80.5 192.5q179 407 285 757zM516 894q-51 0 -86.5 36t-35.5 88q0 51 35.5 87.5t86.5 36.5q50 0 85.5 -36t35.5 -88t-35.5 -88t-85.5 -36z" unicode="¡"/>
<glyph glyph-name="cent" horiz-adv-x="1139" unicode="¢" d="M712 882q-113 -32 -199 -177q-101 -171 -101 -391q0 -145 78 -216zM891 1517h69l-156 -563q93 0 153 -57t60 -147q0 -67 -32.5 -106t-80.5 -39q-42 0 -72.5 28t-30.5 66q0 63 62 86q33 12 41 20t8 22q0 25 -31.5 45.5t-93.5 21.5l-237 -830q40 -13 72 -13q143 0 287 188 l51 -35q-171 -236 -393 -236l-43 2l-119 -398h-70l122 410q-109 41 -170.5 133.5t-61.5 215.5q0 121 56.5 266t183 243t270.5 114z"/>
<glyph glyph-name="sterling" horiz-adv-x="1139" unicode="£" d="M386 181q-64 60 -106.5 80.5t-85.5 20.5q-58 0 -91 -33t-33 -89q0 -55 30 -86t83 -31q111 0 203 138zM603 750h326l-22 -83h-304q-3 -230 -75 -415q86 -53 141 -71t108 -18q90 0 154 40t120 142l66 -25q-95 -196 -192 -272.5t-198 -76.5q-58 0 -122 32q-42 21 -121 93 l-34 29q-123 -154 -262 -154q-92 0 -144 52.5t-52 147.5q0 96 59.5 152t158.5 56q101 0 225 -79q15 63 15 132q0 130 -22 235h-302l23 83h268q-21 142 -21 194q0 193 138.5 331t333.5 138q166 0 243 -95t77 -207q0 -82 -38.5 -127.5t-97.5 -45.5q-52 0 -86.5 35t-34.5 91 q0 34 12 58t46 53q29 25 35 34.5t6 24.5q0 48 -36.5 76.5t-112.5 28.5q-134 0 -213 -98t-79 -306q0 -64 14 -185z"/>
<glyph glyph-name="currency" horiz-adv-x="1241" unicode="¤" d="M622 1001q-137 0 -233.5 -96.5t-96.5 -233.5q0 -136 96.5 -232.5t233.5 -96.5t233.5 96.5t96.5 232.5q0 137 -97 233.5t-233 96.5zM126 1076l90 91l131 -130q62 47 130 70t142 23q148 0 277 -93l130 130l90 -91l-130 -130q93 -131 93 -279q0 -150 -93 -269l130 -129 l-90 -90l-130 129q-65 -47 -135 -70.5t-144 -23.5q-149 0 -270 94l-131 -129l-90 90l131 129q-92 143 -92 281q0 139 92 267z"/>
<glyph glyph-name="yen" horiz-adv-x="1139" unicode="¥" d="M811 696h415l-13 -74h-468l-59 -228h466l-14 -74h-470l-43 -167q-6 -24 -6 -32q0 -21 18 -31q25 -15 80 -15h94l-15 -75h-613l19 75h104q57 0 79.5 16t34.5 62l44 167h-435l14 74h439l57 228h-451l14 74h413l-215 571q-21 56 -98 56h-54l17 70h552l-15 -70h-92 q-60 0 -80.5 -13t-20.5 -35q0 -14 6 -32l202 -547l329 477q32 46 32 73q0 66 -170 77l22 70h431l-18 -70q-96 -12 -156 -100z"/>
<glyph glyph-name="brokenbar" horiz-adv-x="1241" unicode="¦" d="M650 434h134v-819h-134v819zM650 1479h134v-820h-134v820z"/>
<glyph glyph-name="section" horiz-adv-x="1024" unicode="§" d="M542 883q-100 -50 -136.5 -104t-36.5 -129q0 -56 27 -120.5t172 -297.5q92 43 130 97t38 129q0 62 -30.5 137t-163.5 288zM590 187q71 -124 71 -238q0 -151 -100 -250t-259 -99q-117 0 -181 50t-64 125q0 54 32.5 90.5t76.5 36.5t76 -31.5t32 -73.5q0 -40 -38 -65 q-32 -20 -32 -33q0 -16 23 -29.5t77 -13.5q110 0 170.5 56.5t60.5 150.5q0 54 -18 101t-90 155q-136 205 -168.5 283t-32.5 153q0 115 65 205t226 167q-41 78 -55.5 128.5t-14.5 105.5q0 156 99 256.5t253 100.5q126 0 190.5 -49.5t64.5 -126.5q0 -58 -32 -93.5t-79 -35.5 q-44 0 -74.5 29t-30.5 71q0 46 45 74q24 15 24 29q0 15 -20 26q-30 15 -87 15q-106 0 -167 -58t-61 -151q0 -49 22 -104.5t108 -181.5q110 -162 144 -245.5t34 -158.5q0 -117 -63.5 -205t-226.5 -166z"/>
<glyph glyph-name="dieresis" d="M748 1382q42 0 72 -30.5t30 -75.5q0 -44 -30 -75t-73 -31t-74 31t-31 75t31 75t75 31zM351 1382q43 0 73 -30.5t30 -73.5q0 -45 -30 -75.5t-73 -30.5t-74 30.5t-31 74.5q0 43 30.5 74t74.5 31z" unicode="¨"/>
<glyph glyph-name="copyright" horiz-adv-x="1530" unicode="©" d="M1217 1155l20 -283h-40q-72 239 -308 239q-147 0 -235.5 -102t-88.5 -300q0 -203 91 -307t243 -104q199 0 318 164l38 -19q-140 -206 -390 -206q-132 0 -240 59.5t-168.5 165t-60.5 229.5q0 193 143 329t356 136q79 0 194 -38q25 -8 37 -8q17 0 28 8.5t22 36.5h41z M861 1350q-176 0 -328.5 -88t-240.5 -240.5t-88 -328.5t88 -328.5t240.5 -240.5t328.5 -88t328.5 88t240.5 240.5t88 328.5q0 177 -88 329t-240.5 240t-328.5 88zM861 1413q193 0 360 -96.5t263.5 -263.5t96.5 -360q0 -192 -96.5 -359t-263.5 -263.5t-360 -96.5 q-192 0 -359 96.5t-263.5 263.5t-96.5 359q0 193 96.5 360t263.5 263.5t359 96.5z"/>
<glyph glyph-name="ordfeminine" horiz-adv-x="864" unicode="ª" d="M619 1453q-69 0 -125 -87q-84 -129 -84 -278q0 -60 21 -87t60 -27q41 0 82.5 36.5t86.5 146.5t45 186q0 48 -26.5 79t-59.5 31zM636 997q-79 -90 -168 -90q-84 0 -141.5 60.5t-57.5 155.5q0 150 109.5 272t227.5 122q45 0 77.5 -18.5t65.5 -70.5l25 70l127 14l-146 -469 q-6 -18 -6 -34q0 -28 16 -28q15 0 38 25q47 50 88 131l58 -24q-106 -206 -222 -206q-80 0 -91 90z"/>
<glyph glyph-name="guillemotleft" horiz-adv-x="872" unicode="«" d="M862 985h86l-227 -446l53 -405h-80l-153 426zM418 985h83l-225 -450l57 -401h-83l-154 427z"/>
<glyph glyph-name="logicalnot" horiz-adv-x="1241" unicode="¬" d="M165 1001h1104v-608h-132v474h-972v134z"/>
<glyph glyph-name="registered" horiz-adv-x="1530" unicode="®" d="M704 713h30q134 0 196.5 50t62.5 135q0 81 -58 136.5t-145 55.5q-39 0 -86 -15v-362zM463 1136h391q143 0 222.5 -65t79.5 -164q0 -85 -56 -141t-169 -83l212 -303q37 -52 62.5 -69t59.5 -19v-34h-186l-298 411h-77v-289q0 -51 22.5 -69.5t96.5 -18.5v-34h-372v34 q49 0 69.5 12t30.5 36q6 15 6 92v568q0 58 -19.5 78t-74.5 21v37zM861 1350q-176 0 -328.5 -88t-240.5 -240.5t-88 -328.5t88 -328.5t240.5 -240.5t328.5 -88t328.5 88t240.5 240.5t88 328.5q0 177 -88 329t-240.5 240t-328.5 88zM861 1413q193 0 360 -96.5t263.5 -263.5 t96.5 -360q0 -192 -96.5 -359t-263.5 -263.5t-360 -96.5q-192 0 -359 96.5t-263.5 263.5t-96.5 359q0 193 96.5 360t263.5 263.5t359 96.5z"/>
<glyph glyph-name="overscore" horiz-adv-x="1024" unicode="¯" d="M290 1694h1048v-102h-1048v102z"/>
<glyph glyph-name="degree" horiz-adv-x="819" unicode="°" d="M567 1298q-79 0 -135 -56t-56 -135t56 -135t135 -56t135 56t56 135t-56 135t-135 56zM566 1414q130 0 221 -91.5t91 -220.5t-91 -220.5t-221 -91.5q-129 0 -220 91.5t-91 220.5t91 220.5t220 91.5z"/>
<glyph glyph-name="plusminus" horiz-adv-x="1124" unicode="±" d="M23 141v81h498v418h-498v82h498v497h80v-497h500v-82h-500v-418h501l-1 -81h-1078z"/>
<glyph glyph-name="twosuperior" d="M275 816h264q39 0 59.5 17t45.5 77h49l-70 -207h-477l23 77q139 127 240 202q138 102 171 150t33 103q0 57 -36.5 93.5t-95.5 36.5q-52 0 -87 -26.5t-35 -55.5q0 -21 33 -39q42 -23 42 -57q0 -30 -20.5 -50.5t-52.5 -20.5q-37 0 -63 30.5t-26 78.5q0 74 71.5 131 t190.5 57q103 0 161.5 -53.5t58.5 -137.5q0 -47 -21.5 -89t-69 -81t-161.5 -95q-147 -71 -227 -141z" unicode="²"/>
<glyph glyph-name="threesuperior" d="M556 1057q71 -26 106 -68.5t35 -102.5q0 -88 -71.5 -145.5t-205.5 -57.5q-115 0 -178 49.5t-63 117.5q0 44 23.5 71.5t57.5 27.5q29 0 47.5 -19t18.5 -49q0 -31 -28 -58q-19 -18 -19 -30q0 -21 25 -38q35 -22 84 -22q73 0 119 50t46 143q0 52 -27 79q-28 27 -76 27 l-36 -2l-31 -3q-24 0 -33 6.5t-9 18.5q0 31 34 31l22 -1l29 -1q102 0 151 46q49 45 49 130q0 49 -29 79t-73 30t-76 -21q-25 -16 -25 -32q0 -7 11 -24q14 -24 14 -45q0 -29 -17.5 -47.5t-43.5 -18.5q-32 0 -54.5 23.5t-22.5 59.5q0 56 66.5 104t178.5 48q98 0 153.5 -47.5 t55.5 -120.5q0 -74 -52 -121t-156 -67z" unicode="³"/>
<glyph glyph-name="acute" d="M384 1088l-22 23l232 275q80 95 123 95q31 0 56 -25t25 -55q0 -66 -104 -128z" unicode="´"/>
<glyph glyph-name="mu1" horiz-adv-x="1180" unicode="µ" d="M365 881h152l-147 -510q-33 -115 -37.5 -136.5t-4.5 -45.5q0 -60 27 -89.5t71 -29.5q43 0 116 54t173 216q23 50 55 161l111 380h151l-167 -578l-28 -95q-5 -29 -5 -56q0 -40 16.5 -59.5t41.5 -19.5q28 0 55 22q36 30 81 120h36q-28 -87 -117.5 -163t-135.5 -76 q-54 0 -92.5 39.5t-38.5 107.5q0 30 5 79q-78 -114 -165.5 -170t-156.5 -56q-61 0 -105 30q-28 20 -57 78q-28 -93 -38.5 -149.5t-23.5 -207.5q-9 -97 -38.5 -132.5t-70.5 -35.5q-33 0 -50 19q-24 26 -24 59q0 24 9.5 50t67.5 138q33 64 62 142.5t78 247.5z"/>
<glyph glyph-name="paragraph" horiz-adv-x="1331" unicode="¶" d="M1169 1479v-41h-42q-55 0 -78 -15.5t-32.5 -47t-9.5 -146.5v-1614h-75v1805h-193v-1805h-76v1080q-198 8 -294 51t-150 133t-54 210t49 195q64 100 163 147.5t255 47.5h537z"/>
<glyph glyph-name="middot" d="M653 840q42 0 72 -30.5t30 -74.5q0 -45 -30 -75.5t-73 -30.5t-74 31t-31 75q0 43 31 74t75 31z" unicode="·"/>
<glyph glyph-name="cedilla" d="M148 12h52l-38 -45q113 -51 113 -148q0 -53 -32 -91q-43 -52 -131.5 -84.5t-250.5 -41.5l20 77q128 7 179.5 38t51.5 68q0 24 -16 41.5t-72 42.5z" unicode="¸"/>
<glyph glyph-name="onesuperior" d="M394 1347q135 15 240 67h36l-168 -602q-6 -21 -6 -33q0 -26 36 -26h77l-9 -50h-365l14 50h55q63 0 76 50l122 445l1 11q0 21 -13 32.5t-41 11.5h-69z" unicode="¹"/>
<glyph glyph-name="ordmasculine" horiz-adv-x="762" unicode="º" d="M595 1463q-46 0 -92.5 -38.5t-85 -132t-38.5 -185.5q0 -70 31.5 -108.5t79.5 -38.5q47 0 92.5 38t85 135t39.5 188q0 67 -31.5 104.5t-80.5 37.5zM593 1517q107 0 179.5 -72t72.5 -178q0 -143 -105.5 -251.5t-246.5 -108.5q-107 0 -180.5 73t-73.5 179q0 138 108 248 t246 110z"/>
<glyph glyph-name="guillemotright" horiz-adv-x="872" unicode="»" d="M613 985h85l152 -425l-318 -426h-85l226 455zM174 985h79l154 -424l-321 -427h-86l228 449z"/>
<glyph glyph-name="onequarter" horiz-adv-x="1706" unicode="¼" d="M394 1347q135 15 240 67h36l-168 -602q-6 -21 -6 -33q0 -26 36 -26h77l-9 -50h-365l14 50h55q63 0 76 50l122 445l1 11q0 21 -13 32.5t-41 11.5h-69zM1347 1394h87l-957 -1394h-85zM1352 514l-297 -273h223zM976 249l503 460h43l-126 -468h94l-17 -63h-98l-23 -79 q-2 -8 -2 -17q0 -17 9 -24q13 -10 37 -10h41l-13 -48h-320l10 48h37q45 0 70 26.5t40 103.5h-304z"/>
<glyph glyph-name="onehalf" horiz-adv-x="1706" unicode="½" d="M394 1347q135 15 240 67h36l-168 -602q-6 -21 -6 -33q0 -26 36 -26h77l-9 -50h-365l14 50h55q63 0 76 50l122 445l1 11q0 21 -13 32.5t-41 11.5h-69zM1347 1394h87l-957 -1394h-85zM1138 113h264q39 0 59.5 17t45.5 77h49l-70 -207h-477l23 77q139 127 240 202 q138 102 171 150t33 103q0 57 -36.5 93.5t-95.5 36.5q-52 0 -87 -26.5t-35 -55.5q0 -21 33 -39q42 -23 42 -57q0 -30 -20.5 -50.5t-52.5 -20.5q-37 0 -63 30.5t-26 78.5q0 74 71.5 131t190.5 57q103 0 161.5 -53.5t58.5 -137.5q0 -47 -21.5 -89t-69 -81t-161.5 -95 q-147 -71 -227 -141z"/>
<glyph glyph-name="threequarters" horiz-adv-x="1706" unicode="¾" d="M556 1057q71 -26 106 -68.5t35 -102.5q0 -88 -71.5 -145.5t-205.5 -57.5q-115 0 -178 49.5t-63 117.5q0 44 23.5 71.5t57.5 27.5q29 0 47.5 -19t18.5 -49q0 -31 -28 -58q-19 -18 -19 -30q0 -21 25 -38q35 -22 84 -22q73 0 119 50t46 143q0 52 -27 79q-28 27 -76 27 l-36 -2l-31 -3q-24 0 -33 6.5t-9 18.5q0 31 34 31l22 -1l29 -1q102 0 151 46q49 45 49 130q0 49 -29 79t-73 30t-76 -21q-25 -16 -25 -32q0 -7 11 -24q14 -24 14 -45q0 -29 -17.5 -47.5t-43.5 -18.5q-32 0 -54.5 23.5t-22.5 59.5q0 56 66.5 104t178.5 48q98 0 153.5 -47.5 t55.5 -120.5q0 -74 -52 -121t-156 -67zM1369 1394h87l-957 -1394h-85zM1352 514l-297 -273h223zM976 249l503 460h43l-126 -468h94l-17 -63h-98l-23 -79q-2 -8 -2 -17q0 -17 9 -24q13 -10 37 -10h41l-13 -48h-320l10 48h37q45 0 70 26.5t40 103.5h-304z"/>
<glyph glyph-name="questiondown" horiz-adv-x="909" unicode="¿" d="M397 476l-54 31q43 121 101 170.5t131 49.5q79 0 129 -54.5t50 -149.5q0 -59 -23.5 -118.5t-75.5 -123t-188 -177.5q-144 -122 -174.5 -168.5t-30.5 -101.5q0 -68 48.5 -115.5t121.5 -47.5q112 0 196 88.5t84 215.5q0 32 -8 75l59 12q13 -50 13 -88q0 -96 -48 -184 t-128 -136t-171 -48q-118 0 -197 80t-79 203q0 72 25 132.5t81 117.5t188 141q124 77 169.5 141.5t45.5 129.5q0 48 -29.5 80t-68.5 32q-99 0 -167 -187zM661 901q-50 0 -85 35.5t-35 85.5q0 51 35 87t85 36q51 0 86.5 -36t35.5 -86q0 -51 -35.5 -86.5t-86.5 -35.5z"/>
<glyph glyph-name="Agrave" horiz-adv-x="1442" unicode="À" d="M873 1175l-383 -604h466zM961 1479h81l180 -1304q7 -52 41.5 -76t106.5 -24h50l-20 -75h-600l20 75h53q86 0 112.5 18t26.5 56q0 15 -3 35l-41 299h-534l-131 -206q-35 -55 -35 -110q0 -44 32.5 -68t105.5 -24h49l-21 -75h-526l20 75q80 6 138 45t118 133zM1232 1614 l-22 -22l-310 183q-106 63 -106 128q0 31 24.5 56t54.5 25q48 0 97 -58z"/>
<glyph glyph-name="Aacute" horiz-adv-x="1442" unicode="Á" d="M873 1175l-383 -604h466zM961 1479h81l180 -1304q7 -52 41.5 -76t106.5 -24h50l-20 -75h-600l20 75h53q86 0 112.5 18t26.5 56q0 15 -3 35l-41 299h-534l-131 -206q-35 -55 -35 -110q0 -44 32.5 -68t105.5 -24h49l-21 -75h-526l20 75q80 6 138 45t118 133zM897 1592 l-22 23l232 275q80 95 123 95q31 0 56 -25t25 -55q0 -66 -104 -128z"/>
<glyph glyph-name="Acircumflex" horiz-adv-x="1442" unicode="Â" d="M873 1175l-383 -604h466zM961 1479h81l180 -1304q7 -52 41.5 -76t106.5 -24h50l-20 -75h-600l20 75h53q86 0 112.5 18t26.5 56q0 15 -3 35l-41 299h-534l-131 -206q-35 -55 -35 -110q0 -44 32.5 -68t105.5 -24h49l-21 -75h-526l20 75q80 6 138 45t118 133zM1025 1945h95 l203 -329h-35l-230 182l-297 -182h-45z"/>
<glyph glyph-name="Atilde" horiz-adv-x="1442" unicode="Ã" d="M873 1175l-383 -604h466zM961 1479h81l180 -1304q7 -52 41.5 -76t106.5 -24h50l-20 -75h-600l20 75h53q86 0 112.5 18t26.5 56q0 15 -3 35l-41 299h-534l-131 -206q-35 -55 -35 -110q0 -44 32.5 -68t105.5 -24h49l-21 -75h-526l20 75q80 6 138 45t118 133zM695 1668 q7 117 58.5 173.5t130.5 56.5q69 0 198 -48q107 -41 155 -41q78 0 99 87h34q-4 -109 -57.5 -167.5t-137.5 -58.5q-30 0 -72.5 10t-169.5 55q-71 25 -106 25q-82 0 -97 -92h-35z"/>
<glyph glyph-name="Adieresis" horiz-adv-x="1442" unicode="Ä" d="M873 1175l-383 -604h466zM961 1479h81l180 -1304q7 -52 41.5 -76t106.5 -24h50l-20 -75h-600l20 75h53q86 0 112.5 18t26.5 56q0 15 -3 35l-41 299h-534l-131 -206q-35 -55 -35 -110q0 -44 32.5 -68t105.5 -24h49l-21 -75h-526l20 75q80 6 138 45t118 133zM1249 1885 q42 0 72 -30.5t30 -75.5q0 -44 -30 -75t-73 -31t-74 31t-31 75t31 75t75 31zM852 1885q43 0 73 -30.5t30 -73.5q0 -45 -30 -75.5t-73 -30.5t-74 30.5t-31 74.5q0 43 30.5 74t74.5 31z"/>
<glyph glyph-name="Aring" horiz-adv-x="1442" unicode="Å" d="M873 1175l-383 -604h466zM961 1479h81l180 -1304q7 -52 41.5 -76t106.5 -24h50l-20 -75h-600l20 75h53q86 0 112.5 18t26.5 56q0 15 -3 35l-41 299h-534l-131 -206q-35 -55 -35 -110q0 -44 32.5 -68t105.5 -24h49l-21 -75h-526l20 75q80 6 138 45t118 133zM1027 1880 q-52 0 -88.5 -36.5t-36.5 -88.5q0 -51 36.5 -87.5t88.5 -36.5q51 0 87.5 36.5t36.5 87.5q0 52 -36.5 88.5t-87.5 36.5zM1027 1948q79 0 135 -56t56 -136t-56 -136t-135 -56t-135 56t-56 136q0 79 57 135.5t134 56.5z"/>
<glyph glyph-name="AE" horiz-adv-x="1782" unicode="Æ" d="M1103 1392l-611 -791h390zM763 1479h1218l-104 -474h-71q13 95 13 146q0 132 -64.5 192.5t-193.5 60.5h-142q-56 0 -81.5 -15.5t-33.5 -47.5l-151 -542h27q147 0 230.5 59t135.5 204h71l-190 -669h-73q25 83 25 137q0 63 -22.5 106.5t-62 67t-103.5 23.5h-58l-149 -547 q-8 -28 -8 -50q0 -26 17 -38q24 -17 68 -17h175q164 0 283.5 93t216.5 330h76l-143 -498h-1154l22 75h93q110 0 133 81l97 359h-433l-217 -282q-45 -59 -45 -99q0 -28 19.5 -43.5t58.5 -15.5h45l-20 -75h-387l20 75q64 20 110.5 55.5t107.5 115.5l814 1059q18 24 18 54 q0 21 -19.5 33t-71.5 12h-117z"/>
<glyph glyph-name="Ccedilla" horiz-adv-x="1479" unicode="Ç" d="M1374 1348l105 99h67l-108 -541h-64q-1 167 -29 262q-38 133 -122.5 204.5t-206.5 71.5q-152 0 -289 -120t-226 -383q-75 -226 -75 -441q0 -216 108 -332t290 -116q158 0 287 98.5t209 299.5l64 -25q-81 -209 -206 -315q-164 -139 -395 -139q-257 0 -426 170.5 t-169 430.5q0 244 122 475t305 349.5t390 118.5q100 0 186 -37.5t183 -129.5zM796 12h52l-38 -45q113 -51 113 -148q0 -53 -32 -91q-43 -52 -131.5 -84.5t-250.5 -41.5l20 77q128 7 179.5 38t51.5 68q0 24 -16 41.5t-72 42.5z"/>
<glyph glyph-name="Egrave" horiz-adv-x="1479" unicode="È" d="M350 1479h1181l-114 -477h-71q17 96 17 156q0 126 -68 186t-216 60h-205q-42 0 -64 -21.5t-41 -93.5l-131 -489h104q237 0 317 264h75l-179 -670h-73q21 92 21 135q0 97 -50 147.5t-141 50.5h-92l-148 -558q-5 -17 -5 -33q0 -29 16 -42q24 -19 60 -19h235 q183 0 317 101.5t232 337.5h72l-157 -514h-1204l9 75h78q103 0 123 74l311 1159q5 19 5 36q0 28 -23.5 44t-87.5 16h-123zM1250 1614l-22 -22l-310 183q-106 63 -106 128q0 31 24.5 56t54.5 25q48 0 97 -58z"/>
<glyph glyph-name="Eacute" horiz-adv-x="1479" unicode="É" d="M350 1479h1181l-114 -477h-71q17 96 17 156q0 126 -68 186t-216 60h-205q-42 0 -64 -21.5t-41 -93.5l-131 -489h104q237 0 317 264h75l-179 -670h-73q21 92 21 135q0 97 -50 147.5t-141 50.5h-92l-148 -558q-5 -17 -5 -33q0 -29 16 -42q24 -19 60 -19h235 q183 0 317 101.5t232 337.5h72l-157 -514h-1204l9 75h78q103 0 123 74l311 1159q5 19 5 36q0 28 -23.5 44t-87.5 16h-123zM915 1592l-22 23l232 275q80 95 123 95q31 0 56 -25t25 -55q0 -66 -104 -128z"/>
<glyph glyph-name="Ecircumflex" horiz-adv-x="1479" unicode="Ê" d="M350 1479h1181l-114 -477h-71q17 96 17 156q0 126 -68 186t-216 60h-205q-42 0 -64 -21.5t-41 -93.5l-131 -489h104q237 0 317 264h75l-179 -670h-73q21 92 21 135q0 97 -50 147.5t-141 50.5h-92l-148 -558q-5 -17 -5 -33q0 -29 16 -42q24 -19 60 -19h235 q183 0 317 101.5t232 337.5h72l-157 -514h-1204l9 75h78q103 0 123 74l311 1159q5 19 5 36q0 28 -23.5 44t-87.5 16h-123zM1001 1945h95l203 -329h-35l-230 182l-297 -182h-45z"/>
<glyph glyph-name="Edieresis" horiz-adv-x="1479" unicode="Ë" d="M350 1479h1181l-114 -477h-71q17 96 17 156q0 126 -68 186t-216 60h-205q-42 0 -64 -21.5t-41 -93.5l-131 -489h104q237 0 317 264h75l-179 -670h-73q21 92 21 135q0 97 -50 147.5t-141 50.5h-92l-148 -558q-5 -17 -5 -33q0 -29 16 -42q24 -19 60 -19h235 q183 0 317 101.5t232 337.5h72l-157 -514h-1204l9 75h78q103 0 123 74l311 1159q5 19 5 36q0 28 -23.5 44t-87.5 16h-123zM1242 1885q42 0 72 -30.5t30 -75.5q0 -44 -30 -75t-73 -31t-74 31t-31 75t31 75t75 31zM845 1885q43 0 73 -30.5t30 -73.5q0 -45 -30 -75.5t-73 -30.5 t-74 30.5t-31 74.5q0 43 30.5 74t74.5 31z"/>
<glyph glyph-name="Igrave" horiz-adv-x="834" unicode="Ì" d="M347 1479h669l-15 -75h-102q-51 0 -78 -21.5t-40 -72.5l-302 -1127q-4 -17 -4 -43q0 -32 23.5 -48.5t84.5 -16.5h124l-17 -75h-682l19 75h96q117 0 138 78l307 1169q4 13 4 25q0 27 -21 42t-72 15h-148zM940 1614l-22 -22l-310 183q-106 63 -106 128q0 31 24.5 56 t54.5 25q48 0 97 -58z"/>
<glyph glyph-name="Iacute" horiz-adv-x="834" unicode="Í" d="M347 1479h669l-15 -75h-102q-51 0 -78 -21.5t-40 -72.5l-302 -1127q-4 -17 -4 -43q0 -32 23.5 -48.5t84.5 -16.5h124l-17 -75h-682l19 75h96q117 0 138 78l307 1169q4 13 4 25q0 27 -21 42t-72 15h-148zM605 1592l-22 23l232 275q80 95 123 95q31 0 56 -25t25 -55 q0 -66 -104 -128z"/>
<glyph glyph-name="Icircumflex" horiz-adv-x="834" unicode="Î" d="M347 1479h669l-15 -75h-102q-51 0 -78 -21.5t-40 -72.5l-302 -1127q-4 -17 -4 -43q0 -32 23.5 -48.5t84.5 -16.5h124l-17 -75h-682l19 75h96q117 0 138 78l307 1169q4 13 4 25q0 27 -21 42t-72 15h-148zM752 1945h95l203 -329h-35l-230 182l-297 -182h-45z"/>
<glyph glyph-name="Idieresis" horiz-adv-x="834" unicode="Ï" d="M347 1479h669l-15 -75h-102q-51 0 -78 -21.5t-40 -72.5l-302 -1127q-4 -17 -4 -43q0 -32 23.5 -48.5t84.5 -16.5h124l-17 -75h-682l19 75h96q117 0 138 78l307 1169q4 13 4 25q0 27 -21 42t-72 15h-148zM969 1885q42 0 72 -30.5t30 -75.5q0 -44 -30 -75t-73 -31t-74 31 t-31 75t31 75t75 31zM572 1885q43 0 73 -30.5t30 -73.5q0 -45 -30 -75.5t-73 -30.5t-74 30.5t-31 74.5q0 43 30.5 74t74.5 31z"/>
<glyph glyph-name="Eth" horiz-adv-x="1593" unicode="Ð" d="M588 694l-138 -525q-6 -21 -6 -38q0 -26 19 -41t59 -15h194q145 0 253.5 53.5t194 166t136.5 295.5q68 240 68 420q0 228 -126 325q-91 71 -297 71q-120 0 -145 -14t-43 -81l-145 -526h274l-23 -91h-275zM376 694h-231l29 91h226l145 538q2 11 2 23q0 27 -24.5 42.5 t-92.5 15.5h-110l18 75h667q280 0 434.5 -156t154.5 -438q0 -186 -67.5 -360.5t-168.5 -281.5t-268.5 -175t-337.5 -68h-757l20 75h80q67 0 97 22.5t45 80.5z"/>
<glyph glyph-name="Ntilde" horiz-adv-x="1669" unicode="Ñ" d="M350 1479h419l515 -1135l229 869q7 25 7 50q0 67 -41.5 104t-122.5 37h-42l17 75h517l-18 -75q-171 -9 -216 -175l-330 -1229h-67l-581 1273l-254 -958q-18 -66 -18 -98q0 -46 20 -77t53 -43q62 -22 124 -22h34l-18 -75h-559l19 75q116 15 161 57.5t83 182.5l267 987 q3 9 3 17q0 35 -33 55q-48 30 -125 30h-58zM862 1668q7 117 58.5 173.5t130.5 56.5q69 0 198 -48q107 -41 155 -41q78 0 99 87h34q-4 -109 -57.5 -167.5t-137.5 -58.5q-30 0 -72.5 10t-169.5 55q-71 25 -106 25q-82 0 -97 -92h-35z"/>
<glyph glyph-name="Ograve" horiz-adv-x="1593" unicode="Ò" d="M1042 1447q-119 0 -223 -55.5t-200 -191t-158.5 -347.5t-62.5 -414q0 -197 87.5 -297.5t242.5 -100.5q161 0 295.5 105t231.5 350q117 293 117 561q0 188 -90 289t-240 101zM1035 1517q245 0 403.5 -164t158.5 -427q0 -255 -121.5 -476.5t-328.5 -350t-424 -128.5 q-239 0 -397 164.5t-158 424.5q0 252 123 478t325 352.5t419 126.5zM1319 1614l-22 -22l-310 183q-106 63 -106 128q0 31 24.5 56t54.5 25q48 0 97 -58z"/>
<glyph glyph-name="Oacute" horiz-adv-x="1593" unicode="Ó" d="M1042 1447q-119 0 -223 -55.5t-200 -191t-158.5 -347.5t-62.5 -414q0 -197 87.5 -297.5t242.5 -100.5q161 0 295.5 105t231.5 350q117 293 117 561q0 188 -90 289t-240 101zM1035 1517q245 0 403.5 -164t158.5 -427q0 -255 -121.5 -476.5t-328.5 -350t-424 -128.5 q-239 0 -397 164.5t-158 424.5q0 252 123 478t325 352.5t419 126.5zM984 1592l-22 23l232 275q80 95 123 95q31 0 56 -25t25 -55q0 -66 -104 -128z"/>
<glyph glyph-name="Ocircumflex" horiz-adv-x="1593" unicode="Ô" d="M1042 1447q-119 0 -223 -55.5t-200 -191t-158.5 -347.5t-62.5 -414q0 -197 87.5 -297.5t242.5 -100.5q161 0 295.5 105t231.5 350q117 293 117 561q0 188 -90 289t-240 101zM1035 1517q245 0 403.5 -164t158.5 -427q0 -255 -121.5 -476.5t-328.5 -350t-424 -128.5 q-239 0 -397 164.5t-158 424.5q0 252 123 478t325 352.5t419 126.5zM1083 1945h95l203 -329h-35l-230 182l-297 -182h-45z"/>
<glyph glyph-name="Otilde" horiz-adv-x="1593" unicode="Õ" d="M1042 1447q-119 0 -223 -55.5t-200 -191t-158.5 -347.5t-62.5 -414q0 -197 87.5 -297.5t242.5 -100.5q161 0 295.5 105t231.5 350q117 293 117 561q0 188 -90 289t-240 101zM1035 1517q245 0 403.5 -164t158.5 -427q0 -255 -121.5 -476.5t-328.5 -350t-424 -128.5 q-239 0 -397 164.5t-158 424.5q0 252 123 478t325 352.5t419 126.5zM770 1668q7 117 58.5 173.5t130.5 56.5q69 0 198 -48q107 -41 155 -41q78 0 99 87h34q-4 -109 -57.5 -167.5t-137.5 -58.5q-30 0 -72.5 10t-169.5 55q-71 25 -106 25q-82 0 -97 -92h-35z"/>
<glyph glyph-name="Odieresis" horiz-adv-x="1593" unicode="Ö" d="M1042 1447q-119 0 -223 -55.5t-200 -191t-158.5 -347.5t-62.5 -414q0 -197 87.5 -297.5t242.5 -100.5q161 0 295.5 105t231.5 350q117 293 117 561q0 188 -90 289t-240 101zM1035 1517q245 0 403.5 -164t158.5 -427q0 -255 -121.5 -476.5t-328.5 -350t-424 -128.5 q-239 0 -397 164.5t-158 424.5q0 252 123 478t325 352.5t419 126.5zM1326 1885q42 0 72 -30.5t30 -75.5q0 -44 -30 -75t-73 -31t-74 31t-31 75t31 75t75 31zM929 1885q43 0 73 -30.5t30 -73.5q0 -45 -30 -75.5t-73 -30.5t-74 30.5t-31 74.5q0 43 30.5 74t74.5 31z"/>
<glyph glyph-name="multiply" horiz-adv-x="1241" unicode="×" d="M305 1200l413 -413l413 413l94 -94l-413 -413l412 -413l-94 -94l-412 413l-412 -412l-94 94l412 412l-413 413z"/>
<glyph glyph-name="Oslash" horiz-adv-x="1593" unicode="Ø" d="M1347 1234l-903 -1030q85 -163 284 -163q187 0 330 136t228.5 403t85.5 475q0 106 -25 179zM413 287l896 1023q-91 137 -269 137q-117 0 -221.5 -55.5t-200 -190.5t-158 -347.5t-62.5 -409.5q0 -95 15 -157zM1445 1346q152 -164 152 -420q0 -255 -122 -476.5t-328.5 -350 t-423.5 -128.5q-216 0 -365 134l-92 -105h-104l141 161q-135 160 -135 399q0 252 123 477.5t324.5 352.5t417.5 127q208 0 355 -117l69 79h104z"/>
<glyph glyph-name="Ugrave" horiz-adv-x="1669" unicode="Ù" d="M318 1479h661l-18 -75h-127q-36 0 -62.5 -20.5t-35.5 -53.5l-220 -813q-19 -70 -19 -142q0 -148 89.5 -234t249.5 -86q189 0 307 103q147 128 211 388l152 621q12 48 12 82q0 73 -44.5 114t-119.5 41h-47l17 75h533l-17 -75q-97 -2 -147 -45q-62 -53 -87 -152l-174 -690 q-51 -201 -136.5 -315.5t-206.5 -172.5t-295 -58q-253 0 -378 106t-125 292q0 114 36 250l189 702q3 15 3 34q0 23 -18 36t-58 13h-142zM1358 1614l-22 -22l-310 183q-106 63 -106 128q0 31 24.5 56t54.5 25q48 0 97 -58z"/>
<glyph glyph-name="Uacute" horiz-adv-x="1669" unicode="Ú" d="M318 1479h661l-18 -75h-127q-36 0 -62.5 -20.5t-35.5 -53.5l-220 -813q-19 -70 -19 -142q0 -148 89.5 -234t249.5 -86q189 0 307 103q147 128 211 388l152 621q12 48 12 82q0 73 -44.5 114t-119.5 41h-47l17 75h533l-17 -75q-97 -2 -147 -45q-62 -53 -87 -152l-174 -690 q-51 -201 -136.5 -315.5t-206.5 -172.5t-295 -58q-253 0 -378 106t-125 292q0 114 36 250l189 702q3 15 3 34q0 23 -18 36t-58 13h-142zM1022 1592l-22 23l232 275q80 95 123 95q31 0 56 -25t25 -55q0 -66 -104 -128z"/>
<glyph glyph-name="Ucircumflex" horiz-adv-x="1669" unicode="Û" d="M318 1479h661l-18 -75h-127q-36 0 -62.5 -20.5t-35.5 -53.5l-220 -813q-19 -70 -19 -142q0 -148 89.5 -234t249.5 -86q189 0 307 103q147 128 211 388l152 621q12 48 12 82q0 73 -44.5 114t-119.5 41h-47l17 75h533l-17 -75q-97 -2 -147 -45q-62 -53 -87 -152l-174 -690 q-51 -201 -136.5 -315.5t-206.5 -172.5t-295 -58q-253 0 -378 106t-125 292q0 114 36 250l189 702q3 15 3 34q0 23 -18 36t-58 13h-142zM1133 1945h95l203 -329h-35l-230 182l-297 -182h-45z"/>
<glyph glyph-name="Udieresis" horiz-adv-x="1669" unicode="Ü" d="M318 1479h661l-18 -75h-127q-36 0 -62.5 -20.5t-35.5 -53.5l-220 -813q-19 -70 -19 -142q0 -148 89.5 -234t249.5 -86q189 0 307 103q147 128 211 388l152 621q12 48 12 82q0 73 -44.5 114t-119.5 41h-47l17 75h533l-17 -75q-97 -2 -147 -45q-62 -53 -87 -152l-174 -690 q-51 -201 -136.5 -315.5t-206.5 -172.5t-295 -58q-253 0 -378 106t-125 292q0 114 36 250l189 702q3 15 3 34q0 23 -18 36t-58 13h-142zM1398 1885q42 0 72 -30.5t30 -75.5q0 -44 -30 -75t-73 -31t-74 31t-31 75t31 75t75 31zM1001 1885q43 0 73 -30.5t30 -73.5 q0 -45 -30 -75.5t-73 -30.5t-74 30.5t-31 74.5q0 43 30.5 74t74.5 31z"/>
<glyph glyph-name="Yacute" horiz-adv-x="1403" unicode="Ý" d="M274 1479h577l-14 -75h-79q-68 0 -93 -15.5t-25 -40.5q0 -13 7 -28l239 -577l381 479q55 70 55 108q0 65 -169 74l24 75h455l-19 -75q-108 -15 -192 -121l-489 -615l-137 -516q-2 -8 -2 -17q0 -27 22 -41q29 -19 86 -19h110l-19 -75h-666l17 75h103q108 0 126 63l138 502 l-293 705q-25 59 -110 59h-51zM913 1592l-22 23l232 275q80 95 123 95q31 0 56 -25t25 -55q0 -66 -104 -128z"/>
<glyph glyph-name="Thorn" horiz-adv-x="1366" unicode="Þ" d="M512 460q106 -13 183 -13q231 0 342 108q124 123 124 327q0 136 -96 194q-73 44 -279 44h-97zM493 387l-60 -226q-4 -13 -4 -26q0 -28 22.5 -44t74.5 -16h124l-18 -75h-639l18 75h76q103 0 123 71l316 1170q3 13 3 27q0 30 -22.5 45.5t-85.5 15.5h-111l19 75h663l-21 -75 h-97q-55 0 -78.5 -8t-39.5 -27q-10 -13 -23 -61l-29 -114h119q215 0 328.5 -43t173.5 -129.5t60 -196.5q0 -192 -142 -305q-182 -145 -517 -145q-78 0 -233 12z"/>
<glyph glyph-name="germandbls" horiz-adv-x="1139" unicode="ß" d="M818 841q111 -47 170 -136.5t59 -209.5q0 -218 -143 -371t-312 -153q-106 0 -160.5 48.5t-54.5 131.5q0 69 35 112.5t78 43.5q35 0 59.5 -26.5t24.5 -64.5q0 -52 -60 -78q-42 -19 -42 -40q0 -18 17.5 -32t46.5 -14q66 0 142.5 61.5t136 203.5t59.5 270q0 64 -29.5 116.5 t-72 74t-136.5 21.5l20 70q120 15 177 55q78 54 125.5 145t47.5 182q0 88 -43 136.5t-116 48.5q-63 0 -118 -40.5t-135.5 -198.5t-135.5 -362l-195 -717q-76 -283 -143 -464q-65 -8 -142 -38q-41 -16 -65 -16q-22 0 -22 13q0 14 24 52q38 61 86 184q77 201 147 454l165 588 q67 237 151 369.5t178.5 190.5t199.5 58q145 0 237 -86t92 -213q0 -125 -77 -220t-276 -149z"/>
<glyph glyph-name="agrave" horiz-adv-x="1176" unicode="à" d="M610 886q-79 0 -159.5 -63.5t-142 -211.5t-61.5 -305q0 -124 51 -183.5t145 -59.5q84 0 156.5 59t143.5 231.5t71 306.5q0 96 -61 161t-143 65zM715 157q-60 -92 -139 -139t-156 -47q-149 0 -252 108.5t-103 275.5q0 152 80.5 297.5t206.5 229t245 83.5q96 0 169.5 -56.5 t99.5 -149.5l58 177l157 18l-219 -762q-9 -31 -9 -62q0 -28 11.5 -43t27.5 -15q30 0 68 41q74 79 139 212l58 -26q-157 -328 -321 -328q-53 0 -88 40.5t-35 104.5zM866 1110l-22 -22l-310 183q-106 63 -106 128q0 31 24.5 56t54.5 25q48 0 97 -58z"/>
<glyph glyph-name="aacute" horiz-adv-x="1176" unicode="á" d="M610 886q-79 0 -159.5 -63.5t-142 -211.5t-61.5 -305q0 -124 51 -183.5t145 -59.5q84 0 156.5 59t143.5 231.5t71 306.5q0 96 -61 161t-143 65zM715 157q-60 -92 -139 -139t-156 -47q-149 0 -252 108.5t-103 275.5q0 152 80.5 297.5t206.5 229t245 83.5q96 0 169.5 -56.5 t99.5 -149.5l58 177l157 18l-219 -762q-9 -31 -9 -62q0 -28 11.5 -43t27.5 -15q30 0 68 41q74 79 139 212l58 -26q-157 -328 -321 -328q-53 0 -88 40.5t-35 104.5zM584 1088l-22 23l232 275q80 95 123 95q31 0 56 -25t25 -55q0 -66 -104 -128z"/>
<glyph glyph-name="acircumflex" horiz-adv-x="1176" unicode="â" d="M610 886q-79 0 -159.5 -63.5t-142 -211.5t-61.5 -305q0 -124 51 -183.5t145 -59.5q84 0 156.5 59t143.5 231.5t71 306.5q0 96 -61 161t-143 65zM715 157q-60 -92 -139 -139t-156 -47q-149 0 -252 108.5t-103 275.5q0 152 80.5 297.5t206.5 229t245 83.5q96 0 169.5 -56.5 t99.5 -149.5l58 177l157 18l-219 -762q-9 -31 -9 -62q0 -28 11.5 -43t27.5 -15q30 0 68 41q74 79 139 212l58 -26q-157 -328 -321 -328q-53 0 -88 40.5t-35 104.5zM726 1442h95l203 -329h-35l-230 182l-297 -182h-45z"/>
<glyph glyph-name="atilde" horiz-adv-x="1176" unicode="ã" d="M610 886q-79 0 -159.5 -63.5t-142 -211.5t-61.5 -305q0 -124 51 -183.5t145 -59.5q84 0 156.5 59t143.5 231.5t71 306.5q0 96 -61 161t-143 65zM715 157q-60 -92 -139 -139t-156 -47q-149 0 -252 108.5t-103 275.5q0 152 80.5 297.5t206.5 229t245 83.5q96 0 169.5 -56.5 t99.5 -149.5l58 177l157 18l-219 -762q-9 -31 -9 -62q0 -28 11.5 -43t27.5 -15q30 0 68 41q74 79 139 212l58 -26q-157 -328 -321 -328q-53 0 -88 40.5t-35 104.5zM437 1164q7 117 58.5 173.5t130.5 56.5q69 0 198 -48q107 -41 155 -41q78 0 99 87h34q-4 -109 -57.5 -167.5 t-137.5 -58.5q-30 0 -72.5 10t-169.5 55q-71 25 -106 25q-82 0 -97 -92h-35z"/>
<glyph glyph-name="adieresis" horiz-adv-x="1176" unicode="ä" d="M610 886q-79 0 -159.5 -63.5t-142 -211.5t-61.5 -305q0 -124 51 -183.5t145 -59.5q84 0 156.5 59t143.5 231.5t71 306.5q0 96 -61 161t-143 65zM715 157q-60 -92 -139 -139t-156 -47q-149 0 -252 108.5t-103 275.5q0 152 80.5 297.5t206.5 229t245 83.5q96 0 169.5 -56.5 t99.5 -149.5l58 177l157 18l-219 -762q-9 -31 -9 -62q0 -28 11.5 -43t27.5 -15q30 0 68 41q74 79 139 212l58 -26q-157 -328 -321 -328q-53 0 -88 40.5t-35 104.5zM979 1382q42 0 72 -30.5t30 -75.5q0 -44 -30 -75t-73 -31t-74 31t-31 75t31 75t75 31zM582 1382 q43 0 73 -30.5t30 -73.5q0 -45 -30 -75.5t-73 -30.5t-74 30.5t-31 74.5q0 43 30.5 74t74.5 31z"/>
<glyph glyph-name="aring" horiz-adv-x="1176" unicode="å" d="M610 886q-79 0 -159.5 -63.5t-142 -211.5t-61.5 -305q0 -124 51 -183.5t145 -59.5q84 0 156.5 59t143.5 231.5t71 306.5q0 96 -61 161t-143 65zM715 157q-60 -92 -139 -139t-156 -47q-149 0 -252 108.5t-103 275.5q0 152 80.5 297.5t206.5 229t245 83.5q96 0 169.5 -56.5 t99.5 -149.5l58 177l157 18l-219 -762q-9 -31 -9 -62q0 -28 11.5 -43t27.5 -15q30 0 68 41q74 79 139 212l58 -26q-157 -328 -321 -328q-53 0 -88 40.5t-35 104.5zM757 1376q-52 0 -88.5 -36.5t-36.5 -88.5q0 -51 36.5 -87.5t88.5 -36.5q51 0 87.5 36.5t36.5 87.5 q0 52 -36.5 88.5t-87.5 36.5zM757 1444q79 0 135 -56t56 -136t-56 -136t-135 -56t-135 56t-56 136q0 79 57 135.5t134 56.5z"/>
<glyph glyph-name="ae" horiz-adv-x="1479" unicode="æ" d="M564 878q-80 0 -156 -63t-138 -221t-62 -315q0 -113 44 -167t119 -54q80 0 159.5 64.5t150.5 241t71 316.5q0 89 -53 143.5t-135 54.5zM870 432q235 43 333.5 132t98.5 203q0 62 -29 94.5t-81 32.5q-63 0 -133 -56.5t-119 -169.5q-24 -55 -70 -236zM810 788l37 159 l151 17l-42 -157q71 92 133 125t141 33q106 0 171.5 -57.5t65.5 -144.5q0 -123 -115 -211q-161 -124 -494 -186q-11 -49 -11 -84q0 -107 55 -165.5t147 -58.5q156 0 316 190l48 -45q-191 -232 -406 -232q-129 0 -219 76q-65 55 -95 156q-109 -134 -194 -183t-174 -49 q-124 0 -210.5 98.5t-86.5 256.5q0 164 78 318t198 237.5t234 83.5q94 0 162 -44t110 -133z"/>
<glyph glyph-name="ccedilla" horiz-adv-x="909" unicode="ç" d="M762 246l50 -38q-96 -128 -193 -182.5t-206 -54.5q-144 0 -239.5 103.5t-95.5 270.5q0 157 81.5 306.5t209.5 231.5t261 82q112 0 176 -57.5t64 -149.5q0 -71 -33 -110.5t-82 -39.5q-42 0 -71.5 28.5t-29.5 68.5q0 68 72 90q38 12 38 35t-33.5 46.5t-85.5 23.5 q-86 0 -172.5 -66t-147 -208t-60.5 -302q0 -136 55 -202.5t146 -66.5q146 0 296 191zM410 12h52l-38 -45q113 -51 113 -148q0 -53 -32 -91q-43 -52 -131.5 -84.5t-250.5 -41.5l20 77q128 7 179.5 38t51.5 68q0 24 -16 41.5t-72 42.5z"/>
<glyph glyph-name="egrave" horiz-adv-x="909" unicode="è" d="M266 429q191 42 272 87t122.5 112t41.5 141q0 59 -30.5 92t-83.5 33q-96 0 -185.5 -109.5t-136.5 -355.5zM252 364q-5 -47 -5 -79q0 -110 53.5 -168.5t145.5 -58.5q72 0 142 37.5t175 150.5l46 -42q-189 -233 -400 -233q-144 0 -243 108t-99 276q0 148 83 290.5 t221.5 231t258.5 88.5q103 0 168.5 -59.5t65.5 -145.5q0 -73 -51.5 -145.5t-166 -129.5t-394.5 -121zM872 1110l-22 -22l-310 183q-106 63 -106 128q0 31 24.5 56t54.5 25q48 0 97 -58z"/>
<glyph glyph-name="eacute" horiz-adv-x="909" unicode="é" d="M266 429q191 42 272 87t122.5 112t41.5 141q0 59 -30.5 92t-83.5 33q-96 0 -185.5 -109.5t-136.5 -355.5zM252 364q-5 -47 -5 -79q0 -110 53.5 -168.5t145.5 -58.5q72 0 142 37.5t175 150.5l46 -42q-189 -233 -400 -233q-144 0 -243 108t-99 276q0 148 83 290.5 t221.5 231t258.5 88.5q103 0 168.5 -59.5t65.5 -145.5q0 -73 -51.5 -145.5t-166 -129.5t-394.5 -121zM508 1088l-22 23l232 275q80 95 123 95q31 0 56 -25t25 -55q0 -66 -104 -128z"/>
<glyph glyph-name="ecircumflex" horiz-adv-x="909" unicode="ê" d="M266 429q191 42 272 87t122.5 112t41.5 141q0 59 -30.5 92t-83.5 33q-96 0 -185.5 -109.5t-136.5 -355.5zM252 364q-5 -47 -5 -79q0 -110 53.5 -168.5t145.5 -58.5q72 0 142 37.5t175 150.5l46 -42q-189 -233 -400 -233q-144 0 -243 108t-99 276q0 148 83 290.5 t221.5 231t258.5 88.5q103 0 168.5 -59.5t65.5 -145.5q0 -73 -51.5 -145.5t-166 -129.5t-394.5 -121zM631 1442h95l203 -329h-35l-230 182l-297 -182h-45z"/>
<glyph glyph-name="edieresis" horiz-adv-x="909" unicode="ë" d="M266 429q191 42 272 87t122.5 112t41.5 141q0 59 -30.5 92t-83.5 33q-96 0 -185.5 -109.5t-136.5 -355.5zM252 364q-5 -47 -5 -79q0 -110 53.5 -168.5t145.5 -58.5q72 0 142 37.5t175 150.5l46 -42q-189 -233 -400 -233q-144 0 -243 108t-99 276q0 148 83 290.5 t221.5 231t258.5 88.5q103 0 168.5 -59.5t65.5 -145.5q0 -73 -51.5 -145.5t-166 -129.5t-394.5 -121zM872 1382q42 0 72 -30.5t30 -75.5q0 -44 -30 -75t-73 -31t-74 31t-31 75t31 75t75 31zM475 1382q43 0 73 -30.5t30 -73.5q0 -45 -30 -75.5t-73 -30.5t-74 30.5t-31 74.5 q0 43 30.5 74t74.5 31z"/>
<glyph glyph-name="igrave" d="M527 954l-222 -783q-9 -30 -9 -52q0 -25 11.5 -37.5t30.5 -12.5q36 0 85 46q81 77 157 216l53 -31q-73 -159 -174 -244t-182 -85q-54 0 -92 42.5t-38 111.5q0 68 22 144l148 511q4 13 4 25q0 27 -23 42q-31 20 -93 20h-63l20 69zM665 1110l-22 -22l-310 183 q-106 63 -106 128q0 31 24.5 56t54.5 25q48 0 97 -58z" unicode="ì"/>
<glyph glyph-name="iacute" d="M527 954l-222 -783q-9 -30 -9 -52q0 -25 11.5 -37.5t30.5 -12.5q36 0 85 46q81 77 157 216l53 -31q-73 -159 -174 -244t-182 -85q-54 0 -92 42.5t-38 111.5q0 68 22 144l148 511q4 13 4 25q0 27 -23 42q-31 20 -93 20h-63l20 69zM360 1088l-22 23l232 275q80 95 123 95 q31 0 56 -25t25 -55q0 -66 -104 -128z" unicode="í"/>
<glyph glyph-name="icircumflex" d="M527 954l-222 -783q-9 -30 -9 -52q0 -25 11.5 -37.5t30.5 -12.5q36 0 85 46q81 77 157 216l53 -31q-73 -159 -174 -244t-182 -85q-54 0 -92 42.5t-38 111.5q0 68 22 144l148 511q4 13 4 25q0 27 -23 42q-31 20 -93 20h-63l20 69zM469 1442h95l203 -329h-35l-230 182 l-297 -182h-45z" unicode="î"/>
<glyph glyph-name="idieresis" d="M527 954l-222 -783q-9 -30 -9 -52q0 -25 11.5 -37.5t30.5 -12.5q36 0 85 46q81 77 157 216l53 -31q-73 -159 -174 -244t-182 -85q-54 0 -92 42.5t-38 111.5q0 68 22 144l148 511q4 13 4 25q0 27 -23 42q-31 20 -93 20h-63l20 69zM667 1382q42 0 72 -30.5t30 -75.5 q0 -44 -30 -75t-73 -31t-74 31t-31 75t31 75t75 31zM270 1382q43 0 73 -30.5t30 -73.5q0 -45 -30 -75.5t-73 -30.5t-74 30.5t-31 74.5q0 43 30.5 74t74.5 31z" unicode="ï"/>
<glyph glyph-name="eth" horiz-adv-x="1024" unicode="ð" d="M592 897q-78 0 -142 -55q-85 -71 -147 -230.5t-62 -318.5q0 -123 53 -189t135 -66q91 0 167 76q90 91 144 278q41 144 41 255q0 123 -53 186.5t-136 63.5zM762 906q-55 248 -206 400l-152 -63l-65 50l161 65q-95 71 -187 106l38 48q140 -48 238 -117l132 54l73 -45 l-141 -59q145 -126 229.5 -309t84.5 -380q0 -201 -77 -363t-195.5 -242t-257.5 -80q-156 0 -265.5 116.5t-109.5 291.5q0 146 78 288.5t198 220t246 77.5q51 0 95.5 -14.5t82.5 -44.5z"/>
<glyph glyph-name="ntilde" horiz-adv-x="1251" unicode="ñ" d="M526 954l-86 -325q230 326 430 326q77 0 125.5 -51.5t48.5 -140.5q0 -75 -34 -178l-107 -333l-26 -83q-6 -28 -6 -46q0 -21 12 -35.5t28 -14.5q43 0 110 66t120 199l62 -21q-65 -164 -163 -249.5t-183 -85.5q-59 0 -98.5 44t-39.5 113q0 58 23 127l118 363q20 60 20 117 q0 48 -25 76t-64 28q-89 0 -224.5 -147t-209.5 -404l-87 -299l-165 -8l221 778q5 18 5 35q0 30 -19 45q-26 19 -73 19h-89l19 67zM460 1164q7 117 58.5 173.5t130.5 56.5q69 0 198 -48q107 -41 155 -41q78 0 99 87h34q-4 -109 -57.5 -167.5t-137.5 -58.5q-30 0 -72.5 10 t-169.5 55q-71 25 -106 25q-82 0 -97 -92h-35z"/>
<glyph glyph-name="ograve" horiz-adv-x="1024" unicode="ò" d="M592 897q-75 0 -151.5 -63.5t-138 -222.5t-61.5 -318q0 -123 53 -189t135 -66q78 0 152 62t137 226.5t63 322.5q0 117 -53.5 182.5t-135.5 65.5zM588 965q154 0 261.5 -114.5t107.5 -290.5q0 -152 -76.5 -294.5t-196.5 -218.5t-249 -76q-154 0 -263.5 116.5t-109.5 291.5 q0 146 78 288.5t199.5 220t248.5 77.5zM936 1110l-22 -22l-310 183q-106 63 -106 128q0 31 24.5 56t54.5 25q48 0 97 -58z"/>
<glyph glyph-name="oacute" horiz-adv-x="1024" unicode="ó" d="M592 897q-75 0 -151.5 -63.5t-138 -222.5t-61.5 -318q0 -123 53 -189t135 -66q78 0 152 62t137 226.5t63 322.5q0 117 -53.5 182.5t-135.5 65.5zM588 965q154 0 261.5 -114.5t107.5 -290.5q0 -152 -76.5 -294.5t-196.5 -218.5t-249 -76q-154 0 -263.5 116.5t-109.5 291.5 q0 146 78 288.5t199.5 220t248.5 77.5zM552 1088l-22 23l232 275q80 95 123 95q31 0 56 -25t25 -55q0 -66 -104 -128z"/>
<glyph glyph-name="ocircumflex" horiz-adv-x="1024" unicode="ô" d="M592 897q-75 0 -151.5 -63.5t-138 -222.5t-61.5 -318q0 -123 53 -189t135 -66q78 0 152 62t137 226.5t63 322.5q0 117 -53.5 182.5t-135.5 65.5zM588 965q154 0 261.5 -114.5t107.5 -290.5q0 -152 -76.5 -294.5t-196.5 -218.5t-249 -76q-154 0 -263.5 116.5t-109.5 291.5 q0 146 78 288.5t199.5 220t248.5 77.5zM675 1442h95l203 -329h-35l-230 182l-297 -182h-45z"/>
<glyph glyph-name="otilde" horiz-adv-x="1024" unicode="õ" d="M592 897q-75 0 -151.5 -63.5t-138 -222.5t-61.5 -318q0 -123 53 -189t135 -66q78 0 152 62t137 226.5t63 322.5q0 117 -53.5 182.5t-135.5 65.5zM588 965q154 0 261.5 -114.5t107.5 -290.5q0 -152 -76.5 -294.5t-196.5 -218.5t-249 -76q-154 0 -263.5 116.5t-109.5 291.5 q0 146 78 288.5t199.5 220t248.5 77.5zM362 1164q7 117 58.5 173.5t130.5 56.5q69 0 198 -48q107 -41 155 -41q78 0 99 87h34q-4 -109 -57.5 -167.5t-137.5 -58.5q-30 0 -72.5 10t-169.5 55q-71 25 -106 25q-82 0 -97 -92h-35z"/>
<glyph glyph-name="odieresis" horiz-adv-x="1024" unicode="ö" d="M592 897q-75 0 -151.5 -63.5t-138 -222.5t-61.5 -318q0 -123 53 -189t135 -66q78 0 152 62t137 226.5t63 322.5q0 117 -53.5 182.5t-135.5 65.5zM588 965q154 0 261.5 -114.5t107.5 -290.5q0 -152 -76.5 -294.5t-196.5 -218.5t-249 -76q-154 0 -263.5 116.5t-109.5 291.5 q0 146 78 288.5t199.5 220t248.5 77.5zM916 1382q42 0 72 -30.5t30 -75.5q0 -44 -30 -75t-73 -31t-74 31t-31 75t31 75t75 31zM519 1382q43 0 73 -30.5t30 -73.5q0 -45 -30 -75.5t-73 -30.5t-74 30.5t-31 74.5q0 43 30.5 74t74.5 31z"/>
<glyph glyph-name="divide" horiz-adv-x="1124" unicode="÷" d="M562 455q37 0 62.5 -26t25.5 -62t-26 -62t-62 -26t-62 26t-26 62t25.5 62t62.5 26zM1101 640h-1078v82h1078v-82zM562 1075q36 0 61.5 -25.5t25.5 -61.5t-25.5 -61.5t-62.5 -25.5q-36 0 -61.5 25.5t-25.5 61.5t25.5 61.5t62.5 25.5z"/>
<glyph glyph-name="oslash" horiz-adv-x="1024" unicode="ø" d="M774 722l-504 -579q51 -105 159 -105q77 0 151 62t137.5 226.5t63.5 323.5q0 37 -7 72zM246 221l502 577q-53 99 -157 99q-75 0 -151 -63.5t-138 -222.5t-62 -318q0 -36 6 -72zM150 112q-89 111 -89 267q0 146 78 288t199.5 220t247.5 78q132 0 233 -86l49 57h93 l-94 -107q89 -112 89 -270q0 -151 -76.5 -293.5t-196 -218.5t-248.5 -76q-134 0 -236 89l-53 -60h-93z"/>
<glyph glyph-name="ugrave" horiz-adv-x="1251" unicode="ù" d="M552 954l-199 -617q-32 -100 -32 -163q0 -46 25.5 -72.5t68.5 -26.5q87 0 216.5 130.5t212.5 383.5l113 347h162l-239 -740q-16 -49 -16 -84q0 -26 11.5 -39t33.5 -13q90 0 229 260l57 -20q-78 -173 -170 -251t-175 -78q-60 0 -95 36.5t-35 100.5q0 53 23 149 q-126 -164 -221 -225t-180 -61q-87 0 -138 49.5t-51 129.5q0 66 43 198l135 422q5 16 5 31q0 27 -24 43q-32 20 -92 20h-55l20 72zM903 1110l-22 -22l-310 183q-106 63 -106 128q0 31 24.5 56t54.5 25q48 0 97 -58z"/>
<glyph glyph-name="uacute" horiz-adv-x="1251" unicode="ú" d="M552 954l-199 -617q-32 -100 -32 -163q0 -46 25.5 -72.5t68.5 -26.5q87 0 216.5 130.5t212.5 383.5l113 347h162l-239 -740q-16 -49 -16 -84q0 -26 11.5 -39t33.5 -13q90 0 229 260l57 -20q-78 -173 -170 -251t-175 -78q-60 0 -95 36.5t-35 100.5q0 53 23 149 q-126 -164 -221 -225t-180 -61q-87 0 -138 49.5t-51 129.5q0 66 43 198l135 422q5 16 5 31q0 27 -24 43q-32 20 -92 20h-55l20 72zM674 1088l-22 23l232 275q80 95 123 95q31 0 56 -25t25 -55q0 -66 -104 -128z"/>
<glyph glyph-name="ucircumflex" horiz-adv-x="1251" unicode="û" d="M552 954l-199 -617q-32 -100 -32 -163q0 -46 25.5 -72.5t68.5 -26.5q87 0 216.5 130.5t212.5 383.5l113 347h162l-239 -740q-16 -49 -16 -84q0 -26 11.5 -39t33.5 -13q90 0 229 260l57 -20q-78 -173 -170 -251t-175 -78q-60 0 -95 36.5t-35 100.5q0 53 23 149 q-126 -164 -221 -225t-180 -61q-87 0 -138 49.5t-51 129.5q0 66 43 198l135 422q5 16 5 31q0 27 -24 43q-32 20 -92 20h-55l20 72zM792 1442h95l203 -329h-35l-230 182l-297 -182h-45z"/>
<glyph glyph-name="udieresis" horiz-adv-x="1251" unicode="ü" d="M552 954l-199 -617q-32 -100 -32 -163q0 -46 25.5 -72.5t68.5 -26.5q87 0 216.5 130.5t212.5 383.5l113 347h162l-239 -740q-16 -49 -16 -84q0 -26 11.5 -39t33.5 -13q90 0 229 260l57 -20q-78 -173 -170 -251t-175 -78q-60 0 -95 36.5t-35 100.5q0 53 23 149 q-126 -164 -221 -225t-180 -61q-87 0 -138 49.5t-51 129.5q0 66 43 198l135 422q5 16 5 31q0 27 -24 43q-32 20 -92 20h-55l20 72zM1003 1382q42 0 72 -30.5t30 -75.5q0 -44 -30 -75t-73 -31t-74 31t-31 75t31 75t75 31zM606 1382q43 0 73 -30.5t30 -73.5q0 -45 -30 -75.5 t-73 -30.5t-74 30.5t-31 74.5q0 43 30.5 74t74.5 31z"/>
<glyph glyph-name="yacute" horiz-adv-x="1024" unicode="ý" d="M623 238q104 158 163 306q38 93 38 159q0 28 -14 89q-11 49 -11 74q0 43 25.5 71t61.5 28q38 0 62 -27.5t24 -76.5q0 -48 -36 -149q-49 -138 -134 -287l-235 -412q-79 -139 -182 -254q-75 -83 -153.5 -121t-139.5 -38q-76 0 -126.5 42t-50.5 101q0 48 31 81.5t72 33.5 q38 0 65.5 -27.5t27.5 -63.5l-2 -35l-1 -12q0 -17 12 -27q12 -11 33 -11q56 0 127 63q110 97 219 285l-65 340q-55 287 -113 396q-34 62 -63 62q-53 0 -116 -183l-61 25q57 160 132 238q54 57 112 57q60 0 95 -53q51 -75 121 -352zM486 1088l-22 23l232 275q80 95 123 95 q31 0 56 -25t25 -55q0 -66 -104 -128z"/>
<glyph glyph-name="thorn" horiz-adv-x="1176" unicode="þ" d="M722 874q-85 0 -177 -86.5t-148 -249t-56 -269.5q0 -97 50.5 -152.5t134.5 -55.5q83 0 160.5 64t143.5 223.5t66 313.5q0 98 -49.5 155t-124.5 57zM291 163l-108 -377q-6 -18 -6 -36q0 -29 22.5 -45t77.5 -16h62l-19 -74h-489l21 74h35q47 0 83 26.5t49 70.5l453 1531 q3 13 3 26q0 28 -22.5 44.5t-74.5 16.5h-73l22 75l354 19l-233 -747q85 121 163 167.5t166 46.5q124 0 211.5 -99t87.5 -258q0 -160 -81.5 -315t-204 -238.5t-243.5 -83.5q-185 0 -256 192z"/>
<glyph glyph-name="dotlessi" d="M527 954l-222 -783q-9 -30 -9 -52q0 -25 11.5 -37.5t30.5 -12.5q36 0 85 46q81 77 157 216l53 -31q-73 -159 -174 -244t-182 -85q-54 0 -92 42.5t-38 111.5q0 68 22 144l148 511q4 13 4 25q0 27 -23 42q-31 20 -93 20h-63l20 69z" unicode="ı"/>
<glyph glyph-name="OE" horiz-adv-x="2009" unicode="Œ" d="M1179 1155q12 46 12 85q0 90 -52 138.5t-152 48.5q-168 0 -311 -132q-164 -151 -254 -446q-69 -224 -69 -405q0 -186 90.5 -288.5t244.5 -102.5q105 0 163.5 49t93.5 180zM1280 1479h867l-110 -474h-70q18 88 18 144q0 135 -62 195t-137 60h-262q-34 0 -52 -16t-31 -65 l-142 -524h42q139 0 224.5 64t128.5 203h70l-182 -673h-70q22 80 22 135q0 100 -49.5 150.5t-143.5 50.5h-61l-154 -581q-3 -11 -3 -20q0 -23 18.5 -38t52.5 -15h229q157 0 276.5 98t205.5 335h75l-143 -508h-698q-98 0 -249 -9q-130 -8 -195 -8q-171 0 -291.5 70.5 t-196.5 213.5t-76 309q0 178 88 382q113 265 310.5 402t431.5 137q48 0 168 -9q127 -9 151 -9z"/>
<glyph glyph-name="oe" horiz-adv-x="1593" unicode="œ" d="M932 429q233 42 334.5 135t101.5 209q0 58 -29.5 90.5t-84.5 32.5q-90 0 -170 -97q-97 -117 -152 -370zM604 899q-77 0 -141 -55q-83 -70 -146 -231t-63 -320q0 -123 54.5 -190t135.5 -67q74 0 149.5 64t138.5 223.5t63 318.5q0 128 -52 192.5t-139 64.5zM919 776 q112 107 200 148t176 41q107 0 172.5 -58t65.5 -142q0 -120 -138 -228.5t-476 -169.5q-4 -43 -4 -70q0 -116 54.5 -179t135.5 -63q169 0 329 194l46 -42q-96 -119 -202 -177.5t-203 -58.5q-82 0 -152 40t-128 120q-102 -92 -183 -126t-174 -34q-149 0 -254 119t-105 298 q0 148 75.5 285.5t198.5 214.5t253 77q95 0 169.5 -43t143.5 -146z"/>
<glyph glyph-name="Scaron" horiz-adv-x="1366" unicode="Š" d="M1214 1354q38 27 110 93h68l-109 -511h-69q0 147 -27 233q-39 125 -130 195.5t-216 70.5q-141 0 -232 -81.5t-91 -200.5q0 -61 24.5 -108.5t72 -80t185.5 -82.5q196 -72 259 -105q100 -52 152.5 -135.5t52.5 -199.5q0 -130 -66.5 -237t-198.5 -173.5t-288 -66.5 q-116 0 -215.5 38t-201.5 127l-120 -97h-65l109 531h70q0 -193 48 -298t151.5 -166.5t226.5 -61.5q160 0 268.5 92.5t108.5 217.5q0 61 -27.5 112t-88.5 92q-43 30 -211 93q-204 77 -270 124.5t-102.5 121.5t-36.5 171q0 185 141.5 317t344.5 132q188 0 373 -157zM921 1775 l283 173h54l-310 -330h-90l-205 330h42z"/>
<glyph glyph-name="scaron" horiz-adv-x="909" unicode="š" d="M546 965q143 0 220 -58t77 -144q0 -55 -30.5 -89.5t-74.5 -34.5q-41 0 -69 28t-28 68q0 26 21 57q17 23 17 36q0 26 -33.5 47.5t-100.5 21.5q-104 0 -166.5 -54.5t-62.5 -131.5q0 -53 36 -85t191 -81q135 -42 187 -102q51 -61 51 -147q0 -131 -112 -228t-292 -97 q-155 0 -240 67.5t-85 167.5q0 61 33.5 98.5t81.5 37.5q43 0 71 -28t28 -69q0 -20 -7.5 -36t-32.5 -40q-22 -22 -22 -41q0 -34 45.5 -63t131.5 -29q110 0 179.5 58.5t69.5 139.5q0 58 -37 95q-38 37 -163 77q-150 48 -198 101q-49 53 -49 133q0 130 106 227.5t257 97.5z M625 1271l283 173h54l-310 -330h-90l-205 330h42z"/>
<glyph glyph-name="Ydieresis" horiz-adv-x="1403" unicode="Ÿ" d="M274 1479h577l-14 -75h-79q-68 0 -93 -15.5t-25 -40.5q0 -13 7 -28l239 -577l381 479q55 70 55 108q0 65 -169 74l24 75h455l-19 -75q-108 -15 -192 -121l-489 -615l-137 -516q-2 -8 -2 -17q0 -27 22 -41q29 -19 86 -19h110l-19 -75h-666l17 75h103q108 0 126 63l138 502 l-293 705q-25 59 -110 59h-51zM1265 1885q42 0 72 -30.5t30 -75.5q0 -44 -30 -75t-73 -31t-74 31t-31 75t31 75t75 31zM868 1885q43 0 73 -30.5t30 -73.5q0 -45 -30 -75.5t-73 -30.5t-74 30.5t-31 74.5q0 43 30.5 74t74.5 31z"/>
<glyph glyph-name="circumflex" d="M458 1442h95l203 -329h-35l-230 182l-297 -182h-45z" unicode="ˆ"/>
<glyph glyph-name="caron" d="M471 1271l283 173h54l-310 -330h-90l-205 330h42z" unicode="ˇ"/>
<glyph glyph-name="ring" d="M514 1376q-52 0 -88.5 -36.5t-36.5 -88.5q0 -51 36.5 -87.5t88.5 -36.5q51 0 87.5 36.5t36.5 87.5q0 52 -36.5 88.5t-87.5 36.5zM514 1444q79 0 135 -56t56 -136t-56 -136t-135 -56t-135 56t-56 136q0 79 57 135.5t134 56.5z" unicode="˚"/>
<glyph glyph-name="tilde" d="M170 1164q7 117 58.5 173.5t130.5 56.5q69 0 198 -48q107 -41 155 -41q78 0 99 87h34q-4 -109 -57.5 -167.5t-137.5 -58.5q-30 0 -72.5 10t-169.5 55q-71 25 -106 25q-82 0 -97 -92h-35z" unicode="˜"/>
<glyph glyph-name="Alpha" horiz-adv-x="1442" unicode="Α" d="M873 1175l-383 -604h466zM961 1479h81l180 -1304q7 -52 41.5 -76t106.5 -24h50l-20 -75h-600l20 75h53q86 0 112.5 18t26.5 56q0 15 -3 35l-41 299h-534l-131 -206q-35 -55 -35 -110q0 -44 32.5 -68t105.5 -24h49l-21 -75h-526l20 75q80 6 138 45t118 133z"/>
<glyph glyph-name="Beta" horiz-adv-x="1479" unicode="Β" d="M603 728l-154 -574q-3 -11 -3 -20q0 -28 21 -41q29 -18 90 -18h206q207 0 318 128q91 103 91 276q0 113 -76 181t-208 68h-285zM623 802h254q106 0 192 49.5t133.5 139t47.5 197.5q0 115 -83 176q-57 42 -218 42q-118 0 -144.5 -17t-47.5 -96zM331 1479h728 q148 0 235.5 -40t133 -113t45.5 -177q0 -152 -107.5 -244t-323.5 -125q182 -37 271.5 -128.5t89.5 -215.5q0 -182 -144 -293q-184 -143 -458 -143h-809l22 75h124q73 0 92 71l313 1158q7 24 7 48q0 27 -19 39.5t-82 12.5h-136z"/>
<glyph glyph-name="Gamma" horiz-adv-x="1311" unicode="Γ" d="M749 75l-19 -75h-685l15 75h94q62 0 87 23t45 98l299 1110q7 25 7 34q0 38 -17.5 51t-79.5 13h-123l19 75h1166l-84 -475h-71q8 67 8 107q0 293 -295 293h-215q-48 0 -65.5 -19t-26.5 -54l-313 -1181q-3 -13 -3 -20q0 -55 93 -55h164z"/>
<glyph glyph-name="Delta" horiz-adv-x="1366" unicode="Δ" d="M849 1194l-694 -1116h897zM936 1479h67l273 -1479h-1276z"/>
<glyph glyph-name="Epsilon" horiz-adv-x="1479" unicode="Ε" d="M350 1479h1181l-114 -477h-71q17 96 17 156q0 126 -68 186t-216 60h-205q-42 0 -64 -21.5t-41 -93.5l-131 -489h104q237 0 317 264h75l-179 -670h-73q21 92 21 135q0 97 -50 147.5t-141 50.5h-92l-148 -558q-5 -17 -5 -33q0 -29 16 -42q24 -19 60 -19h235 q183 0 317 101.5t232 337.5h72l-157 -514h-1204l9 75h78q103 0 123 74l311 1159q5 19 5 36q0 28 -23.5 44t-87.5 16h-123z"/>
<glyph glyph-name="Zeta" horiz-adv-x="1366" unicode="Ζ" d="M475 1479h988v-52l-1132 -1352h245q175 0 286.5 44t205 140.5t173.5 270.5l61 -25l-150 -505h-1104v43l1137 1361h-253q-186 0 -299 -83q-137 -101 -261 -350l-63 23z"/>
<glyph glyph-name="Eta" horiz-adv-x="1706" unicode="Η" d="M376 1479h634l-16 -75h-88q-61 0 -89.5 -21.5t-43.5 -77.5l-134 -491h651l135 503q4 15 4 29q0 26 -26.5 42t-97.5 16h-92l19 75h632l-13 -75h-80q-59 0 -88.5 -21.5t-43.5 -71.5l-305 -1141q-5 -18 -5 -35q0 -29 24.5 -44.5t94.5 -15.5h71l-17 -75h-615l19 75h73 q63 0 94.5 22t45.5 73l146 549h-649l-151 -556q-5 -19 -5 -28q0 -26 26 -43t96 -17h103l-17 -75h-623l20 75h48q112 0 131 71l310 1150q9 33 9 49q0 28 -24.5 43.5t-89.5 15.5h-90z"/>
<glyph glyph-name="Theta" horiz-adv-x="1593" unicode="Θ" d="M507 443l142 597h73q-14 -77 -14 -110q0 -76 47 -103t128 -27h63q102 0 155 57t95 183h74l-142 -597h-73q0 185 -31.5 234.5t-124.5 49.5h-79q-70 0 -125.5 -43.5t-113.5 -240.5h-74zM1040 1447q-116 0 -230.5 -60.5t-213 -220.5t-148.5 -359t-50 -365q0 -197 86.5 -299 t243.5 -102q306 0 475 342t169 674q0 181 -87 285.5t-245 104.5zM1026 1514q256 0 413.5 -165t157.5 -424q0 -392 -267 -673t-607 -281q-242 0 -398.5 167.5t-156.5 418.5q0 234 111.5 459t317.5 361.5t429 136.5z"/>
<glyph glyph-name="Iota" horiz-adv-x="834" unicode="Ι" d="M347 1479h669l-15 -75h-102q-51 0 -78 -21.5t-40 -72.5l-302 -1127q-4 -17 -4 -43q0 -32 23.5 -48.5t84.5 -16.5h124l-17 -75h-682l19 75h96q117 0 138 78l307 1169q4 13 4 25q0 27 -21 42t-72 15h-148z"/>
<glyph glyph-name="Kappa" horiz-adv-x="1518" unicode="Κ" d="M331 1479h628l-17 -75h-106q-94 0 -114 -75l-173 -636l674 552q56 47 56 81q0 35 -27.5 56.5t-85.5 21.5h-59l17 75h596l-17 -75q-93 0 -151 -22.5t-147 -95.5l-494 -408l343 -728q36 -75 163 -75h80l-17 -75h-673l19 75h85q66 0 91.5 15.5t25.5 38.5q0 22 -16 55 l-265 560l-233 -191l-109 -403q-3 -9 -3 -19q0 -25 18 -38q26 -18 67 -18h148l-15 -75h-654l19 75h90q92 0 113 75l320 1179q2 9 2 19q0 25 -24 40.5t-81 15.5h-94z"/>
<glyph glyph-name="Lambda" horiz-adv-x="1442" unicode="Λ" d="M873 1175l-566 -899q-39 -64 -39 -114q0 -87 138 -87h49l-21 -75h-526l20 75q147 7 256 178l777 1226h81l180 -1304q14 -100 148 -100h50l-20 -75h-600l20 75h53q78 0 108.5 15.5t30.5 57.5q0 13 -3 36z"/>
<glyph glyph-name="Mu" horiz-adv-x="1933" unicode="Μ" d="M360 1479h499l111 -1133l711 1133h457l-17 -75h-70q-64 0 -93.5 -19t-39.5 -56l-315 -1179q-3 -9 -3 -18q0 -25 22 -39q28 -18 87 -18h113l-18 -75h-651l17 75h98q60 0 88.5 20.5t41.5 69.5l324 1211l-863 -1376h-54l-140 1376l-277 -1030q-22 -82 -22 -119 q0 -47 22 -80.5t64.5 -52.5t123.5 -19l-20 -75h-556l19 75q97 4 165.5 61t91.5 143l280 1050q2 9 2 18q0 26 -23 41.5t-83 15.5h-113z"/>
<glyph glyph-name="Nu" horiz-adv-x="1669" unicode="Ν" d="M350 1479h419l515 -1135l229 869q7 25 7 50q0 67 -41.5 104t-122.5 37h-42l17 75h517l-18 -75q-171 -9 -216 -175l-330 -1229h-67l-581 1273l-254 -958q-18 -66 -18 -98q0 -46 20 -77t53 -43q62 -22 124 -22h34l-18 -75h-559l19 75q116 15 161 57.5t83 182.5l267 987 q3 9 3 17q0 35 -33 55q-48 30 -125 30h-58z"/>
<glyph glyph-name="Xi" horiz-adv-x="1473" unicode="Ξ" d="M156 496h70q-28 -117 -28 -189q0 -63 50 -115.5t234 -52.5h286q383 0 549 357h72l-151 -496h-1202zM385 443l142 597h73q-15 -77 -15 -110q0 -76 48.5 -103t131.5 -27h112q100 0 162 52t107 188h74l-142 -597h-73q2 42 2 66q0 127 -39 172.5t-146 45.5h-124 q-181 0 -239 -284h-74zM252 1020l139 459h1166l-108 -459h-70q16 95 16 149q0 68 -49.5 120t-234.5 52h-250q-212 0 -337 -87t-199 -234h-73z"/>
<glyph glyph-name="Omicron" horiz-adv-x="1593" unicode="Ο" d="M1042 1447q-119 0 -223 -55.5t-200 -191t-158.5 -347.5t-62.5 -414q0 -197 87.5 -297.5t242.5 -100.5q161 0 295.5 105t231.5 350q117 293 117 561q0 188 -90 289t-240 101zM1035 1517q245 0 403.5 -164t158.5 -427q0 -255 -121.5 -476.5t-328.5 -350t-424 -128.5 q-239 0 -397 164.5t-158 424.5q0 252 123 478t325 352.5t419 126.5z"/>
<glyph glyph-name="Pi" horiz-adv-x="1706" unicode="Π" d="M376 1479h1488l-13 -75h-80q-107 0 -132 -93l-305 -1141q-5 -18 -5 -33q0 -62 117 -62h73l-17 -75h-615l19 75h73q42 0 82.5 15t57.5 80l327 1216h-651l-330 -1223q-5 -19 -5 -29q0 -59 122 -59h103l-17 -75h-623l20 75h48q112 0 131 71l310 1150q9 33 9 48q0 60 -114 60 h-90z"/>
<glyph glyph-name="Rho" horiz-adv-x="1366" unicode="Ρ" d="M592 743q107 -13 183 -13q231 0 342 108q124 122 124 327q0 120 -74 179.5t-261 59.5q-88 0 -117 -16.5t-39 -56.5zM333 1479h570q215 0 328.5 -43t173.5 -130t60 -197q0 -192 -141 -305q-182 -146 -517 -146q-79 0 -233 12l-137 -509q-4 -13 -4 -26q0 -28 22.5 -44 t74.5 -16h124l-18 -75h-639l18 75h76q103 0 123 71l316 1170q3 13 3 27q0 30 -22.5 45.5t-85.5 15.5h-111z"/>
<glyph glyph-name="Sigma" horiz-adv-x="1366" unicode="Σ" d="M1442 1479l-114 -477h-71q17 93 17 156q0 126 -68.5 186t-216.5 60h-354l174 -583l-557 -682h312q166 0 282.5 34.5t212 120t170.5 218.5l61 -25l-138 -487h-1104v43l583 710l-214 674v52h1025z"/>
<glyph glyph-name="Tau" horiz-adv-x="1403" unicode="Τ" d="M379 1479h1221l-129 -543h-75q29 138 29 224q0 132 -58.5 192.5t-181.5 60.5q-72 0 -98 -18.5t-41 -73.5l-312 -1163q-3 -10 -3 -21q0 -30 23 -46t77 -16h151l-20 -75h-729l19 75h139q60 0 89.5 20.5t40.5 62.5l310 1151q6 21 6 40q0 29 -24 46.5t-79 17.5 q-92 0 -174 -48t-162 -158q-47 -63 -155 -271h-70z"/>
<glyph glyph-name="Upsilon" horiz-adv-x="1403" unicode="Υ" d="M274 1479h577l-14 -75h-79q-68 0 -93 -15.5t-25 -40.5q0 -13 7 -28l239 -577l381 479q55 70 55 108q0 65 -169 74l24 75h455l-19 -75q-108 -15 -192 -121l-489 -615l-137 -516q-2 -8 -2 -17q0 -27 22 -41q29 -19 86 -19h110l-19 -75h-666l17 75h103q108 0 126 63l138 502 l-293 705q-25 59 -110 59h-51z"/>
<glyph glyph-name="Phi" horiz-adv-x="1683" unicode="Φ" d="M930 321h75q149 0 276.5 87t188.5 254.5t61 269.5q0 241 -296 241h-61zM961 1173h-61q-158 0 -280.5 -79t-189 -241.5t-66.5 -285.5q0 -115 74 -180.5t218 -65.5h60zM767 1404l22 75h682l-22 -75h-93q-73 0 -101.5 -18.5t-43.5 -70.5l-20 -70h67q213 0 351.5 -94 t138.5 -279q0 -131 -91.5 -284.5t-264 -247t-415.5 -93.5h-73l-21 -76q-9 -31 -9 -48q0 -48 87 -48h155l-21 -75h-682l21 75h105q65 0 91.5 20.5t42.5 75.5l22 76h-66q-236 0 -361.5 104.5t-125.5 265.5q0 142 101.5 300.5t286 243t418.5 84.5h33l24 83q6 21 6 33 q0 43 -104 43h-140z"/>
<glyph glyph-name="Chi" horiz-adv-x="1442" unicode="Χ" d="M264 1479h631l-13 -75h-54q-74 0 -102.5 -18t-28.5 -44q0 -17 11 -44l174 -410l336 355q37 38 37 82q0 37 -26.5 58t-80.5 21h-55l20 75h549l-19 -75h-42q-43 0 -105.5 -30t-106.5 -76l-469 -493l258 -607q32 -74 72 -97.5t155 -25.5l-16 -75h-625l12 75h52 q84 0 116.5 18.5t32.5 44.5q0 18 -11 44l-202 467l-325 -346q-75 -79 -75 -133q0 -40 35.5 -64.5t134.5 -30.5l-19 -75h-560l19 75q72 9 121 36q87 49 133 97l502 525l-236 553q-30 71 -68.5 94.5t-132.5 23.5h-40z"/>
<glyph glyph-name="Psi" horiz-adv-x="2021" unicode="Ψ" d="M277 1404l21 75h612l-22 -75h-93q-69 0 -93.5 -18.5t-44.5 -88.5l-91 -319q-41 -141 -41 -221q0 -166 309 -166h105l203 706q13 45 13 63q0 44 -90 44h-93l22 75h609l-21 -75h-93q-69 0 -93.5 -18.5t-44.5 -88.5l-203 -706h108q248 0 347.5 122.5t140.5 264.5l91 319 q13 45 13 63q0 44 -89 44h-93l21 75h611l-21 -75h-92q-69 0 -93.5 -19t-44.5 -88l-104 -364q-62 -216 -222.5 -328t-492.5 -112h-108l-89 -311q-13 -44 -13 -63q0 -44 89 -44h130l-22 -75h-682l22 75h129q69 0 93.5 19t44.5 88l89 311h-100q-235 0 -368.5 52t-133.5 215 q0 63 32 173l104 364q13 45 13 63q0 44 -90 44h-91z"/>
<glyph glyph-name="alpha" horiz-adv-x="1176" unicode="α" d="M814 660q0 96 -61 161t-143 65q-148 0 -255.5 -182t-107.5 -398q0 -243 196 -243q170 0 270.5 224t100.5 373zM715 157q-123 -186 -296 -186q-138 0 -246 103t-108 281q0 232 169.5 421t362.5 189q100 0 172.5 -56t103.5 -144l133 200h65l-209 -773q-9 -33 -9 -55 q0 -65 39 -65q44 0 109 91t98 162l58 -26q-158 -328 -323 -328q-56 0 -88.5 44.5t-32.5 99.5q0 16 2 42z"/>
<glyph glyph-name="beta" horiz-adv-x="1139" unicode="β" d="M657 869q195 23 272 139.5t77 246.5q0 80 -38 130t-111 50q-117 0 -221 -161t-178 -439l-176 -658q124 -126 263 -126q91 0 151.5 57t119 199t58.5 283q0 209 -238 209zM249 57q-76 -276 -127 -393q-31 -7 -115 -39q-74 -28 -86 -28q-15 0 -15 16q0 12 38 94 q94 201 204 596l165 588q95 339 235.5 481t322.5 142q131 0 215.5 -81t84.5 -219q0 -267 -353 -373q229 -97 229 -350q0 -201 -140 -360.5t-352 -159.5q-161 0 -306 86z"/>
<glyph glyph-name="gamma" horiz-adv-x="952" unicode="γ" d="M540 225q254 393 254 482q0 24 -19 78q-18 51 -18 78q0 40 23 71t71 31q89 0 89 -92q0 -77 -71.5 -221t-222.5 -383q-62 -99 -92 -198q-96 -323 -137 -407q-154 -68 -192 -68q-24 0 -24 17q0 12 26 67q99 203 127.5 305.5t28.5 195.5q0 101 -40 326.5t-62.5 270.5 t-51.5 45q-67 0 -147 -178l-61 25q58 145 133 220t142 75q64 0 109.5 -65.5t85.5 -289t49 -385.5z"/>
<glyph glyph-name="delta" horiz-adv-x="1024" unicode="δ" d="M425 38q170 0 265.5 214.5t95.5 395.5q0 109 -50.5 179t-145.5 70q-164 0 -262 -206t-98 -398q0 -113 50.5 -184t144.5 -71zM508 943q-225 112 -225 257q0 120 128.5 217.5t301.5 97.5q146 0 251 -63.5t105 -159.5q0 -109 -93 -109q-90 0 -90 88q0 14 6 43q5 26 5 39 q0 97 -167 97q-127 0 -207 -72t-80 -162q0 -72 51.5 -121t171.5 -109q137 -68 187 -107t80 -108.5t30 -181.5q0 -259 -157 -438.5t-374 -179.5q-174 0 -273.5 128t-99.5 293q0 177 117.5 329.5t331.5 221.5z"/>
<glyph glyph-name="epsilon" horiz-adv-x="942" unicode="ε" d="M574 522l-22 -75q-153 0 -243 -71t-90 -164q0 -72 58.5 -118t152.5 -46q177 0 338 179l46 -31q-174 -225 -451 -225q-161 0 -246.5 58.5t-85.5 164.5q0 217 352 290q-198 56 -198 196q0 115 134.5 200t321.5 85q117 0 197.5 -47.5t80.5 -159.5q0 -73 -34 -112t-85 -39 q-43 0 -70.5 28.5t-27.5 70.5q0 67 72 89q38 12 38 35q0 32 -47.5 51t-105.5 19q-114 0 -207 -70t-93 -164q0 -53 47 -98.5t168 -45.5z"/>
<glyph glyph-name="zeta" horiz-adv-x="889" unicode="ζ" d="M1178 1479l-19 -89q-543 -394 -714.5 -618t-171.5 -424q0 -94 47 -140t192 -104q152 -61 192.5 -109t40.5 -113q0 -116 -103 -201.5t-267 -85.5q-138 0 -233.5 49.5t-95.5 141.5q0 42 24.5 74t72.5 32q87 0 87 -79q0 -14 -7 -30q-5 -14 -5 -25q0 -44 44 -70t115 -26 q98 0 157.5 50t59.5 123q0 39 -20.5 66.5t-115.5 67.5q-170 73 -230 108.5t-97.5 102t-37.5 156.5q0 196 151 404t564 473q161 103 212 143h-371q-148 0 -254 -25l31 148h752z"/>
<glyph glyph-name="eta" horiz-adv-x="1192" unicode="η" d="M271 0l-165 -8l221 778q7 24 7 35q0 64 -94 64h-89l19 67l357 18l-86 -325q230 326 430 326q72 0 123 -49.5t51 -149.5q0 -67 -49 -238l-105 -368q-99 -348 -158 -486q-177 -67 -201 -67q-15 0 -15 16q0 12 38 94q83 179 183 513l123 409q20 66 20 107q0 114 -88 114 q-99 0 -232.5 -155.5t-202.5 -395.5z"/>
<glyph glyph-name="theta" horiz-adv-x="1118" unicode="θ" d="M364 719q-81 -307 -81 -455q0 -110 45.5 -166t120.5 -56q72 0 140 48t120 164t142 465h-487zM875 814q70 267 70 405q0 96 -46.5 160t-133.5 64q-121 0 -198.5 -127t-178.5 -502h487zM765 1514q159 0 245 -129.5t86 -365.5q0 -240 -102 -499.5t-249 -404t-298 -144.5 q-141 0 -228.5 122.5t-87.5 353.5q0 190 68.5 414t178.5 381t202 214.5t185 57.5z"/>
<glyph glyph-name="iota" d="M527 954l-222 -783q-9 -30 -9 -52q0 -25 11.5 -37.5t30.5 -12.5q36 0 85 46q81 77 157 216l53 -31q-73 -159 -174 -244t-182 -85q-54 0 -92 42.5t-38 111.5q0 68 22 144l148 511q4 13 4 25q0 27 -23 42q-31 20 -93 20h-63l20 69z" unicode="ι"/>
<glyph glyph-name="kappa" horiz-adv-x="1227" unicode="κ" d="M403 466l-133 -466l-165 -8l221 778q7 24 7 35q0 64 -94 64h-89l19 67l358 18l-112 -419h99q107 0 161.5 46.5t126.5 190.5q51 102 101 146.5t129 44.5q68 0 113 -39.5t45 -103.5t-35 -100t-85 -36q-45 0 -69.5 27t-24.5 55q0 16 10 44q8 25 8 36q0 30 -28 30 q-45 0 -114 -145q-95 -195 -217 -232q53 0 103.5 -29.5t70 -65.5t33.5 -154q12 -105 22 -132t36 -27q19 0 40.5 18t59.5 113l63 -16q-69 -222 -232 -222q-80 0 -114.5 45.5t-34.5 178.5v79q0 97 -36.5 138t-118.5 41h-124z"/>
<glyph glyph-name="lambda" horiz-adv-x="1133" unicode="λ" d="M601 740q-216 -546 -322.5 -657.5t-224.5 -111.5q-65 0 -102 36.5t-37 91.5q0 45 28.5 74t66.5 29q37 0 55.5 -16.5t36.5 -64.5q11 -30 32 -30q61 0 146.5 137.5t298.5 649.5q-13 182 -39 321t-44.5 160t-40.5 21q-86 0 -176 -191l-51 29q124 296 287 296q59 0 101 -42.5 t60.5 -134.5t48.5 -337q57 -471 88.5 -644.5t53.5 -215.5t57 -42q75 0 196 198l49 -28q-167 -297 -330 -297q-54 0 -101.5 53.5t-74 222t-62.5 493.5z"/>
<glyph glyph-name="mu" horiz-adv-x="1251" unicode="μ" d="M261 0q-47 -202 -99 -336q-179 -67 -201 -67q-15 0 -15 16q0 12 26 67q56 121 86 212.5t142 454.5l131 423q6 22 6 31q0 24 -28 43.5t-89 19.5h-55l20 72l367 18l-199 -617q-32 -100 -32 -164q0 -98 93 -98q91 0 220 133.5t210 380.5l113 347h162l-240 -740 q-16 -49 -16 -79q0 -57 46 -57q94 0 228 260l58 -20q-66 -150 -158.5 -239.5t-188.5 -89.5q-59 0 -94 37t-35 100q0 54 24 149q-219 -286 -383 -286q-46 0 -99 29z"/>
<glyph glyph-name="nu" horiz-adv-x="922" unicode="ν" d="M62 645l-61 25q58 145 133 220t142 75q63 0 108 -64t84.5 -271.5t51.5 -404.5q254 393 254 482q0 24 -19 78q-18 51 -18 78q0 40 23 71t71 31q89 0 89 -92q0 -77 -68.5 -215.5t-225.5 -388.5q-126 -201 -174 -290h-65q-6 201 -55.5 489t-76 321.5t-46.5 33.5 q-67 0 -147 -178z"/>
<glyph glyph-name="xi" horiz-adv-x="854" unicode="ξ" d="M847 844l-12 -79q-73 7 -108 7q-182 0 -320.5 -121t-138.5 -297q0 -78 47 -125.5t182 -109.5q152 -69 200.5 -112.5t48.5 -124.5q0 -116 -103 -201.5t-267 -85.5q-145 0 -237 50.5t-92 140.5q0 42 24.5 74t72.5 32q87 0 87 -79q0 -14 -7 -30q-5 -14 -5 -25q0 -44 44 -70 t115 -26q100 0 158.5 50.5t58.5 123.5q0 48 -26.5 74t-113.5 64q-214 95 -288 166.5t-74 177.5q0 182 168 327t419 193q-279 74 -279 232q0 80 73 142t373 141h-369q-55 0 -150 -14l26 140h717l-20 -92q-274 -89 -373.5 -161.5t-99.5 -161.5q0 -173 269 -220z"/>
<glyph glyph-name="omicron" horiz-adv-x="1024" unicode="ο" d="M592 897q-75 0 -151.5 -63.5t-138 -222.5t-61.5 -318q0 -123 53 -189t135 -66q78 0 152 62t137 226.5t63 322.5q0 117 -53.5 182.5t-135.5 65.5zM588 965q154 0 261.5 -114.5t107.5 -290.5q0 -152 -76.5 -294.5t-196.5 -218.5t-249 -76q-154 0 -263.5 116.5t-109.5 291.5 q0 146 78 288.5t199.5 220t248.5 77.5z"/>
<glyph glyph-name="pi1" horiz-adv-x="1307" unicode="π" d="M990 838h-473l-186 -648q-14 -49 -14 -69q0 -46 81 -46h65l-21 -75h-496l21 75h65q42 0 76.5 18t57.5 97l165 576q8 28 8 45q0 50 -81 50h-65l22 75h1134l-22 -75h-65q-54 0 -83 -21t-44 -74l-167 -580q-13 -45 -13 -65q0 -46 82 -46h64l-21 -75h-496l22 75h64 q61 0 88 25.5t46 89.5z"/>
<glyph glyph-name="rho" horiz-adv-x="1085" unicode="ρ" d="M653 897q-151 0 -251.5 -200t-100.5 -406q0 -117 52 -185t137 -68q156 0 254 209t98 402q0 113 -52.5 180.5t-136.5 67.5zM237 95q-68 -249 -129 -431q-13 -4 -64 -26q-100 -41 -125 -41q-15 0 -15 16q0 8 6 23q99 239 163 503q99 406 145 526.5t169 210t262 89.5 q151 0 260 -114.5t109 -291.5q0 -228 -156.5 -408t-363.5 -180q-149 0 -261 124z"/>
<glyph glyph-name="sigma1" horiz-adv-x="875" unicode="ς" d="M731 -120q0 -112 -98.5 -198.5t-268.5 -86.5q-138 0 -233.5 49.5t-95.5 141.5q0 42 24.5 74t72.5 32q87 0 87 -79q0 -14 -7 -30q-5 -14 -5 -25q0 -44 43.5 -70t117.5 -26q100 0 157.5 51.5t57.5 109.5q0 31 -29.5 62.5t-176.5 121.5q-171 105 -234 181t-63 209 q0 210 157 389t385 179q112 0 182.5 -56t70.5 -152q0 -71 -34 -110.5t-86 -39.5q-42 0 -69.5 28.5t-27.5 70.5q0 67 72 89q37 12 37 35q0 26 -39 48t-93 22q-146 0 -259.5 -137.5t-113.5 -322.5q0 -105 49.5 -165.5t182 -144t185 -135t52.5 -115.5z"/>
<glyph glyph-name="sigma" horiz-adv-x="1057" unicode="σ" d="M592 897q-86 0 -170 -81t-132.5 -242t-48.5 -283q0 -114 51 -183.5t137 -69.5q156 0 254 209t98 402q0 113 -52.5 180.5t-136.5 67.5zM722 936h354l-21 -84h-225q127 -121 127 -293q0 -228 -156 -408t-363 -180q-160 0 -268 118.5t-108 290.5q0 219 159.5 402t366.5 183 q68 0 134 -29z"/>
<glyph glyph-name="tau" horiz-adv-x="836" unicode="τ" d="M864 838h-270l-176 -600q-15 -51 -15 -92q0 -77 56 -77q103 0 253 259l55 -31q-170 -326 -370 -326q-77 0 -116.5 48t-39.5 112q0 63 20 130l170 577q-141 -2 -196.5 -38.5t-109.5 -166.5h-75l98 303h736z"/>
<glyph glyph-name="upsilon" horiz-adv-x="1014" unicode="υ" d="M140 864l23 72l347 18l-217 -671q-19 -59 -19 -94q0 -144 155 -144q196 0 306 215t110 393q0 66 -41 124q-37 55 -37 98q0 90 86 90q100 0 100 -142q0 -253 -142.5 -552.5t-416.5 -299.5q-113 0 -196 43.5t-83 142.5q0 78 34 182l144 435q5 16 5 25q0 65 -124 65h-34z "/>
<glyph glyph-name="phi" horiz-adv-x="1348" unicode="φ" d="M611 44q282 0 396 220t114 455q0 176 -129 176q-80 0 -129.5 -74t-114.5 -299zM684 965l-21 -71q-84 -1 -143 -25t-124 -98.5t-112.5 -215.5t-47.5 -270q0 -225 206 -241l127 444q50 176 100 267t140.5 150.5t196.5 59.5q275 0 275 -292q0 -252 -150 -474t-537 -228 q-68 -231 -102 -307q-182 -67 -201 -67q-15 0 -15 16q0 12 39 94q58 125 104 264q-357 33 -357 353q0 234 157.5 437.5t464.5 203.5z"/>
<glyph glyph-name="chi" horiz-adv-x="1086" unicode="χ" d="M540 438q34 48 111 172q153 247 236 301t156 54q139 0 139 -128q0 -44 -25 -73.5t-64 -29.5q-60 0 -85 73q-11 29 -32 29q-51 0 -128.5 -75.5t-290.5 -428.5q36 -342 67.5 -475t79.5 -133q68 0 173 197l44 -28q-157 -298 -304 -298q-90 0 -129 135t-66 421l-154 -260 q-96 -160 -180 -228t-164 -68q-61 0 -102.5 34.5t-41.5 94.5q0 45 25.5 74.5t62.5 29.5q55 0 78 -64q17 -46 42 -46q56 0 150 121.5t272 428.5l-60 439q-17 124 -76 124q-78 0 -158 -182l-46 30q120 286 276 286q76 0 119 -83.5t75 -443.5z"/>
<glyph glyph-name="psi" horiz-adv-x="1593" unicode="ψ" d="M123 869l19 67l364 18l-150 -552q-42 -155 -42 -199q0 -91 93 -125t174 -34h36l158 559q47 166 47 206q0 60 -86 60h-88l19 67l357 18l-247 -910h33q136 0 207 32.5t108 87.5t71 169l179 603h327l-20 -71h-28q-87 0 -125.5 -29.5t-59.5 -105.5l-97 -340 q-58 -206 -126 -285t-182.5 -106.5t-280.5 -27.5h-23q-40 -175 -80 -307q-175 -67 -197 -67q-15 0 -15 16q0 11 35 95q62 149 96 263h-39q-188 0 -296 58t-108 167q0 78 43 226l80 278q23 81 23 116q0 53 -90 53h-89z"/>
<glyph glyph-name="afii10023" horiz-adv-x="1479" unicode="Ё" d="M350 1479h1181l-114 -477h-71q17 96 17 156q0 126 -68 186t-216 60h-205q-42 0 -64 -21.5t-41 -93.5l-131 -489h104q237 0 317 264h75l-179 -670h-73q21 92 21 135q0 97 -50 147.5t-141 50.5h-92l-148 -558q-5 -17 -5 -33q0 -29 16 -42q24 -19 60 -19h235 q183 0 317 101.5t232 337.5h72l-157 -514h-1204l9 75h78q103 0 123 74l311 1159q5 19 5 36q0 28 -23.5 44t-87.5 16h-123zM1242 1885q42 0 72 -30.5t30 -75.5q0 -44 -30 -75t-73 -31t-74 31t-31 75t31 75t75 31zM845 1885q43 0 73 -30.5t30 -73.5q0 -45 -30 -75.5t-73 -30.5 t-74 30.5t-31 74.5q0 43 30.5 74t74.5 31z"/>
<glyph glyph-name="afii10051" horiz-adv-x="1720" unicode="Ђ" d="M1048 151q58 -88 130 -88q114 0 178.5 137.5t64.5 308.5q0 234 -187 234q-140 0 -377 -136l-118 -434q-7 -25 -7 -38q0 -60 100 -60h101l-20 -75h-679l19 75h139q108 0 130 83l306 1137q10 35 10 54q0 64 -104 64q-123 0 -232 -89t-258 -388h-70l206 543h1221l-129 -543 h-75q28 132 28 224q0 253 -237 253q-73 0 -99 -18t-41 -74l-169 -622q261 162 431 162q154 0 249 -89.5t95 -268.5q0 -220 -125.5 -372t-310.5 -152q-169 0 -240 139z"/>
<glyph glyph-name="afii10052" horiz-adv-x="1311" unicode="Ѓ" d="M749 75l-19 -75h-685l15 75h94q62 0 87 23t45 98l299 1110q7 25 7 34q0 38 -17.5 51t-79.5 13h-123l19 75h1166l-84 -475h-71q8 67 8 107q0 293 -295 293h-215q-48 0 -65.5 -19t-26.5 -54l-313 -1181q-3 -13 -3 -20q0 -55 93 -55h164zM895 1592l-22 23l232 275 q80 95 123 95q31 0 56 -25t25 -55q0 -66 -104 -128z"/>
<glyph glyph-name="afii10053" horiz-adv-x="1458" unicode="Є" d="M968 719h-534q-18 -135 -18 -219q0 -222 111.5 -335t287.5 -113q163 0 293.5 104.5t201.5 293.5l64 -25q-168 -454 -603 -454q-254 0 -423.5 170t-169.5 426q0 364 239.5 655.5t577.5 291.5q201 0 369 -166l105 99h67l-108 -541h-64q0 285 -99 411.5t-260 126.5 q-186 0 -330 -163.5t-221 -470.5h533z"/>
<glyph glyph-name="afii10054" horiz-adv-x="1366" unicode="Ѕ" d="M1214 1354q38 27 110 93h68l-109 -511h-69q0 147 -27 233q-39 125 -130 195.5t-216 70.5q-141 0 -232 -81.5t-91 -200.5q0 -61 24.5 -108.5t72 -80t185.5 -82.5q196 -72 259 -105q100 -52 152.5 -135.5t52.5 -199.5q0 -130 -66.5 -237t-198.5 -173.5t-288 -66.5 q-116 0 -215.5 38t-201.5 127l-120 -97h-65l109 531h70q0 -193 48 -298t151.5 -166.5t226.5 -61.5q160 0 268.5 92.5t108.5 217.5q0 61 -27.5 112t-88.5 92q-43 30 -211 93q-204 77 -270 124.5t-102.5 121.5t-36.5 171q0 185 141.5 317t344.5 132q188 0 373 -157z"/>
<glyph glyph-name="afii10055" horiz-adv-x="834" unicode="І" d="M347 1479h669l-15 -75h-102q-51 0 -78 -21.5t-40 -72.5l-302 -1127q-4 -17 -4 -43q0 -32 23.5 -48.5t84.5 -16.5h124l-17 -75h-682l19 75h96q117 0 138 78l307 1169q4 13 4 25q0 27 -21 42t-72 15h-148z"/>
<glyph glyph-name="afii10056" horiz-adv-x="834" unicode="Ї" d="M347 1479h669l-15 -75h-102q-51 0 -78 -21.5t-40 -72.5l-302 -1127q-4 -17 -4 -43q0 -32 23.5 -48.5t84.5 -16.5h124l-17 -75h-682l19 75h96q117 0 138 78l307 1169q4 13 4 25q0 27 -21 42t-72 15h-148zM969 1885q42 0 72 -30.5t30 -75.5q0 -44 -30 -75t-73 -31t-74 31 t-31 75t31 75t75 31zM572 1885q43 0 73 -30.5t30 -73.5q0 -45 -30 -75.5t-73 -30.5t-74 30.5t-31 74.5q0 43 30.5 74t74.5 31z"/>
<glyph glyph-name="afii10057" horiz-adv-x="1251" unicode="Ј" d="M773 1479h639l-13 -75h-81q-88 0 -109 -78l-241 -902q-65 -242 -178 -340q-138 -119 -365 -119q-180 0 -279.5 87.5t-99.5 229.5q0 139 70 221.5t171 82.5q71 0 115.5 -41t44.5 -101q0 -56 -35.5 -92t-91.5 -36q-42 0 -93 30q-32 18 -47 18q-23 0 -40.5 -26.5 t-17.5 -80.5q0 -88 73 -149t192 -61q132 0 218.5 77.5t127.5 231.5l257 956q4 15 4 30q0 31 -22 46.5t-79 15.5h-139z"/>
<glyph glyph-name="afii10058" horiz-adv-x="2380" unicode="Љ" d="M1514 757l-158 -592q-6 -22 -6 -33q0 -57 110 -57h207q213 0 315 126.5t102 299.5q0 118 -74.5 187t-210.5 69h-285zM1535 832h245q261 0 398 -106t137 -260q0 -201 -163.5 -333.5t-447.5 -132.5h-814l18 75h97q117 0 137 78l329 1251h-279q-122 0 -176 -28.5 t-100 -139.5t-175 -476q-176 -495 -304 -642t-288 -147q-73 0 -126 38t-53 108q0 78 43.5 127t107.5 49q105 0 126 -104q7 -38 16.5 -50.5t30.5 -12.5q130 0 308 491.5t178 655.5q0 131 -155 131h-38l21 75h1290l-16 -75h-102q-53 0 -78.5 -22t-39.5 -73z"/>
<glyph glyph-name="afii10059" horiz-adv-x="2349" unicode="Њ" d="M1487 739l-159 -585q-4 -15 -4 -21q0 -58 111 -58h207q213 0 314 125.5t101 282.5q0 113 -75 184.5t-210 71.5h-285zM887 0l19 75h73q44 0 83.5 16t56.5 79l147 551h-650l-151 -558q-5 -19 -5 -29q0 -59 122 -59h103l-17 -75h-623l20 75h48q112 0 131 71l310 1150 q9 33 9 48q0 60 -114 60h-90l17 75h634l-16 -75h-88q-63 0 -91 -22.5t-42 -76.5l-134 -492h651l135 504q5 19 5 30q0 57 -125 57h-92l19 75h632l-13 -75h-80q-106 0 -132 -93l-135 -498h244q265 0 400.5 -107t135.5 -262q0 -125 -65.5 -224t-200 -159.5t-338.5 -60.5h-793z "/>
<glyph glyph-name="afii10060" horiz-adv-x="1905" unicode="Ћ" d="M1393 170l84 287q19 66 19 106q0 91 -65 137t-174 46q-159 0 -400 -139l-115 -425q-10 -34 -10 -46q0 -61 100 -61h151l-20 -75h-729l19 75h139q108 0 130 83l310 1151q7 27 7 39q0 65 -105 65q-123 0 -232 -89t-258 -388h-70l206 543h1221l-129 -543h-75q28 133 28 223 q0 254 -234 254q-73 0 -100.5 -16t-43.5 -76l-168 -622q265 162 456 162q166 0 268 -76t102 -223q0 -63 -29 -161l-64 -224q-10 -31 -10 -42q0 -60 93 -60h102l-16 -75h-623l15 75h102q50 0 76 19.5t42 75.5z"/>
<glyph glyph-name="afii10061" horiz-adv-x="1548" unicode="Ќ" d="M675 802h122q174 0 249 39.5t136 190.5q111 277 196.5 364.5t184.5 87.5q79 0 119 -45t40 -99q0 -55 -36 -94t-92 -39q-38 0 -59.5 14.5t-46.5 52.5q-19 29 -44 29q-39 0 -70 -40.5t-107 -207.5q-77 -169 -127.5 -219.5t-172.5 -76.5q121 -31 180.5 -85t75 -121.5 t18.5 -272.5q2 -123 14.5 -154t47.5 -31q73 0 146 179l53 -18q-96 -277 -290 -277q-89 0 -143.5 64t-54.5 186q0 65 20 184q11 68 11 102q0 103 -51.5 159.5t-196.5 56.5h-141l-153 -567q-6 -23 -6 -34q0 -55 95 -55h149l-17 -75h-679l18 75h113q48 0 72 17.5t38 69.5 l309 1145q8 27 8 37q0 60 -104 60h-128l18 75h707l-19 -75h-123q-69 0 -98.5 -18.5t-41.5 -62.5zM928 1592l-22 23l232 275q80 95 123 95q31 0 56 -25t25 -55q0 -66 -104 -128z"/>
<glyph glyph-name="afii10062" horiz-adv-x="1493" unicode="Ў" d="M695 1797q0 79 46.5 135.5t113.5 56.5q39 0 69 -24t30 -71q0 -71 -98 -132q-36 -23 -36 -42q0 -34 58 -58t190 -24q157 0 225 34t68 67q0 13 -23 43q-33 43 -33 82q0 49 36 87t91 38q47 0 75 -30t28 -81q0 -122 -125 -216.5t-372 -94.5q-343 0 -343 230zM267 1479h597 l-15 -75h-81q-104 0 -104 -87q0 -26 19 -99l203 -758l484 712q52 77 52 127q0 105 -123 105h-92l14 75h574l-15 -75h-39q-102 0 -198 -138l-753 -1091q-50 -72 -143 -138t-213 -66q-109 0 -168.5 55.5t-59.5 130.5q0 67 40 109.5t98 42.5q115 0 128 -146q6 -64 73 -64 q85 0 155 101l32 47l-297 1047q-21 75 -51 92.5t-132 17.5z"/>
<glyph glyph-name="afii10145" horiz-adv-x="1706" unicode="Џ" d="M1568 75l-17 -75h-219q-208 0 -308 -26.5t-170 -113t-109 -258.5h-77q7 57 7 122q0 118 -29 175.5t-84 79t-161 21.5h-356l20 75h48q112 0 131 71l310 1150q9 33 9 48q0 60 -114 60h-90l17 75h634l-16 -75h-88q-62 0 -90 -22t-43 -77l-335 -1219h651l329 1205 q11 41 11 54q0 59 -124 59h-92l19 75h632l-13 -75h-80q-107 0 -132 -93l-300 -1123q-10 -36 -10 -53q0 -60 119 -60h120z"/>
<glyph glyph-name="afii10017" horiz-adv-x="1442" unicode="А" d="M873 1175l-383 -604h466zM961 1479h81l180 -1304q7 -52 41.5 -76t106.5 -24h50l-20 -75h-600l20 75h53q86 0 112.5 18t26.5 56q0 15 -3 35l-41 299h-534l-131 -206q-35 -55 -35 -110q0 -44 32.5 -68t105.5 -24h49l-21 -75h-526l20 75q80 6 138 45t118 133z"/>
<glyph glyph-name="afii10018" horiz-adv-x="1513" unicode="Б" d="M644 751l-160 -597q-4 -15 -4 -21q0 -58 112 -58h206q224 0 319.5 133t95.5 303q0 105 -76.5 172.5t-207.5 67.5h-285zM1558 1479l-84 -475h-71q8 67 8 107q0 293 -295 293h-219q-45 0 -63 -17.5t-29 -55.5l-141 -506h253q269 0 397.5 -108t128.5 -260q0 -201 -166 -329 t-441 -128h-791l22 75h106q73 0 92 71l313 1158q9 33 9 48q0 52 -103 52h-118l18 75h1174z"/>
<glyph glyph-name="afii10019" horiz-adv-x="1513" unicode="В" d="M603 728l-154 -574q-3 -11 -3 -20q0 -28 21 -41q29 -18 90 -18h206q207 0 318 128q91 103 91 276q0 113 -76 181t-208 68h-285zM623 802h254q106 0 192 49.5t133.5 139t47.5 197.5q0 115 -83 176q-57 42 -218 42q-118 0 -144.5 -17t-47.5 -96zM331 1479h728 q148 0 235.5 -40t133 -113t45.5 -177q0 -152 -107.5 -244t-323.5 -125q182 -37 271.5 -128.5t89.5 -215.5q0 -182 -144 -293q-184 -143 -458 -143h-809l22 75h124q73 0 92 71l313 1158q7 24 7 48q0 27 -19 39.5t-82 12.5h-136z"/>
<glyph glyph-name="afii10020" horiz-adv-x="1311" unicode="Г" d="M749 75l-19 -75h-685l15 75h94q62 0 87 23t45 98l299 1110q7 25 7 34q0 38 -17.5 51t-79.5 13h-123l19 75h1166l-84 -475h-71q8 67 8 107q0 293 -295 293h-215q-48 0 -65.5 -19t-26.5 -54l-313 -1181q-3 -13 -3 -20q0 -55 93 -55h164z"/>
<glyph glyph-name="afii10021" horiz-adv-x="1606" unicode="Д" d="M1339 1404h-276q-90 0 -157 -37.5t-102.5 -110.5t-113.5 -309q-154 -471 -268 -642.5t-226 -229.5h795zM1281 -373q29 137 29 209q0 65 -45 114.5t-216 49.5h-666q-154 0 -228 -26t-152 -117t-150 -230h-70l169 448q117 6 187 42t158.5 155.5t164 310.5t140 421.5 t64.5 290.5q0 109 -110 109h-80l24 75h1264l-15 -75h-101q-57 0 -82 -24.5t-37 -71.5l-297 -1115q-8 -28 -8 -44q0 -42 20.5 -58t104.5 -16h115l-108 -448h-75z"/>
<glyph glyph-name="afii10022" horiz-adv-x="1479" unicode="Е" d="M350 1479h1181l-114 -477h-71q17 96 17 156q0 126 -68 186t-216 60h-205q-42 0 -64 -21.5t-41 -93.5l-131 -489h104q237 0 317 264h75l-179 -670h-73q21 92 21 135q0 97 -50 147.5t-141 50.5h-92l-148 -558q-5 -17 -5 -33q0 -29 16 -42q24 -19 60 -19h235 q183 0 317 101.5t232 337.5h72l-157 -514h-1204l9 75h78q103 0 123 74l311 1159q5 19 5 36q0 28 -23.5 44t-87.5 16h-123z"/>
<glyph glyph-name="afii10024" horiz-adv-x="2042" unicode="Ж" d="M1486 768q81 0 152 -41t94.5 -107t23.5 -195l-2 -150q0 -158 58 -158q85 0 150 204h68q-106 -342 -343 -342q-169 0 -169 180q0 62 23 250q9 78 9 139q0 102 -55.5 140t-167.5 38h-105l-146 -543q-6 -19 -6 -27q0 -46 22.5 -63.5t86.5 -17.5h124l-17 -75h-682l19 75h96 q67 0 98 21t45 76l144 554h-87q-113 0 -176.5 -32.5t-104.5 -90t-97 -196.5q-76 -189 -116.5 -261t-112.5 -119.5t-156 -47.5q-100 0 -141 62t-41 136q0 58 19 144h68q-16 -71 -16 -120q0 -85 49 -85q71 0 181 215q89 175 154.5 258t148.5 125.5t210 59.5q-78 18 -104.5 62 t-26.5 127q0 51 17 283q2 29 2 51q0 84 -48 84q-27 0 -44 -48q-36 -98 -124 -98q-48 0 -79 30.5t-31 76.5q0 69 53.5 120.5t139.5 51.5q205 0 205 -243q0 -34 -9 -131q-11 -119 -11 -183q0 -102 50 -130t114 -28h133l136 508q7 27 7 41q0 56 -92 56h-148l15 75h670l-16 -75 h-101q-94 0 -119 -95l-136 -510h129q100 0 157 36t84.5 89t73.5 165q77 190 120.5 263.5t110 117.5t143.5 44q72 0 114 -39t42 -99q0 -64 -35 -102.5t-98 -38.5q-55 0 -93 61q-23 37 -59 37q-42 0 -72.5 -45.5t-110.5 -240.5q-53 -128 -101.5 -191.5t-159.5 -87.5z"/>
<glyph glyph-name="afii10025" horiz-adv-x="1288" unicode="З" d="M74 415l66 12q8 -219 122.5 -295t259.5 -76q200 0 319.5 129.5t119.5 298.5q0 244 -290 244h-144l18 73h174q155 0 263.5 107.5t108.5 275.5q0 252 -271 252q-118 0 -243 -61.5t-264 -334.5h-69l106 453h68q53 -76 69 -93q181 114 379 114q199 0 323 -91t124 -256 q0 -151 -118 -256.5t-330 -132.5q326 -101 326 -348q0 -202 -176.5 -330.5t-443.5 -128.5q-247 0 -372 111t-125 300v33z"/>
<glyph glyph-name="afii10026" horiz-adv-x="1706" unicode="И" d="M376 1479h634l-16 -75h-88q-63 0 -91 -22.5t-42 -76.5l-251 -917l888 869l11 44q7 29 7 44q0 59 -123 59h-92l19 75h632l-13 -75h-80q-107 0 -132 -93l-296 -1109q-14 -50 -14 -67q0 -60 119 -60h71l-17 -75h-615l19 75h73q68 0 97.5 23.5t47.5 91.5l239 896l-879 -858 l-13 -45q-10 -34 -10 -48q0 -60 121 -60h103l-17 -75h-623l20 75h48q66 0 94.5 20t41.5 67l305 1134q9 33 9 48q0 60 -114 60h-90z"/>
<glyph glyph-name="afii10027" horiz-adv-x="1706" unicode="Й" d="M814 1797q0 79 46.5 135.5t113.5 56.5q42 0 70.5 -25t28.5 -70q0 -71 -98 -132q-36 -23 -36 -42q0 -34 58.5 -58t189.5 -24q160 0 226.5 34t66.5 67q0 13 -23 43q-33 43 -33 82q0 49 36 87t91 38q47 0 75 -30t28 -81q0 -122 -125 -216.5t-372 -94.5q-343 0 -343 230z M376 1479h634l-16 -75h-88q-63 0 -91 -22.5t-42 -76.5l-251 -917l888 869l11 44q7 29 7 44q0 59 -123 59h-92l19 75h632l-13 -75h-80q-107 0 -132 -93l-296 -1109q-14 -50 -14 -67q0 -60 119 -60h71l-17 -75h-615l19 75h73q68 0 97.5 23.5t47.5 91.5l239 896l-879 -858 l-13 -45q-10 -34 -10 -48q0 -60 121 -60h103l-17 -75h-623l20 75h48q66 0 94.5 20t41.5 67l305 1134q9 33 9 48q0 60 -114 60h-90z"/>
<glyph glyph-name="afii10028" horiz-adv-x="1548" unicode="К" d="M675 802h122q174 0 249 39.5t136 190.5q111 277 196.5 364.5t184.5 87.5q79 0 119 -45t40 -99q0 -55 -36 -94t-92 -39q-38 0 -59.5 14.5t-46.5 52.5q-19 29 -44 29q-39 0 -70 -40.5t-107 -207.5q-77 -169 -127.5 -219.5t-172.5 -76.5q121 -31 180.5 -85t75 -121.5 t18.5 -272.5q2 -123 14.5 -154t47.5 -31q73 0 146 179l53 -18q-96 -277 -290 -277q-89 0 -143.5 64t-54.5 186q0 65 20 184q11 68 11 102q0 103 -51.5 159.5t-196.5 56.5h-141l-153 -567q-6 -23 -6 -34q0 -55 95 -55h149l-17 -75h-679l18 75h113q48 0 72 17.5t38 69.5 l309 1145q8 27 8 37q0 60 -104 60h-128l18 75h707l-19 -75h-123q-69 0 -98.5 -18.5t-41.5 -62.5z"/>
<glyph glyph-name="afii10029" horiz-adv-x="1739" unicode="Л" d="M1356 156q0 -46 22 -63.5t87 -17.5h124l-17 -75h-682l18 75h97q75 0 102.5 24.5t43.5 86.5l320 1218h-285q-122 0 -174.5 -28.5t-79.5 -88t-156 -430.5q-190 -545 -321 -715.5t-306 -170.5q-79 0 -129 40.5t-50 112.5q0 69 42.5 119t108.5 50q105 0 126 -104 q7 -38 17 -50.5t33 -12.5q125 0 307.5 491t182.5 665q0 50 -28 86t-133 36h-38l21 75h1289l-15 -75h-92q-59 0 -86 -18t-48 -96l-296 -1107q-5 -19 -5 -27z"/>
<glyph glyph-name="afii10030" horiz-adv-x="1933" unicode="М" d="M360 1479h499l111 -1133l711 1133h457l-17 -75h-70q-64 0 -93.5 -19t-39.5 -56l-315 -1179q-3 -9 -3 -18q0 -25 22 -39q28 -18 87 -18h113l-18 -75h-651l17 75h98q60 0 88.5 20.5t41.5 69.5l324 1211l-863 -1376h-54l-140 1376l-277 -1030q-22 -82 -22 -119 q0 -47 22 -80.5t64.5 -52.5t123.5 -19l-20 -75h-556l19 75q97 4 165.5 61t91.5 143l280 1050q2 9 2 18q0 26 -23 41.5t-83 15.5h-113z"/>
<glyph glyph-name="afii10031" horiz-adv-x="1706" unicode="Н" d="M376 1479h634l-16 -75h-88q-61 0 -89.5 -21.5t-43.5 -77.5l-134 -491h651l135 503q4 15 4 29q0 26 -26.5 42t-97.5 16h-92l19 75h632l-13 -75h-80q-59 0 -88.5 -21.5t-43.5 -71.5l-305 -1141q-5 -18 -5 -35q0 -29 24.5 -44.5t94.5 -15.5h71l-17 -75h-615l19 75h73 q63 0 94.5 22t45.5 73l146 549h-649l-151 -556q-5 -19 -5 -28q0 -26 26 -43t96 -17h103l-17 -75h-623l20 75h48q112 0 131 71l310 1150q9 33 9 49q0 28 -24.5 43.5t-89.5 15.5h-90z"/>
<glyph glyph-name="afii10032" horiz-adv-x="1593" unicode="О" d="M1042 1447q-119 0 -223 -55.5t-200 -191t-158.5 -347.5t-62.5 -414q0 -197 87.5 -297.5t242.5 -100.5q161 0 295.5 105t231.5 350q117 293 117 561q0 188 -90 289t-240 101zM1035 1517q245 0 403.5 -164t158.5 -427q0 -255 -121.5 -476.5t-328.5 -350t-424 -128.5 q-239 0 -397 164.5t-158 424.5q0 252 123 478t325 352.5t419 126.5z"/>
<glyph glyph-name="afii10033" horiz-adv-x="1706" unicode="П" d="M376 1479h1488l-13 -75h-80q-107 0 -132 -93l-300 -1123q-10 -36 -10 -53q0 -60 117 -60h73l-17 -75h-615l19 75h73q42 0 82.5 15t57.5 80l327 1216h-651l-326 -1207q-9 -35 -9 -46q0 -58 122 -58h103l-17 -75h-623l20 75h48q112 0 131 71l310 1150q9 33 9 48 q0 60 -114 60h-90z"/>
<glyph glyph-name="afii10034" horiz-adv-x="1366" unicode="Р" d="M592 743q107 -13 183 -13q231 0 342 108q124 122 124 327q0 120 -74 179.5t-261 59.5q-88 0 -117 -16.5t-39 -56.5zM333 1479h570q215 0 328.5 -43t173.5 -130t60 -197q0 -192 -141 -305q-182 -146 -517 -146q-79 0 -233 12l-137 -509q-4 -13 -4 -26q0 -28 22.5 -44 t74.5 -16h124l-18 -75h-639l18 75h76q103 0 123 71l316 1170q3 13 3 27q0 30 -22.5 45.5t-85.5 15.5h-111z"/>
<glyph glyph-name="afii10035" horiz-adv-x="1479" unicode="С" d="M1374 1348l105 99h67l-108 -541h-64q-1 167 -29 262q-38 133 -122.5 204.5t-206.5 71.5q-152 0 -289 -120t-226 -383q-75 -226 -75 -441q0 -216 108 -332t290 -116q158 0 287 98.5t209 299.5l64 -25q-81 -209 -206 -315q-164 -139 -395 -139q-257 0 -426 170.5 t-169 430.5q0 244 122 475t305 349.5t390 118.5q100 0 186 -37.5t183 -129.5z"/>
<glyph glyph-name="afii10036" horiz-adv-x="1403" unicode="Т" d="M379 1479h1221l-129 -543h-75q29 138 29 224q0 132 -58.5 192.5t-181.5 60.5q-72 0 -98 -18.5t-41 -73.5l-312 -1163q-3 -10 -3 -21q0 -30 23 -46t77 -16h151l-20 -75h-729l19 75h139q60 0 89.5 20.5t40.5 62.5l310 1151q6 21 6 40q0 29 -24 46.5t-79 17.5 q-92 0 -174 -48t-162 -158q-47 -63 -155 -271h-70z"/>
<glyph glyph-name="afii10037" horiz-adv-x="1493" unicode="У" d="M267 1479h597l-15 -75h-81q-104 0 -104 -87q0 -26 19 -99l203 -758l484 712q52 77 52 127q0 105 -123 105h-92l14 75h574l-15 -75h-39q-102 0 -198 -138l-753 -1091q-50 -72 -143 -138t-213 -66q-109 0 -168.5 55.5t-59.5 130.5q0 67 40 109.5t98 42.5q115 0 128 -146 q6 -64 73 -64q85 0 155 101l32 47l-297 1047q-21 75 -51 92.5t-132 17.5z"/>
<glyph glyph-name="afii10038" horiz-adv-x="1780" unicode="Ф" d="M948 289h89q107 0 235.5 55t213.5 206.5t85 352.5q0 166 -81.5 251.5t-226.5 85.5h-61zM986 1240h-89q-254 0 -392 -182t-138 -420q0 -165 85.5 -257t217.5 -92h66zM773 1404l15 75h670l-16 -75h-101q-45 0 -73.5 -14t-46.5 -71h43q196 0 294.5 -57.5t161.5 -153.5 t63 -249q0 -250 -187.5 -449.5t-577.5 -199.5h-88q-12 -52 -12 -73q0 -62 107 -62h124l-17 -75h-682l18 75h97q72 0 100.5 26t48.5 109h-65q-152 0 -254 50t-172 145.5t-70 257.5q0 255 193 455.5t576 200.5h83q6 28 6 40q0 45 -89 45h-149z"/>
<glyph glyph-name="afii10039" horiz-adv-x="1442" unicode="Х" d="M264 1479h631l-13 -75h-54q-74 0 -102.5 -18t-28.5 -44q0 -17 11 -44l174 -410l336 355q37 38 37 82q0 37 -26.5 58t-80.5 21h-55l20 75h549l-19 -75h-42q-43 0 -105.5 -30t-106.5 -76l-469 -493l258 -607q32 -74 72 -97.5t155 -25.5l-16 -75h-625l12 75h52 q84 0 116.5 18.5t32.5 44.5q0 18 -11 44l-202 467l-325 -346q-75 -79 -75 -133q0 -40 35.5 -64.5t134.5 -30.5l-19 -75h-560l19 75q72 9 121 36q87 49 133 97l502 525l-236 553q-30 71 -68.5 94.5t-132.5 23.5h-40z"/>
<glyph glyph-name="afii10040" horiz-adv-x="1706" unicode="Ц" d="M45 0l20 75h48q112 0 131 71l310 1150q9 33 9 48q0 60 -114 60h-90l17 75h634l-16 -75h-88q-62 0 -90 -22t-43 -77l-335 -1219h651l331 1211q9 34 9 47q0 60 -124 60h-92l19 75h632l-13 -75h-80q-107 0 -132 -93l-302 -1130q-8 -29 -8 -46q0 -60 119 -60h179l-110 -473 h-75q8 55 8 125q0 113 -29 171t-83 80t-163 22h-1130z"/>
<glyph glyph-name="afii10041" horiz-adv-x="1565" unicode="Ч" d="M841 1404h-102q-48 0 -75 -18.5t-44 -76.5l-83 -286q-19 -66 -19 -108q0 -83 60.5 -132.5t178.5 -49.5q153 0 397 137l115 428q10 37 10 47q0 59 -92 59h-125l15 75h647l-16 -75h-101q-55 0 -80.5 -23t-38.5 -72l-301 -1126q-5 -19 -5 -27q0 -46 22 -63.5t87 -17.5h124 l-17 -75h-682l18 75h97q116 0 137 78l167 627q-263 -162 -449 -162q-180 0 -278.5 78.5t-98.5 214.5q0 69 28 167l66 225q8 31 8 44q0 57 -92 57h-102l15 75h624z"/>
<glyph glyph-name="afii10042" horiz-adv-x="2372" unicode="Ш" d="M45 0l20 75h48q112 0 131 71l310 1150q9 33 9 48q0 60 -114 60h-90l17 75h634l-15 -75h-89q-62 0 -90 -22t-43 -77l-335 -1219h557l321 1215q9 34 9 46q0 57 -92 57h-110l16 75h631l-16 -75h-101q-94 0 -119 -94l-325 -1224h545l331 1213q9 33 9 47q0 58 -124 58h-91 l18 75h633l-14 -75h-79q-107 0 -133 -94l-299 -1118q-11 -40 -11 -57q0 -60 119 -60h80l-22 -75h-2126z"/>
<glyph glyph-name="afii10043" horiz-adv-x="2372" unicode="Щ" d="M45 0l20 75h48q112 0 131 71l310 1150q9 33 9 48q0 60 -114 60h-90l17 75h634l-16 -75h-88q-62 0 -90 -22t-43 -77l-335 -1219h551l323 1219q8 30 8 41q0 58 -93 58h-102l16 75h623l-15 -75h-102q-93 0 -118 -94l-326 -1224h551l330 1208q10 38 10 53q0 57 -124 57h-91 l18 75h633l-14 -75h-79q-107 0 -133 -94l-303 -1133q-7 -25 -7 -42q0 -60 119 -60h179l-110 -473h-75q8 75 8 134q0 120 -37 176.5t-94.5 72t-193.5 15.5h-1745z"/>
<glyph glyph-name="afii10044" horiz-adv-x="1763" unicode="Ъ" d="M897 757l-158 -589q-6 -25 -6 -37q0 -56 110 -56h207q216 0 316 128.5t100 301.5q0 106 -73.5 179t-210.5 73h-285zM243 936h-70l206 543h939l-17 -75h-111q-79 0 -103 -18.5t-44 -92.5l-126 -461h243q261 0 399.5 -106.5t138.5 -259.5q0 -201 -163.5 -333.5 t-447.5 -132.5h-809l22 75h125q72 0 91 71l314 1158q8 32 8 45q0 64 -105 64q-123 0 -232 -89t-258 -388z"/>
<glyph glyph-name="afii10045" horiz-adv-x="2189" unicode="Ы" d="M664 757l-155 -580q-9 -34 -9 -46q0 -56 110 -56h206q222 0 319.5 134.5t97.5 285.5q0 123 -74 192.5t-210 69.5h-285zM45 0l22 75h124q73 0 92 71l309 1143q11 40 11 60q0 27 -15.5 41t-85.5 14h-136l18 75h701l-17 -75h-111q-79 0 -103 -18.5t-44 -92.5l-126 -461h244 q263 0 399.5 -106t136.5 -266q0 -112 -71 -227.5t-212 -174t-327 -58.5h-809zM1678 1479h669l-15 -75h-102q-51 0 -78 -21.5t-40 -72.5l-302 -1127q-4 -17 -4 -43q0 -32 23.5 -48.5t84.5 -16.5h124l-17 -75h-682l19 75h96q117 0 138 78l307 1169q4 13 4 25q0 27 -21 42 t-72 15h-148z"/>
<glyph glyph-name="afii10046" horiz-adv-x="1530" unicode="Ь" d="M664 757l-155 -580q-9 -34 -9 -46q0 -56 110 -56h206q222 0 319.5 134.5t97.5 285.5q0 123 -74 192.5t-210 69.5h-285zM45 0l22 75h124q73 0 92 71l309 1143q11 40 11 60q0 27 -15.5 41t-85.5 14h-136l18 75h701l-17 -75h-111q-79 0 -103 -18.5t-44 -92.5l-126 -461h244 q263 0 399.5 -106t136.5 -266q0 -112 -71 -227.5t-212 -174t-327 -58.5h-809z"/>
<glyph glyph-name="afii10047" horiz-adv-x="1534" unicode="Э" d="M1266 719h-538l24 91h532q29 132 29 249q0 188 -93 285.5t-261 97.5q-172 0 -310 -83t-258 -330h-69l110 469h68q46 -71 69 -95q185 111 393 111q244 0 410 -159.5t166 -428.5q0 -398 -261 -676.5t-587 -278.5q-437 0 -522 453l73 19q23 -172 138 -278.5t275 -106.5 q203 0 354 151.5t258 509.5z"/>
<glyph glyph-name="afii10048" horiz-adv-x="2312" unicode="Ю" d="M2091 1081q0 198 -94 282t-221 84q-300 0 -472 -327.5t-172 -680.5q0 -197 88 -297.5t241 -100.5q293 0 461.5 336.5t168.5 703.5zM918 745h-256l-143 -555q-7 -26 -7 -42q0 -40 24 -56.5t85 -16.5h124l-17 -75h-682l19 75h96q117 0 141 89l301 1145q7 26 7 38 q0 57 -93 57h-148l16 75h669l-15 -75h-103q-49 0 -75.5 -19.5t-41.5 -75.5l-135 -476h252q131 355 358.5 518t475.5 163q234 0 390 -158t156 -432q0 -373 -252 -663t-605 -290q-233 0 -395 160.5t-162 455.5q0 81 16 158z"/>
<glyph glyph-name="afii10049" horiz-adv-x="1567" unicode="Я" d="M1138 799l134 502q9 34 9 48q0 55 -104 55h-143q-136 0 -226 -26.5t-155 -121t-65 -218.5q0 -239 315 -239h235zM1726 1479l-16 -75h-101q-94 0 -119 -95l-301 -1126q-6 -19 -6 -27q0 -46 22.5 -63.5t86.5 -17.5h124l-17 -75h-682l18 75h98q117 0 137 78l147 562h-172 q-131 0 -200 -30t-120.5 -101.5t-141.5 -283.5q-84 -195 -140 -258t-165 -63q-202 0 -202 227q0 24 2 67h54q2 -155 65 -155q47 0 112 116q157 279 250 370.5t276 134.5q-166 26 -270.5 123.5t-104.5 227.5q0 107 68 203t185 141t364 45h749z"/>
<glyph glyph-name="afii10065" horiz-adv-x="1176" unicode="а" d="M610 886q-79 0 -159.5 -63.5t-142 -211.5t-61.5 -305q0 -124 51 -183.5t145 -59.5q84 0 156.5 59t143.5 231.5t71 306.5q0 96 -61 161t-143 65zM715 157q-60 -92 -139 -139t-156 -47q-149 0 -252 108.5t-103 275.5q0 152 80.5 297.5t206.5 229t245 83.5q96 0 169.5 -56.5 t99.5 -149.5l58 177l157 18l-219 -762q-9 -31 -9 -62q0 -28 11.5 -43t27.5 -15q30 0 68 41q74 79 139 212l58 -26q-157 -328 -321 -328q-53 0 -88 40.5t-35 104.5z"/>
<glyph glyph-name="afii10066" horiz-adv-x="1124" unicode="б" d="M874 650q0 108 -51 177.5t-146 69.5q-163 0 -261 -205t-98 -399q0 -113 50.5 -184t144.5 -71q170 0 265.5 214.5t95.5 397.5zM1214 1479h94q-38 -87 -83.5 -136t-110.5 -77.5t-122.5 -34.5t-220.5 -6q-115 0 -186 -28.5t-128.5 -91t-85 -125.5t-98.5 -252 q173 237 397 237q168 0 274 -117t106 -289q0 -223 -154.5 -405.5t-373.5 -182.5q-171 0 -271.5 117t-100.5 328q0 260 171.5 626.5t579.5 366.5l168 -2q115 0 145 72z"/>
<glyph glyph-name="afii10067" horiz-adv-x="1071" unicode="в" d="M295 397q-5 -43 -5 -65q0 -127 44.5 -209t136.5 -82q111 0 183.5 87t72.5 188q0 72 -41 112t-101 40q-56 0 -169 -35q-69 -21 -121 -36zM304 467q265 73 369 139t104 169q0 113 -118 113q-99 0 -198 -103.5t-157 -317.5zM632 517q146 -1 215.5 -65t69.5 -151 q0 -119 -115 -224.5t-303 -105.5t-288 111t-100 249q0 218 168 426t417 208q129 0 192 -58.5t63 -123.5q0 -90 -94 -162.5t-225 -103.5z"/>
<glyph glyph-name="afii10068" horiz-adv-x="907" unicode="г" d="M277 760l-60 31q167 174 373 174q134 0 207.5 -62.5t73.5 -157.5q0 -65 -33.5 -120t-88 -84.5t-179.5 -66.5q-129 -39 -191 -66.5t-98 -77.5t-36 -108q0 -64 39 -112.5t121 -48.5q148 0 301 156l48 -34q-67 -87 -181.5 -149.5t-243.5 -62.5q-131 0 -201 61.5t-70 158.5 q0 83 45 149.5t119.5 101t240.5 80.5q130 35 184 81t54 134q0 62 -41.5 104t-116.5 42q-141 0 -266 -123z"/>
<glyph glyph-name="afii10069" horiz-adv-x="1047" unicode="д" d="M615 879q-159 0 -264.5 -195t-105.5 -403q0 -237 174 -237q160 0 274 225.5t114 383.5q0 101 -52 163.5t-140 62.5zM407 1519q208 0 345.5 -73.5t210 -206t72.5 -324.5q0 -344 -178 -644t-431 -300q-151 0 -251.5 98.5t-100.5 276.5q0 257 162 438t372 181 q235 0 259 -275q31 163 31 272q0 201 -115.5 339.5t-375.5 150.5v67z"/>
<glyph glyph-name="afii10070" horiz-adv-x="909" unicode="е" d="M266 429q191 42 272 87t122.5 112t41.5 141q0 59 -30.5 92t-83.5 33q-96 0 -185.5 -109.5t-136.5 -355.5zM252 364q-5 -47 -5 -79q0 -110 53.5 -168.5t145.5 -58.5q72 0 142 37.5t175 150.5l46 -42q-189 -233 -400 -233q-144 0 -243 108t-99 276q0 148 83 290.5 t221.5 231t258.5 88.5q103 0 168.5 -59.5t65.5 -145.5q0 -73 -51.5 -145.5t-166 -129.5t-394.5 -121z"/>
<glyph glyph-name="afii10072" horiz-adv-x="1993" unicode="ж" d="M741 438q-51 -213 -194 -340t-291 -127q-103 0 -153.5 57t-50.5 141q0 65 32 106t84 41q39 0 69.5 -27t30.5 -70q0 -68 -72 -90q-37 -12 -37 -38t24 -43t62 -17q143 0 249 187t106 393q0 263 -166 263q-115 0 -273 -193l-51 38q104 129 185 187.5t178 58.5 q132 0 211.5 -105t79.5 -233q0 -41 -7 -109h179l123 428l168 8l-130 -436h170q64 203 200 325t283 122q103 0 153.5 -57.5t50.5 -140.5q0 -65 -32 -106.5t-84 -41.5q-39 0 -69.5 27t-30.5 70q0 68 71 90q38 12 38 38q0 27 -24 44t-62 17q-143 0 -249 -187t-106 -397 q0 -153 52.5 -206.5t113.5 -53.5q117 0 273 193l51 -38q-113 -140 -197 -192.5t-171 -52.5q-130 0 -207.5 104.5t-77.5 235.5q0 48 9 127h-175l-127 -438l-165 -8l126 446h-170z"/>
<glyph glyph-name="afii10073" horiz-adv-x="985" unicode="з" d="M599 493q232 -34 232 -200q0 -130 -122 -226t-348 -96q-194 0 -272 67.5t-78 156.5q0 65 41 112.5t104 47.5q48 0 72.5 -28.5t24.5 -68.5q0 -66 -57 -106q-30 -20 -30 -39q0 -73 174 -73q145 0 230.5 79.5t85.5 193.5q0 54 -27.5 87.5t-69 41t-141.5 7.5l22 81 q20 -1 29 -1q99 0 186.5 63.5t87.5 157.5q0 67 -51.5 103t-126.5 36q-63 0 -141 -31.5t-218 -172.5l-50 39q191 241 465 241q140 0 224 -57t84 -145q0 -97 -91.5 -169.5t-238.5 -100.5z"/>
<glyph glyph-name="afii10074" horiz-adv-x="1251" unicode="и" d="M552 954l-199 -617q-32 -100 -32 -163q0 -46 25.5 -72.5t68.5 -26.5q87 0 216.5 130.5t212.5 383.5l113 347h162l-239 -740q-16 -49 -16 -84q0 -26 11.5 -39t33.5 -13q90 0 229 260l57 -20q-78 -173 -170 -251t-175 -78q-60 0 -95 36.5t-35 100.5q0 53 23 149 q-126 -164 -221 -225t-180 -61q-87 0 -138 49.5t-51 129.5q0 66 43 198l135 422q5 16 5 31q0 27 -24 43q-32 20 -92 20h-55l20 72z"/>
<glyph glyph-name="afii10075" horiz-adv-x="1251" unicode="й" d="M1059 1352l50 -34q-65 -98 -175 -157t-215 -59q-83 0 -144 39.5t-61 115.5q0 58 35.5 93t85.5 35q45 0 72.5 -29.5t27.5 -67.5q0 -30 -32 -62q-22 -21 -22 -32q0 -24 57 -24q174 0 321 182zM552 954l-199 -617q-32 -100 -32 -163q0 -46 25.5 -72.5t68.5 -26.5 q87 0 216.5 130.5t212.5 383.5l113 347h162l-239 -740q-16 -49 -16 -84q0 -26 11.5 -39t33.5 -13q90 0 229 260l57 -20q-78 -173 -170 -251t-175 -78q-60 0 -95 36.5t-35 100.5q0 53 23 149q-126 -164 -221 -225t-180 -61q-87 0 -138 49.5t-51 129.5q0 66 43 198l135 422 q5 16 5 31q0 27 -24 43q-32 20 -92 20h-55l20 72z"/>
<glyph glyph-name="afii10076" horiz-adv-x="1227" unicode="к" d="M403 466l-133 -466l-165 -8l216 757q10 36 10 57q0 63 -92 63h-89l19 67l358 18l-112 -419h99q107 0 162.5 49t125.5 190q54 108 105 149.5t130 41.5q58 0 105.5 -38t47.5 -109q0 -62 -35 -98t-85 -36q-45 0 -69.5 27t-24.5 55q0 14 11 49q7 21 7 30q0 29 -28 29 q-44 0 -114 -145q-93 -191 -217 -230q78 -8 119.5 -38.5t58.5 -66t29 -144.5q12 -116 24 -137.5t34 -21.5q19 0 40.5 18t59.5 113l63 -16q-72 -227 -232 -227q-83 0 -116 49.5t-33 179.5v79q0 97 -36.5 138t-118.5 41h-124z"/>
<glyph glyph-name="afii10077" horiz-adv-x="1268" unicode="л" d="M388 936h755l-239 -740q-16 -49 -16 -79q0 -57 46 -57q94 0 228 260l57 -20q-65 -149 -157.5 -239t-188.5 -90q-59 0 -94 37t-35 100q0 74 23 149l192 612h-180q-96 0 -136.5 -50.5t-98.5 -223.5q-123 -365 -230.5 -494.5t-231.5 -129.5q-54 0 -98.5 35.5t-44.5 97.5 q0 54 35.5 87t82.5 33q89 0 100 -96q4 -38 33 -38q86 0 197 284t111 406q0 89 -106 89h-23z"/>
<glyph glyph-name="afii10078" horiz-adv-x="1599" unicode="м" d="M1475 936l-239 -740q-16 -49 -16 -79q0 -57 46 -57q94 0 228 260l57 -20q-65 -149 -157.5 -239t-188.5 -90q-129 0 -129 147q0 69 23 139l218 654l-626 -911h-27l-31 911l-36 -130q-95 -345 -216.5 -577.5t-310.5 -232.5q-49 0 -90.5 32.5t-41.5 94.5q0 57 34.5 91.5 t83.5 34.5q98 0 103 -93q2 -41 31 -41q85 0 197.5 290.5t112.5 399.5q0 89 -105 89h-25l19 67h386l24 -669l459 669h217z"/>
<glyph glyph-name="afii10079" horiz-adv-x="1253" unicode="н" d="M415 528h422l131 408h161l-239 -740q-16 -49 -16 -79q0 -57 46 -57q94 0 228 260l57 -20q-65 -149 -157.5 -239t-188.5 -90q-59 0 -94 37t-35 100q0 98 84 346h-412l-132 -454l-165 -8l221 778q7 24 7 35q0 64 -94 64h-89l19 67l357 18z"/>
<glyph glyph-name="afii10080" horiz-adv-x="1024" unicode="о" d="M592 897q-75 0 -151.5 -63.5t-138 -222.5t-61.5 -318q0 -123 53 -189t135 -66q78 0 152 62t137 226.5t63 322.5q0 117 -53.5 182.5t-135.5 65.5zM588 965q154 0 261.5 -114.5t107.5 -290.5q0 -152 -76.5 -294.5t-196.5 -218.5t-249 -76q-154 0 -263.5 116.5t-109.5 291.5 q0 146 78 288.5t199.5 220t248.5 77.5z"/>
<glyph glyph-name="afii10081" horiz-adv-x="1251" unicode="п" d="M526 954l-86 -325q230 326 430 326q77 0 125.5 -51.5t48.5 -140.5q0 -75 -34 -178l-107 -333l-26 -83q-6 -28 -6 -46q0 -21 12 -35.5t28 -14.5q43 0 110 66t120 199l62 -21q-65 -164 -163 -249.5t-183 -85.5q-59 0 -98.5 44t-39.5 113q0 58 23 127l118 363q20 60 20 117 q0 48 -25 76t-64 28q-89 0 -224.5 -147t-209.5 -404l-87 -299l-165 -8l221 778q5 18 5 35q0 30 -19 45q-26 19 -73 19h-89l19 67z"/>
<glyph glyph-name="afii10082" horiz-adv-x="1176" unicode="р" d="M729 874q-85 0 -177 -86.5t-148 -249t-56 -269.5q0 -97 50.5 -152.5t134.5 -55.5q83 0 160.5 64t143.5 223.5t66 313.5q0 98 -49.5 155t-124.5 57zM298 163l-108 -377q-7 -23 -7 -37q0 -27 22.5 -43.5t78.5 -16.5h62l-19 -74h-489l21 74h35q104 0 132 97l286 993 q4 12 4 25q0 29 -22.5 45.5t-74.5 16.5h-73l22 70l338 18l-51 -203q85 121 163 167.5t166 46.5q124 0 211.5 -99t87.5 -258q0 -160 -81.5 -315t-204 -238.5t-243.5 -83.5q-185 0 -256 192z"/>
<glyph glyph-name="afii10083" horiz-adv-x="909" unicode="с" d="M762 246l50 -38q-96 -128 -193 -182.5t-206 -54.5q-144 0 -239.5 103.5t-95.5 270.5q0 157 81.5 306.5t209.5 231.5t261 82q112 0 176 -57.5t64 -149.5q0 -71 -33 -110.5t-82 -39.5q-42 0 -71.5 28.5t-29.5 68.5q0 68 72 90q38 12 38 35t-33.5 46.5t-85.5 23.5 q-86 0 -172.5 -66t-147 -208t-60.5 -302q0 -136 55 -202.5t146 -66.5q146 0 296 191z"/>
<glyph glyph-name="afii10084" horiz-adv-x="1821" unicode="т" d="M1026 672q100 141 196 211.5t188 70.5q81 0 130.5 -50.5t49.5 -134.5q0 -86 -31 -182l-135 -422q-5 -16 -5 -33q0 -20 11.5 -32.5t29.5 -12.5q31 0 70 37q54 51 145 204l55 -34q-101 -179 -192 -256q-68 -56 -142 -56q-60 0 -95.5 41.5t-35.5 123.5q0 32 11 68l141 447 q15 44 15 86q0 45 -26.5 73t-66.5 28q-49 0 -108 -40q-88 -61 -150 -163q-95 -156 -130 -280l-106 -366l-167 -10l179 626q22 77 22 121q0 58 -24.5 85.5t-70.5 27.5q-54 0 -106 -36q-72 -50 -151.5 -178.5t-120.5 -269.5l-108 -366l-163 -10l221 784q4 15 4 29q0 29 -22 45 t-75 16h-52l20 72l322 18l-74 -292q180 292 378 292q84 0 129.5 -50t45.5 -150q0 -34 -6 -82z"/>
<glyph glyph-name="afii10085" horiz-adv-x="1024" unicode="у" d="M623 238q104 158 163 306q38 93 38 159q0 28 -14 89q-11 49 -11 74q0 43 25.5 71t61.5 28q38 0 62 -27.5t24 -76.5q0 -48 -36 -149q-49 -138 -134 -287l-235 -412q-79 -139 -182 -254q-75 -83 -153.5 -121t-139.5 -38q-76 0 -126.5 42t-50.5 101q0 48 31 81.5t72 33.5 q38 0 65.5 -27.5t27.5 -63.5l-2 -35l-1 -12q0 -17 12 -27q12 -11 33 -11q56 0 127 63q110 97 219 285l-65 340q-55 287 -113 396q-34 62 -63 62q-53 0 -116 -183l-61 25q57 160 132 238q54 57 112 57q60 0 95 -53q51 -75 121 -352z"/>
<glyph glyph-name="afii10086" horiz-adv-x="1643" unicode="ф" d="M1386 666q0 207 -150 207q-151 0 -259 -206.5t-108 -411.5q0 -95 45 -146.5t119 -51.5q160 0 256.5 214.5t96.5 394.5zM239 272q0 -209 149 -209q158 0 265 207.5t107 417.5q0 96 -45 147.5t-120 51.5q-159 0 -257.5 -218.5t-98.5 -396.5zM659 158q-136 -187 -323 -187 q-116 0 -195 93t-79 248q0 251 159 452t363 201q171 0 227 -171q133 442 241 581t238 139q60 0 101 -32t41 -88q0 -43 -23.5 -74.5t-68.5 -31.5q-66 0 -89 92q-10 41 -38 41q-37 0 -68.5 -59t-104.5 -327q-39 -146 -70 -249q139 179 319 179q115 0 194.5 -93t79.5 -251 q0 -251 -161 -450.5t-359 -199.5q-179 0 -232 183q-58 -261 -165.5 -409t-244.5 -148q-72 0 -113.5 37.5t-41.5 95.5q0 47 28.5 78.5t74.5 31.5q34 0 55.5 -21t21.5 -53q0 -14 -2 -33q-2 -13 -2 -22q0 -34 32 -34q42 0 74.5 71.5t130.5 409.5z"/>
<glyph glyph-name="afii10087" horiz-adv-x="1024" unicode="х" d="M578 614q126 201 161 243q51 63 94.5 85.5t86.5 22.5q55 0 88 -31.5t33 -84.5q0 -51 -26.5 -81t-67.5 -30q-50 0 -77 58q-18 37 -40 37q-23 0 -47 -26t-184 -281l71 -317q15 -69 33.5 -90t45.5 -21q79 0 203 198l49 -28q-89 -160 -175.5 -228.5t-150.5 -68.5 q-69 0 -102.5 48.5t-89.5 320.5q-135 -243 -214 -317q-56 -52 -132 -52q-60 0 -97 36.5t-37 91.5q0 44 28 73.5t68 29.5q30 0 50.5 -14t34.5 -51q12 -31 19.5 -38.5t19.5 -7.5q22 0 43 25q45 53 195 309l-72 330q-8 38 -25 56.5t-44 18.5q-76 0 -156 -191l-51 30 q70 171 137.5 233.5t136.5 62.5q65 0 101 -50.5t90 -300.5z"/>
<glyph glyph-name="afii10088" horiz-adv-x="1251" unicode="ц" d="M909 60q74 0 224 213h75q-48 -118 -82 -344q-24 -157 -64.5 -202t-121.5 -45q-75 0 -231 55l28 52q81 -29 114 -29q36 0 57 22t78 119l14 20q76 109 151 285q-101 -148 -169.5 -191.5t-131.5 -43.5q-60 0 -95 36.5t-35 100.5q0 53 23 149q-126 -164 -221 -225t-180 -61 q-87 0 -138 49.5t-51 129.5q0 66 43 198l135 422q5 16 5 31q0 27 -24 43q-32 20 -92 20h-55l20 72l366 18l-197 -617q-34 -107 -34 -162q0 -100 94 -100q92 0 220.5 134.5t208.5 379.5l114 347h161l-239 -740q-16 -49 -16 -80q0 -56 46 -56z"/>
<glyph glyph-name="afii10089" horiz-adv-x="1176" unicode="ч" d="M484 954l-88 -276q-33 -104 -33 -140q0 -85 98 -85q48 0 110 29t130 91.5t91 101.5t51 122l46 139h162l-239 -740q-17 -49 -17 -79q0 -57 46 -57q95 0 229 260l57 -20q-66 -149 -158.5 -239t-187.5 -90q-60 0 -95 37.5t-35 99.5q0 136 148 502q-210 -242 -415 -242 q-83 0 -132 45t-49 111q0 44 26 130l27 93q12 39 12 52q0 70 -115 70h-55l19 67z"/>
<glyph glyph-name="afii10090" horiz-adv-x="1765" unicode="ш" d="M1371 -29q-130 0 -130 148q0 73 16 136q-48 -102 -152 -193t-219 -91q-175 0 -175 202q0 35 7 82q-197 -284 -384 -284q-81 0 -130.5 51t-49.5 138q0 80 30 178l130 420q10 33 10 50q0 61 -112 61h-55l19 67l367 18l-206 -656q-25 -79 -25 -118q0 -50 28 -77t64 -27 q100 0 216.5 145.5t172.5 337.5l112 377h163l-181 -626q-22 -76 -22 -121q0 -113 95 -113q110 0 218 155t160 328l114 377h159l-198 -695q-28 -95 -28 -131q0 -50 46 -50q94 0 229 260l57 -20q-64 -147 -157 -238t-189 -91z"/>
<glyph glyph-name="afii10091" horiz-adv-x="1767" unicode="щ" d="M1371 -29q-130 0 -130 148q0 73 16 136q-48 -102 -152 -193t-219 -91q-175 0 -175 202q0 35 7 82q-197 -284 -384 -284q-89 0 -134.5 55t-45.5 139q0 75 30 173l133 432q7 22 7 33q0 66 -112 66h-55l19 67l367 18l-217 -690q-14 -45 -14 -81q0 -54 28.5 -80.5t63.5 -26.5 q100 0 216.5 145.5t172.5 337.5l112 377h163l-181 -626q-22 -76 -22 -121q0 -113 95 -113q110 0 218 155t160 328l114 377h159l-198 -695q-27 -95 -27 -132q0 -49 44 -49q74 0 214 213h75q-48 -119 -82 -344q-22 -149 -60.5 -198t-128.5 -49q-69 0 -228 55l28 52 q81 -29 115 -29q35 0 56 22t78 119l14 20q86 123 153 295q-137 -245 -293 -245z"/>
<glyph glyph-name="afii10092" horiz-adv-x="1040" unicode="ъ" d="M683 579q-118 0 -229 -121t-111 -268q0 -153 135 -153q119 0 220 129t101 269q0 144 -116 144zM453 526q111 136 279 136q106 0 177.5 -76t71.5 -183q0 -153 -151.5 -292.5t-378.5 -139.5q-143 0 -208 73t-65 173q0 191 241 440q89 92 143 173q-94 -45 -186 -45 q-55 0 -117 23q-66 23 -96 23q-33 0 -51 -16t-45 -67l-52 23q36 90 91 142t109 52q50 0 135 -32q85 -33 145 -33q81 0 88 38q7 35 32 35q32 0 32 -53q0 -40 -23.5 -100t-170.5 -294z"/>
<glyph glyph-name="afii10093" horiz-adv-x="1493" unicode="ы" d="M1207 936h162l-239 -740q-16 -49 -16 -87q0 -49 46 -49q93 0 228 260l57 -20q-64 -147 -157 -238t-189 -91q-59 0 -94 37t-35 101q0 73 23 148zM567 593q-122 0 -222.5 -139.5t-100.5 -278.5q0 -49 30 -86t93 -37q123 0 221.5 131t98.5 262q0 148 -120 148zM133 869 l19 67l359 18l-189 -452q135 175 309 175q101 0 168 -74t67 -178q0 -162 -151 -300.5t-346 -138.5q-122 0 -192.5 76.5t-70.5 168.5q0 87 42 200l122 323q10 28 10 45q0 70 -94 70h-53z"/>
<glyph glyph-name="afii10094" horiz-adv-x="926" unicode="ь" d="M567 593q-122 0 -222.5 -139.5t-100.5 -278.5q0 -49 30 -86t93 -37q123 0 221.5 131t98.5 262q0 148 -120 148zM133 869l19 67l359 18l-189 -452q135 175 309 175q101 0 168 -74t67 -178q0 -162 -151 -300.5t-346 -138.5q-122 0 -192.5 76.5t-70.5 168.5q0 87 42 200 l122 323q10 28 10 45q0 70 -94 70h-53z"/>
<glyph glyph-name="afii10095" horiz-adv-x="907" unicode="э" d="M641 456h-278l13 74h274q6 48 6 84q0 268 -188 268q-141 0 -288 -190l-51 38q174 235 374 235q142 0 240 -99.5t98 -293.5q0 -244 -160 -422.5t-374 -178.5q-130 0 -194.5 67.5t-64.5 147.5q0 60 32.5 101t83.5 41q40 0 70 -27.5t30 -69.5q0 -68 -71 -90q-38 -11 -38 -35 q0 -25 35 -47.5t92 -22.5q267 0 359 420z"/>
<glyph glyph-name="afii10096" horiz-adv-x="1520" unicode="ю" d="M1277 653q0 108 -52 176t-137 68q-148 0 -249.5 -197.5t-101.5 -411.5q0 -111 50.5 -180.5t139.5 -69.5q151 0 250.5 205t99.5 410zM415 528h162q78 227 220 332t287 105q152 0 260.5 -114.5t108.5 -291.5q0 -227 -156 -407.5t-363 -180.5q-163 0 -269.5 120.5 t-106.5 280.5q0 30 4 82h-160l-132 -454l-165 -8l221 778q7 24 7 35q0 64 -94 64h-89l19 67l357 18z"/>
<glyph glyph-name="afii10097" horiz-adv-x="1149" unicode="я" d="M816 874h-132q-123 0 -176.5 -18t-90 -73t-36.5 -128q0 -78 65 -117t169 -39h99zM988 936l-203 -740q-16 -58 -16 -86q0 -50 46 -50q93 0 228 260l58 -20q-66 -149 -158.5 -239t-188.5 -90q-59 0 -94 37t-35 101q0 61 28 167l41 152h-98q-78 0 -138.5 -31.5 t-109.5 -147.5l-50 -118q-68 -160 -199 -160q-78 0 -119 50.5t-41 178.5l60 6q2 -122 40 -122q40 0 84 85l52 100q77 149 298 176q-125 20 -194.5 87t-69.5 150q0 84 57 150.5t131 85t222 18.5h369z"/>
<glyph glyph-name="afii10071" horiz-adv-x="909" unicode="ё" d="M266 429q191 42 272 87t122.5 112t41.5 141q0 59 -30.5 92t-83.5 33q-96 0 -185.5 -109.5t-136.5 -355.5zM252 364q-5 -47 -5 -79q0 -110 53.5 -168.5t145.5 -58.5q72 0 142 37.5t175 150.5l46 -42q-189 -233 -400 -233q-144 0 -243 108t-99 276q0 148 83 290.5 t221.5 231t258.5 88.5q103 0 168.5 -59.5t65.5 -145.5q0 -73 -51.5 -145.5t-166 -129.5t-394.5 -121zM872 1382q42 0 72 -30.5t30 -75.5q0 -44 -30 -75t-73 -31t-74 31t-31 75t31 75t75 31zM475 1382q43 0 73 -30.5t30 -73.5q0 -45 -30 -75.5t-73 -30.5t-74 30.5t-31 74.5 q0 43 30.5 74t74.5 31z"/>
<glyph glyph-name="afii10099" horiz-adv-x="1212" unicode="ђ" d="M246 0l-168 -10l317 1101h-134l23 86h138l37 139q6 23 6 35q0 53 -128 53h-58l21 75l378 19l-92 -321h372l-23 -86h-375l-122 -421q205 295 406 295q83 0 141 -52t58 -147q0 -88 -48 -235l-109 -339q-85 -263 -196 -429t-261 -166q-72 0 -114 37.5t-42 95.5q0 47 29 78.5 t74 31.5q35 0 56 -21t21 -53q0 -14 -2 -38q-2 -10 -2 -17q0 -34 33 -34q34 0 79 76.5t176 484.5l104 326q38 117 38 179q0 60 -29.5 90t-69.5 30q-108 0 -248 -163.5t-195 -363.5z"/>
<glyph glyph-name="afii10100" horiz-adv-x="907" unicode="ѓ" d="M277 760l-60 31q167 174 373 174q134 0 207.5 -62.5t73.5 -157.5q0 -65 -33.5 -120t-88 -84.5t-179.5 -66.5q-129 -39 -191 -66.5t-98 -77.5t-36 -108q0 -64 39 -112.5t121 -48.5q148 0 301 156l48 -34q-67 -87 -181.5 -149.5t-243.5 -62.5q-131 0 -201 61.5t-70 158.5 q0 83 45 149.5t119.5 101t240.5 80.5q130 35 184 81t54 134q0 62 -41.5 104t-116.5 42q-141 0 -266 -123zM589 1088l-22 23l232 275q80 95 123 95q31 0 56 -25t25 -55q0 -66 -104 -128z"/>
<glyph glyph-name="afii10101" horiz-adv-x="889" unicode="є" d="M751 246l50 -38q-170 -237 -397 -237q-151 0 -244 106.5t-93 265.5q0 240 169 431t383 191q105 0 172.5 -55t67.5 -152q0 -70 -32.5 -110t-82.5 -40q-40 0 -70.5 27.5t-30.5 69.5q0 68 72 90q37 12 37 35q0 26 -35 48t-83 22q-226 0 -354 -370h282l-17 -74h-278 q-13 -77 -13 -134q0 -129 54 -198t148 -69q149 0 295 191z"/>
<glyph glyph-name="afii10102" horiz-adv-x="909" unicode="ѕ" d="M546 965q143 0 220 -58t77 -144q0 -55 -30.5 -89.5t-74.5 -34.5q-41 0 -69 28t-28 68q0 26 21 57q17 23 17 36q0 26 -33.5 47.5t-100.5 21.5q-104 0 -166.5 -54.5t-62.5 -131.5q0 -53 36 -85t191 -81q135 -42 187 -102q51 -61 51 -147q0 -131 -112 -228t-292 -97 q-155 0 -240 67.5t-85 167.5q0 61 33.5 98.5t81.5 37.5q43 0 71 -28t28 -69q0 -20 -7.5 -36t-32.5 -40q-22 -22 -22 -41q0 -34 45.5 -63t131.5 -29q110 0 179.5 58.5t69.5 139.5q0 58 -37 95q-38 37 -163 77q-150 48 -198 101q-49 53 -49 133q0 130 106 227.5t257 97.5z"/>
<glyph glyph-name="afii10103" d="M527 954l-222 -783q-9 -30 -9 -52q0 -25 11.5 -37.5t30.5 -12.5q36 0 85 46q81 77 157 216l53 -31q-73 -159 -174 -244t-182 -85q-54 0 -92 42.5t-38 111.5q0 68 22 144l148 511q4 13 4 25q0 27 -23 42q-31 20 -93 20h-63l20 69zM506 1475q46 0 77 -32.5t31 -80.5 q0 -47 -31 -78.5t-76 -31.5q-47 0 -79.5 32t-32.5 79q0 48 32 80t79 32z" unicode="і"/>
<glyph glyph-name="afii10104" d="M527 954l-222 -783q-9 -30 -9 -52q0 -25 11.5 -37.5t30.5 -12.5q36 0 85 46q81 77 157 216l53 -31q-73 -159 -174 -244t-182 -85q-54 0 -92 42.5t-38 111.5q0 68 22 144l148 511q4 13 4 25q0 27 -23 42q-31 20 -93 20h-63l20 69zM667 1382q42 0 72 -30.5t30 -75.5 q0 -44 -30 -75t-73 -31t-74 31t-31 75t31 75t75 31zM270 1382q43 0 73 -30.5t30 -73.5q0 -45 -30 -75.5t-73 -30.5t-74 30.5t-31 74.5q0 43 30.5 74t74.5 31z" unicode="ї"/>
<glyph glyph-name="afii10105" horiz-adv-x="645" unicode="ј" d="M205 936l347 18l-201 -834q-66 -274 -188 -410q-99 -110 -215 -110q-72 0 -114 37t-42 94q0 48 29.5 78.5t73.5 30.5q35 0 56 -21t21 -53q0 -14 -2 -33l-2 -19q0 -19 8.5 -28t23.5 -9q36 0 62 47q59 105 127 384l162 661q4 18 4 35q0 31 -20 47t-60 16h-86zM498 1475 q46 0 78.5 -32.5t32.5 -78.5t-32.5 -78.5t-78.5 -32.5t-78.5 32.5t-32.5 78.5t32.5 78.5t78.5 32.5z"/>
<glyph glyph-name="afii10106" horiz-adv-x="1589" unicode="љ" d="M1242 593q-122 0 -222 -140t-100 -278q0 -48 29.5 -85.5t92.5 -37.5q122 0 221.5 130t99.5 266q0 145 -121 145zM960 869h-179q-92 0 -134 -48.5t-102 -225.5q-121 -360 -228.5 -492t-232.5 -132q-57 0 -100.5 36.5t-43.5 96.5q0 54 35.5 87t82.5 33q86 0 98 -86 q7 -48 34 -48q88 0 198.5 284.5t110.5 404.5q0 90 -104 90h-25l19 67h755l-158 -434q135 175 308 175q104 0 170 -75t66 -172q0 -171 -154 -308t-337 -137q-118 0 -188.5 77t-70.5 177q0 76 32 175z"/>
<glyph glyph-name="afii10107" horiz-adv-x="1577" unicode="њ" d="M1226 595q-120 0 -220.5 -139.5t-100.5 -278.5q0 -52 33 -88.5t93 -36.5q119 0 219 129.5t100 267.5q0 146 -124 146zM1130 936l-151 -434q138 174 301 174q108 0 172.5 -75.5t64.5 -175.5q0 -163 -152 -301t-339 -138q-109 0 -182.5 71t-73.5 181q0 62 26 148l19 68 h-412l-132 -454l-165 -8l221 778q7 24 7 35q0 64 -94 64h-89l19 67l357 18l-111 -426h422l131 408h161z"/>
<glyph glyph-name="afii10108" horiz-adv-x="1251" unicode="ћ" d="M560 1091l-122 -421q206 295 405 295q90 0 145 -54.5t55 -147.5q0 -80 -31 -177l-126 -394q-13 -40 -13 -75q0 -22 11.5 -34.5t29.5 -12.5q41 0 88 49q74 78 134 217l59 -19q-63 -164 -156.5 -249.5t-175.5 -85.5q-65 0 -103 43.5t-38 125.5q0 40 15 87l126 398 q16 53 16 106q0 58 -28 89.5t-71 31.5q-54 0 -124 -48q-106 -74 -194 -208.5t-125 -270.5l-91 -336l-168 -10l316 1101h-131l23 86h133l40 139q6 23 6 35q0 53 -128 53h-58l21 75l378 19l-93 -321h375l-23 -86h-377z"/>
<glyph glyph-name="afii10109" horiz-adv-x="1227" unicode="ќ" d="M403 466l-133 -466l-165 -8l216 757q10 36 10 57q0 63 -92 63h-89l19 67l358 18l-112 -419h99q107 0 162.5 49t125.5 190q54 108 105 149.5t130 41.5q58 0 105.5 -38t47.5 -109q0 -62 -35 -98t-85 -36q-45 0 -69.5 27t-24.5 55q0 14 11 49q7 21 7 30q0 29 -28 29 q-44 0 -114 -145q-93 -191 -217 -230q78 -8 119.5 -38.5t58.5 -66t29 -144.5q12 -116 24 -137.5t34 -21.5q19 0 40.5 18t59.5 113l63 -16q-72 -227 -232 -227q-83 0 -116 49.5t-33 179.5v79q0 97 -36.5 138t-118.5 41h-124zM572 1088l-22 23l232 275q80 95 123 95 q31 0 56 -25t25 -55q0 -66 -104 -128z"/>
<glyph glyph-name="afii10110" horiz-adv-x="1024" unicode="ў" d="M916 1352l49 -34q-65 -98 -175 -157t-214 -59q-83 0 -144 39.5t-61 115.5q0 58 35 93t86 35q45 0 72.5 -29.5t27.5 -67.5q0 -30 -33 -62q-22 -21 -22 -32q0 -24 57 -24q174 0 322 182zM623 238q104 158 163 306q38 93 38 159q0 28 -14 89q-11 49 -11 74q0 43 25.5 71 t61.5 28q38 0 62 -27.5t24 -76.5q0 -48 -36 -149q-49 -138 -134 -287l-235 -412q-79 -139 -182 -254q-75 -83 -153.5 -121t-139.5 -38q-76 0 -126.5 42t-50.5 101q0 48 31 81.5t72 33.5q38 0 65.5 -27.5t27.5 -63.5l-2 -35l-1 -12q0 -17 12 -27q12 -11 33 -11q56 0 127 63 q110 97 219 285l-65 340q-55 287 -113 396q-34 62 -63 62q-53 0 -116 -183l-61 25q57 160 132 238q54 57 112 57q60 0 95 -53q51 -75 121 -352z"/>
<glyph glyph-name="afii10193" horiz-adv-x="1243" unicode="џ" d="M905 60q94 0 228 260l58 -20q-67 -150 -159.5 -239.5t-187.5 -89.5q-59 0 -94 37t-35 100q0 54 23 149q-31 -41 -37 -47q-41 -127 -64 -281q-23 -149 -61.5 -198t-133.5 -49q-57 0 -159 38l28 52q32 -12 51 -12q49 0 93 71q31 50 70 107q80 117 118 205 q-160 -172 -305 -172q-93 0 -141 53t-48 124q0 69 42 200l135 422q7 22 7 30q0 64 -117 64h-55l20 72l366 18l-198 -617q-33 -100 -33 -167q0 -37 23 -66t71 -29q93 0 222 136.5t207 377.5l114 347h162l-240 -740q-16 -49 -16 -83q0 -53 46 -53z"/>
<glyph glyph-name="afii10050" horiz-adv-x="1198" unicode="Ґ" d="M734 75l-20 -75h-711l20 75h152q85 0 106 79l311 1163q9 31 9 42q0 45 -77 45h-145l20 75h546q125 0 261 79t222 304h72l-134 -458h-471q-66 0 -84 -66l-308 -1151q-12 -45 -12 -61q0 -51 89 -51h154z"/>
<glyph glyph-name="afii10098" horiz-adv-x="768" unicode="ґ" d="M485 68l-19 -68h-530l19 68h99q84 0 109 91l176 636q4 15 4 25q0 49 -60 49h-107l19 67h341q149 0 222.5 64t143.5 198h70l-112 -329h-251q-84 0 -109 -90l-176 -637q-4 -16 -4 -27q0 -47 58 -47h107z"/>
<glyph glyph-name="endash" horiz-adv-x="1024" unicode="–" d="M-12 542h1048v-102h-1048v102z"/>
<glyph glyph-name="emdash" horiz-adv-x="2048" unicode="—" d="M-12 542h2072v-102h-2072v102z"/>
<glyph glyph-name="quoteleft" horiz-adv-x="418" unicode="‘" d="M582 1510l31 -54q-119 -55 -180 -119q-45 -48 -45 -85q0 -12 6 -17t37 -12q45 -11 63.5 -35t18.5 -69q0 -53 -36.5 -89.5t-86.5 -36.5q-54 0 -92.5 42t-38.5 108q0 109 77 204.5t246 162.5z"/>
<glyph glyph-name="quotesinglbase" horiz-adv-x="418" unicode="‚" d="M-29 -303l-30 54q119 56 180 120q45 48 45 85q0 11 -6.5 16.5t-36.5 12.5q-46 11 -64 35t-18 69q0 53 36 89.5t87 36.5q53 0 91.5 -42t38.5 -108q0 -109 -77 -204.5t-246 -163.5z"/>
<glyph glyph-name="quotedblleft" horiz-adv-x="797" unicode="“" d="M985 1515l31 -61q-115 -48 -178 -113q-47 -47 -47 -84q0 -13 6 -18t41 -15q77 -20 77 -103q0 -54 -38.5 -92t-92.5 -38t-89.5 42.5t-35.5 116.5q0 106 77.5 201t248.5 164zM563 1515l31 -61q-115 -48 -179 -113q-47 -47 -47 -85q0 -12 6.5 -17.5t41.5 -14.5 q77 -20 77 -104q0 -53 -39 -91t-93 -38t-89.5 43t-35.5 116q0 106 78 201.5t249 163.5z"/>
<glyph glyph-name="quotedblright" horiz-adv-x="797" unicode="”" d="M671 995l-31 60q114 49 179 114q46 47 46 84q0 13 -6.5 18t-40.5 15q-77 20 -77 104q0 53 38.5 90.5t93.5 37.5q54 0 89 -42.5t35 -115.5q0 -106 -77.5 -201.5t-248.5 -163.5zM248 995l-31 60q115 49 179 114q46 47 46 84q0 13 -6.5 18t-40.5 15q-77 20 -77 104 q0 53 38.5 90.5t93.5 37.5q54 0 89 -42.5t35 -115.5q0 -106 -77.5 -201.5t-248.5 -163.5z"/>
<glyph glyph-name="dagger" horiz-adv-x="1024" unicode="†" d="M671 954h14q43 0 133 30q95 32 144 32q55 0 89 -28.5t34 -67.5q0 -37 -32.5 -62.5t-92.5 -25.5q-45 0 -137 26q-63 18 -95 23q-22 4 -75 4q-19 -93 -19 -163q0 -87 37 -186q-229 -399 -378 -935h-69q98 374 126 547t28 326l-1 55q148 199 205 356q-59 -1 -147 -29 q-82 -26 -127 -26q-55 0 -85.5 26t-30.5 66q0 38 32 65.5t86 27.5q51 0 141 -30q86 -30 154 -31q18 72 25.5 129t9.5 167q2 127 16.5 172t46 70t70.5 25q44 0 72.5 -30t28.5 -81q0 -36 -13 -73t-77 -147q-63 -110 -80.5 -147t-32.5 -85z"/>
<glyph glyph-name="daggerdbl" horiz-adv-x="1024" unicode="‡" d="M749 1072q67 4 154 31q65 21 92 21q49 0 77.5 -25t28.5 -64q0 -38 -26 -62.5t-70 -24.5q-43 0 -130 26q-86 25 -147 27q-7 -47 -7 -78q0 -62 28 -140q-81 -94 -113.5 -169t-32.5 -149q0 -53 22 -133q-91 -93 -121 -212q54 2 131 29q65 22 99 22q53 0 81 -23.5t28 -62.5 q0 -38 -29 -62t-83 -24q-38 0 -105 20q-78 24 -143 27q-17 -72 -17 -150l1 -102q0 -103 -32.5 -148.5t-82.5 -45.5q-41 0 -67.5 26t-26.5 68q0 35 15 78.5t67 126.5q52 84 70 147q-60 -1 -144 -24q-86 -25 -113 -25q-45 0 -72 24.5t-27 62.5t28.5 62.5t76.5 24.5 q38 0 121 -25q80 -25 148 -26q8 48 8 74q0 59 -34 138q150 174 150 323q0 63 -24 134q49 47 77 92.5t52 119.5q-52 -2 -126 -26q-79 -25 -116 -25q-49 0 -76 23.5t-27 61.5q0 41 26.5 64t78.5 23q35 0 116 -25q70 -21 142 -25q17 58 17 140q0 27 -3 79l-1 33q0 97 36 145 t90 48q35 0 60 -27.5t25 -67.5q0 -35 -16 -79.5t-68 -130.5q-49 -81 -66 -140z"/>
<glyph glyph-name="ellipsis" horiz-adv-x="2048" unicode="…" d="M1706 248q58 0 98 -40t40 -99q0 -58 -40 -98t-97 -40t-97 40t-40 98q0 59 39.5 99t96.5 40zM1025 252q58 0 98.5 -41t40.5 -99t-42 -99.5t-99 -41.5q-55 0 -95.5 41.5t-40.5 99.5t40.5 99t97.5 41zM342 252q57 0 97.5 -41t40.5 -99t-42 -99.5t-99 -41.5q-54 0 -95 41.5 t-41 99.5t40.5 99t98.5 41z"/>
<glyph glyph-name="perthousand" horiz-adv-x="2048" unicode="‰" d="M1832 661q-42 0 -77 -36q-52 -51 -98 -213t-46 -289q0 -62 17.5 -86.5t48.5 -24.5q44 0 87.5 43.5t86.5 189.5q59 201 59 308q0 54 -21.5 81t-56.5 27zM1841 701q86 0 139.5 -64.5t53.5 -177.5q0 -168 -99 -328t-255 -160q-86 0 -142.5 64.5t-56.5 174.5q0 132 55.5 254 t136.5 179.5t168 57.5zM1181 661q-43 0 -78 -36q-51 -51 -97.5 -213t-46.5 -289q0 -62 18 -86.5t49 -24.5q43 0 87 43.5t87 189.5q59 201 59 308q0 54 -22 81t-56 27zM1190 701q85 0 139 -64.5t54 -177.5q0 -168 -99 -328t-255 -160q-87 0 -143 64.5t-56 174.5q0 132 55 254 t136.5 179.5t168.5 57.5zM1181 1394h87l-956 -1394h-86zM483 1372q-43 0 -78 -35q-51 -52 -97 -213.5t-46 -289.5q0 -62 17.5 -86.5t48.5 -24.5q43 0 87 44t87 189q59 201 59 308q0 54 -21.5 81t-56.5 27zM492 1413q85 0 139 -65t54 -178q0 -167 -99 -327t-255 -160 q-87 0 -143 64.5t-56 174.5q0 132 55 254t136.5 179.5t168.5 57.5z"/>
<glyph glyph-name="minute" horiz-adv-x="569" unicode="′" d="M372 820l25 300q10 119 23.5 173.5t48 87t82.5 32.5q81 0 81 -76q0 -39 -80 -217l-136 -300h-44z"/>
<glyph glyph-name="second" horiz-adv-x="819" unicode="″" d="M683 820l24 297q10 123 23 177t48.5 86.5t87.5 32.5q77 0 77 -74q0 -62 -75 -222l-137 -297h-48zM311 820l24 297q15 172 49.5 234t106.5 62q79 0 79 -76q0 -42 -81 -220l-134 -297h-44z"/>
<glyph glyph-name="guilsinglleft" d="M545 993h91l-242 -464l82 -404h-94l-183 435z" unicode="‹"/>
<glyph glyph-name="guilsinglright" d="M304 993h93l182 -436l-345 -432h-89l241 464z" unicode="›"/>
<glyph glyph-name="radicalex" horiz-adv-x="1139" unicode="‾" d="M139 1869h1223v-74h-1223v74z"/>
<glyph glyph-name="fraction" horiz-adv-x="342" unicode="⁄" d="M636 1394h87l-957 -1394h-85z"/>
<glyph glyph-name="fraction" horiz-adv-x="342" unicode="∕" d="M636 1394h87l-957 -1394h-85z"/>
<glyph glyph-name="Euro" horiz-adv-x="1139" unicode="€" d="M473 750q-12 -59 -18 -117h417l-45 -88h-381q-2 -25 -2 -80q0 -197 80 -306.5t221 -109.5q104 0 203 65t144 148l61 -26q-62 -121 -182 -193t-269 -72q-211 0 -345 157t-134 402v15h-117l41 88h80q6 58 19 117h-140l41 88h123q86 263 268 419t392 156q59 0 124.5 -36.5 t100.5 -88.5l86 84h62l-84 -418h-60q-18 389 -248 389q-125 0 -238 -135t-177 -370h376l-45 -88h-354z"/>
<glyph glyph-name="trademark" horiz-adv-x="1946" unicode="™" d="M1215 1479l277 -582l268 582h283v-39q-70 -3 -91 -24.5t-21 -82.5v-505q0 -86 20.5 -108.5t91.5 -24.5v-36h-403v36q60 2 80 12.5t30 33t10 87.5v498l-310 -667h-34l-312 658v-513q0 -63 22 -86t73 -23h36v-36h-310v36q72 1 93.5 23.5t21.5 96.5v511q0 71 -21.5 92.5 t-93.5 21.5v39h290zM116 1479h739l22 -205h-35q-11 76 -54.5 109t-142.5 33h-75v-610q0 -64 21 -86t86 -25v-36h-380v36q65 4 83.5 27.5t18.5 105.5v588h-77q-95 0 -137 -32.5t-56 -109.5h-34z"/>
<glyph glyph-name="arrowleft" horiz-adv-x="2048" unicode="←" d="M492 876h76q-81 -170 -195 -309h1595v-101h-1595q102 -102 198 -309h-78q-223 253 -414 341v45q177 71 413 333z"/>
<glyph glyph-name="arrowup" horiz-adv-x="1024" unicode="↑" d="M153 1050q262 236 333 413h46q87 -192 340 -415v-77q-207 96 -309 197v-1597h-101v1597q-139 -114 -309 -195v77z"/>
<glyph glyph-name="arrowright" horiz-adv-x="2048" unicode="→" d="M1555 876q237 -262 413 -333v-45q-191 -88 -414 -341h-77q95 207 197 309h-1595v101h1595q-114 139 -195 309h76z"/>
<glyph glyph-name="arrowdown" horiz-adv-x="1024" unicode="↓" d="M153 -16v76q170 -81 309 -195v1598h101v-1598q102 102 309 197v-77q-253 -223 -340 -414h-46q-71 176 -333 413z"/>
<glyph glyph-name="partialdiff" horiz-adv-x="1012" unicode="∂" d="M912 628q-39 111 -116.5 168t-170.5 57q-90 0 -177 -62t-151 -217.5t-64 -310.5q0 -114 55 -175.5t140 -61.5q123 0 251 130q163 166 233 472zM929 717q12 113 12 186q0 180 -94.5 278.5t-251.5 98.5q-106 0 -176 -40t-125 -119h-46q77 158 166 229.5t215 71.5 q90 0 175.5 -49t138 -158t52.5 -295q0 -354 -154 -636q-173 -315 -438 -315q-156 0 -247.5 90t-91.5 245q0 117 46.5 229.5t117.5 190.5t158 124q113 60 230 60q82 0 148.5 -31.5t109.5 -76.5q27 -28 55 -83z"/>
<glyph glyph-name="product" horiz-adv-x="1685" unicode="∏" d="M1240 1418h-795v-1611q0 -83 37 -119t125 -36h36v-37h-597v37h35q93 0 128 38t35 117v1497q0 83 -37 119t-126 36h-35v37h1594v-37h-35q-92 0 -127 -38t-35 -117v-1497q0 -83 37 -119t125 -36h35v-37h-597v37h35q93 0 127.5 38t34.5 117v1611z"/>
<glyph glyph-name="summation" horiz-adv-x="1460" unicode="∑" d="M1356 -385h-1313v36l669 911l-669 897v37h1278l27 -336h-40q-15 135 -76 195.5t-173 60.5h-740l562 -768l-629 -857h818q87 0 166 32q51 21 85.5 67.5t58.5 147.5l40 -8z"/>
<glyph glyph-name="minus" horiz-adv-x="1241" unicode="−" d="M165 759h1104v-133h-1104v133z"/>
<glyph glyph-name="radical" horiz-adv-x="1124" unicode="√" d="M1050 1869h74l-312 -1947l-496 1021l-198 -91l-34 64l301 151l405 -823z"/>
<glyph glyph-name="infinity" horiz-adv-x="1460" unicode="∞" d="M624 590q-49 110 -112 162t-155 52q-106 0 -177.5 -74.5t-71.5 -199.5q0 -133 70.5 -212.5t159.5 -79.5q95 0 168 85q47 56 118 267zM749 464q75 -156 148 -209.5t164 -53.5q123 0 205.5 88.5t82.5 237.5q0 147 -87 243t-195 96q-69 0 -120.5 -35t-93.5 -112 q-24 -45 -104 -255zM653 667q68 156 149 216.5t221 60.5q161 0 272 -116t111 -301q0 -183 -108 -301.5t-241 -118.5q-99 0 -184 73q-56 48 -153 213q-64 -124 -140 -178.5t-184 -54.5q-144 0 -243.5 103t-99.5 266q0 165 92 266t215 101q86 0 152 -44.5t141 -184.5z"/>
<glyph glyph-name="intersection" horiz-adv-x="1472" unicode="∩" d="M311 0h-129v590q1 119 2.5 228.5t20 193.5t60.5 154t117 131t166.5 94t187.5 33q146 0 272.5 -71.5t189.5 -170.5t77.5 -209.5t14.5 -382.5v-590h-128v596q0 231 -11.5 331t-58 180t-146 136t-210.5 56q-112 0 -211.5 -57.5t-144.5 -135t-57 -178.5t-12 -332v-596z"/>
<glyph glyph-name="approxequal" horiz-adv-x="1124" unicode="≈" d="M1052 547h43q-3 -127 -72.5 -200.5t-169.5 -73.5q-46 0 -150 31l-223 91q-156 63 -221 63q-70 0 -118.5 -43.5t-67.5 -139.5h-43q4 89 33 147.5t85.5 92.5t112.5 34q43 0 89 -13q105 -31 292 -111l98 -42l58 -15q30 -8 67 -8q75 0 126 47.5t61 139.5zM1052 1038h43 q-3 -126 -72.5 -199.5t-169.5 -73.5q-46 0 -98 15t-275 106q-156 64 -221 64q-70 0 -118.5 -43.5t-67.5 -139.5h-43q4 89 33.5 147.5t86 92t112.5 33.5q43 0 89 -13q104 -30 291 -110q97 -42 156 -58q30 -8 67 -8q75 0 126 48t61 139z"/>
<glyph glyph-name="notequal" horiz-adv-x="1124" unicode="≠" d="M25 818h602l210 533h80l-206 -533h388v-94h-425l-144 -370h569v-93h-605l-211 -531h-80l209 531h-387v93h423l145 370h-568v94z"/>
<glyph glyph-name="equivalence" horiz-adv-x="1241" unicode="≡" d="M165 308h1104v-133h-1104v133zM165 759h1104v-133h-1104v133zM165 1209h1104v-133h-1104v133z"/>
<glyph glyph-name="lessequal" horiz-adv-x="1124" unicode="≤" d="M24 -70h1076v-93h-1076v93zM1098 246l-1073 456v83l1073 454v-102l-950 -393l950 -396v-102z"/>
<glyph glyph-name="greaterequal" horiz-adv-x="1124" unicode="≥" d="M24 -70h1076v-93h-1076v93zM25 1239l1073 -456v-83l-1073 -454v102l950 393l-950 396v102z"/>
<glyph glyph-name="lozenge" horiz-adv-x="1012" unicode="◊" d="M495 1325l-340 -616l340 -615l359 615zM549 1422l418 -713l-418 -709h-111l-391 709l391 713h111z"/>
<glyph glyph-name="spade" horiz-adv-x="1092" unicode="♠" d="M547 1231q19 -82 65 -169t203 -230q121 -111 169 -181t48 -155q0 -93 -65 -157t-154 -64q-155 0 -255 190q0 -229 102 -325t276 -103l7 -37h-792l7 37q176 0 280 102t104 293q0 11 -1 33q-90 -190 -261 -190q-92 0 -156 65t-64 155q0 92 52 165t137 141q261 215 298 430z "/>
<glyph glyph-name="club" horiz-adv-x="1354" unicode="♣" d="M1103 0h-848l8 34q153 32 219 68t126 139q58 103 58 228l-1 42q-54 -116 -143 -177t-185 -61q-113 1 -195 81t-82 199q0 111 72 193t170 82q63 0 163 -51q-67 107 -67 182q0 113 79 193t197 79q115 0 197 -78t82 -189q0 -94 -69 -187q106 53 162 53q105 0 176 -81 t71 -192q0 -119 -81 -201t-193 -82q-78 0 -167 50t-165 187q4 -157 48 -251q45 -94 123 -144q78 -51 237 -82z"/>
<glyph glyph-name="heart" horiz-adv-x="1210" unicode="♥" d="M607 -24q-33 122 -93 228t-275 390q-101 133 -140 212t-39 163q0 109 74 185t183 76q206 0 290 -251q34 127 113 189t172 63q110 0 184 -75t74 -175q0 -88 -40 -183t-174 -262q-285 -360 -329 -560z"/>
<glyph glyph-name="diamond" horiz-adv-x="1038" unicode="♦" d="M517 1231q193 -323 461 -627q-52 -52 -214 -265t-247 -363q-101 190 -457 628q324 383 457 627z"/>
<glyph glyph-name="foursuperior" d="M515 1219l-297 -273h223zM139 954l503 460h43l-126 -468h94l-17 -63h-98l-23 -79q-2 -8 -2 -17q0 -17 9 -24q13 -10 37 -10h41l-13 -48h-320l10 48h37q45 0 70 26.5t40 103.5h-304z" unicode=""/>
</font>
</defs>
</svg>
