<?xml version="1.0" encoding="UTF-8" standalone="no"?>
<!DOCTYPE svg  PUBLIC '-//W3C//DTD SVG 1.1//EN'  'http://www.w3.org/Graphics/SVG/1.1/DTD/svg11.dtd'>
<svg xmlns="http://www.w3.org/2000/svg">
<defs>
<font id="AvantGarde-Book" horiz-adv-x="0">
<font-face underline-position="-154" font-weight="400" descent="-410" panose-1="2 11 6 2 2 2 2 2 2 4" units-per-em="2048" unicode-range="U+0020-25CA" bbox="-781 -512 2352 1956" x-height="1121" underline-thickness="102" font-family="AvantGarde" ascent="1638" cap-height="1515"/>
<missing-glyph horiz-adv-x="2048"/>
<glyph glyph-name=".notdef" horiz-adv-x="2048"/>
<glyph glyph-name="glyph1"/>
<glyph glyph-name="nonmarkingreturn" horiz-adv-x="682"/>
<glyph glyph-name="space" horiz-adv-x="567" unicode=" "/>
<glyph glyph-name="exclam" horiz-adv-x="604" unicode="!" d="M227 258h152v-258h-152v258zM227 391v1120h152v-1120h-152z"/>
<glyph glyph-name="quotedbl" horiz-adv-x="633" unicode='&quot;' d="M418 911l-25 604h166l-25 -604h-116zM99 911l-25 604h166l-25 -604h-116z"/>
<glyph glyph-name="numbersign" horiz-adv-x="1135" unicode="#" d="M477 952l-55 -390h255l55 390h-255zM558 1515l-61 -425h254l61 425h142l-61 -426h173v-138h-192l-56 -389h194v-138h-213l-61 -425h-142l61 425h-254l-61 -425h-142l61 426h-193v138h212l56 389h-214v138h233l61 425h142z"/>
<glyph glyph-name="dollar" horiz-adv-x="1135" unicode="$" d="M830 1114q-14 125 -73.5 185.5t-170.5 60.5q-116 0 -181 -61.5t-65 -171.5q0 -98 60 -156q59 -57 202 -96q199 -54 297 -156q97 -101 97 -252q0 -183 -120 -300q-92 -90 -227 -110v-200h-154v199q-134 22 -236 121q-115 113 -116 256l2 34h150q2 -134 73.5 -207 t201.5 -73t203 73t73 203q0 108 -70 173q-70 64 -236 109q-176 48 -263 142t-87 237q0 164 111 268q82 77 194 96v173h154v-168q133 -17 218 -99q106 -102 114 -280h-151z"/>
<glyph glyph-name="percent" horiz-adv-x="1587" unicode="%" d="M1174 596q-106 0 -176.5 -72t-70.5 -181q0 -108 70.5 -180t176.5 -72t176.5 72t70.5 180q0 109 -70.5 181t-176.5 72zM1174 -23q-160 0 -266 104.5t-106 261.5q0 158 106 262.5t266 104.5t266 -104.5t106 -262.5q0 -157 -106 -261.5t-266 -104.5zM296 4l859 1506h138 l-859 -1506h-138zM415 1424q-106 0 -176.5 -72t-70.5 -181q0 -108 70.5 -180t176.5 -72t176.5 72t70.5 180q0 109 -70.5 181t-176.5 72zM415 805q-160 0 -266 104.5t-106 261.5q0 158 106 262.5t266 104.5t266 -104.5t106 -262.5q0 -157 -106 -261.5t-266 -104.5z"/>
<glyph glyph-name="ampersand" horiz-adv-x="1550" unicode="&amp;" d="M447 1204q0 -66 43 -127q32 -46 115 -129q105 30 174 85q95 75 95 169q0 84 -62 141.5t-151 57.5q-90 0 -152 -57t-62 -140zM585 119q121 0 217 83q79 67 152 200l-392 378q-114 -43 -190 -122q-103 -106 -103 -242q0 -122 93 -210q93 -87 223 -87zM295 1203 q0 142 106 240t260 98q153 0 259 -100.5t106 -246.5q0 -130 -104 -231q-80 -79 -206 -121l309 -298l215 440h170q-9 -8 -273 -548l370 -357l-109 -106l-333 322q-84 -150 -184 -227q-122 -94 -287 -94q-192 0 -335.5 134.5t-143.5 314.5q0 172 114 306q87 102 223 160 q-73 74 -106 127q-51 82 -51 187zM1410 984v0v0z"/>
<glyph glyph-name="quotesingle" horiz-adv-x="406" unicode="&apos;" d="M146 911l-25 604h166l-24 -604h-117z"/>
<glyph glyph-name="parenleft" horiz-adv-x="756" unicode="(" d="M96 565q0 319 183 604.5t448 380.5v-152q-211 -120 -344.5 -353.5t-133.5 -479.5q0 -251 134 -484.5t344 -349.5v-152q-265 95 -448 381t-183 605z"/>
<glyph glyph-name="parenright" horiz-adv-x="756" unicode=")" d="M660 564q0 -319 -183 -604.5t-448 -380.5v152q211 120 344.5 353.5t133.5 479.5q0 251 -134 484.5t-344 349.5v152q265 -95 448 -381t183 -605z"/>
<glyph glyph-name="asterisk" horiz-adv-x="870" unicode="*" d="M496 1515l-7 -237l222 80l38 -118l-227 -66l145 -186l-100 -73l-133 196l-133 -196l-100 73l145 187l-227 65l38 118l223 -80l-8 237h124z"/>
<glyph glyph-name="plus" horiz-adv-x="1241" unicode="+" d="M550 445h-446v140h446v446h140v-446h446v-140h-446v-446h-140v446z"/>
<glyph glyph-name="comma" horiz-adv-x="567" unicode="," d="M29 -139l180 397h153l-180 -397h-153z"/>
<glyph glyph-name="hyphen" horiz-adv-x="680" unicode="-" d="M61 645h558v-137h-558v137z"/>
<glyph glyph-name="period" horiz-adv-x="567" unicode="." d="M209 258h152v-258h-152v258z"/>
<glyph glyph-name="slash" horiz-adv-x="895" unicode="/" d="M825 1515l-575 -1720h-160l575 1720h160z"/>
<glyph glyph-name="zero" horiz-adv-x="1135" unicode="0" d="M567 110q175 0 266.5 117.5t91.5 342.5v375q0 221 -93 340.5t-265 119.5q-171 0 -264 -119.5t-93 -340.5v-375q0 -225 91 -342.5t266 -117.5zM567 -26q-233 0 -370.5 152.5t-137.5 411.5v438q0 260 137.5 412.5t370.5 152.5q235 0 372 -152.5t137 -412.5v-438 q0 -259 -137 -411.5t-372 -152.5z"/>
<glyph glyph-name="one" horiz-adv-x="1135" unicode="1" d="M534 0v1378h-258v137h410v-1515h-76h-76z"/>
<glyph glyph-name="two" horiz-adv-x="1135" unicode="2" d="M1053 1083q0 -149 -104 -283t-526 -531l-141 -132h771v-137h-971v68v69l247 232q381 358 475 476t94 239q0 135 -93.5 228t-228.5 93q-151 0 -237 -101t-86 -237q0 -18 1 -37h-153v13q0 218 130.5 358t345.5 140q200 0 338 -133t138 -325z"/>
<glyph glyph-name="three" horiz-adv-x="1135" unicode="3" d="M786 1165q0 103 -68.5 171.5t-172.5 68.5q-98 0 -161.5 -75t-65.5 -192h-151q6 179 113 291t273 112q167 0 277.5 -105t110.5 -264q0 -158 -111 -263q-24 -22 -50 -40q65 -30 119 -77q138 -120 138 -302q0 -222 -137.5 -369t-346.5 -147q-207 0 -343.5 141.5 t-139.5 359.5h151q0 -153 95 -259t233 -106q145 0 241 97t96 243q0 147 -96 244t-241 97h-93v136h89q104 0 173 68q68 68 68 170z"/>
<glyph glyph-name="four" horiz-adv-x="1135" unicode="4" d="M793 276h-764v66v66l738 1107h89h89v-1102h137v-137h-137v-276h-152v276z"/>
<glyph glyph-name="five" horiz-adv-x="1135" unicode="5" d="M1086 512q0 -231 -147 -384.5t-370 -153.5q-211 0 -356.5 144t-159.5 365h152q31 -175 126.5 -274t235.5 -99q158 0 263 111.5t105 279.5q0 169 -105 280.5t-263 111.5q-89 0 -174.5 -47.5t-126.5 -118.5l-121 41l138 747h680v-137h-566l-79 -425q120 76 251 76 q223 0 370 -148q147 -147 147 -369z"/>
<glyph glyph-name="six" horiz-adv-x="1135" unicode="6" d="M200 504q0 -169 104.5 -281.5t262.5 -112.5t263 112.5t105 281.5q0 170 -105 282.5t-263 112.5t-263 -113q-104 -112 -104 -282zM614 1510h163q-211 -310 -335 -503q57 27 125 28q224 0 371.5 -151.5t147.5 -379.5t-147.5 -379t-371.5 -151q-218 0 -368 154t-150 377 q0 138 88 294q87 156 477 711z"/>
<glyph glyph-name="seven" horiz-adv-x="1135" unicode="7" d="M216 0l638 1378h-725v137h877v-66v-67l-622 -1382h-168z"/>
<glyph glyph-name="eight" horiz-adv-x="1135" unicode="8" d="M567 767q-141 0 -236.5 -94.5t-95.5 -234.5q0 -139 95.5 -233.5t236.5 -94.5t237 94.5t96 233.5q0 140 -96 235q-96 94 -237 94zM567 903q106 0 178 72t72 178q0 107 -72 179.5t-178 72.5t-178 -72.5t-72 -179.5q0 -96 77 -173t173 -77zM787 846q69 -32 125 -83 q139 -126 139 -313q0 -202 -139.5 -339t-344.5 -137t-344 137t-139 339q0 187 139 314q55 51 123 81q-35 23 -65 51q-115 108 -115 267q0 160 115.5 269t285.5 109t285.5 -109t115.5 -269q0 -159 -116 -268q-30 -29 -65 -49z"/>
<glyph glyph-name="nine" horiz-adv-x="1135" unicode="9" d="M935 1010q0 169 -104.5 281.5t-262.5 112.5t-263 -112.5t-105 -281.5q0 -170 105 -282.5t263 -112.5t263 113q104 112 104 282zM521 3h-163q210 309 335 504q-58 -28 -125 -28q-224 0 -371.5 151.5t-147.5 379.5t147.5 379t371.5 151q218 0 368 -148t150 -363 q0 -152 -88 -312q-87 -159 -477 -714z"/>
<glyph glyph-name="colon" horiz-adv-x="567" unicode=":" d="M209 1121h152v-258h-152v258zM209 258h152v-258h-152v258z"/>
<glyph glyph-name="semicolon" horiz-adv-x="567" unicode=";" d="M210 1121h152v-258h-152v258zM29 -139l180 397h153l-180 -397h-153z"/>
<glyph glyph-name="less" horiz-adv-x="1241" unicode="&lt;" d="M94 454v61v61l1041 474v-138l-875 -395l875 -399v-138z"/>
<glyph glyph-name="equal" horiz-adv-x="1241" unicode="=" d="M104 792h1032v-140h-1032v140zM104 379h1032v-140h-1032v140z"/>
<glyph glyph-name="greater" horiz-adv-x="1241" unicode="&gt;" d="M1147 454l-1041 -474v138l875 399l-875 395v138l1041 -474v-61v-61z"/>
<glyph glyph-name="question" horiz-adv-x="1210" unicode="?" d="M537 258h152v-258h-152v258zM604 1396q-145 0 -228.5 -89.5t-99.5 -261.5h-145v9q0 210 134.5 348.5t347.5 138.5q195 0 329.5 -130.5t134.5 -319.5q0 -112 -44 -187.5t-183 -202.5q-83 -76 -122 -150.5t-39 -156.5h-152q0 113 52 214t163 201q110 100 141.5 151.5 t31.5 130.5q0 128 -93 217q-93 88 -228 88z"/>
<glyph glyph-name="at" horiz-adv-x="1776" unicode="@" d="M910 1035q-118 0 -200 -102.5t-81 -250.5q-1 -119 63 -185t180 -66q79 0 148.5 87.5t83.5 168.5t14 112q0 84 -50.5 160t-157.5 76zM1277 432q100 0 171.5 126.5t71.5 302.5q0 259 -159.5 411.5t-431.5 152.5q-295 0 -483 -187t-188 -481q0 -301 188.5 -485t498.5 -184 q124 0 258.5 28.5t229.5 75.5l31 -103q-95 -52 -237.5 -83.5t-281.5 -31.5q-366 0 -589 216t-223 569q0 322 233 553.5t556 231.5q326 0 524.5 -185.5t198.5 -489.5q0 -226 -111.5 -388.5t-265.5 -162.5q-93 0 -140 90q-18 33 -25 73l-41 -49q-109 -114 -243 -114 q-141 0 -226 100t-84 265q0 201 109 334t274 133q154 0 235 -122q23 -35 36 -72l29 168h122l-87 -496q-13 -70 -13 -113q0 -24 7.5 -53.5t55.5 -29.5z"/>
<glyph glyph-name="A" horiz-adv-x="1516" unicode="A" d="M25 0l651 1515h83h83l651 -1515h-83h-83l-216 512h-712l-214 -512h-80h-80z"/>
<glyph glyph-name="B" horiz-adv-x="1176" unicode="B" d="M304 727v-591h315q161 0 251.5 78t90.5 217t-99.5 217.5t-275.5 78.5h-282zM304 1379v-516h267q142 0 222.5 68t80.5 189q0 122 -86 190.5t-239 68.5h-245zM152 0v1515h76h321q225 0 352 -102.5t127 -283.5t-127 -283q-22 -18 -49 -33q70 -29 123 -71q140 -113 140 -315 q0 -201 -131.5 -314t-364.5 -113h-391h-76z"/>
<glyph glyph-name="C" horiz-adv-x="1665" unicode="C" d="M1579 397q-83 -184 -279 -303.5t-415 -119.5q-334 0 -565.5 227t-231.5 556t231.5 556.5t565.5 227.5q214 0 405.5 -117t273.5 -298h-164q-72 123 -216.5 201t-298.5 78q-270 0 -456.5 -188t-186.5 -460t186.5 -459.5t456.5 -187.5q159 0 307.5 80.5t222.5 206.5h164z "/>
<glyph glyph-name="D" horiz-adv-x="1524" unicode="D" d="M304 136h292q314 0 498 167.5t184 453.5t-186.5 454t-505.5 168h-282v-1243zM152 0v1515h76h358q381 0 613.5 -205t232.5 -541q0 -346 -229.5 -557.5t-606.5 -211.5h-368h-76z"/>
<glyph glyph-name="E" horiz-adv-x="1098" unicode="E" d="M143 0v1515h830v-68v-69h-678v-545h657v-68v-69h-657v-559h678v-68v-69h-830z"/>
<glyph glyph-name="F" horiz-adv-x="993" unicode="F" d="M143 0v1515h766v-68v-69h-614v-545h591v-68v-69h-591v-696h-76h-76z"/>
<glyph glyph-name="G" horiz-adv-x="1786" unicode="G" d="M901 -26q-344 0 -581.5 227t-237.5 556t240 556.5t587 227.5q223 0 422.5 -120.5t283.5 -306.5h-177q-76 128 -221.5 209.5t-299.5 81.5q-286 0 -483.5 -188t-197.5 -460t195.5 -459.5t478.5 -187.5q266 0 449 188q113 117 156 262h-845v137h1024q-19 -291 -229 -496 q-230 -227 -564 -227z"/>
<glyph glyph-name="H" horiz-adv-x="1399" unicode="H" d="M156 0v1515h76h76v-667h783v667h76h76v-1515h-76h-76v711h-783v-711h-76h-76z"/>
<glyph glyph-name="I" horiz-adv-x="463" unicode="I" d="M156 0v1515h76h76v-1515h-76h-76z"/>
<glyph glyph-name="J" horiz-adv-x="987" unicode="J" d="M671 1515h76h76v-1119q0 -198 -107.5 -310t-298.5 -112q-168 0 -282.5 109t-122.5 277h148q18 -113 91 -185t171 -72q120 0 184.5 76t64.5 217v1119z"/>
<glyph glyph-name="K" horiz-adv-x="1210" unicode="K" d="M166 0v1515h76h76v-874l702 874h95h95l-607 -741l607 -774h-96h-96l-508 662l-192 -235v-427h-76h-76z"/>
<glyph glyph-name="L" horiz-adv-x="946" unicode="L" d="M168 0v1515h76h76v-1378h626v-68v-69h-778z"/>
<glyph glyph-name="M" horiz-adv-x="1882" unicode="M" d="M308 0h-76h-76v1515h115l670 -1310l554 1310h115h116v-1515h-76h-76v1338l-566 -1338h-67h-67l-566 1338v-1338z"/>
<glyph glyph-name="N" horiz-adv-x="1516" unicode="N" d="M306 0h-76h-76v1515h103l951 -1252v1252h76h76v-1515h-76l-978 1332v-1332z"/>
<glyph glyph-name="O" horiz-adv-x="1780" unicode="O" d="M890 110q273 0 460.5 187.5t187.5 459.5t-187.5 460t-460.5 188q-272 0 -460 -188t-188 -460t188 -459.5t460 -187.5zM890 -26q-336 0 -569 227t-233 556t233 556.5t569 227.5q337 0 569.5 -227.5t232.5 -556.5t-232.5 -556t-569.5 -227z"/>
<glyph glyph-name="P" horiz-adv-x="1212" unicode="P" d="M306 744h298q187 0 292 84t105 233t-105 233.5t-292 84.5h-298v-635zM154 0v1515h76h374q259 0 405 -120.5t146 -333.5t-146 -333t-405 -120h-298v-608h-76h-76z"/>
<glyph glyph-name="Q" horiz-adv-x="1784" unicode="Q" d="M559 486q-131 0 -222 -30l-25 -9q47 -80 117 -150q193 -187 471 -187q189 0 340 87l-63 55q-140 123 -287 179q-146 55 -331 55zM1564 757q0 272 -192.5 460t-471.5 188q-278 0 -471 -188t-193 -460q1 -99 25 -187q132 52 311 52q210 0 375.5 -64t321.5 -206l83 -73 l20 19q192 187 192 459zM1690 -31h-60q-70 0 -178 67l-95 66q-199 -128 -457 -128q-343 0 -580.5 227t-237.5 556t237.5 556.5t580.5 227.5q344 0 581 -227.5t237 -556.5t-237 -556l-13 -12l39 -26q94 -58 161 -58h22v-136z"/>
<glyph glyph-name="R" horiz-adv-x="1243" unicode="R" d="M143 0v1515h76h386q266 0 416 -127.5t150 -354.5q0 -226 -150 -353q-116 -97 -301 -121l433 -559h-96h-96l-519 689h163q194 0 303 91t109 253q0 163 -109 254.5t-303 91.5h-310v-1379h-76h-76z"/>
<glyph glyph-name="S" horiz-adv-x="1020" unicode="S" d="M785 1129q-14 127 -88 201.5t-187 74.5q-116 0 -196 -74t-80 -181q0 -104 70 -167t238 -108q224 -61 326 -171q101 -110 101 -291q0 -184 -134 -311.5t-328 -127.5q-206 0 -334 125t-128 325h150q17 -154 96.5 -234t215.5 -80q132 0 223 85.5t91 208.5q0 128 -80 204 q-79 75 -269 127q-202 55 -294 152q-92 96 -92 254q0 168 123 284t301 116q181 0 302 -117.5t121 -294.5h-148z"/>
<glyph glyph-name="T" horiz-adv-x="872" unicode="T" d="M359 0v1378h-347v68v69h846v-68v-69h-347v-1378h-76h-76z"/>
<glyph glyph-name="U" horiz-adv-x="1341" unicode="U" d="M1185 567q0 -285 -133.5 -439t-381.5 -154q-237 0 -376.5 160t-139.5 433v948h76h76v-967q0 -201 98.5 -319t265.5 -118q174 0 268.5 113.5t94.5 323.5v967h76h76v-948z"/>
<glyph glyph-name="V" horiz-adv-x="1438" unicode="V" d="M16 1515h82l624 -1336l539 1336h79h80l-625 -1515h-76h-77z"/>
<glyph glyph-name="W" horiz-adv-x="1966" unicode="W" d="M455 0l-432 1515h79l453 -1348l355 1348h76l434 -1346l373 1346h76h77l-432 -1515h-97l-433 1229l-335 -1229h-97h-97z"/>
<glyph glyph-name="X" horiz-adv-x="1247" unicode="X" d="M16 0l518 778l-491 737h91h92l400 -601l399 601h89h89l-489 -735l519 -780h-91h-92l-428 644l-428 -644h-89h-89z"/>
<glyph glyph-name="Y" horiz-adv-x="1212" unicode="Y" d="M531 507l-529 1008h87h88l435 -861l431 861h84h85l-529 -1009v-506h-76h-76v507z"/>
<glyph glyph-name="Z" horiz-adv-x="983" unicode="Z" d="M25 133l744 1245h-713v68v69h891v-66v-67l-743 -1245h759v-68v-69h-938v66v67z"/>
<glyph glyph-name="bracketleft" horiz-adv-x="719" unicode="[" d="M272 969q0 211 104.5 354t313.5 218v-152q-148 -85 -206.5 -176.5t-58.5 -240.5v-750q0 -171 54.5 -260.5t210.5 -175.5v-152q-209 75 -313.5 214.5t-104.5 344.5v776z"/>
<glyph glyph-name="backslash" horiz-adv-x="1239" unicode="\" d="M819 -205l-577 1720h158l577 -1720h-158z"/>
<glyph glyph-name="bracketright" horiz-adv-x="719" unicode="]" d="M447 206q0 -211 -104.5 -354t-313.5 -218v152q148 85 206.5 176.5t58.5 240.5v750q0 171 -54.5 260.5t-210.5 175.5v152q209 -75 313.5 -214.5t104.5 -344.5v-776z"/>
<glyph glyph-name="asciicircum" horiz-adv-x="1241" unicode="^" d="M685 1515l447 -887h-140l-369 733l-367 -733h-147l446 887h65h65z"/>
<glyph glyph-name="underscore" horiz-adv-x="1024" unicode="_" d="M0 -256v102h1024v-102h-1024z"/>
<glyph glyph-name="grave" horiz-adv-x="774" unicode="`" d="M547 1267l-406 220l67 122l404 -223z"/>
<glyph glyph-name="a" horiz-adv-x="1399" unicode="a" d="M682 1020q-190 0 -321 -134t-131 -328t131 -327.5t321 -133.5t321 134t131 328t-131 327.5t-321 133.5zM676 -26q-247 0 -418.5 170t-171.5 416q0 247 171.5 417t418.5 170q250 0 415 -171l37 -43v188h144v-1121h-72h-72v187q-17 -23 -37 -43q-165 -170 -415 -170z"/>
<glyph glyph-name="b" horiz-adv-x="1397" unicode="b" d="M729 101q190 0 321 133.5t131 327.5t-131 328t-321 134q-189 0 -320 -133.5t-131 -327.5t131 -328t320 -134zM139 1515h72h72v-583l41 45q168 170 422 170q244 0 411.5 -170t167.5 -417q0 -246 -167.5 -416t-411.5 -170q-254 0 -422 171l-41 46v-191h-144v1515z"/>
<glyph glyph-name="c" horiz-adv-x="1325" unicode="c" d="M1243 325q-75 -165 -221 -258t-330 -93q-255 0 -431.5 170t-176.5 416q0 247 176.5 417t431.5 170q182 0 328 -96t223 -266h-153q-65 110 -170.5 172.5t-227.5 62.5q-195 0 -329.5 -133.5t-134.5 -326.5t134.5 -326t329.5 -133q125 0 230.5 59.5t167.5 164.5h153z"/>
<glyph glyph-name="d" horiz-adv-x="1403" unicode="d" d="M676 1020q-190 0 -321 -134t-131 -328t131 -327.5t321 -133.5t321 134t131 328t-131 327.5t-321 133.5zM659 -26q-243 0 -411 170t-168 416q0 247 168 417t411 170q255 0 423 -171l40 -45v584h72h72v-1515h-72h-72v189l-40 -45q-168 -170 -423 -170z"/>
<glyph glyph-name="e" horiz-adv-x="1331" unicode="e" d="M1096 635q-21 146 -123 252q-127 133 -312 133q-184 0 -312 -134q-99 -105 -123 -251h870zM661 -26q-244 0 -413.5 170t-169.5 416q0 247 169.5 417t413.5 170q246 0 415 -170t169 -417v-11q0 -22 -3 -43h-1017q15 -157 126 -272q129 -133 315 -133q133 0 233.5 67 t161.5 196h149q-60 -175 -211 -282.5t-338 -107.5z"/>
<glyph glyph-name="f" horiz-adv-x="643" unicode="f" d="M358 992v-992h-72h-72v992h-175v129h175v23q0 191 103 294t293 103h33v-127q-145 -1 -215 -62.5t-70 -190.5v-40h285v-129h-285z"/>
<glyph glyph-name="g" horiz-adv-x="1378" unicode="g" d="M661 1024q-185 0 -313 -134t-128 -328t128 -327.5t313 -133.5q186 0 314 134t128 328t-128 327.5t-314 133.5zM683 -310q203 0 308.5 111.5t105.5 325.5v62l-38 -44q-165 -171 -416 -171q-238 0 -402.5 170t-164.5 416q0 247 165 417t403 170q250 0 415 -170l38 -43v187 h144v-977q0 -279 -145.5 -430t-413.5 -151q-214 0 -362 107.5t-197 297.5h153q49 -131 157 -204.5t250 -73.5z"/>
<glyph glyph-name="h" horiz-adv-x="1249" unicode="h" d="M127 0v1515h72h72v-538l22 27q118 146 327 146q232 0 362 -143t130 -398v-609h-72h-72v613q0 191 -92 299t-256 108q-168 0 -258.5 -109.5t-90.5 -312.5v-598h-72h-72z"/>
<glyph glyph-name="i" horiz-adv-x="410" unicode="i" d="M134 1515h142v-257h-142v257zM133 0v1121h72h72v-1121h-72h-72z"/>
<glyph glyph-name="j" horiz-adv-x="416" unicode="j" d="M138 1515h142v-257h-142v257zM137 1121h72h72v-1040q0 -241 -88.5 -357t-272.5 -116h-9v136q119 0 172.5 79t53.5 258v1040z"/>
<glyph glyph-name="k" horiz-adv-x="1028" unicode="k" d="M143 0v1515h72h72v-1083l528 689h89h90l-441 -562l467 -559h-94h-94l-365 450l-180 -229v-221h-72h-72z"/>
<glyph glyph-name="l" horiz-adv-x="410" unicode="l" d="M133 0v1515h72h72v-1515h-72h-72z"/>
<glyph glyph-name="m" horiz-adv-x="1921" unicode="m" d="M135 0v1121h71h72v-115l12 14q107 130 297 130q210 0 328 -130q34 -38 59 -84q22 48 53 84q109 130 303 130q215 0 335.5 -133t120.5 -369v-648h-72h-72v664q0 167 -80.5 261.5t-223.5 94.5q-146 0 -225.5 -94.5t-79.5 -268.5v-657h-72h-72v663q0 168 -81 262.5 t-224 94.5q-146 0 -225.5 -94.5t-79.5 -268.5v-657h-72h-72z"/>
<glyph glyph-name="n" horiz-adv-x="1249" unicode="n" d="M133 0v1121h71h72v-145l23 28q118 146 327 146q232 0 362 -143t130 -398v-609h-72h-72v613q0 191 -92 299t-256 108q-168 0 -258.5 -109.5t-90.5 -312.5v-598h-72h-72z"/>
<glyph glyph-name="o" horiz-adv-x="1341" unicode="o" d="M671 101q186 0 314 133t128 326t-128 326.5t-314 133.5q-185 0 -313 -133.5t-128 -326.5t128 -326t313 -133zM671 -26q-245 0 -415 170t-170 416q0 247 170 417t415 170q247 0 416.5 -170t169.5 -417q0 -246 -169.5 -416t-416.5 -170z"/>
<glyph glyph-name="p" horiz-adv-x="1397" unicode="p" d="M721 101q190 0 321 133.5t131 327.5t-131 328t-321 134t-321 -133.5t-131 -327.5h1q0 -194 131 -328t320 -134zM131 1121h72h72v-188l40 44q168 170 423 170q244 0 411.5 -170t167.5 -417q0 -246 -167.5 -416t-411.5 -170q-254 0 -422 171l-41 46v-585h-72h-72v1515z"/>
<glyph glyph-name="q" horiz-adv-x="1397" unicode="q" d="M672 1020q-190 0 -321 -134t-131 -328t131 -327.5t321 -133.5t321 134t131 328t-131 327.5t-321 133.5zM655 -26q-243 0 -411 170t-168 416q0 247 168 417t411 170q255 0 423 -171l40 -45v190h144v-1515h-72h-72v583l-40 -45q-168 -170 -423 -170z"/>
<glyph glyph-name="r" horiz-adv-x="616" unicode="r" d="M133 0v1121h71h72v-161q19 41 42 70q89 113 278 120v-151q-143 -11 -227 -94q-92 -93 -92 -266v-639h-72h-72z"/>
<glyph glyph-name="s" horiz-adv-x="795" unicode="s" d="M561 844q1 77 -46 126.5t-122 49.5q-77 0 -122 -47t-45 -128q0 -64 46 -105t159 -78q167 -54 241 -139q74 -84 74 -220q0 -141 -99.5 -235t-249.5 -94q-160 0 -254 96.5t-94 260.5h145v-8q0 -103 52 -161q54 -61 151 -61q93 0 148 52t55 140t-53 142q-53 53 -182 95 q-151 49 -218 121t-67 185q0 134 89 222.5t224 88.5q141 0 227 -83.5t86 -219.5h-145z"/>
<glyph glyph-name="t" horiz-adv-x="694" unicode="t" d="M267 0v992h-238v129h238v392h144v-392h265v-129h-265v-992h-144z"/>
<glyph glyph-name="u" horiz-adv-x="1245" unicode="u" d="M271 1121v-665q0 -167 89 -260.5t247 -93.5q171 0 264 110t93 314v595h72h72v-1121h-67h-68v180q-17 -31 -40 -60q-116 -146 -322 -146q-228 0 -356 127t-128 352v668h72h72z"/>
<glyph glyph-name="v" horiz-adv-x="1135" unicode="v" d="M14 1121h78l477 -972l397 972h76h77l-472 -1121h-80h-81z"/>
<glyph glyph-name="w" horiz-adv-x="1702" unicode="w" d="M458 0l-431 1121h77l432 -949l257 814h62l322 -812l351 947h75h76l-430 -1121h-80l-316 759l-234 -759h-80h-81z"/>
<glyph glyph-name="x" horiz-adv-x="983" unicode="x" d="M25 0l381 561l-380 560h87h88l293 -433l293 433h85h85l-380 -559l381 -562h-87h-88l-293 435l-295 -435h-85h-85z"/>
<glyph glyph-name="y" horiz-adv-x="1098" unicode="y" d="M1071 1121l-657 -1519h-70h-71l192 449l-434 1070h78h78l352 -896l380 896h76h76z"/>
<glyph glyph-name="z" horiz-adv-x="870" unicode="z" d="M20 126l614 866h-593v64v65h771v-63v-63l-612 -866h650v-64v-65h-830v63v63z"/>
<glyph glyph-name="braceleft" horiz-adv-x="719" unicode="{" d="M678 -390q-220 0 -290 69q-61 61 -61 229l1 50v258q1 14 1 27q0 110 -47.5 182t-138.5 72v134q91 0 138.5 72t47.5 182q0 13 -1 27v258l-1 50q0 168 61 229q70 69 290 69v-123q-130 0 -163.5 -38t-33.5 -144q0 -20 1 -43v-258l1 -34q0 -160 -79 -247q-38 -43 -96 -67 q59 -24 96 -67q79 -87 79 -247l-1 -34v-258q-1 -23 -1 -43q0 -106 33.5 -144t163.5 -38v-123z"/>
<glyph glyph-name="bar" horiz-adv-x="1376" unicode="|" d="M612 -512v2048h152v-2048h-152z"/>
<glyph glyph-name="braceright" horiz-adv-x="719" unicode="}" d="M41 -390v123q130 0 163.5 38t33.5 144q0 20 -1 43v258l-1 34q0 160 79 247q37 43 96 67q-58 24 -96 67q-79 87 -79 247l1 34v258q1 23 1 43q0 106 -33.5 144t-163.5 38v123q220 0 290 -69q61 -61 61 -229l-1 -50v-258q-1 -14 -1 -27q0 -110 47.5 -182t138.5 -72v-134 q-91 0 -138.5 -72t-47.5 -182q0 -13 1 -27v-258l1 -50q0 -168 -61 -229q-70 -69 -290 -69z"/>
<glyph glyph-name="asciitilde" horiz-adv-x="1241" unicode="~" d="M147 469q44 83 111.5 129.5t144.5 46.5q52 0 104.5 -16t139.5 -58q81 -40 124 -56t68 -16q48 0 87.5 32t95.5 117l71 -101q-42 -72 -112 -121.5t-129 -49.5q-60 0 -105 15t-154 70q-77 39 -112.5 50t-86.5 11q-55 0 -97.5 -37t-78.5 -117z"/>
<glyph glyph-name="uni00A0" horiz-adv-x="567" unicode=" "/>
<glyph glyph-name="exclamdown" horiz-adv-x="604" unicode="¡" d="M377 864h-152v258h152v-258zM377 731v-1120h-152v1120h152z"/>
<glyph glyph-name="cent" horiz-adv-x="1135" unicode="¢" d="M503 1447h153v-195q119 -16 213 -78q121 -81 176 -225h-165q-41 81 -118.5 126.5t-173.5 45.5q-142 0 -240 -97.5t-98 -239.5q0 -141 98 -238.5t240 -97.5q88 0 161 38.5t113 107.5h171q-60 -132 -178 -206q-89 -56 -199 -71v-192h-153v194q-151 25 -263 132 q-142 136 -142 333q0 198 142 335q113 108 263 129v199z"/>
<glyph glyph-name="sterling" horiz-adv-x="1135" unicode="£" d="M1114 548q23 -74 23 -141q0 -138 -121 -272.5t-396 -134.5h-559v130h312l13 34q48 116 48 212q0 76 -35 144.5t-110 139.5l-56 55h-225v131h130l-3 4q-49 92 -49 190q0 225 133 363t351 138q189 0 325.5 -123t157.5 -312h-148q-34 153 -117 229.5t-216 76.5 q-150 0 -242 -101.5t-92 -268.5q0 -76 35 -145q12 -25 30 -51h576v-131h-459q76 -78 114 -153q48 -92 48 -188q0 -111 -54 -227l-8 -17h94q214 0 290.5 91.5t76.5 199.5q0 58 -18 127h151z"/>
<glyph glyph-name="currency" horiz-adv-x="1135" unicode="¤" d="M567 195q-152 2 -269 85l-195 -195l-87 87l198 198q-88 112 -88 263q0 156 88 270l-198 198l87 87l197 -197q115 86 267 86q152 -1 268 -86l197 197l87 -87l-199 -199q88 -111 88 -263q-1 -156 -87 -269l198 -198l-87 -87l-197 197q-116 -87 -268 -87zM885 636 q0 134 -92 226t-226 92t-226 -92t-92 -226t92 -226t226 -92t226 92t92 226z"/>
<glyph glyph-name="yen" horiz-adv-x="1135" unicode="¥" d="M71 768v129h308l-371 618h82h82l397 -666l391 666h83h84l-369 -618h308v-129h-386l-36 -61v-113h422v-129h-422v-465h-76h-76v465h-421v129h421v114l-36 60h-385z"/>
<glyph glyph-name="brokenbar" horiz-adv-x="1376" unicode="¦" d="M612 682v683h152v-683h-152zM612 -342v683h152v-683h-152z"/>
<glyph glyph-name="section" horiz-adv-x="1260" unicode="§" d="M932 572q0 69 -45.5 116t-169.5 108l-153 75q-63 31 -112 61l-44 -33q-82 -73 -82 -179q0 -55 46.5 -99t173.5 -109l156 -79q67 -34 119 -67l29 24q82 74 82 182zM629 1541q168 0 261.5 -77t93.5 -199v-15h-144q-5 71 -62 113t-149 42q-85 0 -144 -53.5t-59 -131.5 q0 -73 41.5 -120.5t155.5 -103.5l153 -75q178 -87 243 -160.5t65 -187.5q0 -147 -127 -249l-40 -29q24 -18 41 -39q72 -83 72 -200q0 -145 -111.5 -245.5t-273.5 -100.5q-184 0 -297.5 112.5t-119.5 299.5h151q4 -127 76 -201.5t190 -74.5q98 0 165.5 60t67.5 147 q0 77 -50 131t-188 124l-156 79q-179 91 -244.5 158.5t-65.5 160.5q0 151 127 255q28 23 58 40l-24 26q-61 73 -61 191q0 136 103 230q103 93 252 93z"/>
<glyph glyph-name="dieresis" horiz-adv-x="756" unicode="¨" d="M451 1567h152v-258h-152v258zM150 1567h152v-258h-152v258z"/>
<glyph glyph-name="copyright" horiz-adv-x="1530" unicode="©" d="M1436 758q0 282 -194.5 476.5t-477.5 194.5t-477.5 -194.5t-194.5 -476.5t195 -476.5t477 -194.5t477 194.5t195 476.5zM764 1539q328 0 554.5 -226.5t226.5 -554.5t-226.5 -554.5t-554.5 -226.5t-554.5 226.5t-226.5 554.5t226.5 554.5t554.5 226.5zM1164 603 q-14 -129 -127 -220.5t-260 -91.5q-195 0 -319.5 130.5t-124.5 335.5q0 206 124.5 336.5t319.5 130.5q150 0 261.5 -88.5t125.5 -219.5h-113q-23 100 -92.5 152t-181.5 52q-150 0 -238 -98t-88 -265q0 -163 89.5 -262.5t236.5 -99.5q109 0 180.5 54t93.5 154h113z"/>
<glyph glyph-name="ordfeminine" horiz-adv-x="756" unicode="ª" d="M364 1430q-106 0 -176.5 -69t-70.5 -173q0 -103 70 -171.5t176 -68.5q107 0 177.5 68.5t70.5 172.5q0 96 -74 168.5t-173 72.5zM348 834q-145 0 -249 104.5t-104 249.5q0 146 104 251t249 105q160 0 230 -85q17 -20 28 -46v112h123v-674h-61h-62v114q-11 -26 -28 -46 q-70 -85 -230 -85z"/>
<glyph glyph-name="guillemotleft" horiz-adv-x="870" unicode="«" d="M790 919l-194 -344l194 -345l-119 -68l-233 413l233 412zM434 919l-194 -344l194 -345l-119 -68l-233 413l233 412z"/>
<glyph glyph-name="logicalnot" horiz-adv-x="1241" unicode="¬" d="M996 655h-892v140h1032v-570h-140v430z"/>
<glyph glyph-name="uni00AD" horiz-adv-x="680" unicode="­" d="M61 645h558v-137h-558v137z"/>
<glyph glyph-name="registered" horiz-adv-x="1530" unicode="®" d="M1432 758q0 286 -193.5 483.5t-474.5 197.5t-474.5 -197.5t-193.5 -483.5t194 -483.5t474 -197.5t474 197.5t194 483.5zM764 1539q328 0 554.5 -226.5t226.5 -554.5t-226.5 -554.5t-554.5 -226.5t-554.5 226.5t-226.5 554.5t226.5 554.5t554.5 226.5zM542 782h222 q123 0 182.5 40t59.5 124q0 74 -54.5 110t-168.5 36h-241v-310zM430 304v893h56h297q175 0 255.5 -58t80.5 -183q0 -129 -78 -184q-34 -24 -86 -37q59 -16 93 -50q51 -53 58 -173l8 -120q3 -37 7 -57t12 -31h-56h-56q-8 15 -12.5 41.5t-8.5 74.5l-5 71q-7 115 -52.5 153 t-175.5 38h-225v-378h-56h-56z"/>
<glyph glyph-name="macron" horiz-adv-x="1024" unicode="¯" d="M0 1668v103h1024v-103h-1024z"/>
<glyph glyph-name="degree" horiz-adv-x="819" unicode="°" d="M602 1156q0 81 -56 136.5t-137 55.5t-136.5 -55.5t-55.5 -136.5q0 -80 55.5 -135.5t136.5 -55.5t137 55.5t56 135.5zM409 1451q124 0 209.5 -85.5t85.5 -209.5q0 -123 -85.5 -208.5t-209.5 -85.5q-123 0 -208.5 85.5t-85.5 208.5q0 124 85.5 209.5t208.5 85.5z"/>
<glyph glyph-name="plusminus" horiz-adv-x="1241" unicode="±" d="M104 91h1032v-140h-1032v140zM550 558h-446v140h446v363h140v-363h446v-140h-446v-363h-140v363z"/>
<glyph glyph-name="uni00B2" horiz-adv-x="680" unicode="²" d="M651 1247q0 -92 -62 -172q-62 -79 -313 -307l-56 -51h431v-111h-612v52v53l158 144q222 202 277 268q55 65 55 129q0 70 -52 118t-128 48q-84 0 -132 -58.5t-48 -136.5q0 -11 1 -22h-119v7q0 141 82 231.5t218 90.5q126 0 213 -82t87 -201z"/>
<glyph glyph-name="uni00B3" horiz-adv-x="680" unicode="³" d="M467 1297q0 52 -37.5 86.5t-93.5 34.5q-52 0 -86 -42.5t-35 -108.5h-117q4 117 72.5 190t174.5 73q107 0 177.5 -64.5t70.5 -162.5q0 -90 -75 -158l-19 -16q35 -18 65 -46q87 -82 87 -206q0 -123 -87.5 -204.5t-219.5 -81.5q-140 0 -222.5 85.5t-84.5 233.5h121 q0 -87 52.5 -147t128.5 -60q80 0 133.5 51.5t53.5 128.5q0 78 -53.5 130t-133.5 52h-72v112h69q56 0 94 34q37 34 37 86z"/>
<glyph glyph-name="acute" horiz-adv-x="768" unicode="´" d="M160 1387l409 220l67 -122l-411 -218z"/>
<glyph glyph-name="uni00B5" horiz-adv-x="1245" unicode="µ" d="M308 1121v-614q0 -182 86 -292.5t227 -110.5q126 0 220 100t94 233v684h144v-1121l-143 140q-14 -25 -33 -48q-96 -118 -280 -118q-176 0 -260 84q-32 34 -55 81v-514h-144v711v785h144z"/>
<glyph glyph-name="paragraph" horiz-adv-x="1155" unicode="¶" d="M499 707q-207 2 -330.5 110t-123.5 294t122.5 295t331.5 109h629v-113h-131v-1629h-126v1629h-246v-1629h-126v934z"/>
<glyph glyph-name="periodcentered" horiz-adv-x="567" unicode="·" d="M209 886h152v-258h-152v258z"/>
<glyph glyph-name="cedilla" horiz-adv-x="664" unicode="¸" d="M345 0l-49 -118q39 14 66 14q67 0 113 -48.5t46 -119.5q0 -76 -50.5 -129t-124.5 -53q-72 0 -119 38t-63 109l85 9q12 -39 36.5 -60t58.5 -21q41 0 66.5 29t25.5 77q0 44 -25 70.5t-66 26.5q-29 0 -55.5 -13t-36.5 -32l-77 39l83 182h86z"/>
<glyph glyph-name="uni00B9" horiz-adv-x="680" unicode="¹" d="M284 606v797h-155v112h278v-909h-61h-62z"/>
<glyph glyph-name="ordmasculine" horiz-adv-x="756" unicode="º" d="M377 948q104 0 167 65.5t63 173.5q0 103 -65.5 171.5t-164.5 68.5q-96 0 -162.5 -69.5t-66.5 -170.5q0 -100 66.5 -169.5t162.5 -69.5zM377 834q-148 0 -250 102.5t-102 250.5q0 149 102 251.5t250 102.5t250 -102.5t102 -251.5q0 -148 -102 -250.5t-250 -102.5z"/>
<glyph glyph-name="guillemotright" horiz-adv-x="870" unicode="»" d="M436 230l194 344l-194 345l119 68l233 -413l-233 -412zM80 230l194 344l-194 345l119 68l233 -413l-233 -412z"/>
<glyph glyph-name="onequarter" horiz-adv-x="1702" unicode="¼" d="M1177 1515l-681 -1515h-121l681 1515h121zM360 606v797h-155v112h278v-909h-61h-62zM1284 159h-452v53v54l442 643h66h67v-639h86v-111h-86v-159h-123v159z"/>
<glyph glyph-name="onehalf" horiz-adv-x="1702" unicode="½" d="M1141 1515l-681 -1515h-121l681 1515h121zM321 606v797h-155v112h278v-909h-61h-62zM1536 641q0 -92 -62 -172q-62 -79 -313 -307l-56 -51h431v-111h-612v52v53l158 144q222 202 277 268q55 65 55 129q0 70 -52 118t-128 48q-84 0 -135 -62q-45 -55 -45 -133q0 -11 1 -22 h-119v7q0 140 81 230q83 92 219 92q126 0 213 -82t87 -201z"/>
<glyph glyph-name="threequarters" horiz-adv-x="1702" unicode="¾" d="M1322 1515l-681 -1515h-121l681 1515h121zM524 1297q0 52 -37.5 86.5t-93.5 34.5q-52 0 -86 -42.5t-35 -108.5h-117q4 117 72.5 190t174.5 73q107 0 177.5 -64.5t70.5 -162.5q0 -90 -75 -158l-19 -16q35 -18 65 -46q87 -82 87 -206q0 -123 -87.5 -204.5t-219.5 -81.5 q-140 0 -222.5 85.5t-84.5 233.5h121q0 -87 52.5 -147t128.5 -60q80 0 133.5 51.5t53.5 128.5q0 78 -53.5 130t-133.5 52h-72v112h69q56 0 94 34q37 34 37 86zM1397 159h-452v53v54l442 643h66h67v-639h86v-111h-86v-159h-123v159z"/>
<glyph glyph-name="questiondown" horiz-adv-x="1210" unicode="¿" d="M673 862h-152v258h152v-258zM606 -276q145 0 228.5 89.5t99.5 261.5h145v-9q0 -210 -134.5 -348.5t-347.5 -138.5q-195 0 -329.5 130.5t-134.5 319.5q0 112 44 187.5t183 202.5q83 76 122 150.5t39 156.5h152q0 -113 -52 -214t-163 -201q-110 -100 -141.5 -151.5 t-31.5 -130.5q0 -128 93 -217q93 -88 228 -88z"/>
<glyph glyph-name="Agrave" horiz-adv-x="1516" unicode="À" d="M25 0l651 1515h83h83l651 -1515h-83h-83l-216 512h-712l-214 -512h-80h-80zM901 1600l-406 220l67 122l404 -223z"/>
<glyph glyph-name="Aacute" horiz-adv-x="1516" unicode="Á" d="M25 0l651 1515h83h83l651 -1515h-83h-83l-216 512h-712l-214 -512h-80h-80zM569 1720l409 220l67 -122l-411 -218z"/>
<glyph glyph-name="Acircumflex" horiz-adv-x="1516" unicode="Â" d="M25 0l651 1515h83h83l651 -1515h-83h-83l-216 512h-712l-214 -512h-80h-80zM826 1897l295 -255h-183l-172 150l-180 -150h-189l295 255h67h67z"/>
<glyph glyph-name="Atilde" horiz-adv-x="1516" unicode="Ã" d="M25 0l651 1515h83h83l651 -1515h-83h-83l-216 512h-712l-214 -512h-80h-80zM406 1789q31 37 92 63t118 26q37 0 76 -11t94 -37q45 -21 71.5 -29t51.5 -8q24 0 62 15.5t70 37.5l71 -101q-35 -33 -92.5 -55.5t-105.5 -22.5q-37 0 -71.5 9.5t-110.5 39.5q-61 24 -80.5 30 t-35.5 6q-32 0 -72.5 -18.5t-66.5 -45.5z"/>
<glyph glyph-name="Adieresis" horiz-adv-x="1516" unicode="Ä" d="M25 0l651 1515h83h83l651 -1515h-83h-83l-216 512h-712l-214 -512h-80h-80zM833 1900h152v-258h-152v258zM532 1900h152v-258h-152v258z"/>
<glyph glyph-name="Aring" horiz-adv-x="1516" unicode="Å" d="M25 0l651 1515h83h83l651 -1515h-83h-83l-216 512h-712l-214 -512h-80h-80zM759 1639q45 0 75.5 30.5t30.5 74.5t-30.5 74.5t-75.5 30.5t-75.5 -30.5t-30.5 -74.5t30.5 -74.5t75.5 -30.5zM759 1532q-89 0 -150.5 61.5t-61.5 150.5t61.5 150.5t150.5 61.5t150.5 -61.5 t61.5 -150.5t-61.5 -150.5t-150.5 -61.5z"/>
<glyph glyph-name="AE" horiz-adv-x="2032" unicode="Æ" d="M1058 1326l-469 -677h469v677zM1058 0v512h-564l-354 -512h-90h-90l1055 1515h195h648v-68v-69h-648v-545h628v-68v-69h-628v-559h648v-68v-69h-648h-152z"/>
<glyph glyph-name="Ccedilla" horiz-adv-x="1665" unicode="Ç" d="M1579 397q-83 -184 -279 -303.5t-415 -119.5q-334 0 -565.5 227t-231.5 556t231.5 556.5t565.5 227.5q214 0 405.5 -117t273.5 -298h-164q-72 123 -216.5 201t-298.5 78q-270 0 -456.5 -188t-186.5 -460t186.5 -459.5t456.5 -187.5q159 0 307.5 80.5t222.5 206.5h164z M864 0l-49 -118q39 14 66 14q67 0 113 -48.5t46 -119.5q0 -76 -50.5 -129t-124.5 -53q-72 0 -119 38t-63 109l85 9q12 -39 36.5 -60t58.5 -21q41 0 66.5 29t25.5 77q0 44 -25 70.5t-66 26.5q-29 0 -55.5 -13t-36.5 -32l-77 39l83 182h86z"/>
<glyph glyph-name="Egrave" horiz-adv-x="1098" unicode="È" d="M143 0v1515h830v-68v-69h-678v-545h657v-68v-69h-657v-559h678v-68v-69h-830zM707 1600l-406 220l67 122l404 -223z"/>
<glyph glyph-name="Eacute" horiz-adv-x="1098" unicode="É" d="M143 0v1515h830v-68v-69h-678v-545h657v-68v-69h-657v-559h678v-68v-69h-830zM330 1720l409 220l67 -122l-411 -218z"/>
<glyph glyph-name="Ecircumflex" horiz-adv-x="1098" unicode="Ê" d="M143 0v1515h830v-68v-69h-678v-545h657v-68v-69h-657v-559h678v-68v-69h-830zM617 1897l295 -255h-183l-172 150l-180 -150h-189l295 255h67h67z"/>
<glyph glyph-name="Edieresis" horiz-adv-x="1098" unicode="Ë" d="M143 0v1515h830v-68v-69h-678v-545h657v-68v-69h-657v-559h678v-68v-69h-830zM624 1900h152v-258h-152v258zM323 1900h152v-258h-152v258z"/>
<glyph glyph-name="Igrave" horiz-adv-x="463" unicode="Ì" d="M159 0v1515h76h76v-1515h-76h-76zM377 1600l-406 220l67 122l404 -223z"/>
<glyph glyph-name="Iacute" horiz-adv-x="463" unicode="Í" d="M170 0v1515h76h76v-1515h-76h-76zM56 1720l409 220l67 -122l-411 -218z"/>
<glyph glyph-name="Icircumflex" horiz-adv-x="463" unicode="Î" d="M156 0v1515h76h76v-1515h-76h-76zM299 1897l295 -255h-183l-172 150l-180 -150h-189l295 255h67h67z"/>
<glyph glyph-name="Idieresis" horiz-adv-x="463" unicode="Ï" d="M155 0v1515h76h76v-1515h-76h-76zM305 1900h152v-258h-152v258zM4 1900h152v-258h-152v258z"/>
<glyph glyph-name="Eth" horiz-adv-x="1618" unicode="Ð" d="M398 1379v-553h366v-137h-366v-553h336q320 0 473.5 152t152.5 469q1 317 -155 469.5t-480 152.5h-327zM246 0v689h-164v137h164v689h76h403q395 0 593 -187q196 -185 196 -555v-4q1 -385 -194 -577t-586 -192h-412h-76z"/>
<glyph glyph-name="Ntilde" horiz-adv-x="1516" unicode="Ñ" d="M306 0h-76h-76v1515h103l951 -1252v1252h76h76v-1515h-76l-978 1332v-1332zM404 1789q31 37 92 63t118 26q37 0 76 -11t94 -37q45 -21 71.5 -29t51.5 -8q24 0 62 15.5t70 37.5l71 -101q-35 -33 -92.5 -55.5t-105.5 -22.5q-37 0 -71.5 9.5t-110.5 39.5q-61 24 -80.5 30 t-35.5 6q-32 0 -72.5 -18.5t-66.5 -45.5z"/>
<glyph glyph-name="Ograve" horiz-adv-x="1780" unicode="Ò" d="M890 110q273 0 460.5 187.5t187.5 459.5t-187.5 460t-460.5 188q-272 0 -460 -188t-188 -460t188 -459.5t460 -187.5zM890 -26q-336 0 -569 227t-233 556t233 556.5t569 227.5q337 0 569.5 -227.5t232.5 -556.5t-232.5 -556t-569.5 -227zM1032 1600l-406 220l67 122 l404 -223z"/>
<glyph glyph-name="Oacute" horiz-adv-x="1780" unicode="Ó" d="M890 110q273 0 460.5 187.5t187.5 459.5t-187.5 460t-460.5 188q-272 0 -460 -188t-188 -460t188 -459.5t460 -187.5zM890 -26q-336 0 -569 227t-233 556t233 556.5t569 227.5q337 0 569.5 -227.5t232.5 -556.5t-232.5 -556t-569.5 -227zM700 1720l409 220l67 -122 l-411 -218z"/>
<glyph glyph-name="Ocircumflex" horiz-adv-x="1780" unicode="Ô" d="M890 110q273 0 460.5 187.5t187.5 459.5t-187.5 460t-460.5 188q-272 0 -460 -188t-188 -460t188 -459.5t460 -187.5zM890 -26q-336 0 -569 227t-233 556t233 556.5t569 227.5q337 0 569.5 -227.5t232.5 -556.5t-232.5 -556t-569.5 -227zM957 1897l295 -255h-183 l-172 150l-180 -150h-189l295 255h67h67z"/>
<glyph glyph-name="Otilde" horiz-adv-x="1780" unicode="Õ" d="M890 110q273 0 460.5 187.5t187.5 459.5t-187.5 460t-460.5 188q-272 0 -460 -188t-188 -460t188 -459.5t460 -187.5zM890 -26q-336 0 -569 227t-233 556t233 556.5t569 227.5q337 0 569.5 -227.5t232.5 -556.5t-232.5 -556t-569.5 -227zM537 1789q31 37 92 63t118 26 q37 0 76 -11t94 -37q45 -21 71.5 -29t51.5 -8q24 0 62 15.5t70 37.5l71 -101q-35 -33 -92.5 -55.5t-105.5 -22.5q-37 0 -71.5 9.5t-110.5 39.5q-61 24 -80.5 30t-35.5 6q-32 0 -72.5 -18.5t-66.5 -45.5z"/>
<glyph glyph-name="Odieresis" horiz-adv-x="1780" unicode="Ö" d="M890 110q273 0 460.5 187.5t187.5 459.5t-187.5 460t-460.5 188q-272 0 -460 -188t-188 -460t188 -459.5t460 -187.5zM890 -26q-336 0 -569 227t-233 556t233 556.5t569 227.5q337 0 569.5 -227.5t232.5 -556.5t-232.5 -556t-569.5 -227zM964 1900h152v-258h-152v258z M663 1900h152v-258h-152v258z"/>
<glyph glyph-name="multiply" horiz-adv-x="1241" unicode="×" d="M621 417l-370 -371l-99 99l371 370l-371 370l99 99l370 -371l370 371l99 -99l-371 -370l371 -370l-99 -99z"/>
<glyph glyph-name="Oslash" horiz-adv-x="1778" unicode="Ø" d="M890 1405q-272 0 -460 -188t-188 -460q2 -228 131 -398l517 487l428 404q-179 154 -428 155zM890 -26q-310 1 -533 192l-176 -166l-93 90l179 169q-180 211 -179 498q0 329 233 556.5t569 227.5h3q309 0 528 -194l178 168l93 -90l-179 -169q180 -210 179 -499 q0 -329 -232.5 -556t-569.5 -227zM890 669l-428 -404q180 -153 428 -155q273 0 460.5 187.5t187.5 459.5q0 229 -133 397z"/>
<glyph glyph-name="Ugrave" horiz-adv-x="1341" unicode="Ù" d="M1185 567q0 -285 -133.5 -439t-381.5 -154q-237 0 -376.5 160t-139.5 433v948h76h76v-967q0 -201 98.5 -319t265.5 -118q174 0 268.5 113.5t94.5 323.5v967h76h76v-948zM811 1600l-406 220l67 122l404 -223z"/>
<glyph glyph-name="Uacute" horiz-adv-x="1341" unicode="Ú" d="M1185 567q0 -285 -133.5 -439t-381.5 -154q-237 0 -376.5 160t-139.5 433v948h76h76v-967q0 -201 98.5 -319t265.5 -118q174 0 268.5 113.5t94.5 323.5v967h76h76v-948zM479 1720l409 220l67 -122l-411 -218z"/>
<glyph glyph-name="Ucircumflex" horiz-adv-x="1341" unicode="Û" d="M1185 567q0 -285 -133.5 -439t-381.5 -154q-237 0 -376.5 160t-139.5 433v948h76h76v-967q0 -201 98.5 -319t265.5 -118q174 0 268.5 113.5t94.5 323.5v967h76h76v-948zM736 1897l295 -255h-183l-172 150l-180 -150h-189l295 255h67h67z"/>
<glyph glyph-name="Udieresis" horiz-adv-x="1341" unicode="Ü" d="M1185 567q0 -285 -133.5 -439t-381.5 -154q-237 0 -376.5 160t-139.5 433v948h76h76v-967q0 -201 98.5 -319t265.5 -118q174 0 268.5 113.5t94.5 323.5v967h76h76v-948zM743 1900h152v-258h-152v258zM442 1900h152v-258h-152v258z"/>
<glyph glyph-name="Yacute" horiz-adv-x="1212" unicode="Ý" d="M531 507l-529 1008h87h88l435 -861l431 861h84h85l-529 -1009v-506h-76h-76v507zM417 1720l409 220l67 -122l-411 -218z"/>
<glyph glyph-name="Thorn" horiz-adv-x="1212" unicode="Þ" d="M970 757q0 154 -101 234.5t-295 80.5h-298v-629h298q194 0 295 80t101 234zM123 0v1515h76h77v-307h298q270 0 410 -115t140 -336t-140 -335.5t-410 -114.5h-298v-307h-76h-77z"/>
<glyph glyph-name="germandbls" horiz-adv-x="1135" unicode="ß" d="M269 233v-233h-72h-72v1043v42q0 201 119.5 328.5t307.5 127.5q189 0 304.5 -116.5t115.5 -306.5q0 -183 -139 -293l-46 -32q74 -23 129 -63q160 -112 160 -324q0 -181 -120 -306.5t-293 -125.5q-203 0 -313 117q-56 59 -81 142zM269 415h103q9 -148 83.5 -231t196.5 -83 q118 0 199 85.5t81 208.5q0 163 -110.5 234t-337.5 71h-25v137q185 3 277 76.5t92 217.5q0 125 -77.5 204t-198.5 79q-133 0 -208 -99q-75 -98 -75 -272v-628z"/>
<glyph glyph-name="agrave" horiz-adv-x="1399" unicode="à" d="M682 1020q-190 0 -321 -134t-131 -328t131 -327.5t321 -133.5t321 134t131 328t-131 327.5t-321 133.5zM676 -26q-247 0 -418.5 170t-171.5 416q0 247 171.5 417t418.5 170q250 0 415 -171l37 -43v188h144v-1121h-72h-72v187q-17 -23 -37 -43q-165 -170 -415 -170z M857 1267l-406 220l67 122l404 -223z"/>
<glyph glyph-name="aacute" horiz-adv-x="1399" unicode="á" d="M682 1020q-190 0 -321 -134t-131 -328t131 -327.5t321 -133.5t321 134t131 328t-131 327.5t-321 133.5zM676 -26q-247 0 -418.5 170t-171.5 416q0 247 171.5 417t418.5 170q250 0 415 -171l37 -43v188h144v-1121h-72h-72v187q-17 -23 -37 -43q-165 -170 -415 -170z M525 1387l409 220l67 -122l-411 -218z"/>
<glyph glyph-name="acircumflex" horiz-adv-x="1399" unicode="â" d="M682 1020q-190 0 -321 -134t-131 -328t131 -327.5t321 -133.5t321 134t131 328t-131 327.5t-321 133.5zM676 -26q-247 0 -418.5 170t-171.5 416q0 247 171.5 417t418.5 170q250 0 415 -171l37 -43v188h144v-1121h-72h-72v187q-17 -23 -37 -43q-165 -170 -415 -170z M782 1564l295 -255h-183l-172 150l-180 -150h-189l295 255h67h67z"/>
<glyph glyph-name="atilde" horiz-adv-x="1399" unicode="ã" d="M682 1020q-190 0 -321 -134t-131 -328t131 -327.5t321 -133.5t321 134t131 328t-131 327.5t-321 133.5zM676 -26q-247 0 -418.5 170t-171.5 416q0 247 171.5 417t418.5 170q250 0 415 -171l37 -43v188h144v-1121h-72h-72v187q-17 -23 -37 -43q-165 -170 -415 -170z M362 1456q31 37 92 63t118 26q37 0 76 -11t94 -37q45 -21 71.5 -29t51.5 -8q24 0 62 15.5t70 37.5l71 -101q-35 -33 -92.5 -55.5t-105.5 -22.5q-37 0 -71.5 9.5t-110.5 39.5q-61 24 -80.5 30t-35.5 6q-32 0 -72.5 -18.5t-66.5 -45.5z"/>
<glyph glyph-name="adieresis" horiz-adv-x="1399" unicode="ä" d="M682 1020q-190 0 -321 -134t-131 -328t131 -327.5t321 -133.5t321 134t131 328t-131 327.5t-321 133.5zM676 -26q-247 0 -418.5 170t-171.5 416q0 247 171.5 417t418.5 170q250 0 415 -171l37 -43v188h144v-1121h-72h-72v187q-17 -23 -37 -43q-165 -170 -415 -170z M789 1567h152v-258h-152v258zM488 1567h152v-258h-152v258z"/>
<glyph glyph-name="aring" horiz-adv-x="1399" unicode="å" d="M682 1020q-190 0 -321 -134t-131 -328t131 -327.5t321 -133.5t321 134t131 328t-131 327.5t-321 133.5zM676 -26q-247 0 -418.5 170t-171.5 416q0 247 171.5 417t418.5 170q250 0 415 -171l37 -43v188h144v-1121h-72h-72v187q-17 -23 -37 -43q-165 -170 -415 -170z M699 1336q45 0 75.5 30.5t30.5 74.5t-30.5 74.5t-75.5 30.5t-75.5 -30.5t-30.5 -74.5t30.5 -74.5t75.5 -30.5zM699 1229q-89 0 -150.5 61.5t-61.5 150.5t61.5 150.5t150.5 61.5t150.5 -61.5t61.5 -150.5t-61.5 -150.5t-150.5 -61.5z"/>
<glyph glyph-name="ae" horiz-adv-x="2370" unicode="æ" d="M2131 635q-18 153 -117 256q-121 129 -312 129q-178 0 -306 -136q-99 -107 -124 -249h859zM669 1020q-191 0 -323 -133.5t-132 -327.5q0 -193 132 -326.5t323 -133.5t323 133.5t132 327.5q0 193 -132 326.5t-323 133.5zM663 1147q245 0 414 -173l41 -47v194h144v-193 l38 42q174 177 402 177q243 0 410.5 -170t167.5 -417v-9q0 -22 -4 -45h-1004q16 -154 126 -270q129 -135 309 -135q130 0 229 67t160 196h149q-60 -175 -209.5 -282.5t-333.5 -107.5q-228 0 -403 177l-37 38v-189h-72h-72v194l-41 -47q-169 -173 -414 -173q-249 0 -421 170 t-172 416q0 247 172 417t421 170z"/>
<glyph glyph-name="ccedilla" horiz-adv-x="1325" unicode="ç" d="M1243 325q-75 -165 -221 -258t-330 -93q-255 0 -431.5 170t-176.5 416q0 247 176.5 417t431.5 170q182 0 328 -96t223 -266h-153q-65 110 -170.5 172.5t-227.5 62.5q-195 0 -329.5 -133.5t-134.5 -326.5t134.5 -326t329.5 -133q125 0 230.5 59.5t167.5 164.5h153zM689 0 l-49 -118q39 14 66 14q67 0 113 -48.5t46 -119.5q0 -76 -50.5 -129t-124.5 -53q-72 0 -119 38t-63 109l85 9q12 -39 36.5 -60t58.5 -21q41 0 66.5 29t25.5 77q0 44 -25 70.5t-66 26.5q-29 0 -55.5 -13t-36.5 -32l-77 39l83 182h86z"/>
<glyph glyph-name="egrave" horiz-adv-x="1331" unicode="è" d="M1096 635q-21 146 -123 252q-127 133 -312 133q-184 0 -312 -134q-99 -105 -123 -251h870zM661 -26q-244 0 -413.5 170t-169.5 416q0 247 169.5 417t413.5 170q246 0 415 -170t169 -417v-11q0 -22 -3 -43h-1017q15 -157 126 -272q129 -133 315 -133q133 0 233.5 67 t161.5 196h149q-60 -175 -211 -282.5t-338 -107.5zM827 1267l-406 220l67 122l404 -223z"/>
<glyph glyph-name="eacute" horiz-adv-x="1331" unicode="é" d="M1096 635q-21 146 -123 252q-127 133 -312 133q-184 0 -312 -134q-99 -105 -123 -251h870zM661 -26q-244 0 -413.5 170t-169.5 416q0 247 169.5 417t413.5 170q246 0 415 -170t169 -417v-11q0 -22 -3 -43h-1017q15 -157 126 -272q129 -133 315 -133q133 0 233.5 67 t161.5 196h149q-60 -175 -211 -282.5t-338 -107.5zM495 1387l409 220l67 -122l-411 -218z"/>
<glyph glyph-name="ecircumflex" horiz-adv-x="1331" unicode="ê" d="M1096 635q-21 146 -123 252q-127 133 -312 133q-184 0 -312 -134q-99 -105 -123 -251h870zM661 -26q-244 0 -413.5 170t-169.5 416q0 247 169.5 417t413.5 170q246 0 415 -170t169 -417v-11q0 -22 -3 -43h-1017q15 -157 126 -272q129 -133 315 -133q133 0 233.5 67 t161.5 196h149q-60 -175 -211 -282.5t-338 -107.5zM752 1564l295 -255h-183l-172 150l-180 -150h-189l295 255h67h67z"/>
<glyph glyph-name="edieresis" horiz-adv-x="1331" unicode="ë" d="M1096 635q-21 146 -123 252q-127 133 -312 133q-184 0 -312 -134q-99 -105 -123 -251h870zM661 -26q-244 0 -413.5 170t-169.5 416q0 247 169.5 417t413.5 170q246 0 415 -170t169 -417v-11q0 -22 -3 -43h-1017q15 -157 126 -272q129 -133 315 -133q133 0 233.5 67 t161.5 196h149q-60 -175 -211 -282.5t-338 -107.5zM759 1567h152v-258h-152v258zM458 1567h152v-258h-152v258z"/>
<glyph glyph-name="igrave" horiz-adv-x="410" unicode="ì" d="M70 0v1121h72h72v-1121h-72h-72zM284 1267l-406 220l67 122l404 -223z"/>
<glyph glyph-name="iacute" horiz-adv-x="410" unicode="í" d="M133 0v1121h72h72v-1121h-72h-72zM15 1387l409 220l67 -122l-411 -218z"/>
<glyph glyph-name="icircumflex" horiz-adv-x="410" unicode="î" d="M133 0v1121h72h72v-1121h-72h-72zM272 1564l295 -255h-183l-172 150l-180 -150h-189l295 255h67h67z"/>
<glyph glyph-name="idieresis" horiz-adv-x="410" unicode="ï" d="M133 0v1121h72h72v-1121h-72h-72zM279 1567h152v-258h-152v258zM-22 1567h152v-258h-152v258z"/>
<glyph glyph-name="eth" horiz-adv-x="1341" unicode="ð" d="M230 557q0 -192 128 -324t313 -132q186 0 314 132t128 324q0 202 -124 330t-318 128t-318 -128q-123 -128 -123 -330zM671 -26q-245 0 -415 169t-170 414q0 240 173 412.5t412 172.5q173 0 303 -101q-25 35 -56 68q-101 112 -244 200l-321 -122l-103 75l303 114 q-107 54 -233 96l151 65q127 -43 236 -102l276 104l98 -76l-259 -98q131 -90 227 -207q208 -252 208 -574q0 -256 -169.5 -433t-416.5 -177z"/>
<glyph glyph-name="ntilde" horiz-adv-x="1249" unicode="ñ" d="M133 0v1121h71h72v-145l23 28q118 146 327 146q232 0 362 -143t130 -398v-609h-72h-72v613q0 191 -92 299t-256 108q-168 0 -258.5 -109.5t-90.5 -312.5v-598h-72h-72zM272 1456q31 37 92 63t118 26q37 0 76 -11t94 -37q45 -21 71.5 -29t51.5 -8q24 0 62 15.5t70 37.5 l71 -101q-35 -33 -92.5 -55.5t-105.5 -22.5q-37 0 -71.5 9.5t-110.5 39.5q-61 24 -80.5 30t-35.5 6q-32 0 -72.5 -18.5t-66.5 -45.5z"/>
<glyph glyph-name="ograve" horiz-adv-x="1341" unicode="ò" d="M671 101q186 0 314 133t128 326t-128 326.5t-314 133.5q-185 0 -313 -133.5t-128 -326.5t128 -326t313 -133zM671 -26q-245 0 -415 170t-170 416q0 247 170 417t415 170q247 0 416.5 -170t169.5 -417q0 -246 -169.5 -416t-416.5 -170zM813 1267l-406 220l67 122l404 -223 z"/>
<glyph glyph-name="oacute" horiz-adv-x="1341" unicode="ó" d="M671 101q186 0 314 133t128 326t-128 326.5t-314 133.5q-185 0 -313 -133.5t-128 -326.5t128 -326t313 -133zM671 -26q-245 0 -415 170t-170 416q0 247 170 417t415 170q247 0 416.5 -170t169.5 -417q0 -246 -169.5 -416t-416.5 -170zM481 1387l409 220l67 -122 l-411 -218z"/>
<glyph glyph-name="ocircumflex" horiz-adv-x="1341" unicode="ô" d="M671 101q186 0 314 133t128 326t-128 326.5t-314 133.5q-185 0 -313 -133.5t-128 -326.5t128 -326t313 -133zM671 -26q-245 0 -415 170t-170 416q0 247 170 417t415 170q247 0 416.5 -170t169.5 -417q0 -246 -169.5 -416t-416.5 -170zM738 1564l295 -255h-183l-172 150 l-180 -150h-189l295 255h67h67z"/>
<glyph glyph-name="otilde" horiz-adv-x="1341" unicode="õ" d="M671 101q186 0 314 133t128 326t-128 326.5t-314 133.5q-185 0 -313 -133.5t-128 -326.5t128 -326t313 -133zM671 -26q-245 0 -415 170t-170 416q0 247 170 417t415 170q247 0 416.5 -170t169.5 -417q0 -246 -169.5 -416t-416.5 -170zM318 1456q31 37 92 63t118 26 q37 0 76 -11t94 -37q45 -21 71.5 -29t51.5 -8q24 0 62 15.5t70 37.5l71 -101q-35 -33 -92.5 -55.5t-105.5 -22.5q-37 0 -71.5 9.5t-110.5 39.5q-61 24 -80.5 30t-35.5 6q-32 0 -72.5 -18.5t-66.5 -45.5z"/>
<glyph glyph-name="odieresis" horiz-adv-x="1341" unicode="ö" d="M671 101q186 0 314 133t128 326t-128 326.5t-314 133.5q-185 0 -313 -133.5t-128 -326.5t128 -326t313 -133zM671 -26q-245 0 -415 170t-170 416q0 247 170 417t415 170q247 0 416.5 -170t169.5 -417q0 -246 -169.5 -416t-416.5 -170zM745 1567h152v-258h-152v258z M444 1567h152v-258h-152v258z"/>
<glyph glyph-name="divide" horiz-adv-x="1241" unicode="÷" d="M544 1066h152v-260h-152v260zM104 585h1032v-140h-1032v140zM544 224h152v-260h-152v260z"/>
<glyph glyph-name="oslash" horiz-adv-x="1337" unicode="ø" d="M669 1020q-185 0 -313 -133.5t-128 -326.5q0 -155 83 -272l358 344l291 279q-123 109 -291 109zM669 -26q-225 0 -388 143l-121 -117l-76 70l127 122q-127 155 -127 368q0 247 170 417t415 170q227 0 387 -143l122 117l76 -70l-126 -121q127 -155 127 -370 q0 -246 -169.5 -416t-416.5 -170zM669 489l-290 -279q121 -108 290 -109q186 0 314 133t128 326q0 156 -83 274z"/>
<glyph glyph-name="ugrave" horiz-adv-x="1245" unicode="ù" d="M271 1121v-665q0 -167 89 -260.5t247 -93.5q171 0 264 110t93 314v595h72h72v-1121h-67h-68v180q-17 -31 -40 -60q-116 -146 -322 -146q-228 0 -356 127t-128 352v668h72h72zM759 1267l-406 220l67 122l404 -223z"/>
<glyph glyph-name="uacute" horiz-adv-x="1245" unicode="ú" d="M271 1121v-665q0 -167 89 -260.5t247 -93.5q171 0 264 110t93 314v595h72h72v-1121h-67h-68v180q-17 -31 -40 -60q-116 -146 -322 -146q-228 0 -356 127t-128 352v668h72h72zM427 1387l409 220l67 -122l-411 -218z"/>
<glyph glyph-name="ucircumflex" horiz-adv-x="1245" unicode="û" d="M271 1121v-665q0 -167 89 -260.5t247 -93.5q171 0 264 110t93 314v595h72h72v-1121h-67h-68v180q-17 -31 -40 -60q-116 -146 -322 -146q-228 0 -356 127t-128 352v668h72h72zM684 1564l295 -255h-183l-172 150l-180 -150h-189l295 255h67h67z"/>
<glyph glyph-name="udieresis" horiz-adv-x="1245" unicode="ü" d="M271 1121v-665q0 -167 89 -260.5t247 -93.5q171 0 264 110t93 314v595h72h72v-1121h-67h-68v180q-17 -31 -40 -60q-116 -146 -322 -146q-228 0 -356 127t-128 352v668h72h72zM691 1567h152v-258h-152v258zM390 1567h152v-258h-152v258z"/>
<glyph glyph-name="yacute" horiz-adv-x="1098" unicode="ý" d="M1071 1121l-657 -1519h-70h-71l192 449l-434 1070h78h78l352 -896l380 896h76h76zM361 1387l409 220l67 -122l-411 -218z"/>
<glyph glyph-name="thorn" horiz-adv-x="1397" unicode="þ" d="M721 101q190 0 321 133.5t131 327.5t-131 328t-321 134t-321 -133.5t-131 -327.5h1q0 -194 131 -328t320 -134zM131 1515h72h72v-582l40 44q168 170 423 170q244 0 411.5 -170t167.5 -417q0 -246 -167.5 -416t-411.5 -170q-254 0 -422 171l-41 46v-585h-72h-72v1909z"/>
<glyph glyph-name="dotlessi" horiz-adv-x="410" unicode="ı" d="M133 0v1121h72h72v-1121h-72h-72z"/>
<glyph glyph-name="OE" horiz-adv-x="2445" unicode="Œ" d="M893 1408q-271 0 -459 -189t-188 -462t188 -461t459 -188q266 0 457 191.5t191 457.5q0 267 -191 459t-457 192zM890 1541q336 0 567 -228q46 -45 82 -94v296h152h648v-68v-69h-648v-545h628v-68v-69h-628v-559h648v-68v-69h-648h-152v298q-36 -49 -84 -96 q-232 -228 -565 -228q-335 0 -566.5 227t-231.5 556t232 557q231 227 566 227z"/>
<glyph glyph-name="oe" horiz-adv-x="2329" unicode="œ" d="M2117 635q-21 146 -123 252q-128 133 -313 133t-313 -134q-101 -105 -124 -251h873zM657 1020q-186 0 -314.5 -133.5t-128.5 -326.5t128.5 -326t314.5 -133t314.5 133t128.5 326t-129 327q-128 133 -314 133zM657 1147q238 0 413 -175q59 -59 98 -126q42 68 100 127 q173 174 409 174q246 0 415 -170t169 -417v-11q0 -22 -3 -43h-1015q15 -157 126 -272q129 -133 316 -133q131 0 231 67t161 196h149q-60 -175 -211 -282.5t-338 -107.5q-242 0 -413 172q-59 59 -97 127q-39 -67 -98 -125q-174 -174 -412 -174q-246 0 -416.5 170t-170.5 416 q0 247 171 417q170 170 416 170z"/>
<glyph glyph-name="Scaron" horiz-adv-x="1020" unicode="Š" d="M785 1129q-14 127 -88 201.5t-187 74.5q-116 0 -196 -74t-80 -181q0 -104 70 -167t238 -108q224 -61 326 -171q101 -110 101 -291q0 -184 -134 -311.5t-328 -127.5q-206 0 -334 125t-128 325h150q17 -154 96.5 -234t215.5 -80q132 0 223 85.5t91 208.5q0 128 -80 204 q-79 75 -269 127q-202 55 -294 152q-92 96 -92 254q0 168 123 284t301 116q181 0 302 -117.5t121 -294.5h-148zM436 1643l-296 255h183l173 -150l181 150h189l-296 -255h-67h-67z"/>
<glyph glyph-name="scaron" horiz-adv-x="795" unicode="š" d="M561 844q1 77 -46 126.5t-122 49.5q-77 0 -122 -47t-45 -128q0 -64 46 -105t159 -78q167 -54 241 -139q74 -84 74 -220q0 -141 -99.5 -235t-249.5 -94q-160 0 -254 96.5t-94 260.5h145v-8q0 -103 52 -161q54 -61 151 -61q93 0 148 52t55 140t-53 142q-53 53 -182 95 q-151 49 -218 121t-67 185q0 134 89 222.5t224 88.5q141 0 227 -83.5t86 -219.5h-145zM319 1310l-296 255h183l173 -150l181 150h189l-296 -255h-67h-67z"/>
<glyph glyph-name="Ydieresis" horiz-adv-x="1212" unicode="Ÿ" d="M531 507l-529 1008h87h88l435 -861l431 861h84h85l-529 -1009v-506h-76h-76v507zM681 1900h152v-258h-152v258zM380 1900h152v-258h-152v258z"/>
<glyph glyph-name="circumflex" horiz-adv-x="1028" unicode="ˆ" d="M581 1564l295 -255h-183l-172 150l-180 -150h-189l295 255h67h67z"/>
<glyph glyph-name="tilde" horiz-adv-x="899" unicode="˜" d="M96 1456q31 37 92 63t118 26q37 0 76 -11t94 -37q45 -21 71.5 -29t51.5 -8q24 0 62 15.5t70 37.5l71 -101q-35 -33 -92.5 -55.5t-105.5 -22.5q-37 0 -71.5 9.5t-110.5 39.5q-61 24 -80.5 30t-35.5 6q-32 0 -72.5 -18.5t-66.5 -45.5z"/>
<glyph glyph-name="pi" horiz-adv-x="1246" unicode="π" d="M112 692q91 160 171.5 213.5t229.5 53.5l338 1q90 0 191 2.5t146 6.5l-30 -164h-301q-29 -156 -29 -299q0 -13 1.5 -97.5t41.5 -263.5q13 -59 13 -95q0 -25 -10.5 -50t-73.5 -25q-64 0 -97.5 59t-33.5 172q0 95 23 233t78 366h-148l-116 -652q-18 -105 -45 -141.5 t-86 -36.5q-66 0 -72.5 27.5t-6.5 39.5q0 48 31 143l211 620h-94q-75 0 -130.5 -31.5t-140.5 -121.5z"/>
<glyph glyph-name="endash" horiz-adv-x="1024" unicode="–" d="M72 645h880v-137h-880v137z"/>
<glyph glyph-name="emdash" horiz-adv-x="2048" unicode="—" d="M72 645h1904v-137h-1904v137z"/>
<glyph glyph-name="quoteleft" horiz-adv-x="719" unicode="‘" d="M374 1118l-179 397h152l179 -397h-152z"/>
<glyph glyph-name="quotesinglbase" horiz-adv-x="725" unicode="‚" d="M182 -139l179 397h152l-179 -397h-152z"/>
<glyph glyph-name="quotedblleft" horiz-adv-x="1028" unicode="“" d="M679 1118l-179 397h152l179 -397h-152zM378 1118l-179 397h152l179 -397h-152z"/>
<glyph glyph-name="quotedblright" horiz-adv-x="991" unicode="”" d="M498 1118l179 397h152l-179 -397h-152zM197 1118l179 397h152l-179 -397h-152z"/>
<glyph glyph-name="dagger" horiz-adv-x="1133" unicode="†" d="M121 1105h370v410h148v-410h371v-137h-371v-1241h-148v1241h-370v137z"/>
<glyph glyph-name="daggerdbl" horiz-adv-x="1133" unicode="‡" d="M121 1100h370v415h148v-415h371v-137h-371v-680h371v-148h-371v-408h-148v408h-370v148h370v680h-370v137z"/>
<glyph glyph-name="ellipsis" horiz-adv-x="2048" unicode="…" d="M1630 258h152v-258h-152v258zM948 258h152v-258h-152v258zM266 258h152v-258h-152v258z"/>
<glyph glyph-name="perthousand" horiz-adv-x="2404" unicode="‰" d="M1981 596q-105 0 -175 -72t-70 -181q0 -108 70 -180t175 -72q106 0 176 72t70 180q0 109 -70 181t-176 72zM1981 -23q-159 0 -264.5 104.5t-105.5 261.5q0 158 105.5 262.5t264.5 104.5q160 0 265.5 -104.5t105.5 -262.5q0 -157 -105.5 -261.5t-265.5 -104.5zM1178 596 q-105 0 -175 -72t-70 -181q0 -108 70 -180t175 -72q106 0 176 72t70 180q0 109 -70 181t-176 72zM1178 -23q-159 0 -264.5 104.5t-105.5 261.5q0 158 105.5 262.5t264.5 104.5q160 0 265.5 -104.5t105.5 -262.5q0 -157 -105.5 -261.5t-265.5 -104.5zM293 4l860 1506h138 l-860 -1506h-138zM421 1424q-105 0 -175 -72t-70 -181q0 -108 70 -180t175 -72q106 0 176 72t70 180q0 109 -70 181t-176 72zM421 805q-159 0 -264.5 104.5t-105.5 261.5q0 158 105.5 262.5t264.5 104.5q160 0 265.5 -104.5t105.5 -262.5q0 -157 -105.5 -261.5 t-265.5 -104.5z"/>
<glyph glyph-name="guilsinglleft" horiz-adv-x="514" unicode="‹" d="M434 919l-194 -344l194 -345l-119 -68l-233 413l233 412z"/>
<glyph glyph-name="guilsinglright" horiz-adv-x="514" unicode="›" d="M80 230l194 344l-194 345l119 68l233 -413l-233 -412z"/>
<glyph glyph-name="fraction" horiz-adv-x="340" unicode="⁄" d="M572 1515l-681 -1515h-121l681 1515h121z"/>
<glyph glyph-name="Euro" horiz-adv-x="1135" unicode="€" d="M1109 397q-20 -184 -145.5 -303.5t-299.5 -119.5q-244 0 -383 208q-96 147 -127 369h-154l30 137h113v69v18q0 26 2 51h-145l30 137h127q33 210 132 359q146 219 375 219q171 0 296.5 -117t148.5 -298h-157q-32 134 -107 206.5t-181 72.5q-165 0 -266 -178 q-61 -110 -88 -264h502l-30 -137h-484l-1 -69v-69h454l-30 -137h-409q23 -151 86 -263q101 -178 266 -178q108 0 183.5 74.5t106.5 212.5h155z"/>
<glyph glyph-name="trademark" horiz-adv-x="2048" unicode="™" d="M238 606v811h-220v49v49h548v-49v-49h-219v-811h-54h-55zM791 606h-54h-55v909h78l417 -750l338 750h78h78v-909h-54h-55v763l-345 -763h-40h-40l-346 765v-765z"/>
<glyph glyph-name="partialdiff" horiz-adv-x="1020" unicode="∂" d="M271 324q0 -114 44 -193t108 -79q108 0 184 178t76 431q0 120 -39 180t-117 60q-107 0 -181.5 -167.5t-74.5 -409.5zM81 385q0 234 139.5 416.5t317.5 182.5q48 0 96.5 -16t104.5 -50q8 68 8 126q0 104 -31 196t-116 92q-28 0 -60.5 -28.5t-51.5 -70.5 q-29 -63 -49.5 -82.5t-60.5 -19.5q-60 0 -79.5 36t-19.5 62q0 28 15 57q32 62 104.5 105t146.5 43q196 0 293.5 -154t97.5 -460v-6q0 -372 -145.5 -609t-372.5 -237q-148 0 -242.5 117t-94.5 300z"/>
<glyph glyph-name="product" horiz-adv-x="2039" unicode="∏" d="M197 -315v65q151 17 197.5 88.5t46.5 289.5v901v26q0 196 -45 265t-199 86v65h1645v-65q-151 -17 -197.5 -88.5t-46.5 -288.5v-901q0 -218 46.5 -289.5t197.5 -88.5v-65h-704v65q157 17 200.5 85t43.5 266v27v1262h-725v-1262q0 -218 46.5 -289.5t197.5 -88.5v-65h-704z "/>
<glyph glyph-name="summation" horiz-adv-x="2039" unicode="∑" d="M416 -315l491 838l-482 948h1119l46 -366l-70 -14l-17 39q-54 142 -142.5 200.5t-250.5 58.5h-403l370 -740l-451 -756h524q138 0 219 51t149 180l22 41l70 -21l-117 -459h-1077z"/>
<glyph glyph-name="minus" horiz-adv-x="1241" unicode="−" d="M115 585h1032v-140h-1032v140z"/>
<glyph glyph-name="uni2215" horiz-adv-x="340" unicode="∕" d="M572 1515l-681 -1515h-121l681 1515h121z"/>
<glyph glyph-name="radical" horiz-adv-x="1473" unicode="√" d="M56 438l298 194l506 -750l480 1647h382v-86h-281l-553 -1817h-74l-570 821l-145 -105z"/>
<glyph glyph-name="infinity" horiz-adv-x="2039" unicode="∞" d="M1643 569q0 97 -59.5 156.5t-157.5 59.5q-84 0 -146 -50.5t-122 -168.5q41 -100 111.5 -154t159.5 -54q98 0 156 57t58 154zM394 567q0 -107 69 -181t169 -74q109 0 193.5 73t159.5 232q-63 113 -137.5 163.5t-180.5 50.5q-115 0 -194 -76.5t-79 -187.5zM283 569 q0 179 116.5 302t285.5 123q122 0 210.5 -60.5t175.5 -202.5q74 109 157.5 163t177.5 54q153 0 250.5 -105.5t97.5 -271.5q0 -162 -97 -269t-243 -107q-105 0 -189 56.5t-135 161.5q-106 -156 -186.5 -210t-206.5 -54q-174 0 -294 122t-120 298z"/>
<glyph glyph-name="approxequal" horiz-adv-x="2039" unicode="≈" d="M414 626q57 100 157 169.5t188 69.5q55 0 150 -21.5t216 -60.5q68 -22 146.5 -37t123.5 -15q60 0 132 35.5t116 86.5l37 -22q-48 -115 -136 -182.5t-190 -67.5q-31 0 -105 14t-150 35q-162 44 -254.5 64.5t-130.5 20.5q-64 0 -142 -35t-127 -86zM414 275 q57 100 157 169.5t188 69.5q55 0 150 -21.5t216 -60.5q68 -22 146.5 -37t123.5 -15q60 0 132 35.5t116 86.5l37 -22q-48 -115 -136 -182.5t-190 -67.5q-31 0 -105 14t-150 35q-162 44 -254.5 64.5t-130.5 20.5q-64 0 -142 -35t-127 -86z"/>
<glyph glyph-name="notequal" horiz-adv-x="2039" unicode="≠" d="M410 -93l318 372h-321v135h437l236 276h-673v135h788l317 367h164l-315 -367h312v-135h-427l-236 -276h663v-135h-779l-318 -372h-166z"/>
<glyph glyph-name="lessequal" horiz-adv-x="2039" unicode="≤" d="M417 135h1266v-135h-1266v135zM1683 1235v-135l-1063 -410l1063 -309v-135l-1266 377v135z"/>
<glyph glyph-name="greaterequal" horiz-adv-x="2039" unicode="≥" d="M417 135h1266v-135h-1266v135zM417 1235l1266 -477v-135l-1266 -377v135l1063 309l-1063 410v135z"/>
<glyph glyph-name="lozenge" horiz-adv-x="1171" unicode="◊" d="M585 1324l-349 -613l349 -615l349 615zM530 1423h110l404 -712l-404 -711h-110l-404 711z"/>
<glyph glyph-name="glyph106" d="M672 758q0 282 -194.5 476.5t-477.5 194.5t-477.5 -194.5t-194.5 -476.5t195 -476.5t477 -194.5t477 194.5t195 476.5zM0 1539q328 0 554.5 -226.5t226.5 -554.5t-226.5 -554.5t-554.5 -226.5t-554.5 226.5t-226.5 554.5t226.5 554.5t554.5 226.5z"/>
<glyph glyph-name="glyph107" d="M399 603q-14 -129 -127 -220.5t-260 -91.5q-195 0 -319.5 130.5t-124.5 335.5q0 206 124.5 336.5t319.5 130.5q150 0 261.5 -88.5t125.5 -219.5h-113q-23 100 -92.5 152t-181.5 52q-150 0 -238 -98t-88 -265q0 -163 89.5 -262.5t236.5 -99.5q109 0 180.5 54t93.5 154h113 z"/>
<glyph glyph-name="glyph113" d="M668 758q0 286 -193.5 483.5t-474.5 197.5t-474.5 -197.5t-193.5 -483.5t194 -483.5t474 -197.5t474 197.5t194 483.5zM0 1539q328 0 554.5 -226.5t226.5 -554.5t-226.5 -554.5t-554.5 -226.5t-554.5 226.5t-226.5 554.5t226.5 554.5t554.5 226.5z"/>
<glyph glyph-name="glyph114" d="M-222 782h222q123 0 182.5 40t59.5 124q0 74 -54.5 110t-168.5 36h-241v-310zM-334 304v893h56h297q175 0 255.5 -58t80.5 -183q0 -129 -78 -184q-34 -24 -86 -37q59 -16 93 -50q51 -53 58 -173l8 -120q3 -37 7 -57t12 -31h-56h-56q-8 15 -12.5 41.5t-8.5 74.5l-5 71 q-7 115 -52.5 153t-175.5 38h-225v-378h-56h-56z"/>
<glyph glyph-name="glyph130" d="M284 606v797h-155v112h278v-909h-61h-62z" horiz-adv-x="680"/>
<glyph glyph-name="glyph131" d="M458 765h-452v53v54l442 643h66h67v-639h86v-111h-86v-159h-123v159z" horiz-adv-x="680"/>
<glyph glyph-name="glyph133" d="M284 606v797h-155v112h278v-909h-61h-62z" horiz-adv-x="680"/>
<glyph glyph-name="glyph134" d="M651 1247q0 -92 -62 -172q-62 -79 -313 -307l-56 -51h431v-111h-612v52v53l158 144q222 202 277 268q55 65 55 129q0 70 -52 118t-128 48q-84 0 -135 -62q-45 -55 -45 -133q0 -11 1 -22h-119v7q0 140 81 230q83 92 219 92q126 0 213 -82t87 -201z" horiz-adv-x="680"/>
<glyph glyph-name="glyph136" d="M467 1297q0 52 -37.5 86.5t-93.5 34.5q-52 0 -86 -42.5t-35 -108.5h-117q4 117 72.5 190t174.5 73q107 0 177.5 -64.5t70.5 -162.5q0 -90 -75 -158l-19 -16q35 -18 65 -46q87 -82 87 -206q0 -123 -87.5 -204.5t-219.5 -81.5q-140 0 -222.5 85.5t-84.5 233.5h121 q0 -87 52.5 -147t128.5 -60q80 0 133.5 51.5t53.5 128.5q0 78 -53.5 130t-133.5 52h-72v112h69q56 0 94 34q37 34 37 86z" horiz-adv-x="680"/>
<glyph glyph-name="glyph137" d="M458 765h-452v53v54l442 643h66h67v-639h86v-111h-86v-159h-123v159z" horiz-adv-x="680"/>
<glyph glyph-name="glyph140" d="M142 -42l-406 220l67 122l404 -223z"/>
<glyph glyph-name="glyph142" d="M-190 78l409 220l67 -122l-411 -218z"/>
<glyph glyph-name="glyph144" d="M67 255l295 -255h-183l-172 150l-180 -150h-189l295 255h67h67z"/>
<glyph glyph-name="glyph146" d="M-353 147q31 37 92 63t118 26q37 0 76 -11t94 -37q45 -21 71.5 -29t51.5 -8q24 0 62 15.5t70 37.5l71 -101q-35 -33 -92.5 -55.5t-105.5 -22.5q-37 0 -71.5 9.5t-110.5 39.5q-61 24 -80.5 30t-35.5 6q-32 0 -72.5 -18.5t-66.5 -45.5z"/>
<glyph glyph-name="glyph148" d="M74 258h152v-258h-152v258zM-227 258h152v-258h-152v258z"/>
<glyph glyph-name="glyph150" d="M0 -3q45 0 75.5 30.5t30.5 74.5t-30.5 74.5t-75.5 30.5t-75.5 -30.5t-30.5 -74.5t30.5 -74.5t75.5 -30.5zM0 -110q-89 0 -150.5 61.5t-61.5 150.5t61.5 150.5t150.5 61.5t150.5 -61.5t61.5 -150.5t-61.5 -150.5t-150.5 -61.5z"/>
<glyph glyph-name="glyph153" d="M-21 0l-49 -118q39 14 66 14q67 0 113 -48.5t46 -119.5q0 -76 -50.5 -129t-124.5 -53q-72 0 -119 38t-63 109l85 9q12 -39 36.5 -60t58.5 -21q41 0 66.5 29t25.5 77q0 44 -25 70.5t-66 26.5q-29 0 -55.5 -13t-36.5 -32l-77 39l83 182h86z"/>
<glyph glyph-name="glyph179" d="M142 -42l-406 220l67 122l404 -223z"/>
<glyph glyph-name="glyph181" d="M-190 78l409 220l67 -122l-411 -218z"/>
<glyph glyph-name="glyph183" d="M67 255l295 -255h-183l-172 150l-180 -150h-189l295 255h67h67z"/>
<glyph glyph-name="glyph185" d="M-353 147q31 37 92 63t118 26q37 0 76 -11t94 -37q45 -21 71.5 -29t51.5 -8q24 0 62 15.5t70 37.5l71 -101q-35 -33 -92.5 -55.5t-105.5 -22.5q-37 0 -71.5 9.5t-110.5 39.5q-61 24 -80.5 30t-35.5 6q-32 0 -72.5 -18.5t-66.5 -45.5z"/>
<glyph glyph-name="glyph187" d="M74 258h152v-258h-152v258zM-227 258h152v-258h-152v258z"/>
<glyph glyph-name="glyph189" d="M-16 27q45 0 75.5 30.5t30.5 74.5t-30.5 74.5t-75.5 30.5t-75.5 -30.5t-30.5 -74.5t30.5 -74.5t75.5 -30.5zM-16 -80q-89 0 -150.5 61.5t-61.5 150.5t61.5 150.5t150.5 61.5t150.5 -61.5t61.5 -150.5t-61.5 -150.5t-150.5 -61.5z"/>
<glyph glyph-name="glyph192" d="M-3 0l-49 -118q39 14 66 14q67 0 113 -48.5t46 -119.5q0 -76 -50.5 -129t-124.5 -53q-72 0 -119 38t-63 109l85 9q12 -39 36.5 -60t58.5 -21q41 0 66.5 29t25.5 77q0 44 -25 70.5t-66 26.5q-29 0 -55.5 -13t-36.5 -32l-77 39l83 182h86z"/>
<glyph glyph-name="glyph233" d="M-74 1l-296 255h183l173 -150l181 150h189l-296 -255h-67h-67z"/>
<glyph glyph-name="glyph235" d="M-74 1l-296 255h183l173 -150l181 150h189l-296 -255h-67h-67z"/>
<glyph glyph-name="glyph350" d="M-54 606v811h-220v49v49h548v-49v-49h-219v-811h-54h-55z"/>
<glyph glyph-name="glyph351" d="M-386 606h-54h-55v909h78l417 -750l338 750h78h78v-909h-54h-55v763l-345 -763h-40h-40l-346 765v-765z"/>
</font>
</defs>
</svg>
