<?xml version="1.0" encoding="UTF-8" standalone="no"?>
<!DOCTYPE svg  PUBLIC '-//W3C//DTD SVG 1.1//EN'  'http://www.w3.org/Graphics/SVG/1.1/DTD/svg11.dtd'>
<svg xmlns="http://www.w3.org/2000/svg">
<defs>
<font id="CenturySchoolbook-BoldItalic" horiz-adv-x="1176">
<font-face slope="-15" underline-position="-154" font-weight="700" descent="-410" panose-1="2 4 8 4 6 5 5 9 3 4" units-per-em="2048" unicode-range="U+0020-F003" bbox="-394 -443 2617 2018" x-height="958" underline-thickness="102" font-family="CenturySchoolbook" ascent="1638" font-style="italic" cap-height="1479"/>
<missing-glyph horiz-adv-x="2048"/>
<glyph glyph-name=".notdef" horiz-adv-x="2048"/>
<glyph glyph-name=".null" horiz-adv-x="0"/>
<glyph glyph-name="nonmarkingreturn" horiz-adv-x="2048"/>
<glyph glyph-name="space" horiz-adv-x="588" unicode=" "/>
<glyph glyph-name="exclam" horiz-adv-x="682" unicode="!" d="M215 319q71 0 121 -50.5t50 -123.5q0 -72 -50 -123t-121 -51t-121.5 51t-50.5 123q0 73 50.5 123.5t121.5 50.5zM317 432h-87l46 203q68 301 93 588q11 133 32.5 182.5t65.5 79t95 29.5q64 0 109.5 -43.5t45.5 -101.5q0 -37 -20 -95q-26 -76 -112 -243 q-122 -237 -169 -342q-34 -73 -67 -168z"/>
<glyph glyph-name="quotedbl" horiz-adv-x="819" unicode='&quot;' d="M293 751h-49l6 418q1 118 62.5 186.5t148.5 68.5q49 0 81 -30t32 -71q0 -56 -70 -184zM700 751h-49l6 418q1 118 62.5 186.5t148.5 68.5q49 0 81 -30t32 -71q0 -56 -69 -184z"/>
<glyph glyph-name="numbersign" horiz-adv-x="1241" unicode="#" d="M571 914l-69 -330h303l69 330h-303zM118 1083h319l86 396h166l-85 -396h302l84 396h168l-85 -396h183v-169h-215l-69 -330h284v-168h-316l-86 -416h-165l84 416h-306l-89 -416h-167l89 416h-182v168h217l69 330h-286v169z"/>
<glyph glyph-name="dollar" d="M684 558l-142 -490q119 1 196 73t77 172q0 45 -19.5 86.5t-111.5 158.5zM692 939l109 389q-87 -4 -142 -60.5t-55 -137.5q0 -87 88 -191zM855 1513h97l-27 -100q126 -34 189.5 -104.5t63.5 -155.5q0 -77 -41.5 -125t-102.5 -48q-52 0 -86 33.5t-34 84.5q0 25 9.5 44 t42.5 51q39 37 39 56q0 54 -105 73l-131 -460q174 -182 215 -261.5t41 -175.5q0 -166 -104 -290q-133 -158 -367 -158l-38 1l-70 -247h-99l74 260q-124 32 -200.5 119.5t-76.5 182.5q0 86 49 142.5t116 56.5q58 0 95.5 -36t37.5 -87q0 -88 -92 -132q-48 -23 -48 -48 q0 -27 37.5 -59.5t106.5 -48.5l158 554q-118 130 -146 182q-45 87 -45 196q0 171 115.5 287.5t298.5 122.5z" unicode="$"/>
<glyph glyph-name="percent" horiz-adv-x="1820" unicode="%" d="M1398 650q-19 0 -35 -13q-27 -20 -46 -71.5t-75 -266.5q-38 -143 -38 -209q0 -30 13.5 -45.5t33.5 -15.5q32 0 57 36t83 249.5t58 269.5q0 29 -15.5 47.5t-35.5 18.5zM1396 708q97 0 155 -65t58 -179q0 -134 -54.5 -254t-136 -179.5t-168.5 -59.5q-94 0 -152 66t-58 184 q0 131 56 251t137 178t163 58zM1403 1395h93l-1014 -1395h-95zM647 1366q-18 0 -34 -13q-27 -20 -46 -71.5t-76 -266.5q-37 -143 -37 -209q0 -30 13.5 -45.5t33.5 -15.5q32 0 57 36t83 249.5t58 269.5q0 29 -15.5 47.5t-36.5 18.5zM646 1424q96 0 154.5 -65t58.5 -179 q0 -134 -54.5 -254t-136 -179.5t-168.5 -59.5q-94 0 -152 66t-58 184q0 131 56 251t136.5 178t163.5 58z"/>
<glyph glyph-name="ampersand" horiz-adv-x="1821" unicode="&amp;" d="M644 767q-102 -58 -149.5 -138t-47.5 -183q0 -147 87 -243t215 -96q79 0 177 44q-82 106 -148.5 248t-133.5 368zM915 948q158 52 225 129t67 177q0 78 -41 124t-102 46q-70 0 -123 -70t-53 -196q0 -82 27 -210zM935 860q77 -301 228 -543q127 120 174 197q36 58 36 106 t-42 75t-157 29l25 93h550v-93h-30q-60 0 -106 -32t-141 -161q-88 -120 -135 -172.5t-121 -118.5q85 -115 196 -115q126 0 275 192l62 -53q-163 -293 -461 -293q-84 0 -152.5 25t-139.5 83q-125 -62 -218.5 -85t-203.5 -23q-211 0 -330.5 108.5t-119.5 278.5q0 110 49 205 t143.5 161t309.5 136q-21 110 -21 179q0 141 57.5 250t163.5 167t243 58q153 0 243.5 -79.5t90.5 -194.5q0 -81 -45 -155t-138 -128t-285 -97z"/>
<glyph glyph-name="quotesingle" horiz-adv-x="588" unicode="&apos;" d="M381 751h-49l6 418q1 118 62.5 186.5t148.5 68.5q49 0 81 -30t32 -71q0 -56 -70 -184z"/>
<glyph glyph-name="parenleft" horiz-adv-x="834" unicode="(" d="M488 -391q-175 198 -248.5 383t-73.5 403q0 217 73.5 407.5t218.5 353t445 357.5h107q-281 -257 -425.5 -585.5t-144.5 -700.5q0 -173 27.5 -309.5t101.5 -308.5h-81z"/>
<glyph glyph-name="parenright" horiz-adv-x="834" unicode=")" d="M298 1514h81q154 -152 238.5 -357t84.5 -433q0 -328 -175.5 -606t-562.5 -511h-109q186 172 311 377t194 440.5t69 472.5q0 187 -31 331t-100 286z"/>
<glyph glyph-name="asterisk" horiz-adv-x="1024" unicode="*" d="M638 1053q47 19 78 41q24 16 75 71q58 63 92.5 82t72.5 19q60 0 98 -37t38 -96t-40.5 -96.5t-111.5 -37.5q-25 0 -105 10q-82 10 -110 10q-25 0 -70 -9q21 -26 42.5 -41.5t105.5 -59.5q77 -40 95 -55q26 -22 38.5 -49t12.5 -59q0 -59 -40.5 -98.5t-100.5 -39.5 q-36 0 -67.5 22.5t-48.5 62.5q-12 31 -39 177q-12 69 -40 113q-25 -46 -37 -121q-19 -121 -38 -163.5t-54.5 -66.5t-73.5 -24q-52 0 -90 40.5t-38 97.5q0 43 22 74.5t89 67.5q94 51 135 79q23 16 48 43q-41 11 -72 11q-39 0 -139 -15q-53 -7 -72 -7q-74 0 -116 36.5 t-42 95.5q0 60 37 98t94 38q40 0 80 -22q25 -15 88 -76q64 -63 89 -81t67 -35q0 46 -6.5 70t-38.5 87q-42 80 -53 113t-11 61q0 61 36.5 98.5t95.5 37.5q60 0 96 -35.5t36 -92.5q0 -32 -9.5 -64.5t-48.5 -113.5q-33 -70 -40.5 -96t-8.5 -65z"/>
<glyph glyph-name="plus" horiz-adv-x="1241" unicode="+" d="M157 774h466v467h187v-467h468v-187h-468v-464h-187v464h-466v187z"/>
<glyph glyph-name="comma" horiz-adv-x="588" unicode="," d="M-85 -334l-24 78q151 42 218.5 101t67.5 106q0 28 -36 39q-83 25 -110.5 59.5t-27.5 97.5q0 74 51 125.5t125 51.5q83 0 139 -62t56 -159q0 -131 -93 -239q-128 -149 -366 -198z"/>
<glyph glyph-name="hyphen" horiz-adv-x="682" unicode="-" d="M50 564h632l-53 -188h-634z"/>
<glyph glyph-name="hyphen" horiz-adv-x="682" unicode="­" d="M50 564h632l-53 -188h-634z"/>
<glyph glyph-name="period" horiz-adv-x="588" unicode="." d="M225 313q71 0 120.5 -50t49.5 -121t-49.5 -121t-120.5 -50t-120.5 50t-49.5 121t50 121t120 50z"/>
<glyph glyph-name="slash" horiz-adv-x="569" unicode="/" d="M876 1479l-886 -1479h-189l886 1479h189z"/>
<glyph glyph-name="zero" d="M813 1334q-48 0 -100 -46t-106 -188q-34 -87 -149 -461q-90 -296 -90 -419q0 -72 36.5 -114t91.5 -42q47 0 86 26q54 35 88 105q61 128 134 373l95 320q49 181 49 279q0 79 -38 123t-97 44zM815 1424q155 0 249.5 -114.5t94.5 -334.5q0 -258 -96.5 -494t-243 -373 t-326.5 -137q-149 0 -241.5 113t-92.5 322q0 205 63 405t166.5 342t218.5 206.5t208 64.5z" unicode="0"/>
<glyph glyph-name="one" d="M932 1419h80l-333 -1243q-3 -13 -3 -26q0 -27 20 -40q27 -17 86 -17h112l-25 -93h-703l25 93h130q83 0 108 93l250 936q3 11 3 21q0 26 -21.5 41t-75.5 15h-132l25 90q179 6 282 38.5t172 91.5z" unicode="1"/>
<glyph glyph-name="two" d="M330 239h459q93 0 156 173h91l-143 -412h-832l24 93q123 150 219.5 247t285.5 254q142 119 172 150q70 76 106.5 163.5t36.5 174.5q0 105 -56.5 165t-150.5 60t-154.5 -50t-60.5 -108q0 -20 12 -32t50 -23q65 -18 92.5 -51.5t27.5 -85.5q0 -61 -42 -101t-103 -40 q-81 0 -137 64.5t-56 171.5q0 148 126.5 260t320.5 112q196 0 309.5 -100t113.5 -249q0 -123 -89 -240q-72 -96 -286 -230q-257 -161 -343 -228t-149 -138z" unicode="2"/>
<glyph glyph-name="three" d="M763 715q145 -53 210.5 -136.5t65.5 -193.5q0 -164 -141 -289t-355 -125q-206 0 -308.5 104t-102.5 241q0 87 46 137.5t115 50.5q62 0 102 -39t40 -99q0 -86 -75 -129q-47 -28 -55 -36.5t-8 -20.5q0 -35 40 -63q55 -37 127 -37q115 0 193 104q101 136 101 323 q0 80 -37 120t-102 40q-27 0 -84 -3l-25 -1q-43 0 -62 15t-19 41t15.5 40t43.5 14l46 -4q42 -5 67 -5q142 0 231 100t89 275q0 95 -44 140.5t-131 45.5q-70 0 -108 -24t-38 -48q0 -17 27 -39q57 -47 57 -110q0 -55 -35.5 -90.5t-91.5 -35.5q-63 0 -103 42t-40 110 q0 101 90 187q112 107 287 107q178 0 288 -94t110 -234q0 -132 -95.5 -228.5t-330.5 -152.5z" unicode="3"/>
<glyph glyph-name="four" d="M812 1022l-547 -564h383zM1076 1420h100l-268 -962h168l-26 -96h-172l-54 -189q-3 -10 -3 -20q0 -28 21.5 -44t65.5 -16h84l-26 -93h-606l24 93h78q82 0 103 73l57 196h-503l31 115z" unicode="4"/>
<glyph glyph-name="five" d="M582 1154l-110 -305q113 48 207 48q163 0 264.5 -102.5t101.5 -270.5q0 -155 -70.5 -277t-207 -199t-286.5 -77q-153 0 -240.5 74.5t-87.5 191.5q0 97 53.5 158t125.5 61q60 0 101 -40t41 -95q0 -52 -32.5 -90.5t-99.5 -54.5q-47 -11 -47 -34q0 -27 33 -49 q45 -29 107 -29q88 0 166 70.5t124.5 225.5t46.5 263q0 75 -46.5 121.5t-122.5 46.5q-59 0 -116.5 -29.5t-76.5 -64.5q-33 -61 -70 -61q-21 0 -35 13t-14 31q0 43 53 84l220 623q13 37 33 37q11 0 41 -13q127 -54 279 -54q128 0 230 53q26 14 37 14q10 0 17.5 -8t7.5 -17 q0 -38 -59 -111t-156 -118.5t-207 -45.5q-83 0 -205 30z" unicode="5"/>
<glyph glyph-name="six" d="M675 740q-62 0 -105 -51q-60 -71 -104 -237.5t-44 -243.5q0 -65 31 -100.5t79 -35.5q44 0 86 40q51 51 104 211q64 192 64 300q0 57 -29.5 87t-81.5 30zM563 802q93 52 185 52q130 0 218.5 -95.5t88.5 -249.5q0 -141 -69.5 -266t-187.5 -198.5t-242 -73.5 q-164 0 -267 117t-103 329q0 248 124.5 499.5t301 379.5t341.5 128q126 0 203 -64.5t77 -155.5q0 -76 -48.5 -125.5t-118.5 -49.5q-61 0 -100.5 38t-39.5 96q0 51 41 100q17 20 17 33q0 14 -12 22q-16 11 -40 11q-60 0 -128.5 -47.5t-131.5 -167t-109 -312.5z" unicode="6"/>
<glyph glyph-name="seven" d="M480 1425h88q38 -30 88 -30h646l-15 -69q-215 -254 -320.5 -418t-163.5 -311.5t-85 -312.5q-28 -176 -43 -213q-21 -48 -61 -74t-100 -26q-68 0 -105 36t-37 97q0 64 35 160q48 130 173.5 315.5t442.5 574.5h-342q-102 0 -162.5 -47.5t-102.5 -167.5h-101z" unicode="7"/>
<glyph glyph-name="eight" d="M587 644q-281 -115 -281 -343q0 -102 65 -165.5t175 -63.5q119 0 194.5 70.5t75.5 170.5q0 61 -38 123q-51 82 -191 208zM788 818q221 103 221 295q0 97 -59 156t-154 59q-98 0 -161.5 -58.5t-63.5 -139.5q0 -52 34 -107q50 -80 183 -205zM854 754q109 -114 147 -193 t38 -164q0 -173 -141 -299.5t-352 -126.5q-187 0 -303.5 99.5t-116.5 236.5q0 121 86 220t307 184q-77 84 -107 154t-30 152q0 176 126 291.5t323 115.5q158 0 250 -83.5t92 -208.5q0 -119 -72.5 -212t-246.5 -166z" unicode="8"/>
<glyph glyph-name="nine" d="M845 1326q-52 0 -91 -38q-58 -56 -114 -219t-56 -284q0 -67 30 -99t85 -32q52 0 101.5 46.5t102 207.5t52.5 284q0 66 -29.5 100t-80.5 34zM812 610q-88 -64 -189 -64q-129 0 -218 94.5t-89 241.5q0 136 73 269t185 203t240 70q163 0 266.5 -116t103.5 -312 q0 -236 -102.5 -479t-286.5 -394.5t-378 -151.5q-127 0 -202 65t-75 156q0 74 49.5 125.5t117.5 51.5q59 0 99.5 -39t40.5 -93q0 -50 -42 -105q-17 -23 -17 -35t11.5 -21t34.5 -9q120 0 226.5 146t151.5 397z" unicode="9"/>
<glyph glyph-name="colon" horiz-adv-x="588" unicode=":" d="M216 319q72 0 122.5 -51t50.5 -123t-50.5 -123t-122.5 -51q-71 0 -122 51t-51 123t50.5 123t122.5 51zM403 970q71 0 122 -51t51 -123q0 -73 -51 -124t-123 -51q-71 0 -122 51t-51 122q0 72 52.5 124t121.5 52z"/>
<glyph glyph-name="less" horiz-adv-x="1241" unicode="&lt;" d="M1276 128l-1118 468v169l1118 469v-203l-864 -350l864 -349v-204z"/>
<glyph glyph-name="equal" horiz-adv-x="1241" unicode="=" d="M158 536h1118v-187h-1118v187zM158 1017h1118v-187h-1118v187z"/>
<glyph glyph-name="greater" horiz-adv-x="1241" unicode="&gt;" d="M158 1234l1118 -468v-170l-1118 -468v203l864 350l-864 349v204z"/>
<glyph glyph-name="question" horiz-adv-x="985" unicode="?" d="M310 316q70 0 120.5 -50.5t50.5 -121.5q0 -72 -50.5 -122.5t-120.5 -50.5q-71 0 -121 50.5t-50 122.5q0 71 50 121.5t121 50.5zM670 628l67 -48q-94 -177 -254 -177q-103 0 -171.5 68t-68.5 172q0 59 25 116.5t74 105t194 139.5q171 107 213 161q42 53 42 117 q0 57 -45 96.5t-121 39.5q-105 0 -177.5 -79.5t-72.5 -205.5l-85 -11l-1 24q0 153 107.5 260.5t265.5 107.5q154 0 249.5 -89.5t95.5 -226.5q0 -82 -31.5 -150.5t-95 -121t-212.5 -118.5q-160 -71 -210 -116q-51 -46 -51 -107q0 -40 25.5 -66t64.5 -26q93 0 173 135z"/>
<glyph glyph-name="at" horiz-adv-x="1530" unicode="@" d="M886 998q-32 0 -66 -35q-66 -69 -122.5 -220.5t-56.5 -264.5q0 -44 14.5 -64.5t35.5 -20.5q26 0 71 45q76 76 129.5 204t53.5 240q0 65 -16.5 90.5t-42.5 25.5zM1014 1028l208 8l-157 -537q-25 -88 -25 -128q0 -33 19.5 -52.5t51.5 -19.5q65 0 157 70.5t151 195.5t59 264 q0 237 -151.5 388.5t-397.5 151.5q-213 0 -383.5 -99t-272 -285t-101.5 -406q0 -296 188.5 -484.5t481.5 -188.5q240 0 431 129t271 343h53q-103 -252 -300 -385.5t-457 -133.5q-330 0 -544 212t-214 538q0 351 234 583t594 232q191 0 328.5 -73.5t212.5 -207t75 -309.5 q0 -274 -175 -450q-147 -147 -336 -147q-86 0 -131 42t-45 116q0 43 20 111q-102 -169 -166 -219t-130 -50q-62 0 -102.5 49.5t-40.5 144.5q0 149 77 310.5t179.5 240t186.5 78.5q50 0 80.5 -33.5t41.5 -100.5z"/>
<glyph glyph-name="A" horiz-adv-x="1518" unicode="A" d="M871 1110l-342 -529h415zM985 1479h135l179 -1275q8 -58 38 -80q42 -31 112 -31h46l-25 -93h-680l23 93h50q79 0 107.5 19.5t28.5 59.5q0 14 -3 32l-37 266h-501l-99 -154q-41 -65 -41 -119q0 -49 32.5 -76.5t99.5 -27.5h41l-23 -93h-531l23 93q69 4 109 32 q77 53 116 113z"/>
<glyph glyph-name="B" horiz-adv-x="1554" unicode="B" d="M622 720l-143 -529q-6 -22 -6 -42q0 -28 23 -42t92 -14h169q119 0 200 44t133 140.5t52 203.5q0 111 -74.5 175t-217.5 64h-228zM649 812h199q90 0 160 31q94 42 149.5 130t55.5 200q0 123 -77 176q-54 37 -198 37q-84 0 -113 -17t-42 -65zM264 1479h858q203 0 311.5 -89 t108.5 -229q0 -148 -111.5 -249t-369.5 -134q202 -17 307 -111.5t105 -240.5q0 -132 -81 -233q-59 -75 -202.5 -134t-308.5 -59h-953l23 93h101q88 0 111 86l301 1112q5 19 5 37q0 26 -22 41t-80 15h-125z"/>
<glyph glyph-name="C" horiz-adv-x="1554" unicode="C" d="M1441 1340q59 35 87 112h90l-114 -558h-88q-1 218 -39 314.5t-120 149.5t-194 53q-124 0 -242.5 -96t-210.5 -325t-92 -475q0 -143 45 -233.5t135 -142t201 -51.5q142 0 266 94.5t201 283.5l84 -38q-86 -227 -251.5 -342t-394.5 -115q-284 0 -449 160.5t-165 430.5 q0 263 115.5 490t303 344.5t406.5 117.5q136 0 237 -41t189 -133z"/>
<glyph glyph-name="D" horiz-adv-x="1706" unicode="D" d="M734 93q120 0 228 56t189 161.5t142 303t61 377.5q0 194 -100 302q-87 93 -269 93q-82 0 -111 -18t-42 -64l-307 -1125q-4 -14 -4 -26q0 -29 18 -42q24 -18 71 -18h124zM325 1479h723q310 0 474 -157t164 -437q0 -182 -71.5 -358t-182 -285.5t-284 -175.5t-389.5 -66 h-761l25 93h82q84 0 109 94l304 1115q4 12 4 25q0 27 -23 42t-88 15h-115z"/>
<glyph glyph-name="E" horiz-adv-x="1518" unicode="E" d="M311 1479h1262l-109 -481h-90q16 88 16 133q0 114 -70 183.5t-178 69.5h-219q-75 0 -99 -89l-133 -487h75q127 0 203 56.5t131 199.5h88l-178 -670h-87q14 84 14 140q0 88 -51.5 135.5t-140.5 47.5h-78l-144 -528q-5 -18 -5 -35q0 -30 22.5 -45.5t79.5 -15.5h153 q205 0 345 100t227 317h91l-159 -510h-1278l27 93h76q80 0 100 74l308 1128q4 16 4 30q0 28 -19.5 43.5t-64.5 15.5h-144z"/>
<glyph glyph-name="F" horiz-adv-x="1442" unicode="F" d="M319 1479h1250l-85 -480h-91q8 58 8 100q0 139 -78 212t-216 73h-181q-73 0 -99 -96l-126 -474h113q255 0 318 258h93l-182 -679h-93q23 78 23 138q0 92 -50 141t-141 49h-107l-148 -547q-3 -12 -3 -24q0 -27 19 -40q24 -17 73 -17h158l-25 -93h-744l22 93h84 q80 0 102 81l305 1114q4 17 4 34q0 29 -19 43q-25 19 -70 19h-139z"/>
<glyph glyph-name="G" horiz-adv-x="1669" unicode="G" d="M1451 1357q39 38 67 99h88l-88 -525h-87q-8 263 -101 378t-245 115q-137 0 -263 -99.5t-230.5 -355t-104.5 -491.5q0 -203 86.5 -307.5t230.5 -104.5q120 0 194 62.5t127.5 226.5t53.5 205q0 24 -16.5 35.5t-61.5 11.5h-98l20 88h640l-24 -88h-47q-87 0 -106 -68 l-149 -539h-74l-43 186q-104 -112 -224.5 -163.5t-267.5 -51.5q-245 0 -412.5 155.5t-167.5 435.5q0 249 127 476t333.5 351.5t448.5 124.5q138 0 228 -36.5t166 -120.5z"/>
<glyph glyph-name="H" horiz-adv-x="1782" unicode="H" d="M324 1479h722l-24 -95h-90q-88 0 -107 -70l-132 -491h579l130 477q3 12 3 23q0 28 -23 44.5t-77 16.5h-104l23 95h718l-24 -95h-87q-55 0 -82.5 -23t-44.5 -89l-297 -1112q-2 -8 -2 -15q0 -24 17 -35q26 -17 68 -17h121l-25 -93h-710l25 93h103q72 0 95 82l142 527h-579 l-147 -527q-3 -12 -3 -23q0 -28 19.5 -43.5t60.5 -15.5h132l-23 -93h-705l23 93h72q43 0 72 19.5t37 47.5l315 1154q4 14 -2.5 32t-27 28t-54.5 10h-131z"/>
<glyph glyph-name="I" horiz-adv-x="909" unicode="I" d="M330 1479h727l-24 -95h-85q-59 0 -84.5 -17.5t-36.5 -58.5l-301 -1129q-4 -16 -4 -28q0 -28 19 -40q29 -18 86 -18h108l-24 -93h-710l25 93h80q86 0 105 74l300 1124q5 19 5 36q0 27 -20.5 42t-71.5 15h-116z"/>
<glyph glyph-name="J" horiz-adv-x="1366" unicode="J" d="M804 1479h710l-25 -95h-64q-49 0 -75 -22t-42 -81l-205 -756q-61 -228 -137.5 -333.5t-204 -163t-294.5 -57.5q-196 0 -308.5 98.5t-112.5 244.5q0 133 84 222t201 89q84 0 139.5 -51.5t55.5 -125.5q0 -72 -48 -118t-129 -46q-57 0 -113 39q-35 24 -47 24 q-16 0 -29 -16.5t-13 -46.5q0 -83 75 -146.5t189 -63.5q127 0 214.5 78.5t138.5 269.5l237 888q3 11 3 22q0 25 -20 38.5t-75 13.5h-130z"/>
<glyph glyph-name="K" horiz-adv-x="1593" unicode="K" d="M324 1479h695l-27 -95h-79q-52 0 -79 -22t-43 -79l-161 -588l600 518q65 57 65 99q0 32 -27 52t-83 20h-39l24 95h574l-25 -95q-91 -7 -155.5 -36t-157.5 -110l-396 -337l346 -719q16 -34 37.5 -51.5t63.5 -29.5q27 -8 100 -8l-24 -93h-696l25 93h90q51 0 73 16t22 42 q0 20 -9 38l-247 520l-201 -173l-100 -362q-3 -11 -3 -23q0 -27 23 -42.5t80 -15.5h106l-25 -93h-712l24 93h60q60 0 89.5 21t42.5 68l304 1112q5 16 5 31q0 28 -23 43.5t-79 15.5h-81z"/>
<glyph glyph-name="L" horiz-adv-x="1442" unicode="L" d="M350 1479h761l-23 -95h-134q-49 0 -74 -20.5t-39 -72.5l-299 -1112q-3 -13 -3 -27q0 -28 18 -41q26 -18 74 -18h197q125 0 255 103t219 307h91l-142 -503h-1251l25 93h96q86 0 104 69l308 1138q3 13 3 26q0 27 -22 41q-28 17 -95 17h-93z"/>
<glyph glyph-name="M" horiz-adv-x="1933" unicode="M" d="M299 1479h535l108 -1074l674 1074h486l-26 -95h-60q-112 0 -135 -91l-287 -1117q-3 -13 -3 -25q0 -27 18 -40q23 -18 62 -18h132l-26 -93h-722l22 93h90q100 0 122 83l283 1037l-757 -1213h-119l-125 1204l-234 -862q-13 -48 -13 -89q0 -152 194 -160l-24 -93h-545l25 93 q85 6 142 61q78 77 108 188l259 951q6 19 6 34q0 27 -20.5 42t-69.5 15h-125z"/>
<glyph glyph-name="N" horiz-adv-x="1745" unicode="N" d="M388 1479h442l475 -1031l197 726q12 45 12 73q0 63 -42.5 100.5t-113.5 37.5h-43l25 94h510l-26 -94q-80 -4 -122 -43q-59 -55 -84 -149l-320 -1193h-109l-538 1174l-221 -817q-15 -57 -15 -93q0 -76 52.5 -122.5t152.5 -48.5l-22 -93h-570l23 93q99 4 161 56.5t87 145.5 l257 953q10 35 10 51q0 40 -33.5 63t-118.5 23h-51z"/>
<glyph glyph-name="O" horiz-adv-x="1706" unicode="O" d="M1076 1418q-168 0 -304 -130t-230 -435q-74 -240 -74 -433q0 -174 81 -265t221 -91q163 0 297.5 128.5t218 406.5t83.5 458q0 177 -79.5 269t-213.5 92zM1073 1514q282 0 452 -165.5t170 -430.5q0 -226 -101 -434q-115 -238 -341.5 -375.5t-493.5 -137.5 q-311 0 -465 181.5t-154 427.5q0 193 101 411.5t327 370.5t505 152z"/>
<glyph glyph-name="P" horiz-adv-x="1518" unicode="P" d="M664 753q84 -14 148 -14q152 0 244 46.5t146 147t54 230.5q0 110 -68 165.5t-231 55.5q-76 0 -105 -19.5t-45 -76.5zM300 1479h772q262 0 383.5 -99t121.5 -274q0 -201 -165.5 -329t-517.5 -128q-93 0 -255 16l-130 -486q-4 -15 -4 -28q0 -29 20.5 -43.5t75.5 -14.5h116 l-25 -93h-722l23 93h83q92 0 112 72l308 1132q6 20 6 33q0 26 -24 40t-98 14h-104z"/>
<glyph glyph-name="Q" horiz-adv-x="1706" unicode="Q" d="M933 101q19 100 19 154q0 92 -46 144t-119 52q-83 0 -144.5 -62t-61.5 -150q0 -86 51 -146q54 -28 131 -28q44 0 86.5 9t83.5 27zM1136 277q111 178 172.5 393t61.5 399q0 165 -82.5 260t-215.5 95q-141 0 -260 -96q-141 -112 -237 -350q-106 -265 -106 -531 q0 -100 19 -178q16 130 101 204.5t222 74.5q129 0 212 -69.5t113 -201.5zM1176 68q21 -218 51.5 -271.5t77.5 -53.5q33 0 59.5 24.5t49.5 91.5l59 -13q-26 -115 -107 -177.5t-207 -62.5q-123 0 -188.5 68t-65.5 194q0 38 9 114q-59 -5 -102.5 -8t-71.5 -3 q-267 0 -433.5 165.5t-166.5 432.5q0 256 126.5 476.5t341.5 344.5t471 124q278 0 447 -168t169 -442q0 -171 -62.5 -334.5t-175 -288.5t-281.5 -213z"/>
<glyph glyph-name="R" horiz-adv-x="1630" unicode="R" d="M677 813h148q225 0 320 88q111 102 111 271q0 108 -62.5 162t-213.5 54q-101 0 -129.5 -17.5t-43.5 -72.5zM284 1479h799q153 0 237 -23q119 -34 188 -120t69 -205q0 -108 -62 -193t-182 -133.5t-350 -53.5q115 -24 177.5 -78.5t91.5 -141t36 -318.5q3 -91 54 -91 q69 0 144 158l71 -19q-108 -273 -340 -273q-118 0 -183.5 68t-65.5 189q0 55 12 158q11 96 11 128q0 93 -49 141.5t-137 48.5h-153l-150 -553q-3 -9 -3 -18q0 -26 20 -41.5t63 -15.5h144l-21 -93h-740l25 93h84q50 0 76 21.5t40 69.5l300 1095q7 24 7 46q0 29 -20.5 44 t-69.5 15h-148z"/>
<glyph glyph-name="S" horiz-adv-x="1403" unicode="S" d="M1209 1359l115 91h87l-114 -511h-88q-4 181 -48 279t-126 152t-186 54q-134 0 -216 -73t-82 -182q0 -84 51 -132t307 -143q170 -64 238 -116.5t104.5 -130t36.5 -175.5q0 -139 -70 -254t-202 -181t-307 -66q-137 0 -240.5 37t-206.5 125l-83 -92h-92l115 531h89 q1 -184 49.5 -287.5t143.5 -160t221 -56.5q150 0 244 82t94 197q0 95 -71 152q-39 32 -277 127q-185 73 -248 120.5t-96.5 119t-33.5 170.5q0 208 140 343t362 135q111 0 204 -36t186 -119z"/>
<glyph glyph-name="T" horiz-adv-x="1479" unicode="T" d="M381 1479h1254l-131 -540h-92q29 135 29 218q0 116 -51.5 171.5t-153.5 55.5q-61 0 -88 -20t-41 -72l-301 -1111q-3 -13 -3 -28q0 -28 22.5 -44t72.5 -16h137l-24 -93h-797l23 93h144q89 0 116 97l299 1102q5 15 5 30q0 31 -21.5 46.5t-72.5 15.5q-101 0 -191 -81 q-127 -115 -247 -364h-87z"/>
<glyph glyph-name="U" horiz-adv-x="1706" unicode="U" d="M309 1479h734l-25 -94h-108q-83 0 -103 -73l-208 -774q-28 -104 -28 -171q0 -133 85.5 -211.5t229.5 -78.5q157 0 269.5 97t159.5 284l177 703q10 37 10 73q0 55 -19.5 87t-56.5 48t-119 16l26 94h526l-22 -94q-93 -5 -146 -48t-74 -127l-188 -752 q-43 -171 -124.5 -273.5t-202.5 -158t-290 -55.5q-267 0 -408 112.5t-141 289.5q0 95 29 202l200 727q4 14 4 27q0 27 -20.5 41.5t-70.5 14.5h-121z"/>
<glyph glyph-name="V" horiz-adv-x="1518" unicode="V" d="M236 1479h640l-24 -94h-53q-61 0 -87.5 -20.5t-26.5 -58.5q0 -16 4 -41l123 -914l521 819q36 57 36 111q0 50 -34.5 76t-127.5 28l27 94h515l-24 -94q-73 -5 -128 -41t-100 -106l-801 -1270h-133l-181 1316q-14 101 -117 101h-55z"/>
<glyph glyph-name="W" horiz-adv-x="1933" unicode="W" d="M204 1479h566l-24 -94h-34q-52 0 -75.5 -21.5t-23.5 -63.5l2 -34l76 -808l420 801q-2 71 -32 98.5t-104 27.5h-54l23 94h642l-23 -94h-71q-60 0 -83 -17.5t-23 -55.5l1 -19l77 -825l409 781q15 30 15 60q0 28 -11.5 45t-34.5 25q-16 6 -77 6l23 94h413l-21 -94 q-67 -2 -103.5 -28t-87.5 -122l-664 -1267h-90l-103 1099l-574 -1099h-94l-133 1319q-5 52 -31 75t-74 23h-42z"/>
<glyph glyph-name="X" horiz-adv-x="1518" unicode="X" d="M299 1479h675l-22 -95h-46q-60 0 -84.5 -16.5t-24.5 -42.5q0 -22 9 -43l146 -343l261 275q46 49 46 94q0 36 -24 56t-74 20h-42l20 95h550l-24 -95q-77 -1 -128.5 -25t-111.5 -87l-430 -447l256 -611q21 -48 42 -69q30 -29 66 -43q25 -9 91 -9l-25 -93h-670l26 93h57 q65 0 94.5 19.5t29.5 47.5q0 11 -10 33l-171 413l-292 -314q-49 -53 -49 -104q0 -41 34.5 -67t118.5 -28l-24 -93h-599l24 93q157 12 271 132l472 491l-248 589q-17 41 -51 60t-100 19h-64z"/>
<glyph glyph-name="Y" horiz-adv-x="1442" unicode="Y" d="M282 1479h623l-23 -95h-85q-53 0 -72.5 -11.5t-19.5 -27.5q0 -14 10 -39l214 -528l319 426q38 51 38 95q0 37 -30 59t-114 26l26 95h483l-26 -95q-68 -8 -108.5 -32t-83.5 -81l-437 -589l-137 -505q-3 -13 -3 -25q0 -28 21 -43.5t67 -15.5h116l-24 -93h-736l29 93h107 q89 0 109 71l132 486l-268 656q-19 47 -41.5 62.5t-67.5 15.5h-39z"/>
<glyph glyph-name="Z" horiz-adv-x="1442" unicode="Z" d="M477 1479h1048v-84l-1085 -1302h302q115 0 204.5 40.5t164.5 124.5t162 269l81 -34l-151 -493h-1173v45l1122 1339h-229q-166 0 -285 -89t-246 -344l-84 33z"/>
<glyph glyph-name="bracketleft" horiz-adv-x="834" unicode="[" d="M513 1479h454l-23 -84h-94q-54 0 -83.5 -24.5t-45.5 -83.5l-386 -1449q-9 -33 -9 -47q0 -29 19.5 -43.5t75.5 -14.5h84l-24 -92h-460z"/>
<glyph glyph-name="backslash" horiz-adv-x="1241" unicode="\" d="M358 1479l790 -1479h-181l-790 1479h181z"/>
<glyph glyph-name="bracketright" horiz-adv-x="834" unicode="]" d="M359 1479h458l-489 -1838h-457l25 90h107q49 0 74 20t37 68l395 1476q6 22 6 38q0 28 -22 45t-71 17h-87z"/>
<glyph glyph-name="asciicircum" horiz-adv-x="1241" unicode="^" d="M475 761h-202l411 718h66l411 -718h-210l-239 418z"/>
<glyph glyph-name="underscore" horiz-adv-x="1024" unicode="_" d="M-12 -154h1048v-102h-1048v102z"/>
<glyph glyph-name="grave" horiz-adv-x="682" unicode="`" d="M710 1132l-33 -27l-301 139q-106 48 -106 120q0 41 37.5 74.5t88.5 33.5q79 0 170 -133z"/>
<glyph glyph-name="a" horiz-adv-x="1366" unicode="a" d="M725 849q-122 0 -219.5 -171t-97.5 -392q0 -103 31 -145.5t89 -42.5q61 0 131 61.5t124 206t54 307.5q0 97 -29.5 136.5t-82.5 39.5zM894 795l54 144l256 19l-198 -714q-20 -73 -20 -93q0 -15 6.5 -23t19.5 -8q74 0 192 233l75 -41q-175 -341 -382 -341q-71 0 -110 43.5 t-46 129.5q-76 -96 -147.5 -134.5t-151.5 -38.5q-137 0 -226 98.5t-89 269.5q0 164 79.5 314t204.5 233.5t256 83.5q90 0 145 -42t82 -133z"/>
<glyph glyph-name="b" horiz-adv-x="1251" unicode="b" d="M722 841q-61 0 -123 -55q-86 -77 -148.5 -238t-62.5 -314q0 -89 37 -132.5t99 -43.5q68 0 130 54q84 73 142 222.5t58 315.5q0 100 -35.5 145.5t-96.5 45.5zM297 1479l427 16l-193 -669q88 94 158.5 128.5t155.5 34.5q135 0 220.5 -95t85.5 -259q0 -175 -89.5 -333 t-235 -244.5t-316.5 -86.5q-114 0 -197.5 41.5t-129 118.5t-45.5 171q0 62 15 116l249 871q5 19 5 37q0 28 -21.5 43.5t-73.5 15.5h-44z"/>
<glyph glyph-name="c" horiz-adv-x="1100" unicode="c" d="M893 265l69 -54q-95 -117 -216 -178.5t-251 -61.5q-181 0 -289 107t-108 284q0 161 85.5 311t222.5 233t295 83q151 0 232.5 -69t81.5 -175q0 -79 -44 -126.5t-110 -47.5q-60 0 -98.5 35.5t-38.5 89.5q0 37 19 62t90 63q22 11 22 23q0 18 -27 34q-37 22 -91 22 q-131 0 -225 -134q-119 -170 -119 -430q0 -124 53.5 -185.5t140.5 -61.5q150 0 306 176z"/>
<glyph glyph-name="d" horiz-adv-x="1366" unicode="d" d="M708 863q-71 0 -128 -50q-81 -70 -145 -225.5t-64 -296.5q0 -96 36.5 -142t96.5 -46q77 0 150 76q93 95 150 282q43 141 43 234q0 80 -38.5 124t-100.5 44zM904 1479l459 18l-372 -1301q-8 -29 -8 -47q0 -19 8.5 -28.5t23.5 -9.5q79 0 219 242l72 -39q-89 -179 -194 -261 t-206 -82q-73 0 -115.5 43.5t-54.5 130.5q-87 -97 -162 -135.5t-157 -38.5q-145 0 -240.5 102t-95.5 267q0 162 84 326t202 243.5t253 79.5q97 0 166 -40.5t118 -127.5l142 483q4 15 4 29q0 24 -25.5 39.5t-91.5 15.5h-58z"/>
<glyph glyph-name="e" horiz-adv-x="1063" unicode="e" d="M384 452q171 33 249 106q107 101 107 227q0 52 -24.5 81.5t-61.5 29.5q-74 0 -138 -89q-94 -129 -132 -355zM372 369q-4 -38 -4 -63q0 -106 52 -163t139 -57q73 0 143.5 35t172.5 139l67 -52q-117 -129 -229.5 -183t-242.5 -54q-184 0 -289.5 105.5t-105.5 286.5 q0 161 88 308.5t240.5 232.5t328.5 85q129 0 200 -62t71 -157q0 -79 -57 -158.5t-185 -138t-389 -104.5z"/>
<glyph glyph-name="f" horiz-adv-x="797" unicode="f" d="M596 939h210l-29 -104h-208l-181 -753q-55 -232 -129 -414q-114 -16 -245 -50q-44 -12 -53 -12q-16 0 -16 16q0 10 10 30q65 128 105 243q76 216 107 344l144 596h-166l31 104h162q166 575 523 575q93 0 146 -45.5t53 -112.5q0 -56 -37.5 -95t-91.5 -39q-51 0 -80 29.5 t-36 100.5q-7 62 -35 62q-37 0 -67 -55q-47 -88 -117 -420z"/>
<glyph glyph-name="g" horiz-adv-x="1251" unicode="g" d="M497 -29q-177 0 -260 -48q-58 -35 -58 -103q0 -60 51 -91q72 -44 220 -44q173 0 255 51t82 117q0 55 -57.5 86.5t-232.5 31.5zM696 910q-94 0 -160.5 -85.5t-66.5 -231.5q0 -92 39.5 -135.5t113.5 -43.5q90 0 146 74q73 96 73 238q0 95 -37.5 139.5t-107.5 44.5zM903 958 q115 108 233 108q64 0 99 -29.5t35 -77.5q0 -42 -27.5 -70t-66.5 -28q-44 0 -82 51q-17 23 -23 27q-8 5 -20 5q-33 0 -66 -31q63 -43 94 -100t31 -128q0 -154 -115 -252.5t-343 -98.5q-46 0 -132 7q-59 5 -90 5q-101 0 -155 -29q-33 -18 -33 -51q0 -36 48 -48q32 -8 238 -17 q206 -8 268 -20q110 -23 168.5 -83.5t58.5 -147.5q0 -92 -61.5 -172.5t-191.5 -126t-359 -45.5q-197 0 -298.5 27t-143.5 73.5t-42 98.5q0 65 59.5 114t227.5 81q-70 20 -108.5 68.5t-38.5 109.5q0 84 64 148t198 90q-127 84 -127 221q0 147 126 249.5t351 102.5 q58 0 114 -7.5t110 -23.5z"/>
<glyph glyph-name="h" horiz-adv-x="1403" unicode="h" d="M331 1479l455 19l-227 -790q115 154 218 217.5t207 63.5q93 0 151.5 -59t58.5 -150q0 -80 -32 -180l-132 -408q-7 -23 -7 -43q0 -18 8.5 -27t22.5 -9q83 0 196 243l81 -27q-80 -185 -179.5 -267t-202.5 -82q-82 0 -129.5 46t-47.5 121q0 72 53 230q77 227 93 292.5 t16 100.5q0 36 -19.5 56.5t-52.5 20.5q-98 0 -228.5 -167t-199.5 -407l-77 -273l-267 -8l374 1306q5 15 5 30q0 26 -23 41.5t-80 15.5h-62z"/>
<glyph glyph-name="i" horiz-adv-x="797" unicode="i" d="M183 939l453 19l-215 -742q-14 -50 -14 -73q0 -18 7 -27.5t20 -9.5q29 0 74 43q75 71 147 201l73 -42q-187 -337 -411 -337q-76 0 -120 45t-44 123q0 54 14 102l149 518q5 14 5 29q0 28 -23 44.5t-79 16.5h-64zM544 1480q68 0 116 -48t48 -116t-48 -116t-116 -48t-116 48 t-48 116t48 116t116 48z"/>
<glyph glyph-name="j" horiz-adv-x="758" unicode="j" d="M649 958l-193 -810q-48 -201 -122 -313t-177.5 -170.5t-217.5 -58.5q-99 0 -151 42t-52 110q0 55 36.5 91.5t91.5 36.5q49 0 75.5 -28.5t27.5 -90.5q1 -44 8 -55t24 -11q39 0 71 55q51 86 127 402l148 609q3 14 3 26q0 24 -25.5 40.5t-89.5 16.5h-53l25 89zM535 1481 q68 0 116 -48t48 -116q0 -69 -48 -117t-116 -48t-116.5 48t-48.5 117q0 68 48.5 116t116.5 48z"/>
<glyph glyph-name="k" horiz-adv-x="1327" unicode="k" d="M334 1479l453 19l-231 -803q146 174 250 234t212 60q103 0 162.5 -54.5t59.5 -139.5q0 -67 -39 -130.5t-124.5 -115.5t-262.5 -101q59 -29 82 -51.5t34 -49.5q7 -18 28 -137q10 -53 18 -64.5t22 -11.5q24 0 57 33q51 49 104 151l78 -40q-81 -158 -175 -228.5t-186 -70.5 q-81 0 -122 44t-41 139q0 40 10 111q11 77 11 105q0 25 -6 33.5t-18 8.5l-27 -3l-25 -3q-32 0 -50 14.5t-18 34.5q0 22 16.5 36t46.5 14l39 -3q30 -3 47 -3q103 0 183 75q79 74 79 163q0 50 -25.5 77t-72.5 27q-62 0 -132 -47q-99 -68 -191.5 -217t-149.5 -332l-78 -253 l-262 -8l381 1315q3 10 3 21q0 24 -22 39q-29 21 -71 21h-78z"/>
<glyph glyph-name="l" horiz-adv-x="797" unicode="l" d="M333 1479l455 19l-366 -1269q-16 -56 -16 -80q0 -18 6.5 -27t18.5 -9q26 0 59 33q68 68 140 196l74 -39q-90 -176 -192 -254t-200 -78q-75 0 -117 43.5t-42 122.5q0 68 21 140l289 1007q8 29 8 51q0 28 -24 44t-90 16h-50z"/>
<glyph glyph-name="m" horiz-adv-x="1933" unicode="m" d="M1118 708q94 134 199.5 198t207.5 64t158.5 -54.5t56.5 -146.5q0 -70 -24 -146l-140 -431q-4 -15 -4 -29q0 -32 27 -32q65 0 195 216l70 -46q-181 -321 -390 -321q-76 0 -118.5 44t-42.5 128q0 40 14 84l119 366q33 101 33 148q0 37 -20.5 59.5t-51.5 22.5 q-48 0 -104 -39q-77 -54 -149 -175t-117 -271l-103 -347l-265 -7l184 630q17 61 17 117q0 45 -20 69.5t-52 24.5q-77 0 -185.5 -119t-171.5 -336l-108 -379l-267 -7l217 754q6 22 6 39q0 29 -23.5 45t-86.5 16h-45l26 92l428 19l-64 -244q116 147 208.5 201.5t186.5 54.5 q96 0 150.5 -52t54.5 -139q0 -25 -6 -71z"/>
<glyph glyph-name="n" horiz-adv-x="1403" unicode="n" d="M1248 355l81 -25q-74 -182 -173 -266.5t-202 -84.5q-86 0 -134 46.5t-48 125.5q0 70 52 224q76 230 89 283.5t13 86.5q0 37 -18.5 58t-46.5 21q-51 0 -108 -41q-95 -66 -180 -199t-127 -274l-90 -310l-266 -9l224 772q3 12 3 23q0 29 -23 44.5t-87 15.5h-58l28 93l437 19 l-73 -281q220 293 429 293q95 0 155.5 -61t60.5 -153q0 -74 -32 -176l-106 -337q-25 -79 -25 -100q0 -15 7.5 -22.5t21.5 -7.5q34 0 72 40q64 69 124 202z"/>
<glyph glyph-name="o" d="M677 905q-78 0 -140 -67q-86 -92 -141 -283t-55 -307q0 -91 43.5 -139.5t114.5 -48.5q68 0 120 48q76 72 144 258.5t68 347.5q0 90 -43.5 140.5t-110.5 50.5zM667 989q193 0 314.5 -119t121.5 -302q0 -231 -164.5 -414t-432.5 -183q-196 0 -317 118.5t-121 303.5 q0 158 81.5 300t215.5 219t302 77z" unicode="o"/>
<glyph glyph-name="p" horiz-adv-x="1327" unicode="p" d="M785 835q-59 0 -118 -52q-82 -72 -146 -226t-64 -278q0 -84 39 -127.5t103 -43.5q124 0 223 184.5t99 360.5q0 90 -37.5 136t-98.5 46zM564 773q82 107 162.5 152t173.5 45q134 0 223 -95.5t89 -255.5q0 -229 -148 -422q-169 -219 -400 -219q-97 0 -166 45t-101 127 l-95 -336q-8 -25 -8 -38q0 -32 21 -47.5t82 -15.5h62l-29 -94h-610l28 94h76q45 0 72 23.5t43 77.5l274 953q3 11 3 21q0 29 -21.5 45t-69.5 16h-76l28 90l435 19z"/>
<glyph glyph-name="q" horiz-adv-x="1290" unicode="q" d="M733 900q-133 0 -238.5 -202.5t-105.5 -409.5q0 -94 36.5 -138t97.5 -44q68 0 127 54q84 75 151.5 244t67.5 322q0 86 -37 130t-99 44zM1005 830l141 157h88l-338 -1176q-8 -25 -8 -39q0 -31 25 -48.5t92 -17.5h48l-25 -87h-626l26 87h92q81 0 104 78l99 338 q-94 -89 -162.5 -120t-150.5 -31q-140 0 -228 95.5t-88 256.5q0 173 87.5 330t234.5 246.5t306 89.5q99 0 169.5 -39.5t113.5 -119.5z"/>
<glyph glyph-name="r" horiz-adv-x="1063" unicode="r" d="M175 937l391 21l-96 -429q98 239 179 324q113 117 258 117q83 0 132.5 -46.5t49.5 -120.5q0 -71 -42.5 -118.5t-98.5 -47.5q-49 0 -83 32.5t-34 78.5q0 26 9 59q3 11 3 17q0 11 -9 19.5t-22 8.5q-39 0 -92 -41.5t-121 -179.5q-92 -189 -149 -383l-72 -248l-268 -11 l150 528q41 147 41 233q0 60 -27.5 80.5t-115.5 20.5h-9z"/>
<glyph glyph-name="s" horiz-adv-x="985" unicode="s" d="M153 642q0 148 121.5 247.5t326.5 99.5q168 0 254 -63t86 -155q0 -60 -36 -97.5t-91 -37.5q-52 0 -86 33t-34 81q0 31 25 75q12 21 12 30q0 21 -27 37.5t-87 16.5q-98 0 -159.5 -51.5t-61.5 -118.5q0 -43 28.5 -67t191.5 -81q122 -42 167 -74t70 -82.5t25 -110.5 q0 -95 -53 -176.5t-155 -129t-247 -47.5q-200 0 -299.5 70t-99.5 179q0 66 41 109t100 43q52 0 86 -33t34 -85q0 -41 -37 -87q-17 -21 -17 -33q0 -28 36 -49q47 -28 130 -28q107 0 170.5 51.5t63.5 123.5q0 42 -28 70t-127 60q-211 68 -267 124.5t-56 155.5z"/>
<glyph glyph-name="t" horiz-adv-x="834" unicode="t" d="M444 1261h264l-92 -322h208l-31 -104h-206l-177 -614q-8 -27 -8 -52q0 -30 12 -45t32 -15q79 0 231 233l73 -46q-99 -168 -208 -246.5t-209 -78.5q-88 0 -139 49.5t-51 128.5q0 60 20 132l160 554h-191l31 104h189z"/>
<glyph glyph-name="u" horiz-adv-x="1403" unicode="u" d="M643 958l-197 -600q-35 -106 -35 -155q0 -44 19 -65.5t53 -21.5q85 0 207 127.5t205 378.5l104 317h265l-234 -721q-15 -47 -15 -71q0 -18 7 -27t21 -9q80 0 208 233l75 -33q-93 -189 -190.5 -264.5t-204.5 -75.5q-81 0 -123.5 43t-42.5 126q0 39 12 92 q-193 -254 -427 -254q-96 0 -149 54t-53 146q0 83 42 211l122 378q4 11 4 22q0 27 -25 43.5t-86 16.5h-53l26 90z"/>
<glyph glyph-name="v" horiz-adv-x="1139" unicode="v" d="M118 846l28 93l435 19l-131 -451q-48 -167 -48 -264q0 -73 40.5 -115.5t101.5 -42.5q80 0 174.5 72t166.5 213t72 259q0 36 -11 59.5t-42 49.5q-54 46 -68.5 71t-14.5 55q0 42 33 74t82 32q61 0 102.5 -52t41.5 -145q0 -168 -80.5 -363.5t-220 -317t-317.5 -121.5 q-148 0 -233 82t-85 221q0 78 29 180l86 304q5 15 5 30q0 27 -22.5 42.5t-74.5 15.5h-49z"/>
<glyph glyph-name="w" horiz-adv-x="1706" unicode="w" d="M786 260q-187 -289 -446 -289q-100 0 -159 55.5t-59 139.5q0 70 23 141l143 441q6 19 6 35q0 31 -29.5 47t-133.5 16l27 93l466 19l-194 -594q-43 -134 -43 -184q0 -40 19.5 -61.5t51.5 -21.5q67 0 145 72q111 103 186 284q36 87 153 486h262l-129 -454 q-43 -153 -43 -251q0 -71 29 -106.5t76 -35.5q62 0 124 54q93 80 162.5 226t69.5 257q0 36 -14 66q-11 22 -50 53q-43 36 -57 60t-14 53q0 46 32.5 77.5t82.5 31.5q60 0 101 -52.5t41 -144.5q0 -160 -78 -356q-89 -223 -215.5 -334.5t-283.5 -111.5q-123 0 -189 63t-66 173z "/>
<glyph glyph-name="x" d="M661 657q127 210 204 271t155 61q68 0 111 -40t43 -102q0 -63 -37 -101.5t-94 -38.5q-80 0 -114 84q-13 32 -29 32q-18 0 -36 -20.5t-164 -247.5l112 -333q16 -46 35 -69t41 -23q76 0 179 182l69 -39q-84 -155 -182 -228.5t-191 -73.5q-85 0 -135 60q-28 35 -102 242 q-111 -179 -182.5 -240.5t-161.5 -61.5q-79 0 -126.5 44t-47.5 110q0 60 37.5 99t93.5 39q43 0 71 -20t49 -74q17 -42 33 -42q27 0 76.5 64t122.5 191l-118 344q-32 93 -66 93q-58 0 -130 -169l-65 42q58 156 138.5 226.5t166.5 70.5q60 0 102 -30.5t73 -98.5 q11 -24 69 -203z" unicode="x"/>
<glyph glyph-name="y" horiz-adv-x="1063" unicode="y" d="M675 284q85 123 131.5 239.5t46.5 159.5q0 24 -16 67q-32 79 -32 118q0 55 32 88t84 33q51 0 82 -33t31 -87q0 -103 -108 -325q-148 -304 -332 -543t-327 -328q-107 -67 -205 -67q-89 0 -143 46t-54 114q0 59 38 97t97 38q50 0 81 -35t32 -102q0 -29 7 -39t21 -10 q25 0 73 24t116 91q88 88 153 178l-51 231q-71 322 -95 396q-40 127 -78 164q-19 18 -37 18q-25 0 -48.5 -26t-66.5 -135l-78 33q120 300 293 300q94 0 158 -97q80 -122 195 -608z"/>
<glyph glyph-name="z" horiz-adv-x="1063" unicode="z" d="M170 190q135 52 194.5 66t111.5 14q56 0 142 -30q124 -42 162 -42q42 0 75 23t83 102l64 -41q-80 -169 -173.5 -240t-203.5 -71q-46 0 -98.5 12.5t-155.5 55.5q-99 41 -143 53t-101 17l-21 -97q-5 -26 -14 -32q-11 -9 -41 -9q-29 0 -39.5 9t-10.5 30q0 68 54 165 t175 192.5t392 231.5q134 68 182.5 100.5t93.5 79.5q-113 -56 -207 -56q-69 0 -201 38q-101 29 -149 29q-46 0 -79.5 -21.5t-78.5 -91.5l-70 37q89 152 181 213.5t199 61.5q35 0 63 -6t102 -32q172 -63 236 -63t90 68q14 33 32 33q22 0 36.5 -14t14.5 -33q0 -50 -55 -139 q-75 -124 -217.5 -230.5t-425.5 -242.5q-93 -44 -139 -78q-31 -23 -60 -62z"/>
<glyph glyph-name="braceleft" horiz-adv-x="834" unicode="{" d="M192 538l16 62q90 16 154 65.5t89 119.5q16 46 22 172q8 152 24 204q27 92 112 181.5t199 135.5q87 35 232 40l-14 -50q-96 -17 -148 -55.5t-77.5 -97t-30.5 -190.5q-5 -151 -29.5 -221t-84.5 -137.5t-150 -118.5t-219 -82q140 -36 208 -109.5t68 -163.5q0 -53 -17 -115 q-13 -46 -68 -157q-55 -109 -68.5 -153.5t-13.5 -79.5q0 -43 37.5 -77t109.5 -47l-13 -49q-163 0 -276 88q-89 70 -89 179q0 54 15 103.5t84 192.5q51 106 62 142t11 64q0 55 -37.5 96.5t-107.5 57.5z"/>
<glyph glyph-name="bar" horiz-adv-x="1241" unicode="|" d="M599 1479h189v-1860h-189v1860z"/>
<glyph glyph-name="braceright" horiz-adv-x="834" unicode="}" d="M733 597l-16 -62q-90 -16 -154.5 -66t-88.5 -121q-17 -46 -23 -171q-7 -150 -22 -203q-28 -92 -112 -181.5t-187.5 -131.5t-244.5 -46l14 51q96 17 148 55t77.5 97t30.5 191q5 151 29.5 221t84 137.5t149.5 119t220 81.5q-103 27 -161 68.5t-86.5 93t-28.5 112.5 q0 52 17 114q13 47 68 156q54 109 67.5 153.5t13.5 78.5q0 44 -37 78t-109 47l13 49q162 0 275 -88q89 -69 89 -179q0 -55 -14.5 -103.5t-83.5 -191.5q-51 -106 -62.5 -141.5t-11.5 -64.5q0 -55 38 -96.5t108 -56.5z"/>
<glyph glyph-name="asciitilde" horiz-adv-x="1241" unicode="~" d="M1210 855h65q-7 -169 -86 -258t-195 -89q-56 0 -120 18t-265 102q-144 61 -213 61q-143 0 -172 -180h-64q8 175 84.5 261t193.5 86q58 0 123 -18q99 -28 263 -101q93 -40 143 -55q31 -8 68 -8q71 0 118.5 46.5t56.5 134.5z"/>
<glyph glyph-name="nbspace" horiz-adv-x="588" unicode=" "/>
<glyph glyph-name="exclamdown" horiz-adv-x="682" unicode="¡" d="M403 686h87l-45 -203q-69 -304 -94 -586q-11 -133 -32.5 -182.5t-65 -79t-95.5 -29.5q-64 0 -109.5 43.5t-45.5 101.5q0 37 20 94q26 76 112 243q123 240 170 342q33 72 66 167zM504 1144q71 0 122 -50.5t51 -121.5q0 -72 -51 -122.5t-122 -50.5q-72 0 -122 50.5 t-50 122.5q0 71 50 121.5t122 50.5z"/>
<glyph glyph-name="cent" d="M487 173l351 712q-19 4 -38 4q-153 0 -254 -173.5t-101 -378.5q0 -100 42 -164zM1141 1503h93l-278 -570q117 -70 117 -198q0 -82 -42.5 -129t-106.5 -47q-74 0 -123 60l-251 -513q48 -27 101 -27q165 0 305 174l60 -52q-90 -120 -210.5 -179.5t-256.5 -59.5q-26 0 -70 3 l-188 -377h-89l191 395q-237 108 -237 368q0 164 84 312t223.5 231t297.5 83q58 0 115 -19z" unicode="¢"/>
<glyph glyph-name="sterling" d="M339 184q-85 98 -185 98q-44 0 -73 -29.5t-29 -73.5q0 -54 30.5 -85t81.5 -31q48 0 94.5 30t80.5 91zM601 764h288l-26 -104h-262q-4 -188 -71 -373q108 -55 228 -55q74 0 129 23t119 87l62 -62q-100 -166 -197.5 -234t-193.5 -68q-69 0 -130.5 27t-129.5 95 q-79 -74 -130.5 -98t-110.5 -24q-97 0 -155.5 54t-58.5 138q0 90 63.5 150t164.5 60q92 0 197 -54q0 156 -36 334h-273l28 104h233q-22 125 -22 199q0 200 135 330.5t352 130.5q196 0 306 -101q89 -81 89 -198q0 -78 -43.5 -126.5t-107.5 -48.5q-66 0 -106.5 38.5 t-40.5 99.5q0 75 65 129q28 23 28 42q0 24 -35 45.5t-104 21.5q-122 0 -196.5 -90.5t-74.5 -271.5q0 -92 17 -200z" unicode="£"/>
<glyph glyph-name="currency" d="M377 679q0 -121 85 -206.5t206 -85.5t206.5 85.5t85.5 206.5t-85 206t-206 85t-206.5 -85.5t-85.5 -205.5zM149 1075l124 125l134 -135q60 42 124.5 62.5t134.5 20.5q69 0 135 -20.5t128 -62.5l134 135l124 -125l-134 -136q82 -130 82 -264q0 -136 -82 -255l134 -133 l-124 -124l-134 133q-63 -41 -129 -62t-136 -21q-69 0 -133.5 21t-123.5 62l-134 -133l-124 124l134 133q-81 132 -81 265q0 135 81 254z" unicode="¤"/>
<glyph glyph-name="yen" d="M827 734h363l-21 -123h-420l-51 -183h429l-21 -123h-441l-38 -138q-3 -10 -3 -22q0 -28 16 -40q23 -17 67 -17h112l-25 -88h-671l25 88h101q85 0 103 67l39 150h-407l21 123h419l48 183h-425l20 123h380l-169 507q-11 35 -33 49.5t-65 14.5h-36l20 90h535l-21 -90h-26 q-55 0 -75.5 -12.5t-20.5 -32.5q0 -11 6 -30l160 -496l252 432q14 23 14 49q0 39 -32 63.5t-109 26.5l25 90h420l-25 -90q-58 -2 -94 -23.5t-67 -73.5z" unicode="¥"/>
<glyph glyph-name="brokenbar" horiz-adv-x="1241" unicode="¦" d="M598 295h189v-676h-189v676zM598 1479h189v-675h-189v675z"/>
<glyph glyph-name="section" horiz-adv-x="1024" unicode="§" d="M484 869q-123 -57 -123 -164q0 -54 37.5 -135t204.5 -326q71 42 94.5 77t23.5 86q0 60 -33.5 134t-203.5 328zM640 184q65 -118 65 -229q0 -147 -110.5 -248t-284.5 -101q-143 0 -229 67.5t-86 154.5q0 63 41.5 106.5t102.5 43.5q57 0 94.5 -38t37.5 -96q0 -27 -17 -65 q-15 -34 -15 -45q0 -17 18 -28q26 -16 69 -16q70 0 117.5 45t47.5 111q0 47 -26 101q-11 22 -140 224q-119 185 -136 223q-35 84 -35 171q0 114 67.5 205t227.5 163q-70 115 -70 221q0 151 111 255.5t282 104.5q143 0 228.5 -67t85.5 -160q0 -69 -39.5 -110.5t-101.5 -41.5 q-58 0 -94.5 36t-36.5 92q0 29 18 63q18 31 18 45q0 21 -21.5 37t-62.5 16q-76 0 -124 -44.5t-48 -113.5q0 -45 19 -92t86 -141q149 -208 189.5 -301.5t40.5 -179.5q0 -117 -66 -207t-223 -161z"/>
<glyph glyph-name="dieresis" horiz-adv-x="682" unicode="¨" d="M744 1424q55 0 94 -39.5t39 -95.5q0 -55 -39 -94.5t-94 -39.5t-94.5 39t-39.5 95q0 55 40 95t94 40zM342 1424q55 0 94 -39.5t39 -95.5t-39 -95t-94 -39q-56 0 -95 39t-39 95q0 55 40 95t94 40z"/>
<glyph glyph-name="copyright" horiz-adv-x="1530" unicode="©" d="M1184 1138v-271h-39q-20 107 -87.5 164.5t-162.5 57.5q-105 0 -183.5 -83t-78.5 -293q0 -208 78 -290t184 -82q143 0 261 140v-71q-129 -129 -321 -129q-191 0 -310 115.5t-119 298.5q0 193 126.5 318.5t323.5 125.5q85 0 196 -41q34 -12 49 -12q36 0 44 52h39zM844 1333 q-260 0 -444.5 -184.5t-184.5 -444.5q0 -168 84.5 -314t230.5 -230.5t314 -84.5q169 0 314.5 84.5t230 230.5t84.5 314t-84.5 314t-230 230.5t-314.5 84.5zM844 1424q193 0 360 -96.5t263.5 -263.5t96.5 -360t-96.5 -360t-263.5 -263t-360 -96q-192 0 -359 96t-263.5 263 t-96.5 360t96.5 360t263.5 263.5t359 96.5z"/>
<glyph glyph-name="ordfeminine" horiz-adv-x="844" unicode="ª" d="M638 1416q-64 0 -116 -79q-72 -106 -72 -245q0 -57 16.5 -80t47.5 -23q60 0 113 81q70 106 70 252q0 52 -15.5 73t-43.5 21zM746 1427l23 57l185 13l-128 -434q-12 -40 -12 -48v-9l5 -4q38 0 115 142l67 -34q-117 -212 -253 -212q-90 0 -109 84q-80 -84 -179 -84 q-92 0 -151.5 61t-59.5 164q0 153 108.5 266.5t248.5 113.5q68 0 91 -15.5t49 -60.5z"/>
<glyph glyph-name="guillemotleft" horiz-adv-x="985" unicode="«" d="M885 990h104l-230 -460l57 -405h-94l-270 444zM452 990h107l-232 -460l57 -405h-97l-267 449z"/>
<glyph glyph-name="logicalnot" horiz-adv-x="1241" unicode="¬" d="M133 1026h1120v-681h-187v494h-933v187z"/>
<glyph glyph-name="registered" horiz-adv-x="1530" unicode="®" d="M751 726q28 -4 51 -4q73 0 120 49.5t47 134.5q0 84 -45 127.5t-135 43.5h-38v-351zM459 1122h368q144 0 216.5 -26t107.5 -75t35 -115q0 -82 -45 -136t-136 -80l149 -272q23 -42 44 -59t52 -23v-34h-245l-207 373h-47v-222q0 -67 24 -91t97 -26v-34h-429v34 q62 0 84.5 24.5t22.5 92.5v533q0 54 -20 75.5t-71 25.5v35zM844 1333q-260 0 -444.5 -184.5t-184.5 -444.5q0 -168 84.5 -314t230.5 -230.5t314 -84.5q169 0 314.5 84.5t230 230.5t84.5 314t-84.5 314t-230 230.5t-314.5 84.5zM844 1424q193 0 360 -96.5t263.5 -263.5 t96.5 -360t-96.5 -360t-263.5 -263t-360 -96q-192 0 -359 96t-263.5 263t-96.5 360t96.5 360t263.5 263.5t359 96.5z"/>
<glyph glyph-name="overscore" horiz-adv-x="1024" unicode="¯" d="M-12 1805h1048v-102h-1048v102z"/>
<glyph glyph-name="degree" horiz-adv-x="819" unicode="°" d="M541 1277q-81 0 -138.5 -57t-57.5 -138t57.5 -138.5t138.5 -57.5t138 57.5t57 138.5t-57 138t-138 57zM541 1424q142 0 243 -100.5t101 -242.5t-101 -242.5t-243 -100.5q-143 0 -243.5 100.5t-100.5 243.5q0 142 99.5 242t244.5 100z"/>
<glyph glyph-name="plusminus" horiz-adv-x="1124" unicode="±" d="M16 744h481v480h131v-480h481v-132h-481l1 -344h480v-132h-1093l-1 131h482v345h-481v132z"/>
<glyph glyph-name="twosuperior" horiz-adv-x="705" unicode="²" d="M329 867h194q49 0 74.5 19t43.5 67h58l-78 -244h-494l19 78q92 93 219 188q109 82 134 110q35 38 53.5 83.5t18.5 87.5q0 49 -30 79.5t-75 30.5q-38 0 -61 -18.5t-23 -41.5q0 -21 35 -42q56 -33 56 -83q0 -36 -27 -61t-68 -25q-53 0 -89 37.5t-36 97.5q0 80 70.5 137 t189.5 57q117 0 179 -50.5t62 -129.5q0 -73 -54 -135q-39 -44 -170 -116q-140 -77 -201 -126z"/>
<glyph glyph-name="threesuperior" horiz-adv-x="705" unicode="³" d="M525 1066q85 -16 127 -58.5t42 -112.5q0 -85 -76 -146.5t-204 -61.5q-114 0 -177 51t-63 126q0 55 33 91.5t79 36.5q40 0 65.5 -24.5t25.5 -61.5q0 -23 -7.5 -40t-34.5 -45q-22 -22 -22 -37q0 -17 16.5 -30t43.5 -13q51 0 93.5 58.5t42.5 154.5q0 49 -21 68 q-22 19 -87 19q-55 1 -70 9.5t-15 25.5q0 14 10.5 23.5t29.5 9.5q11 0 39 -5q27 -6 47 -6q61 0 105 49t44 122q0 51 -22.5 77t-61.5 26q-29 0 -44 -11t-15 -25q0 -11 13 -27q28 -32 28 -61q0 -33 -24 -56t-61 -23q-44 0 -70.5 27.5t-26.5 75.5q0 66 57.5 109t173.5 43 q113 0 170 -45t57 -118q0 -79 -60 -127.5t-180 -67.5z"/>
<glyph glyph-name="acute" horiz-adv-x="682" unicode="´" d="M377 1104l-30 26l132 189q68 97 107.5 126t81.5 29q49 0 83.5 -33t34.5 -77q0 -71 -113 -123z"/>
<glyph glyph-name="mu1" horiz-adv-x="1180" unicode="µ" d="M304 899h255l-161 -557q-24 -83 -26 -90q-7 -36 -7 -61q0 -32 20.5 -52.5t49.5 -20.5q57 0 126 73q92 97 161 335l107 373h255l-179 -616q-33 -111 -33 -143q0 -23 15.5 -39.5t34.5 -16.5q18 0 38 20q40 37 76 120l36 -19q-43 -123 -112.5 -178t-153.5 -55 q-76 0 -121.5 45.5t-45.5 119.5q0 36 7 87q-113 -157 -199 -210q-66 -42 -145 -42q-58 0 -99 25q-25 14 -54 63q-25 -76 -35 -131.5t-14.5 -148.5t-15.5 -127q-15 -47 -47 -71.5t-68 -24.5q-40 0 -68.5 30.5t-28.5 77.5q0 64 73.5 184t97.5 176t66 199z"/>
<glyph glyph-name="paragraph" horiz-adv-x="1331" unicode="¶" d="M882 1401v-1746h-111v883q-269 11 -395 119q-151 130 -151 356q0 157 72.5 268.5t183 154.5t422.5 43h466v-46h-44q-82 0 -115 -35.5t-33 -123.5v-1619h-110v1746h-185z"/>
<glyph glyph-name="middot" horiz-adv-x="682" unicode="·" d="M342 941q55 0 94 -39t39 -95t-39 -95.5t-94 -39.5q-56 0 -95 39.5t-39 94.5q0 56 40 95.5t94 39.5z"/>
<glyph glyph-name="cedilla" horiz-adv-x="682" unicode="¸" d="M348 -21q106 -52 106 -144q0 -63 -46 -115.5t-144.5 -78t-354.5 -32.5l29 87q142 6 187.5 31t45.5 62q0 50 -86 75l192 156h114z"/>
<glyph glyph-name="onesuperior" horiz-adv-x="705" unicode="¹" d="M377 1356q159 11 265 68h60l-159 -568q-7 -23 -7 -43q0 -23 13 -33q16 -12 49 -12h44l-15 -59h-407l16 59h56q27 0 42 13t26 52l118 417q4 12 4 21q0 14 -9 20.5t-32 6.5h-81z"/>
<glyph glyph-name="ordmasculine" horiz-adv-x="729" unicode="º" d="M620 1449q-40 0 -73 -30q-45 -41 -86 -151.5t-41 -197.5q0 -51 24 -77.5t63 -26.5q40 0 70 29q46 43 87 150.5t41 198.5q0 50 -24 77.5t-61 27.5zM614 1514q128 0 207 -73.5t79 -182.5q0 -147 -111 -253.5t-277 -106.5q-130 0 -209 73t-79 184q0 147 111 253t279 106z "/>
<glyph glyph-name="guillemotright" horiz-adv-x="985" unicode="»" d="M603 992h94l266 -450l-429 -417h-108l233 462zM155 992h96l269 -446l-434 -421h-107l233 460z"/>
<glyph glyph-name="onequarter" horiz-adv-x="1763" unicode="¼" d="M449 1356q159 11 265 68h60l-159 -568q-7 -23 -7 -43q0 -23 13 -33q16 -12 49 -12h44l-15 -59h-407l16 59h56q27 0 42 13t26 52l118 417q4 12 4 21q0 14 -9 20.5t-32 6.5h-81zM1464 1395h93l-1015 -1395h-94zM1395 485l-265 -252h193zM1549 715h76l-133 -482h90l-17 -62 h-94l-17 -70l-2 -15q0 -16 14 -23q9 -6 67 -6l-17 -57h-333l17 57h38q12 0 28.5 15.5t22.5 41.5l15 57h-276l19 68z"/>
<glyph glyph-name="onehalf" horiz-adv-x="1763" unicode="½" d="M449 1356q159 11 265 68h60l-159 -568q-7 -23 -7 -43q0 -23 13 -33q16 -12 49 -12h44l-15 -59h-407l16 59h56q27 0 42 13t26 52l118 417q4 12 4 21q0 14 -9 20.5t-32 6.5h-81zM1440 1395h93l-1015 -1395h-94zM1264 158h194q49 0 74.5 19t43.5 67h58l-78 -244h-494l19 78 q92 93 219 188q109 82 134 110q35 38 53.5 83.5t18.5 87.5q0 49 -30 79.5t-75 30.5q-38 0 -61 -18.5t-23 -41.5q0 -21 35 -42q56 -33 56 -83q0 -36 -27 -61t-68 -25q-53 0 -89 37.5t-36 97.5q0 80 70.5 137t189.5 57q117 0 179 -50.5t62 -129.5q0 -73 -54 -135 q-39 -44 -170 -116q-140 -77 -201 -126z"/>
<glyph glyph-name="threequarters" horiz-adv-x="1763" unicode="¾" d="M598 1066q85 -16 127 -58.5t42 -112.5q0 -85 -76 -146.5t-204 -61.5q-114 0 -177 51t-63 126q0 55 33 91.5t79 36.5q40 0 65.5 -24.5t25.5 -61.5q0 -23 -7.5 -40t-34.5 -45q-22 -22 -22 -37q0 -17 16.5 -30t43.5 -13q51 0 93.5 58.5t42.5 154.5q0 49 -21 68 q-22 19 -87 19q-55 1 -70 9.5t-15 25.5q0 14 10.5 23.5t29.5 9.5q11 0 39 -5q27 -6 47 -6q61 0 105 49t44 122q0 51 -22.5 77t-61.5 26q-29 0 -44 -11t-15 -25q0 -11 13 -27q28 -32 28 -61q0 -33 -24 -56t-61 -23q-44 0 -70.5 27.5t-26.5 75.5q0 66 57.5 109t173.5 43 q113 0 170 -45t57 -118q0 -79 -60 -127.5t-180 -67.5zM1464 1395h93l-1015 -1395h-94zM1396 485l-265 -252h193zM1550 715h76l-133 -482h90l-17 -62h-94l-17 -70l-2 -15q0 -16 14 -23q9 -6 67 -6l-17 -57h-333l17 57h38q12 0 28.5 15.5t22.5 41.5l15 57h-276l19 68z"/>
<glyph glyph-name="questiondown" horiz-adv-x="985" unicode="¿" d="M371 486l-67 49q94 176 255 176q102 0 171 -68.5t69 -171.5q0 -60 -25 -117t-74.5 -104.5t-195.5 -139.5q-170 -107 -212 -160q-42 -54 -42 -118q0 -57 45 -96.5t121 -39.5q105 0 177.5 79.5t72.5 205.5l85 11l1 -23q0 -150 -107 -256.5t-266 -106.5q-155 0 -250 89 t-95 225q0 82 31.5 150t95 120.5t211.5 117.5q161 70 212 116q50 45 50 105q0 40 -25.5 66t-64.5 26q-92 0 -173 -135zM733 1141q71 0 121.5 -50t50.5 -121t-50.5 -121.5t-121.5 -50.5t-121.5 50.5t-50.5 120.5q0 71 50.5 121.5t121.5 50.5z"/>
<glyph glyph-name="Agrave" horiz-adv-x="1518" unicode="À" d="M871 1110l-342 -529h415zM985 1479h135l179 -1275q8 -58 38 -80q42 -31 112 -31h46l-25 -93h-680l23 93h50q79 0 107.5 19.5t28.5 59.5q0 14 -3 32l-37 266h-501l-99 -154q-41 -65 -41 -119q0 -49 32.5 -76.5t99.5 -27.5h41l-23 -93h-531l23 93q69 4 109 32 q77 53 116 113zM1198 1652l-33 -27l-301 139q-106 48 -106 120q0 41 37.5 74.5t88.5 33.5q79 0 170 -133z"/>
<glyph glyph-name="Aacute" horiz-adv-x="1518" unicode="Á" d="M871 1110l-342 -529h415zM985 1479h135l179 -1275q8 -58 38 -80q42 -31 112 -31h46l-25 -93h-680l23 93h50q79 0 107.5 19.5t28.5 59.5q0 14 -3 32l-37 266h-501l-99 -154q-41 -65 -41 -119q0 -49 32.5 -76.5t99.5 -27.5h41l-23 -93h-531l23 93q69 4 109 32 q77 53 116 113zM985 1624l-30 26l132 189q68 97 107.5 126t81.5 29q49 0 83.5 -33t34.5 -77q0 -71 -113 -123z"/>
<glyph glyph-name="Acircumflex" horiz-adv-x="1518" unicode="Â" d="M871 1110l-342 -529h415zM985 1479h135l179 -1275q8 -58 38 -80q42 -31 112 -31h46l-25 -93h-680l23 93h50q79 0 107.5 19.5t28.5 59.5q0 14 -3 32l-37 266h-501l-99 -154q-41 -65 -41 -119q0 -49 32.5 -76.5t99.5 -27.5h41l-23 -93h-531l23 93q69 4 109 32 q77 53 116 113zM1092 1999h213l88 -378h-34l-185 206l-425 -206h-39z"/>
<glyph glyph-name="Atilde" horiz-adv-x="1518" unicode="Ã" d="M871 1110l-342 -529h415zM985 1479h135l179 -1275q8 -58 38 -80q42 -31 112 -31h46l-25 -93h-680l23 93h50q79 0 107.5 19.5t28.5 59.5q0 14 -3 32l-37 266h-501l-99 -154q-41 -65 -41 -119q0 -49 32.5 -76.5t99.5 -27.5h41l-23 -93h-531l23 93q69 4 109 32 q77 53 116 113zM1431 1945h24q-13 -130 -77.5 -199t-150.5 -69q-71 0 -185 47q-100 43 -142 43q-80 0 -108 -90h-28q5 120 70.5 193.5t152.5 73.5q63 0 180 -49q98 -40 145 -40q81 0 119 90z"/>
<glyph glyph-name="Adieresis" horiz-adv-x="1518" unicode="Ä" d="M871 1110l-342 -529h415zM985 1479h135l179 -1275q8 -58 38 -80q42 -31 112 -31h46l-25 -93h-680l23 93h50q79 0 107.5 19.5t28.5 59.5q0 14 -3 32l-37 266h-501l-99 -154q-41 -65 -41 -119q0 -49 32.5 -76.5t99.5 -27.5h41l-23 -93h-531l23 93q69 4 109 32 q77 53 116 113zM1302 1944q55 0 94 -39.5t39 -95.5q0 -55 -39 -94.5t-94 -39.5t-94.5 39t-39.5 95q0 55 40 95t94 40zM900 1944q55 0 94 -39.5t39 -95.5t-39 -95t-94 -39q-56 0 -95 39t-39 95q0 55 40 95t94 40z"/>
<glyph glyph-name="Aring" horiz-adv-x="1518" unicode="Å" d="M871 1110l-342 -529h415zM985 1479h135l179 -1275q8 -58 38 -80q42 -31 112 -31h46l-25 -93h-680l23 93h50q79 0 107.5 19.5t28.5 59.5q0 14 -3 32l-37 266h-501l-99 -154q-41 -65 -41 -119q0 -49 32.5 -76.5t99.5 -27.5h41l-23 -93h-531l23 93q69 4 109 32 q77 53 116 113zM1092 1925q-48 0 -82 -34t-34 -82t34 -82.5t82 -34.5t82.5 34.5t34.5 82.5t-34 82t-83 34zM1094 2018q88 0 149.5 -61.5t61.5 -147.5q0 -87 -62 -148.5t-148 -61.5q-87 0 -148.5 61.5t-61.5 148.5t61.5 148t147.5 61z"/>
<glyph glyph-name="AE" horiz-adv-x="1821" unicode="Æ" d="M964 1402l-544 -787h322zM588 1479h1175l-45 -473h-91q6 80 6 129q0 122 -57.5 185.5t-149.5 63.5h-88q-50 0 -73.5 -16.5t-33.5 -53.5l-143 -509q123 0 190.5 54t104.5 186h93l-161 -634h-93q20 91 20 149q0 91 -44 127q-33 26 -136 29l-140 -498q-10 -35 -10 -56 q0 -32 21 -48q26 -21 71 -21h142q158 0 263 93q129 116 192 329h93l-113 -515h-1159l25 93h53q95 0 118 83l93 329h-367l-192 -277q-38 -56 -38 -83q0 -25 21 -38.5t78 -13.5h29l-21 -93h-444l25 93q55 4 108 34.5t81 69.5l740 1069q34 49 34 71q0 21 -19 34t-64 13h-117z "/>
<glyph glyph-name="Ccedilla" horiz-adv-x="1554" unicode="Ç" d="M1441 1340q59 35 87 112h90l-114 -558h-88q-1 218 -39 314.5t-120 149.5t-194 53q-124 0 -242.5 -96t-210.5 -325t-92 -475q0 -143 45 -233.5t135 -142t201 -51.5q142 0 266 94.5t201 283.5l84 -38q-86 -227 -251.5 -342t-394.5 -115q-284 0 -449 160.5t-165 430.5 q0 263 115.5 490t303 344.5t406.5 117.5q136 0 237 -41t189 -133zM848 -21q106 -52 106 -144q0 -63 -46 -115.5t-144.5 -78t-354.5 -32.5l29 87q142 6 187.5 31t45.5 62q0 50 -86 75l192 156h114z"/>
<glyph glyph-name="Egrave" horiz-adv-x="1518" unicode="È" d="M311 1479h1262l-109 -481h-90q16 88 16 133q0 114 -70 183.5t-178 69.5h-219q-75 0 -99 -89l-133 -487h75q127 0 203 56.5t131 199.5h88l-178 -670h-87q14 84 14 140q0 88 -51.5 135.5t-140.5 47.5h-78l-144 -528q-5 -18 -5 -35q0 -30 22.5 -45.5t79.5 -15.5h153 q205 0 345 100t227 317h91l-159 -510h-1278l27 93h76q80 0 100 74l308 1128q4 16 4 30q0 28 -19.5 43.5t-64.5 15.5h-144zM1128 1652l-33 -27l-301 139q-106 48 -106 120q0 41 37.5 74.5t88.5 33.5q79 0 170 -133z"/>
<glyph glyph-name="Eacute" horiz-adv-x="1518" unicode="É" d="M311 1479h1262l-109 -481h-90q16 88 16 133q0 114 -70 183.5t-178 69.5h-219q-75 0 -99 -89l-133 -487h75q127 0 203 56.5t131 199.5h88l-178 -670h-87q14 84 14 140q0 88 -51.5 135.5t-140.5 47.5h-78l-144 -528q-5 -18 -5 -35q0 -30 22.5 -45.5t79.5 -15.5h153 q205 0 345 100t227 317h91l-159 -510h-1278l27 93h76q80 0 100 74l308 1128q4 16 4 30q0 28 -19.5 43.5t-64.5 15.5h-144zM845 1624l-30 26l132 189q68 97 107.5 126t81.5 29q49 0 83.5 -33t34.5 -77q0 -71 -113 -123z"/>
<glyph glyph-name="Ecircumflex" horiz-adv-x="1518" unicode="Ê" d="M311 1479h1262l-109 -481h-90q16 88 16 133q0 114 -70 183.5t-178 69.5h-219q-75 0 -99 -89l-133 -487h75q127 0 203 56.5t131 199.5h88l-178 -670h-87q14 84 14 140q0 88 -51.5 135.5t-140.5 47.5h-78l-144 -528q-5 -18 -5 -35q0 -30 22.5 -45.5t79.5 -15.5h153 q205 0 345 100t227 317h91l-159 -510h-1278l27 93h76q80 0 100 74l308 1128q4 16 4 30q0 28 -19.5 43.5t-64.5 15.5h-144zM1032 1999h213l88 -378h-34l-185 206l-425 -206h-39z"/>
<glyph glyph-name="Edieresis" horiz-adv-x="1518" unicode="Ë" d="M311 1479h1262l-109 -481h-90q16 88 16 133q0 114 -70 183.5t-178 69.5h-219q-75 0 -99 -89l-133 -487h75q127 0 203 56.5t131 199.5h88l-178 -670h-87q14 84 14 140q0 88 -51.5 135.5t-140.5 47.5h-78l-144 -528q-5 -18 -5 -35q0 -30 22.5 -45.5t79.5 -15.5h153 q205 0 345 100t227 317h91l-159 -510h-1278l27 93h76q80 0 100 74l308 1128q4 16 4 30q0 28 -19.5 43.5t-64.5 15.5h-144zM1222 1944q55 0 94 -39.5t39 -95.5q0 -55 -39 -94.5t-94 -39.5t-94.5 39t-39.5 95q0 55 40 95t94 40zM820 1944q55 0 94 -39.5t39 -95.5t-39 -95 t-94 -39q-56 0 -95 39t-39 95q0 55 40 95t94 40z"/>
<glyph glyph-name="Igrave" horiz-adv-x="909" unicode="Ì" d="M330 1479h727l-24 -95h-85q-59 0 -84.5 -17.5t-36.5 -58.5l-301 -1129q-4 -16 -4 -28q0 -28 19 -40q29 -18 86 -18h108l-24 -93h-710l25 93h80q86 0 105 74l300 1124q5 19 5 36q0 27 -20.5 42t-71.5 15h-116zM874 1652l-33 -27l-301 139q-106 48 -106 120q0 41 37.5 74.5 t88.5 33.5q79 0 170 -133z"/>
<glyph glyph-name="Iacute" horiz-adv-x="909" unicode="Í" d="M330 1479h727l-24 -95h-85q-59 0 -84.5 -17.5t-36.5 -58.5l-301 -1129q-4 -16 -4 -28q0 -28 19 -40q29 -18 86 -18h108l-24 -93h-710l25 93h80q86 0 105 74l300 1124q5 19 5 36q0 27 -20.5 42t-71.5 15h-116zM611 1624l-30 26l132 189q68 97 107.5 126t81.5 29 q49 0 83.5 -33t34.5 -77q0 -71 -113 -123z"/>
<glyph glyph-name="Icircumflex" horiz-adv-x="909" unicode="Î" d="M330 1479h727l-24 -95h-85q-59 0 -84.5 -17.5t-36.5 -58.5l-301 -1129q-4 -16 -4 -28q0 -28 19 -40q29 -18 86 -18h108l-24 -93h-710l25 93h80q86 0 105 74l300 1124q5 19 5 36q0 27 -20.5 42t-71.5 15h-116zM752 1999h213l88 -378h-34l-185 206l-425 -206h-39z"/>
<glyph glyph-name="Idieresis" horiz-adv-x="909" unicode="Ï" d="M330 1479h727l-24 -95h-85q-59 0 -84.5 -17.5t-36.5 -58.5l-301 -1129q-4 -16 -4 -28q0 -28 19 -40q29 -18 86 -18h108l-24 -93h-710l25 93h80q86 0 105 74l300 1124q5 19 5 36q0 27 -20.5 42t-71.5 15h-116zM938 1944q55 0 94 -39.5t39 -95.5q0 -55 -39 -94.5t-94 -39.5 t-94.5 39t-39.5 95q0 55 40 95t94 40zM536 1944q55 0 94 -39.5t39 -95.5t-39 -95t-94 -39q-56 0 -95 39t-39 95q0 55 40 95t94 40z"/>
<glyph glyph-name="Eth" horiz-adv-x="1706" unicode="Ð" d="M624 683l-138 -504q-4 -14 -4 -26q0 -29 18 -42q24 -18 71 -18h124q120 0 228 56t189 161.5t142 303t61 377.5q0 194 -100 302q-87 93 -269 93q-82 0 -111 -18t-42 -64l-139 -510h288l-35 -111h-283zM311 683h-194l34 111h190l138 508q4 12 4 25q0 27 -23 42t-88 15h-115 l29 95h723q310 0 474 -157t164 -437q0 -182 -71.5 -358t-182 -285.5t-284 -175.5t-389.5 -66h-761l25 93h82q83 0 109 94z"/>
<glyph glyph-name="Ntilde" horiz-adv-x="1745" unicode="Ñ" d="M388 1479h442l475 -1031l197 726q12 45 12 73q0 63 -42.5 100.5t-113.5 37.5h-43l25 94h510l-26 -94q-80 -4 -122 -43q-59 -55 -84 -149l-320 -1193h-109l-538 1174l-221 -817q-15 -57 -15 -93q0 -76 52.5 -122.5t152.5 -48.5l-22 -93h-570l23 93q99 4 161 56.5t87 145.5 l257 953q10 35 10 51q0 40 -33.5 63t-118.5 23h-51zM1541 1945h24q-13 -130 -77.5 -199t-150.5 -69q-71 0 -185 47q-100 43 -142 43q-80 0 -108 -90h-28q5 120 70.5 193.5t152.5 73.5q63 0 180 -49q98 -40 145 -40q81 0 119 90z"/>
<glyph glyph-name="Ograve" horiz-adv-x="1706" unicode="Ò" d="M1076 1418q-168 0 -304 -130t-230 -435q-74 -240 -74 -433q0 -174 81 -265t221 -91q163 0 297.5 128.5t218 406.5t83.5 458q0 177 -79.5 269t-213.5 92zM1073 1514q282 0 452 -165.5t170 -430.5q0 -226 -101 -434q-115 -238 -341.5 -375.5t-493.5 -137.5 q-311 0 -465 181.5t-154 427.5q0 193 101 411.5t327 370.5t505 152zM1252 1652l-33 -27l-301 139q-106 48 -106 120q0 41 37.5 74.5t88.5 33.5q79 0 170 -133z"/>
<glyph glyph-name="Oacute" horiz-adv-x="1706" unicode="Ó" d="M1076 1418q-168 0 -304 -130t-230 -435q-74 -240 -74 -433q0 -174 81 -265t221 -91q163 0 297.5 128.5t218 406.5t83.5 458q0 177 -79.5 269t-213.5 92zM1073 1514q282 0 452 -165.5t170 -430.5q0 -226 -101 -434q-115 -238 -341.5 -375.5t-493.5 -137.5 q-311 0 -465 181.5t-154 427.5q0 193 101 411.5t327 370.5t505 152zM949 1624l-30 26l132 189q68 97 107.5 126t81.5 29q49 0 83.5 -33t34.5 -77q0 -71 -113 -123z"/>
<glyph glyph-name="Ocircumflex" horiz-adv-x="1706" unicode="Ô" d="M1076 1418q-168 0 -304 -130t-230 -435q-74 -240 -74 -433q0 -174 81 -265t221 -91q163 0 297.5 128.5t218 406.5t83.5 458q0 177 -79.5 269t-213.5 92zM1073 1514q282 0 452 -165.5t170 -430.5q0 -226 -101 -434q-115 -238 -341.5 -375.5t-493.5 -137.5 q-311 0 -465 181.5t-154 427.5q0 193 101 411.5t327 370.5t505 152zM1126 1999h213l88 -378h-34l-185 206l-425 -206h-39z"/>
<glyph glyph-name="Otilde" horiz-adv-x="1706" unicode="Õ" d="M1076 1418q-168 0 -304 -130t-230 -435q-74 -240 -74 -433q0 -174 81 -265t221 -91q163 0 297.5 128.5t218 406.5t83.5 458q0 177 -79.5 269t-213.5 92zM1073 1514q282 0 452 -165.5t170 -430.5q0 -226 -101 -434q-115 -238 -341.5 -375.5t-493.5 -137.5 q-311 0 -465 181.5t-154 427.5q0 193 101 411.5t327 370.5t505 152zM1473 1945h24q-13 -130 -77.5 -199t-150.5 -69q-71 0 -185 47q-100 43 -142 43q-80 0 -108 -90h-28q5 120 70.5 193.5t152.5 73.5q63 0 180 -49q98 -40 145 -40q81 0 119 90z"/>
<glyph glyph-name="Odieresis" horiz-adv-x="1706" unicode="Ö" d="M1076 1418q-168 0 -304 -130t-230 -435q-74 -240 -74 -433q0 -174 81 -265t221 -91q163 0 297.5 128.5t218 406.5t83.5 458q0 177 -79.5 269t-213.5 92zM1073 1514q282 0 452 -165.5t170 -430.5q0 -226 -101 -434q-115 -238 -341.5 -375.5t-493.5 -137.5 q-311 0 -465 181.5t-154 427.5q0 193 101 411.5t327 370.5t505 152zM1324 1944q55 0 94 -39.5t39 -95.5q0 -55 -39 -94.5t-94 -39.5t-94.5 39t-39.5 95q0 55 40 95t94 40zM922 1944q55 0 94 -39.5t39 -95.5t-39 -95t-94 -39q-56 0 -95 39t-39 95q0 55 40 95t94 40z"/>
<glyph glyph-name="multiply" horiz-adv-x="1331" unicode="×" d="M237 1076l133 133l393 -395l392 395l132 -133l-391 -395l391 -389l-132 -133l-392 390l-393 -390l-133 133l393 389z"/>
<glyph glyph-name="Oslash" horiz-adv-x="1706" unicode="Ø" d="M1363 1148l-864 -909q75 -175 272 -175q162 0 296.5 128.5t218 406.5t83.5 458q0 47 -6 91zM472 350l861 905q-71 163 -260 163q-163 0 -299.5 -129t-230.5 -434q-75 -242 -75 -432q0 -36 4 -73zM1540 1334q156 -164 156 -416q0 -223 -106.5 -445t-333 -362t-495.5 -140 q-252 0 -403 120l-87 -91h-132l150 158q-149 176 -149 421q0 194 101.5 412.5t327 370.5t504.5 152q240 0 395 -116l78 81h132z"/>
<glyph glyph-name="Ugrave" horiz-adv-x="1706" unicode="Ù" d="M309 1479h734l-25 -94h-108q-83 0 -103 -73l-208 -774q-28 -104 -28 -171q0 -133 85.5 -211.5t229.5 -78.5q157 0 269.5 97t159.5 284l177 703q10 37 10 73q0 55 -19.5 87t-56.5 48t-119 16l26 94h526l-22 -94q-93 -5 -146 -48t-74 -127l-188 -752 q-43 -171 -124.5 -273.5t-202.5 -158t-290 -55.5q-267 0 -408 112.5t-141 289.5q0 95 29 202l200 727q4 14 4 27q0 27 -20.5 41.5t-70.5 14.5h-121zM1300 1652l-33 -27l-301 139q-106 48 -106 120q0 41 37.5 74.5t88.5 33.5q79 0 170 -133z"/>
<glyph glyph-name="Uacute" horiz-adv-x="1706" unicode="Ú" d="M309 1479h734l-25 -94h-108q-83 0 -103 -73l-208 -774q-28 -104 -28 -171q0 -133 85.5 -211.5t229.5 -78.5q157 0 269.5 97t159.5 284l177 703q10 37 10 73q0 55 -19.5 87t-56.5 48t-119 16l26 94h526l-22 -94q-93 -5 -146 -48t-74 -127l-188 -752 q-43 -171 -124.5 -273.5t-202.5 -158t-290 -55.5q-267 0 -408 112.5t-141 289.5q0 95 29 202l200 727q4 14 4 27q0 27 -20.5 41.5t-70.5 14.5h-121zM967 1624l-30 26l132 189q68 97 107.5 126t81.5 29q49 0 83.5 -33t34.5 -77q0 -71 -113 -123z"/>
<glyph glyph-name="Ucircumflex" horiz-adv-x="1706" unicode="Û" d="M309 1479h734l-25 -94h-108q-83 0 -103 -73l-208 -774q-28 -104 -28 -171q0 -133 85.5 -211.5t229.5 -78.5q157 0 269.5 97t159.5 284l177 703q10 37 10 73q0 55 -19.5 87t-56.5 48t-119 16l26 94h526l-22 -94q-93 -5 -146 -48t-74 -127l-188 -752 q-43 -171 -124.5 -273.5t-202.5 -158t-290 -55.5q-267 0 -408 112.5t-141 289.5q0 95 29 202l200 727q4 14 4 27q0 27 -20.5 41.5t-70.5 14.5h-121zM1151 1999h213l88 -378h-34l-185 206l-425 -206h-39z"/>
<glyph glyph-name="Udieresis" horiz-adv-x="1706" unicode="Ü" d="M309 1479h734l-25 -94h-108q-83 0 -103 -73l-208 -774q-28 -104 -28 -171q0 -133 85.5 -211.5t229.5 -78.5q157 0 269.5 97t159.5 284l177 703q10 37 10 73q0 55 -19.5 87t-56.5 48t-119 16l26 94h526l-22 -94q-93 -5 -146 -48t-74 -127l-188 -752 q-43 -171 -124.5 -273.5t-202.5 -158t-290 -55.5q-267 0 -408 112.5t-141 289.5q0 95 29 202l200 727q4 14 4 27q0 27 -20.5 41.5t-70.5 14.5h-121zM1364 1944q55 0 94 -39.5t39 -95.5q0 -55 -39 -94.5t-94 -39.5t-94.5 39t-39.5 95q0 55 40 95t94 40zM962 1944 q55 0 94 -39.5t39 -95.5t-39 -95t-94 -39q-56 0 -95 39t-39 95q0 55 40 95t94 40z"/>
<glyph glyph-name="Yacute" horiz-adv-x="1442" unicode="Ý" d="M282 1479h623l-23 -95h-85q-53 0 -72.5 -11.5t-19.5 -27.5q0 -14 10 -39l214 -528l319 426q38 51 38 95q0 37 -30 59t-114 26l26 95h483l-26 -95q-68 -8 -108.5 -32t-83.5 -81l-437 -589l-137 -505q-3 -13 -3 -25q0 -28 21 -43.5t67 -15.5h116l-24 -93h-736l29 93h107 q89 0 109 71l132 486l-268 656q-19 47 -41.5 62.5t-67.5 15.5h-39zM857 1624l-30 26l132 189q68 97 107.5 126t81.5 29q49 0 83.5 -33t34.5 -77q0 -71 -113 -123z"/>
<glyph glyph-name="Thorn" horiz-adv-x="1518" unicode="Þ" d="M546 457q87 -14 149 -14q152 0 243.5 46.5t145 147t53.5 234.5q0 111 -77 168q-62 46 -205 46h-141zM521 368l-50 -189q-4 -15 -4 -28q0 -29 20.5 -43.5t75.5 -14.5h116l-25 -93h-722l23 93h83q92 0 112 72l308 1132q6 20 6 33q0 26 -24 40t-98 14h-104l24 95h784 l-24 -95h-146q-57 0 -75.5 -12.5t-28.5 -49.5l-37 -142h219q246 0 375.5 -101.5t129.5 -266.5q0 -204 -165.5 -331.5t-517.5 -127.5q-94 0 -255 15z"/>
<glyph glyph-name="germandbls" d="M810 829q141 -41 210 -110q93 -94 93 -242q0 -135 -66 -256t-175.5 -188.5t-228.5 -67.5q-109 0 -175 58.5t-66 147.5q0 69 36 110t90 41q47 0 74.5 -26.5t27.5 -68.5q0 -65 -65 -95q-36 -17 -36 -37q0 -15 12.5 -24.5t37.5 -9.5q49 0 94 42q70 66 122.5 209.5 t52.5 274.5q0 98 -54 150t-166 53l25 91q99 0 168 44.5t121.5 144.5t52.5 197q0 79 -38 122.5t-99 43.5q-60 0 -114 -46q-83 -72 -169.5 -310t-215.5 -742q-76 -298 -108.5 -406t-91.5 -266q-128 -14 -259 -58q-27 -8 -39 -8q-22 0 -22 19q0 14 33 80q60 119 111 264.5 t146 507.5q117 448 179 605q95 236 228.5 338.5t320.5 102.5q172 0 274.5 -91t102.5 -225q0 -138 -111.5 -242.5t-312.5 -126.5z" unicode="ß"/>
<glyph glyph-name="agrave" horiz-adv-x="1366" unicode="à" d="M725 849q-122 0 -219.5 -171t-97.5 -392q0 -103 31 -145.5t89 -42.5q61 0 131 61.5t124 206t54 307.5q0 97 -29.5 136.5t-82.5 39.5zM894 795l54 144l256 19l-198 -714q-20 -73 -20 -93q0 -15 6.5 -23t19.5 -8q74 0 192 233l75 -41q-175 -341 -382 -341q-71 0 -110 43.5 t-46 129.5q-76 -96 -147.5 -134.5t-151.5 -38.5q-137 0 -226 98.5t-89 269.5q0 164 79.5 314t204.5 233.5t256 83.5q90 0 145 -42t82 -133zM992 1132l-33 -27l-301 139q-106 48 -106 120q0 41 37.5 74.5t88.5 33.5q79 0 170 -133z"/>
<glyph glyph-name="aacute" horiz-adv-x="1366" unicode="á" d="M725 849q-122 0 -219.5 -171t-97.5 -392q0 -103 31 -145.5t89 -42.5q61 0 131 61.5t124 206t54 307.5q0 97 -29.5 136.5t-82.5 39.5zM894 795l54 144l256 19l-198 -714q-20 -73 -20 -93q0 -15 6.5 -23t19.5 -8q74 0 192 233l75 -41q-175 -341 -382 -341q-71 0 -110 43.5 t-46 129.5q-76 -96 -147.5 -134.5t-151.5 -38.5q-137 0 -226 98.5t-89 269.5q0 164 79.5 314t204.5 233.5t256 83.5q90 0 145 -42t82 -133zM677 1104l-30 26l132 189q68 97 107.5 126t81.5 29q49 0 83.5 -33t34.5 -77q0 -71 -113 -123z"/>
<glyph glyph-name="acircumflex" horiz-adv-x="1366" unicode="â" d="M725 849q-122 0 -219.5 -171t-97.5 -392q0 -103 31 -145.5t89 -42.5q61 0 131 61.5t124 206t54 307.5q0 97 -29.5 136.5t-82.5 39.5zM894 795l54 144l256 19l-198 -714q-20 -73 -20 -93q0 -15 6.5 -23t19.5 -8q74 0 192 233l75 -41q-175 -341 -382 -341q-71 0 -110 43.5 t-46 129.5q-76 -96 -147.5 -134.5t-151.5 -38.5q-137 0 -226 98.5t-89 269.5q0 164 79.5 314t204.5 233.5t256 83.5q90 0 145 -42t82 -133zM832 1479h213l88 -378h-34l-185 206l-425 -206h-39z"/>
<glyph glyph-name="atilde" horiz-adv-x="1366" unicode="ã" d="M725 849q-122 0 -219.5 -171t-97.5 -392q0 -103 31 -145.5t89 -42.5q61 0 131 61.5t124 206t54 307.5q0 97 -29.5 136.5t-82.5 39.5zM894 795l54 144l256 19l-198 -714q-20 -73 -20 -93q0 -15 6.5 -23t19.5 -8q74 0 192 233l75 -41q-175 -341 -382 -341q-71 0 -110 43.5 t-46 129.5q-76 -96 -147.5 -134.5t-151.5 -38.5q-137 0 -226 98.5t-89 269.5q0 164 79.5 314t204.5 233.5t256 83.5q90 0 145 -42t82 -133zM1179 1425h24q-13 -130 -77.5 -199t-150.5 -69q-71 0 -185 47q-100 43 -142 43q-80 0 -108 -90h-28q5 120 70.5 193.5t152.5 73.5 q63 0 180 -49q98 -40 145 -40q81 0 119 90z"/>
<glyph glyph-name="adieresis" horiz-adv-x="1366" unicode="ä" d="M725 849q-122 0 -219.5 -171t-97.5 -392q0 -103 31 -145.5t89 -42.5q61 0 131 61.5t124 206t54 307.5q0 97 -29.5 136.5t-82.5 39.5zM894 795l54 144l256 19l-198 -714q-20 -73 -20 -93q0 -15 6.5 -23t19.5 -8q74 0 192 233l75 -41q-175 -341 -382 -341q-71 0 -110 43.5 t-46 129.5q-76 -96 -147.5 -134.5t-151.5 -38.5q-137 0 -226 98.5t-89 269.5q0 164 79.5 314t204.5 233.5t256 83.5q90 0 145 -42t82 -133zM1086 1424q55 0 94 -39.5t39 -95.5q0 -55 -39 -94.5t-94 -39.5t-94.5 39t-39.5 95q0 55 40 95t94 40zM684 1424q55 0 94 -39.5 t39 -95.5t-39 -95t-94 -39q-56 0 -95 39t-39 95q0 55 40 95t94 40z"/>
<glyph glyph-name="aring" horiz-adv-x="1366" unicode="å" d="M725 849q-122 0 -219.5 -171t-97.5 -392q0 -103 31 -145.5t89 -42.5q61 0 131 61.5t124 206t54 307.5q0 97 -29.5 136.5t-82.5 39.5zM894 795l54 144l256 19l-198 -714q-20 -73 -20 -93q0 -15 6.5 -23t19.5 -8q74 0 192 233l75 -41q-175 -341 -382 -341q-71 0 -110 43.5 t-46 129.5q-76 -96 -147.5 -134.5t-151.5 -38.5q-137 0 -226 98.5t-89 269.5q0 164 79.5 314t204.5 233.5t256 83.5q90 0 145 -42t82 -133zM844 1405q-48 0 -82 -34t-34 -82t34 -82.5t82 -34.5t82.5 34.5t34.5 82.5t-34 82t-83 34zM846 1498q88 0 149.5 -61.5t61.5 -147.5 q0 -87 -62 -148.5t-148 -61.5q-87 0 -148.5 61.5t-61.5 148.5t61.5 148t147.5 61z"/>
<glyph glyph-name="ae" horiz-adv-x="1669" unicode="æ" d="M652 863q-121 0 -221 -197t-100 -398q0 -91 38.5 -135t101.5 -44q59 0 127 61t125.5 221t57.5 310q0 90 -36.5 136t-92.5 46zM1003 443q126 25 203.5 73.5t117.5 115.5t40 139q0 50 -24 76.5t-62 26.5q-71 0 -151.5 -102.5t-123.5 -328.5zM1061 824q95 95 168 130t148 35 q113 0 180.5 -62.5t67.5 -164.5q0 -84 -46 -144q-67 -87 -207.5 -152.5t-381.5 -102.5l-1 -51q0 -110 55.5 -172t145.5 -62q141 0 316 174l59 -50q-218 -231 -474 -231q-138 0 -226 61.5t-126 184.5q-128 -246 -352 -246q-151 0 -245.5 98.5t-94.5 264.5q0 152 90.5 320.5 t213.5 251.5t253 83q86 0 146.5 -46.5t94.5 -140.5l45 156l213 21z"/>
<glyph glyph-name="ccedilla" horiz-adv-x="1100" unicode="ç" d="M893 265l69 -54q-95 -117 -216 -178.5t-251 -61.5q-181 0 -289 107t-108 284q0 161 85.5 311t222.5 233t295 83q151 0 232.5 -69t81.5 -175q0 -79 -44 -126.5t-110 -47.5q-60 0 -98.5 35.5t-38.5 89.5q0 37 19 62t90 63q22 11 22 23q0 18 -27 34q-37 22 -91 22 q-131 0 -225 -134q-119 -170 -119 -430q0 -124 53.5 -185.5t140.5 -61.5q150 0 306 176zM557 -21q106 -52 106 -144q0 -63 -46 -115.5t-144.5 -78t-354.5 -32.5l29 87q142 6 187.5 31t45.5 62q0 50 -86 75l192 156h114z"/>
<glyph glyph-name="egrave" horiz-adv-x="1063" unicode="è" d="M384 452q171 33 249 106q107 101 107 227q0 52 -24.5 81.5t-61.5 29.5q-74 0 -138 -89q-94 -129 -132 -355zM372 369q-4 -38 -4 -63q0 -106 52 -163t139 -57q73 0 143.5 35t172.5 139l67 -52q-117 -129 -229.5 -183t-242.5 -54q-184 0 -289.5 105.5t-105.5 286.5 q0 161 88 308.5t240.5 232.5t328.5 85q129 0 200 -62t71 -157q0 -79 -57 -158.5t-185 -138t-389 -104.5zM871 1132l-33 -27l-301 139q-106 48 -106 120q0 41 37.5 74.5t88.5 33.5q79 0 170 -133z"/>
<glyph glyph-name="eacute" horiz-adv-x="1063" unicode="é" d="M384 452q171 33 249 106q107 101 107 227q0 52 -24.5 81.5t-61.5 29.5q-74 0 -138 -89q-94 -129 -132 -355zM372 369q-4 -38 -4 -63q0 -106 52 -163t139 -57q73 0 143.5 35t172.5 139l67 -52q-117 -129 -229.5 -183t-242.5 -54q-184 0 -289.5 105.5t-105.5 286.5 q0 161 88 308.5t240.5 232.5t328.5 85q129 0 200 -62t71 -157q0 -79 -57 -158.5t-185 -138t-389 -104.5zM568 1104l-30 26l132 189q68 97 107.5 126t81.5 29q49 0 83.5 -33t34.5 -77q0 -71 -113 -123z"/>
<glyph glyph-name="ecircumflex" horiz-adv-x="1063" unicode="ê" d="M384 452q171 33 249 106q107 101 107 227q0 52 -24.5 81.5t-61.5 29.5q-74 0 -138 -89q-94 -129 -132 -355zM372 369q-4 -38 -4 -63q0 -106 52 -163t139 -57q73 0 143.5 35t172.5 139l67 -52q-117 -129 -229.5 -183t-242.5 -54q-184 0 -289.5 105.5t-105.5 286.5 q0 161 88 308.5t240.5 232.5t328.5 85q129 0 200 -62t71 -157q0 -79 -57 -158.5t-185 -138t-389 -104.5zM740 1479h213l88 -378h-34l-185 206l-425 -206h-39z"/>
<glyph glyph-name="edieresis" horiz-adv-x="1063" unicode="ë" d="M384 452q171 33 249 106q107 101 107 227q0 52 -24.5 81.5t-61.5 29.5q-74 0 -138 -89q-94 -129 -132 -355zM372 369q-4 -38 -4 -63q0 -106 52 -163t139 -57q73 0 143.5 35t172.5 139l67 -52q-117 -129 -229.5 -183t-242.5 -54q-184 0 -289.5 105.5t-105.5 286.5 q0 161 88 308.5t240.5 232.5t328.5 85q129 0 200 -62t71 -157q0 -79 -57 -158.5t-185 -138t-389 -104.5zM935 1424q55 0 94 -39.5t39 -95.5q0 -55 -39 -94.5t-94 -39.5t-94.5 39t-39.5 95q0 55 40 95t94 40zM533 1424q55 0 94 -39.5t39 -95.5t-39 -95t-94 -39q-56 0 -95 39 t-39 95q0 55 40 95t94 40z"/>
<glyph glyph-name="igrave" horiz-adv-x="797" unicode="ì" d="M183 939l453 19l-215 -742q-14 -50 -14 -73q0 -18 7 -27.5t20 -9.5q29 0 74 43q75 71 147 201l73 -42q-187 -337 -411 -337q-76 0 -120 45t-44 123q0 54 14 102l149 518q5 14 5 29q0 28 -23 44.5t-79 16.5h-64zM710 1132l-33 -27l-301 139q-106 48 -106 120 q0 41 37.5 74.5t88.5 33.5q79 0 170 -133z"/>
<glyph glyph-name="iacute" horiz-adv-x="797" unicode="í" d="M183 939l453 19l-215 -742q-14 -50 -14 -73q0 -18 7 -27.5t20 -9.5q29 0 74 43q75 71 147 201l73 -42q-187 -337 -411 -337q-76 0 -120 45t-44 123q0 54 14 102l149 518q5 14 5 29q0 28 -23 44.5t-79 16.5h-64zM377 1104l-30 26l132 189q68 97 107.5 126t81.5 29 q49 0 83.5 -33t34.5 -77q0 -71 -113 -123z"/>
<glyph glyph-name="icircumflex" horiz-adv-x="797" unicode="î" d="M183 939l453 19l-215 -742q-14 -50 -14 -73q0 -18 7 -27.5t20 -9.5q29 0 74 43q75 71 147 201l73 -42q-187 -337 -411 -337q-76 0 -120 45t-44 123q0 54 14 102l149 518q5 14 5 29q0 28 -23 44.5t-79 16.5h-64zM519 1479h213l88 -378h-34l-185 206l-425 -206h-39z"/>
<glyph glyph-name="idieresis" horiz-adv-x="797" unicode="ï" d="M183 939l453 19l-215 -742q-14 -50 -14 -73q0 -18 7 -27.5t20 -9.5q29 0 74 43q75 71 147 201l73 -42q-187 -337 -411 -337q-76 0 -120 45t-44 123q0 54 14 102l149 518q5 14 5 29q0 28 -23 44.5t-79 16.5h-64zM694 1424q55 0 94 -39.5t39 -95.5q0 -55 -39 -94.5 t-94 -39.5t-94.5 39t-39.5 95q0 55 40 95t94 40zM292 1424q55 0 94 -39.5t39 -95.5t-39 -95t-94 -39q-56 0 -95 39t-39 95q0 55 40 95t94 40z"/>
<glyph glyph-name="eth" d="M674 905q-86 0 -158 -79q-51 -55 -97 -191q-81 -239 -81 -394q0 -85 43.5 -133t114.5 -48q76 0 132 61q87 95 143.5 277t56.5 313q0 93 -43.5 143.5t-110.5 50.5zM841 929q-27 138 -80 226.5t-145 160.5l-267 -114l-34 80l220 94l-25 16l-95 49l41 57q124 -41 194 -73 l189 79l40 -77l-133 -58q171 -104 271.5 -282t100.5 -383q0 -277 -155 -493q-172 -240 -457 -240q-199 0 -320 118.5t-121 303.5q0 156 80 297t214.5 220t286.5 79q54 0 102.5 -15t92.5 -45z" unicode="ð"/>
<glyph glyph-name="ntilde" horiz-adv-x="1403" unicode="ñ" d="M1248 355l81 -25q-74 -182 -173 -266.5t-202 -84.5q-86 0 -134 46.5t-48 125.5q0 70 52 224q76 230 89 283.5t13 86.5q0 37 -18.5 58t-46.5 21q-51 0 -108 -41q-95 -66 -180 -199t-127 -274l-90 -310l-266 -9l224 772q3 12 3 23q0 29 -23 44.5t-87 15.5h-58l28 93l437 19 l-73 -281q220 293 429 293q95 0 155.5 -61t60.5 -153q0 -74 -32 -176l-106 -337q-25 -79 -25 -100q0 -15 7.5 -22.5t21.5 -7.5q34 0 72 40q64 69 124 202zM1165 1425h24q-13 -130 -77.5 -199t-150.5 -69q-71 0 -185 47q-100 43 -142 43q-80 0 -108 -90h-28q5 120 70.5 193.5 t152.5 73.5q63 0 180 -49q98 -40 145 -40q81 0 119 90z"/>
<glyph glyph-name="ograve" d="M677 905q-78 0 -140 -67q-86 -92 -141 -283t-55 -307q0 -91 43.5 -139.5t114.5 -48.5q68 0 120 48q76 72 144 258.5t68 347.5q0 90 -43.5 140.5t-110.5 50.5zM667 989q193 0 314.5 -119t121.5 -302q0 -231 -164.5 -414t-432.5 -183q-196 0 -317 118.5t-121 303.5 q0 158 81.5 300t215.5 219t302 77zM957 1132l-33 -27l-301 139q-106 48 -106 120q0 41 37.5 74.5t88.5 33.5q79 0 170 -133z" unicode="ò"/>
<glyph glyph-name="oacute" d="M677 905q-78 0 -140 -67q-86 -92 -141 -283t-55 -307q0 -91 43.5 -139.5t114.5 -48.5q68 0 120 48q76 72 144 258.5t68 347.5q0 90 -43.5 140.5t-110.5 50.5zM667 989q193 0 314.5 -119t121.5 -302q0 -231 -164.5 -414t-432.5 -183q-196 0 -317 118.5t-121 303.5 q0 158 81.5 300t215.5 219t302 77zM577 1104l-30 26l132 189q68 97 107.5 126t81.5 29q49 0 83.5 -33t34.5 -77q0 -71 -113 -123z" unicode="ó"/>
<glyph glyph-name="ocircumflex" d="M677 905q-78 0 -140 -67q-86 -92 -141 -283t-55 -307q0 -91 43.5 -139.5t114.5 -48.5q68 0 120 48q76 72 144 258.5t68 347.5q0 90 -43.5 140.5t-110.5 50.5zM667 989q193 0 314.5 -119t121.5 -302q0 -231 -164.5 -414t-432.5 -183q-196 0 -317 118.5t-121 303.5 q0 158 81.5 300t215.5 219t302 77zM774 1479h213l88 -378h-34l-185 206l-425 -206h-39z" unicode="ô"/>
<glyph glyph-name="otilde" d="M677 905q-78 0 -140 -67q-86 -92 -141 -283t-55 -307q0 -91 43.5 -139.5t114.5 -48.5q68 0 120 48q76 72 144 258.5t68 347.5q0 90 -43.5 140.5t-110.5 50.5zM667 989q193 0 314.5 -119t121.5 -302q0 -231 -164.5 -414t-432.5 -183q-196 0 -317 118.5t-121 303.5 q0 158 81.5 300t215.5 219t302 77zM1065 1425h24q-13 -130 -77.5 -199t-150.5 -69q-71 0 -185 47q-100 43 -142 43q-80 0 -108 -90h-28q5 120 70.5 193.5t152.5 73.5q63 0 180 -49q98 -40 145 -40q81 0 119 90z" unicode="õ"/>
<glyph glyph-name="odieresis" d="M677 905q-78 0 -140 -67q-86 -92 -141 -283t-55 -307q0 -91 43.5 -139.5t114.5 -48.5q68 0 120 48q76 72 144 258.5t68 347.5q0 90 -43.5 140.5t-110.5 50.5zM667 989q193 0 314.5 -119t121.5 -302q0 -231 -164.5 -414t-432.5 -183q-196 0 -317 118.5t-121 303.5 q0 158 81.5 300t215.5 219t302 77zM971 1424q55 0 94 -39.5t39 -95.5q0 -55 -39 -94.5t-94 -39.5t-94.5 39t-39.5 95q0 55 40 95t94 40zM569 1424q55 0 94 -39.5t39 -95.5t-39 -95t-94 -39q-56 0 -95 39t-39 95q0 55 40 95t94 40z" unicode="ö"/>
<glyph glyph-name="divide" horiz-adv-x="1124" unicode="÷" d="M563 454q43 0 73 -30.5t30 -72.5q0 -43 -30 -73t-73 -30q-42 0 -72.5 30t-30.5 73q0 42 30 72.5t73 30.5zM16 744h1093v-132h-1093v132zM564 1116q43 0 73 -30t30 -72t-30 -72t-73 -30q-42 0 -72 30t-30 72t30 72t72 30z"/>
<glyph glyph-name="oslash" d="M830 682l-482 -499q14 -59 54.5 -91t96.5 -32q65 0 115 44q71 63 138.5 234.5t77.5 343.5zM344 301l477 492q-18 53 -56.5 82.5t-87.5 29.5q-123 0 -205 -162q-104 -206 -128 -442zM996 855q107 -116 107 -287q0 -233 -165 -415t-431 -182q-169 0 -280 86l-55 -57h-120 l113 116q-97 114 -97 277q0 158 81 300t215.5 219t298.5 77q160 0 271 -79l53 54h115z" unicode="ø"/>
<glyph glyph-name="ugrave" horiz-adv-x="1403" unicode="ù" d="M643 958l-197 -600q-35 -106 -35 -155q0 -44 19 -65.5t53 -21.5q85 0 207 127.5t205 378.5l104 317h265l-234 -721q-15 -47 -15 -71q0 -18 7 -27t21 -9q80 0 208 233l75 -33q-93 -189 -190.5 -264.5t-204.5 -75.5q-81 0 -123.5 43t-42.5 126q0 39 12 92 q-193 -254 -427 -254q-96 0 -149 54t-53 146q0 83 42 211l122 378q4 11 4 22q0 27 -25 43.5t-86 16.5h-53l26 90zM1011 1132l-33 -27l-301 139q-106 48 -106 120q0 41 37.5 74.5t88.5 33.5q79 0 170 -133z"/>
<glyph glyph-name="uacute" horiz-adv-x="1403" unicode="ú" d="M643 958l-197 -600q-35 -106 -35 -155q0 -44 19 -65.5t53 -21.5q85 0 207 127.5t205 378.5l104 317h265l-234 -721q-15 -47 -15 -71q0 -18 7 -27t21 -9q80 0 208 233l75 -33q-93 -189 -190.5 -264.5t-204.5 -75.5q-81 0 -123.5 43t-42.5 126q0 39 12 92 q-193 -254 -427 -254q-96 0 -149 54t-53 146q0 83 42 211l122 378q4 11 4 22q0 27 -25 43.5t-86 16.5h-53l26 90zM718 1104l-30 26l132 189q68 97 107.5 126t81.5 29q49 0 83.5 -33t34.5 -77q0 -71 -113 -123z"/>
<glyph glyph-name="ucircumflex" horiz-adv-x="1403" unicode="û" d="M643 958l-197 -600q-35 -106 -35 -155q0 -44 19 -65.5t53 -21.5q85 0 207 127.5t205 378.5l104 317h265l-234 -721q-15 -47 -15 -71q0 -18 7 -27t21 -9q80 0 208 233l75 -33q-93 -189 -190.5 -264.5t-204.5 -75.5q-81 0 -123.5 43t-42.5 126q0 39 12 92 q-193 -254 -427 -254q-96 0 -149 54t-53 146q0 83 42 211l122 378q4 11 4 22q0 27 -25 43.5t-86 16.5h-53l26 90zM866 1479h213l88 -378h-34l-185 206l-425 -206h-39z"/>
<glyph glyph-name="udieresis" horiz-adv-x="1403" unicode="ü" d="M643 958l-197 -600q-35 -106 -35 -155q0 -44 19 -65.5t53 -21.5q85 0 207 127.5t205 378.5l104 317h265l-234 -721q-15 -47 -15 -71q0 -18 7 -27t21 -9q80 0 208 233l75 -33q-93 -189 -190.5 -264.5t-204.5 -75.5q-81 0 -123.5 43t-42.5 126q0 39 12 92 q-193 -254 -427 -254q-96 0 -149 54t-53 146q0 83 42 211l122 378q4 11 4 22q0 27 -25 43.5t-86 16.5h-53l26 90zM1044 1424q55 0 94 -39.5t39 -95.5q0 -55 -39 -94.5t-94 -39.5t-94.5 39t-39.5 95q0 55 40 95t94 40zM642 1424q55 0 94 -39.5t39 -95.5t-39 -95t-94 -39 q-56 0 -95 39t-39 95q0 55 40 95t94 40z"/>
<glyph glyph-name="yacute" horiz-adv-x="1063" unicode="ý" d="M675 284q85 123 131.5 239.5t46.5 159.5q0 24 -16 67q-32 79 -32 118q0 55 32 88t84 33q51 0 82 -33t31 -87q0 -103 -108 -325q-148 -304 -332 -543t-327 -328q-107 -67 -205 -67q-89 0 -143 46t-54 114q0 59 38 97t97 38q50 0 81 -35t32 -102q0 -29 7 -39t21 -10 q25 0 73 24t116 91q88 88 153 178l-51 231q-71 322 -95 396q-40 127 -78 164q-19 18 -37 18q-25 0 -48.5 -26t-66.5 -135l-78 33q120 300 293 300q94 0 158 -97q80 -122 195 -608zM538 1104l-30 26l132 189q68 97 107.5 126t81.5 29q49 0 83.5 -33t34.5 -77q0 -71 -113 -123 z"/>
<glyph glyph-name="thorn" horiz-adv-x="1327" unicode="þ" d="M785 835q-59 0 -118 -52q-82 -72 -146 -226t-64 -278q0 -84 39 -127.5t103 -43.5q124 0 223 184.5t99 360.5q0 90 -37.5 136t-98.5 46zM564 773q82 107 162.5 152t173.5 45q134 0 223 -95.5t89 -255.5q0 -229 -148 -422q-169 -219 -400 -219q-97 0 -166 45t-101 127 l-95 -336q-8 -25 -8 -38q0 -32 21 -47.5t82 -15.5h62l-29 -94h-610l28 94h76q45 0 72 23.5t43 77.5l429 1494q3 11 3 21q0 29 -21.5 45t-68.5 16h-76l28 92l451 16z"/>
<glyph glyph-name="dotlessi" horiz-adv-x="797" unicode="ı" d="M183 939l453 19l-215 -742q-14 -50 -14 -73q0 -18 7 -27.5t20 -9.5q29 0 74 43q75 71 147 201l73 -42q-187 -337 -411 -337q-76 0 -120 45t-44 123q0 54 14 102l149 518q5 14 5 29q0 28 -23 44.5t-79 16.5h-64z"/>
<glyph glyph-name="OE" horiz-adv-x="1972" unicode="Œ" d="M1143 1156q12 48 12 83q0 78 -43 118.5t-127 40.5q-131 0 -261.5 -103.5t-210.5 -315.5q-92 -243 -92 -538q0 -140 30 -212t92 -110.5t145 -38.5q89 0 141 48t89 187zM2047 1479l-57 -483h-92q7 73 7 119q0 139 -60.5 204.5t-180.5 65.5h-52q-60 0 -88.5 -21t-40.5 -67 l-128 -482q150 10 219.5 59t113.5 169h87l-170 -642h-87q12 66 12 125q0 101 -44 146t-156 53l-141 -527q-7 -29 -7 -45q0 -31 18 -45.5t61 -14.5h131q165 0 285 96.5t194 317.5h90l-119 -507h-837l-313 -10q-279 0 -437.5 156.5t-158.5 429.5q0 257 118 473t313 331 t446 115q51 0 140 -6q147 -10 260 -10h674z"/>
<glyph glyph-name="oe" horiz-adv-x="1745" unicode="œ" d="M1044 447q178 30 272.5 122t94.5 201q0 56 -28.5 89.5t-73.5 33.5q-71 0 -137 -89q-83 -113 -128 -357zM687 900q-69 0 -125 -51q-77 -71 -140.5 -255t-63.5 -359q0 -92 40.5 -138.5t106.5 -46.5q69 0 132.5 58.5t129 252.5t65.5 352q0 92 -40 139.5t-105 47.5zM1034 363 q-6 -44 -6 -73q0 -95 54 -152t140 -57q76 0 151 36.5t176 137.5l62 -51q-119 -128 -237 -183.5t-242 -55.5q-87 0 -153 30t-124 98q-160 -128 -347 -128q-189 0 -307 117t-118 307q0 161 78 298t214 215.5t295 78.5q105 0 180 -33t146 -113q197 154 393 154q132 0 207 -65 t75 -166q0 -143 -161 -246q-129 -83 -476 -149z"/>
<glyph glyph-name="Scaron" horiz-adv-x="1403" unicode="Š" d="M1209 1359l115 91h87l-114 -511h-88q-4 181 -48 279t-126 152t-186 54q-134 0 -216 -73t-82 -182q0 -84 51 -132t307 -143q170 -64 238 -116.5t104.5 -130t36.5 -175.5q0 -139 -70 -254t-202 -181t-307 -66q-137 0 -240.5 37t-206.5 125l-83 -92h-92l115 531h89 q1 -184 49.5 -287.5t143.5 -160t221 -56.5q150 0 244 82t94 197q0 95 -71 152q-39 32 -277 127q-185 73 -248 120.5t-96.5 119t-33.5 170.5q0 208 140 343t362 135q111 0 204 -36t186 -119zM1044 1621h-213l-88 378h34l185 -206l407 206h39z"/>
<glyph glyph-name="scaron" horiz-adv-x="985" unicode="š" d="M153 642q0 148 121.5 247.5t326.5 99.5q168 0 254 -63t86 -155q0 -60 -36 -97.5t-91 -37.5q-52 0 -86 33t-34 81q0 31 25 75q12 21 12 30q0 21 -27 37.5t-87 16.5q-98 0 -159.5 -51.5t-61.5 -118.5q0 -43 28.5 -67t191.5 -81q122 -42 167 -74t70 -82.5t25 -110.5 q0 -95 -53 -176.5t-155 -129t-247 -47.5q-200 0 -299.5 70t-99.5 179q0 66 41 109t100 43q52 0 86 -33t34 -85q0 -41 -37 -87q-17 -21 -17 -33q0 -28 36 -49q47 -28 130 -28q107 0 170.5 51.5t63.5 123.5q0 42 -28 70t-127 60q-211 68 -267 124.5t-56 155.5zM735 1101h-213 l-88 378h34l185 -206l407 206h39z"/>
<glyph glyph-name="Ydieresis" horiz-adv-x="1442" unicode="Ÿ" d="M282 1479h623l-23 -95h-85q-53 0 -72.5 -11.5t-19.5 -27.5q0 -14 10 -39l214 -528l319 426q38 51 38 95q0 37 -30 59t-114 26l26 95h483l-26 -95q-68 -8 -108.5 -32t-83.5 -81l-437 -589l-137 -505q-3 -13 -3 -25q0 -28 21 -43.5t67 -15.5h116l-24 -93h-736l29 93h107 q89 0 109 71l132 486l-268 656q-19 47 -41.5 62.5t-67.5 15.5h-39zM1294 1944q55 0 94 -39.5t39 -95.5q0 -55 -39 -94.5t-94 -39.5t-94.5 39t-39.5 95q0 55 40 95t94 40zM892 1944q55 0 94 -39.5t39 -95.5t-39 -95t-94 -39q-56 0 -95 39t-39 95q0 55 40 95t94 40z"/>
<glyph glyph-name="circumflex" horiz-adv-x="682" unicode="ˆ" d="M469 1479h213l88 -378h-34l-185 206l-425 -206h-39z"/>
<glyph glyph-name="caron" horiz-adv-x="682" unicode="ˇ" d="M583 1101h-213l-88 378h34l185 -206l407 206h39z"/>
<glyph glyph-name="ring" horiz-adv-x="682" unicode="˚" d="M502 1405q-48 0 -82 -34t-34 -82t34 -82.5t82 -34.5t82.5 34.5t34.5 82.5t-34 82t-83 34zM504 1498q88 0 149.5 -61.5t61.5 -147.5q0 -87 -62 -148.5t-148 -61.5q-87 0 -148.5 61.5t-61.5 148.5t61.5 148t147.5 61z"/>
<glyph glyph-name="tilde" horiz-adv-x="682" unicode="˜" d="M865 1425h24q-13 -130 -77.5 -199t-150.5 -69q-71 0 -185 47q-100 43 -142 43q-80 0 -108 -90h-28q5 120 70.5 193.5t152.5 73.5q63 0 180 -49q98 -40 145 -40q81 0 119 90z"/>
<glyph glyph-name="Alpha" horiz-adv-x="1518" unicode="Α" d="M871 1110l-342 -529h415zM985 1479h135l179 -1275q8 -58 38 -80q42 -31 112 -31h46l-25 -93h-680l23 93h50q79 0 107.5 19.5t28.5 59.5q0 14 -3 32l-37 266h-501l-99 -154q-41 -65 -41 -119q0 -49 32.5 -76.5t99.5 -27.5h41l-23 -93h-531l23 93q69 4 109 32 q77 53 116 113z"/>
<glyph glyph-name="Beta" horiz-adv-x="1554" unicode="Β" d="M622 720l-143 -529q-6 -22 -6 -42q0 -28 23 -42t92 -14h169q119 0 200 44t133 140.5t52 203.5q0 111 -74.5 175t-217.5 64h-228zM649 812h199q90 0 160 31q94 42 149.5 130t55.5 200q0 123 -77 176q-54 37 -198 37q-84 0 -113 -17t-42 -65zM264 1479h858q203 0 311.5 -89 t108.5 -229q0 -148 -111.5 -249t-369.5 -134q202 -17 307 -111.5t105 -240.5q0 -132 -81 -233q-59 -75 -202.5 -134t-308.5 -59h-953l23 93h101q88 0 111 86l301 1112q5 19 5 37q0 26 -22 41t-80 15h-125z"/>
<glyph glyph-name="Gamma" horiz-adv-x="1370" unicode="Γ" d="M774 93l-25 -93h-744l22 93h84q80 0 102 81l305 1114q6 25 6 34q0 64 -91 64h-139l25 93h1237l-86 -480h-90q7 56 7 101q0 150 -82.5 218t-211.5 68h-167q-72 0 -99 -98l-300 -1114q-4 -17 -4 -24q0 -57 93 -57h158z"/>
<glyph glyph-name="Delta" horiz-adv-x="1376" unicode="Δ" d="M717 1110l-543 -871h703zM831 1479h135l266 -1386l-25 -93h-1279l25 93z"/>
<glyph glyph-name="Epsilon" horiz-adv-x="1518" unicode="Ε" d="M311 1479h1262l-109 -481h-90q16 88 16 133q0 114 -70 183.5t-178 69.5h-219q-75 0 -99 -89l-133 -487h75q127 0 203 56.5t131 199.5h88l-178 -670h-87q14 84 14 140q0 88 -51.5 135.5t-140.5 47.5h-78l-144 -528q-5 -18 -5 -35q0 -30 22.5 -45.5t79.5 -15.5h153 q205 0 345 100t227 317h91l-159 -510h-1278l27 93h76q80 0 100 74l308 1128q4 16 4 30q0 28 -19.5 43.5t-64.5 15.5h-144z"/>
<glyph glyph-name="Zeta" horiz-adv-x="1442" unicode="Ζ" d="M477 1479h1048v-84l-1085 -1302h302q115 0 204.5 40.5t164.5 124.5t162 269l81 -34l-151 -493h-1173v45l1122 1339h-229q-166 0 -285 -89t-246 -344l-84 33z"/>
<glyph glyph-name="Eta" horiz-adv-x="1782" unicode="Η" d="M324 1479h722l-24 -95h-90q-88 0 -107 -70l-132 -491h579l130 477q3 12 3 23q0 28 -23 44.5t-77 16.5h-104l23 95h718l-24 -95h-87q-55 0 -82.5 -23t-44.5 -89l-297 -1112q-2 -8 -2 -15q0 -24 17 -35q26 -17 68 -17h121l-25 -93h-710l25 93h103q72 0 95 82l142 527h-579 l-147 -527q-3 -12 -3 -23q0 -28 19.5 -43.5t60.5 -15.5h132l-23 -93h-705l23 93h72q43 0 72 19.5t37 47.5l315 1154q4 14 -2.5 32t-27 28t-54.5 10h-131z"/>
<glyph glyph-name="Theta" horiz-adv-x="1706" unicode="Θ" d="M609 494l116 491h91q-6 -27 -6 -48q0 -70 131 -70q155 0 201 118h90l-117 -491h-90l3 25q5 26 5 37q0 72 -153 72q-134 0 -181 -134h-90zM1073 1418q-284 0 -444.5 -344.5t-160.5 -653.5q0 -168 78.5 -262t223.5 -94q176 0 308.5 140t211.5 411.5t79 441.5 q0 175 -78.5 268t-217.5 93zM1074 1514q285 0 453 -167.5t168 -428.5q0 -201 -91.5 -413.5t-317 -373t-527.5 -160.5q-310 0 -464.5 181t-154.5 430q0 194 103.5 414t329.5 369t501 149z"/>
<glyph glyph-name="Iota" horiz-adv-x="909" unicode="Ι" d="M330 1479h727l-24 -95h-85q-59 0 -84.5 -17.5t-36.5 -58.5l-301 -1129q-4 -16 -4 -28q0 -28 19 -40q29 -18 86 -18h108l-24 -93h-710l25 93h80q86 0 105 74l300 1124q5 19 5 36q0 27 -20.5 42t-71.5 15h-116z"/>
<glyph glyph-name="Kappa" horiz-adv-x="1593" unicode="Κ" d="M324 1479h695l-27 -95h-79q-52 0 -79 -22t-43 -79l-161 -588l600 518q65 57 65 99q0 32 -27 52t-83 20h-39l24 95h574l-25 -95q-91 -7 -155.5 -36t-157.5 -110l-396 -337l346 -719q16 -34 37.5 -51.5t63.5 -29.5q27 -8 100 -8l-24 -93h-696l25 93h90q51 0 73 16t22 42 q0 20 -9 38l-247 520l-201 -173l-100 -362q-3 -11 -3 -23q0 -27 23 -42.5t80 -15.5h106l-25 -93h-712l24 93h60q60 0 89.5 21t42.5 68l304 1112q5 16 5 31q0 28 -23 43.5t-79 15.5h-81z"/>
<glyph glyph-name="Lambda" horiz-adv-x="1518" unicode="Λ" d="M847 1110l-513 -799q-40 -63 -40 -116q0 -102 132 -102h41l-23 -93h-531l23 93q75 1 135.5 51t89.5 94l800 1241h135l179 -1275q11 -78 60 -94.5t90 -16.5h46l-25 -93h-680l23 93h50q136 0 136 79q0 11 -3 32z"/>
<glyph glyph-name="Mu" horiz-adv-x="1933" unicode="Μ" d="M299 1479h535l108 -1074l674 1074h486l-26 -95h-60q-112 0 -135 -91l-287 -1117q-3 -13 -3 -25q0 -27 18 -40q23 -18 62 -18h132l-26 -93h-722l22 93h90q100 0 122 83l283 1037l-757 -1213h-119l-125 1204l-234 -862q-13 -48 -13 -89q0 -152 194 -160l-24 -93h-545l25 93 q85 6 142 61q78 77 108 188l259 951q6 19 6 34q0 27 -20.5 42t-69.5 15h-125z"/>
<glyph glyph-name="Nu" horiz-adv-x="1745" unicode="Ν" d="M388 1479h442l475 -1031l197 726q12 45 12 73q0 63 -42.5 100.5t-113.5 37.5h-43l25 94h510l-26 -94q-80 -4 -122 -43q-59 -55 -84 -149l-320 -1193h-109l-538 1174l-221 -817q-15 -57 -15 -93q0 -76 52.5 -122.5t152.5 -48.5l-22 -93h-570l23 93q99 4 161 56.5t87 145.5 l257 953q10 35 10 51q0 40 -33.5 63t-118.5 23h-51z"/>
<glyph glyph-name="Xi" horiz-adv-x="1458" unicode="Ξ" d="M106 510h90q-3 -22 -3 -35q0 -102 86.5 -169t271.5 -67h253q361 0 488 271h91l-159 -510h-1245zM445 476l171 527h91q-6 -30 -6 -50q0 -86 144 -86q193 0 254 136h90l-171 -527h-90q7 54 7 72q0 80 -159 80q-177 0 -240 -152h-91zM286 998l150 481h1162l-132 -481h-88 q0 156 -84.5 199t-230.5 43h-241q-174 0 -275 -54t-173 -188h-88z"/>
<glyph glyph-name="Omicron" horiz-adv-x="1706" unicode="Ο" d="M1076 1418q-168 0 -304 -130t-230 -435q-74 -240 -74 -433q0 -174 81 -265t221 -91q163 0 297.5 128.5t218 406.5t83.5 458q0 177 -79.5 269t-213.5 92zM1073 1514q282 0 452 -165.5t170 -430.5q0 -226 -101 -434q-115 -238 -341.5 -375.5t-493.5 -137.5 q-311 0 -465 181.5t-154 427.5q0 193 101 411.5t327 370.5t505 152z"/>
<glyph glyph-name="Pi" horiz-adv-x="1782" unicode="Π" d="M324 1479h1618l-24 -93h-87q-55 0 -82 -22.5t-45 -91.5l-282 -1049q-17 -63 -17 -84q0 -46 85 -46h121l-25 -93h-710l25 93h103q72 0 95 82l328 1198h-580l-332 -1198q-5 -17 -5 -24q0 -58 82 -58h132l-23 -93h-705l23 93h72q90 0 109 67l297 1089q18 67 18 91 q0 46 -84 46h-131z"/>
<glyph glyph-name="Rho" horiz-adv-x="1518" unicode="Ρ" d="M664 753q84 -14 148 -14q152 0 244 46.5t146 147t54 230.5q0 110 -68 165.5t-231 55.5q-76 0 -105 -19.5t-45 -76.5zM300 1479h772q262 0 383.5 -99t121.5 -274q0 -201 -165.5 -329t-517.5 -128q-93 0 -255 16l-130 -486q-4 -15 -4 -28q0 -29 20.5 -43.5t75.5 -14.5h116 l-25 -93h-722l23 93h83q92 0 112 72l308 1132q6 20 6 33q0 26 -24 40t-98 14h-104z"/>
<glyph glyph-name="Sigma" horiz-adv-x="1423" unicode="Σ" d="M959 799l-652 -560h470q306 0 465 288l78 -34l-159 -493h-1171l25 93l686 592l-352 701l25 93h1076l-104 -514h-87q10 90 10 140q0 281 -296 281h-319z"/>
<glyph glyph-name="Tau" horiz-adv-x="1479" unicode="Τ" d="M381 1479h1254l-131 -540h-92q29 135 29 218q0 116 -51.5 171.5t-153.5 55.5q-61 0 -88 -20t-41 -72l-301 -1111q-3 -13 -3 -28q0 -28 22.5 -44t72.5 -16h137l-24 -93h-797l23 93h144q89 0 116 97l299 1102q5 15 5 30q0 31 -21.5 46.5t-72.5 15.5q-101 0 -191 -81 q-127 -115 -247 -364h-87z"/>
<glyph glyph-name="Upsilon" horiz-adv-x="1442" unicode="Υ" d="M282 1479h623l-23 -95h-85q-53 0 -72.5 -11.5t-19.5 -27.5q0 -14 10 -39l214 -528l319 426q38 51 38 95q0 37 -30 59t-114 26l26 95h483l-26 -95q-68 -8 -108.5 -32t-83.5 -81l-437 -589l-137 -505q-3 -13 -3 -25q0 -28 21 -43.5t67 -15.5h116l-24 -93h-736l29 93h107 q89 0 109 71l132 486l-268 656q-19 47 -41.5 62.5t-67.5 15.5h-39z"/>
<glyph glyph-name="Phi" horiz-adv-x="1899" unicode="Φ" d="M1054 355q282 3 403.5 160.5t121.5 354.5q0 144 -66.5 207.5t-230.5 69.5zM973 1147q-280 -16 -394.5 -177.5t-114.5 -353.5q0 -127 60.5 -188.5t221.5 -72.5zM1577 1479l-27 -93h-112q-90 0 -127 -150q337 -11 459 -115t122 -289q0 -258 -216 -414.5t-645 -156.5 l-18 -64q-10 -34 -10 -47q0 -57 79 -57h146l-27 -93h-758l27 93h90q65 0 94.5 24.5t45.5 79.5l19 64q-568 20 -568 381q0 236 210.5 412.5t636.5 181.5q18 67 18 94q0 56 -67 56h-156l26 93h758z"/>
<glyph glyph-name="Chi" horiz-adv-x="1518" unicode="Χ" d="M299 1479h675l-22 -95h-46q-60 0 -84.5 -16.5t-24.5 -42.5q0 -22 9 -43l146 -343l261 275q46 49 46 94q0 36 -24 56t-74 20h-42l20 95h550l-24 -95q-77 -1 -128.5 -25t-111.5 -87l-430 -447l256 -611q21 -48 42 -69q30 -29 66 -43q25 -9 91 -9l-25 -93h-670l26 93h57 q65 0 94.5 19.5t29.5 47.5q0 11 -10 33l-171 413l-292 -314q-49 -53 -49 -104q0 -41 34.5 -67t118.5 -28l-24 -93h-599l24 93q157 12 271 132l472 491l-248 589q-17 41 -51 60t-100 19h-64z"/>
<glyph glyph-name="Psi" horiz-adv-x="1974" unicode="Ψ" d="M211 1386l27 93h478l-134 -504q-47 -176 -47 -226q0 -87 90.5 -115.5t218.5 -28.5l192 674q11 37 11 60q0 47 -72 47h-47l26 93h557l-26 -93h-29q-94 0 -119 -88l-199 -693q248 0 337 95.5t138 274.5l136 504h467l-27 -93h-54q-52 0 -83.5 -20t-47.5 -84l-84 -334 q-49 -199 -158 -304t-257.5 -144t-407.5 -39l-61 -216q-19 -70 -19 -89q0 -63 83 -63h116l-26 -93h-744l26 93h116q67 0 96.5 30t56.5 122l62 216q-306 3 -444.5 60.5t-138.5 192.5q0 96 39 234l96 334q11 39 11 54q0 50 -82 50h-73z"/>
<glyph glyph-name="alpha" horiz-adv-x="1319" unicode="α" d="M676 849q-122 0 -218.5 -174t-96.5 -390q0 -187 120 -187q118 0 213.5 175.5t95.5 399.5q0 176 -114 176zM1148 970l-189 -726q-20 -78 -20 -93q0 -31 26 -31q74 0 192 233l75 -41q-175 -341 -384 -341q-140 0 -154 173q-131 -173 -296 -173q-140 0 -229 99.5t-89 266.5 q0 247 164 440t376 193q179 0 227 -175l213 175h88z"/>
<glyph glyph-name="beta" horiz-adv-x="1182" unicode="β" d="M653 881q129 0 202 71.5t106.5 158.5t33.5 158q0 77 -38 120.5t-98 43.5q-150 0 -256 -283.5t-281 -969.5q75 -122 202 -122q136 0 221 166.5t85 339.5q0 95 -41 160.5t-161 65.5zM288 60q-40 -161 -129 -397q-122 -13 -259 -58q-27 -8 -39 -8q-22 0 -22 19q0 14 33 80 q46 91 99 230t158 542q117 449 195.5 645.5t212 298.5t321.5 102q169 0 272.5 -90.5t103.5 -225.5q0 -141 -115.5 -245.5t-308.5 -123.5q285 -80 285 -349q0 -219 -140 -364.5t-367 -145.5q-182 0 -300 90z"/>
<glyph glyph-name="gamma" horiz-adv-x="1094" unicode="γ" d="M101 650l-65 42q52 144 132.5 220.5t168.5 76.5q153 0 214.5 -238.5t61.5 -453.5q0 -46 -6 -128q165 296 196 373t31 134q0 36 -14 92q-13 54 -13 79q0 58 38 100t104 42q71 0 107.5 -41.5t36.5 -101.5q0 -73 -43 -155.5t-179 -270.5q-157 -216 -210 -327t-144 -425 q-113 -16 -243 -50q-43 -12 -51 -12q-17 0 -17 16q0 8 8 23q81 167 116 301.5t35 299.5q0 189 -39 380.5t-95 191.5q-59 0 -130 -168z"/>
<glyph glyph-name="delta" d="M677 905q-151 0 -243.5 -247t-92.5 -408q0 -98 46.5 -144t111.5 -46q145 0 238.5 241t93.5 413q0 90 -43.5 140.5t-110.5 50.5zM571 978q-276 75 -276 242q0 137 145 215.5t358 78.5q191 0 294.5 -62t103.5 -171q0 -59 -33 -96.5t-89 -37.5q-49 0 -80 27.5t-31 63.5 q0 23 23 58q15 22 15 41q0 98 -173 98q-123 0 -184.5 -59.5t-61.5 -144.5q0 -70 42.5 -111.5t156.5 -97.5q126 -61 188.5 -106.5t98.5 -116.5t36 -185q0 -288 -171 -465.5t-427 -177.5q-201 0 -319.5 121.5t-118.5 302.5q0 200 134.5 376t368.5 207z" unicode="δ"/>
<glyph glyph-name="epsilon" horiz-adv-x="1012" unicode="ε" d="M637 532l-17 -82h-50q-109 0 -186 -55t-77 -141q0 -74 63.5 -117.5t149.5 -43.5q196 0 372 150l55 -32q-189 -240 -531 -240q-186 0 -283 63.5t-97 171.5q0 234 402 286q-274 31 -274 195q0 127 152.5 214.5t357.5 87.5q156 0 240.5 -65.5t84.5 -178.5q0 -72 -39.5 -117 t-100.5 -45q-53 0 -91.5 32t-38.5 83q0 60 73 111q35 24 35 35q0 20 -42.5 40.5t-112.5 20.5q-110 0 -178.5 -62.5t-68.5 -155.5q0 -81 43.5 -118t109.5 -37h49z"/>
<glyph glyph-name="zeta" horiz-adv-x="840" unicode="ζ" d="M1081 1485l-11 -86q-270 -220 -492.5 -475t-222.5 -456q0 -82 43.5 -126.5t191.5 -125.5q119 -64 153.5 -116t34.5 -109q0 -129 -126 -225.5t-335 -96.5q-126 0 -252 36t-126 111q0 37 26 64t72 27q57 0 135 -69q51 -45 89 -62.5t101 -17.5q93 0 148 42t55 91 q0 38 -33.5 67t-157.5 97q-180 98 -237 178.5t-57 191.5q0 100 33.5 187t133 201.5t213.5 208.5t359 276h-281q-37 0 -200 -12q-19 -3 -63 -16l91 215h715z"/>
<glyph glyph-name="eta" horiz-adv-x="1311" unicode="η" d="M150 846l28 90l437 22l-73 -281q220 293 429 293q101 0 158.5 -64.5t57.5 -150.5q0 -72 -32 -175l-177 -569q-94 -302 -113 -348q-123 -13 -260 -58q-26 -8 -38 -8q-23 0 -23 19q0 12 34 80q74 151 130 322l197 605q22 70 22 123q0 78 -65 78q-104 0 -231.5 -162.5 t-183.5 -351.5l-90 -310l-266 -9l224 772q3 12 3 21q0 62 -110 62h-58z"/>
<glyph glyph-name="theta" horiz-adv-x="1104" unicode="θ" d="M421 702q-89 -323 -89 -463q0 -178 121 -178q85 0 145 105.5t173 535.5h-350zM803 823q79 290 79 445q0 157 -103 157q-70 0 -139.5 -90.5t-185.5 -511.5h349zM787 1515q132 0 213.5 -91.5t81.5 -337.5q0 -378 -173.5 -746.5t-457.5 -368.5q-320 0 -320 461 q0 303 110.5 581t251 390t294.5 112z"/>
<glyph glyph-name="iota" horiz-adv-x="797" unicode="ι" d="M183 939l453 19l-215 -742q-14 -50 -14 -73q0 -18 7 -27.5t20 -9.5q29 0 74 43q75 71 147 201l73 -42q-187 -337 -411 -337q-76 0 -120 45t-44 123q0 54 14 102l149 518q5 14 5 29q0 28 -23 44.5t-79 16.5h-64z"/>
<glyph glyph-name="kappa" horiz-adv-x="1327" unicode="κ" d="M487 461l-131 -461l-266 -9l214 740q13 45 13 59q0 56 -110 56h-58l28 90l437 22l-107 -411h68q123 0 174 45.5t125 183.5q58 110 109 154t143 44q81 0 129.5 -46t48.5 -122q0 -68 -37 -105t-88 -37q-50 0 -86.5 27t-36.5 76q0 15 4 38q2 13 2 20q0 30 -23 30 q-17 0 -37 -27t-78 -136q-62 -118 -108 -148t-103 -43q143 -31 188.5 -78t59.5 -173q10 -95 19 -120.5t29 -25.5q15 0 31 14t54 104l78 -19q-37 -123 -98 -174t-171 -51q-88 0 -136 39.5t-58 184.5q-8 120 -19 164t-47 69.5t-98 25.5h-58z"/>
<glyph glyph-name="lambda" horiz-adv-x="1296" unicode="λ" d="M366 1175l-65 41q59 139 155.5 218.5t192.5 79.5q93 0 128 -71t82 -348l130 -776q31 -187 98 -187q80 0 194 180l69 -39q-101 -185 -184.5 -243.5t-179.5 -58.5q-102 0 -160.5 64t-93.5 296l-67 439q-223 -490 -316.5 -644.5t-231.5 -154.5q-73 0 -116 41.5t-43 108.5 q0 63 41 106.5t102 43.5q54 0 97 -51q24 -29 42 -29t28 14t48 76.5t150.5 286.5t158.5 347l-30 207q-24 162 -32.5 191t-33.5 29q-70 0 -163 -167z"/>
<glyph glyph-name="mu" horiz-adv-x="1403" unicode="μ" d="M152 849l26 87l465 22l-209 -642q-23 -70 -23 -114q0 -86 72 -86q93 0 213 135t199 371l104 314h265l-234 -718q-15 -47 -15 -71q0 -36 28 -36q79 0 208 233l75 -33q-164 -340 -397 -340q-164 0 -164 171q0 40 12 90q-172 -246 -336 -246q-41 0 -107 12l-62 -200 q-24 -81 -44 -130q-114 -16 -245 -50q-44 -12 -53 -12q-16 0 -16 16q0 10 34 79q62 127 129 336l235 730q5 16 5 24q0 58 -112 58h-53z"/>
<glyph glyph-name="nu" horiz-adv-x="1094" unicode="ν" d="M125 650l-65 42q52 145 133 221t167 76q131 0 195 -184.5t85 -593.5q218 320 218 465q0 36 -14 92q-13 54 -13 79q0 58 38 100t104 42q71 0 107.5 -41.5t36.5 -101.5q0 -94 -102.5 -258.5t-437.5 -587.5h-147q-3 54 -40.5 334t-65.5 370t-43 102t-27 12q-59 0 -129 -168z "/>
<glyph glyph-name="xi" horiz-adv-x="856" unicode="ξ" d="M1097 1485l-14 -86q-167 -48 -299.5 -140.5t-132.5 -200.5q0 -164 256 -226l-14 -95q-222 0 -373.5 -91.5t-151.5 -216.5q0 -49 33 -83t131 -88q144 -78 195.5 -131t51.5 -135q0 -131 -126 -227t-335 -96q-154 0 -266 41t-112 106q0 37 26 64t72 27q57 0 135 -69 q51 -45 89 -62.5t101 -17.5q93 0 148 42t55 91q0 33 -30 62.5t-158 97.5q-122 64 -170 99t-81.5 94.5t-33.5 132.5q0 324 596 432q-172 40 -237 96.5t-65 140.5q0 82 69.5 146.5t258.5 123.5h-208q-119 0 -245 -42l66 211h769z"/>
<glyph glyph-name="omicron" d="M677 905q-78 0 -140 -67q-86 -92 -141 -283t-55 -307q0 -91 43.5 -139.5t114.5 -48.5q68 0 120 48q76 72 144 258.5t68 347.5q0 90 -43.5 140.5t-110.5 50.5zM667 989q193 0 314.5 -119t121.5 -302q0 -231 -164.5 -414t-432.5 -183q-196 0 -317 118.5t-121 303.5 q0 158 81.5 300t215.5 219t302 77z" unicode="ο"/>
<glyph glyph-name="pi1" horiz-adv-x="1370" unicode="π" d="M932 813h-373l-166 -581q-20 -68 -20 -91q0 -48 64 -48h71l-27 -93h-584l27 93h76q89 0 116 94l142 492q26 91 26 119q0 45 -64 45h-71l27 93h1257l-27 -93h-112q-49 0 -76 -26t-55 -121l-137 -475q-8 -27 -8 -48q0 -64 44 -64q80 0 231 233l73 -46q-195 -325 -418 -325 q-87 0 -138 50t-51 124q0 63 21 136z"/>
<glyph glyph-name="rho" horiz-adv-x="1221" unicode="ρ" d="M722 905q-151 0 -243.5 -247t-92.5 -408q0 -98 46 -144t112 -46q145 0 238.5 241t93.5 413q0 90 -44 140.5t-110 50.5zM274 89q-116 -367 -141 -421q-114 -16 -245 -50q-44 -12 -53 -12q-16 0 -16 16q0 10 10 29q85 172 137.5 312t124.5 369q73 233 107.5 320t103 165 t175 125t235.5 47q193 0 314 -119t121 -305q0 -237 -169.5 -415.5t-415.5 -178.5q-181 0 -288 118z"/>
<glyph glyph-name="sigma1" horiz-adv-x="942" unicode="ς" d="M778 -10q0 -127 -125.5 -224t-334.5 -97q-125 0 -252 35.5t-127 112.5q0 90 97 90q58 0 136 -69q51 -45 89 -62.5t101 -17.5q90 0 146.5 41t56.5 92q0 38 -33.5 66.5t-156.5 96.5q-200 110 -247 197t-47 173q0 211 165 388t419 177q149 0 232.5 -68t83.5 -176 q0 -77 -43 -125.5t-111 -48.5q-52 0 -94.5 32t-42.5 89q0 81 94 119q37 16 37 33q0 21 -35 38.5t-84 17.5q-148 0 -244 -162.5t-96 -290.5t208 -220.5t208 -236.5z"/>
<glyph glyph-name="sigma" horiz-adv-x="1178" unicode="σ" d="M677 905q-151 0 -243.5 -247t-92.5 -408q0 -98 46.5 -144t111.5 -46q145 0 238.5 241t93.5 413q0 90 -43.5 140.5t-110.5 50.5zM889 936h398l-32 -101h-262q110 -127 110 -276q0 -223 -166 -405.5t-431 -182.5q-201 0 -319.5 121.5t-118.5 302.5q0 232 167.5 413 t424.5 181q135 0 229 -53z"/>
<glyph glyph-name="tau" horiz-adv-x="977" unicode="τ" d="M458 813h-62q-124 0 -163.5 -42t-80.5 -171h-104l92 336h930l-40 -123h-308l-169 -592q-8 -27 -8 -33q0 -79 44 -79q80 0 232 233l73 -46q-195 -325 -418 -325q-87 0 -138.5 49.5t-51.5 128.5q0 59 21 132z"/>
<glyph glyph-name="upsilon" horiz-adv-x="1182" unicode="υ" d="M120 846l28 90l435 22l-131 -451q-48 -167 -48 -264q0 -79 43.5 -118.5t96.5 -39.5q78 0 173 69.5t159 205.5t64 253q0 69 -36 141q-33 66 -33 104q0 55 39 93t106 38q142 0 142 -138q0 -188 -204.5 -534t-492.5 -346q-141 0 -228 80.5t-87 222.5q0 78 29 180l86 304 q6 20 6 30q0 58 -98 58h-49z"/>
<glyph glyph-name="phi" horiz-adv-x="1604" unicode="φ" d="M809 60q111 4 181.5 31.5t134 111.5t107.5 235.5t44 276.5q0 178 -103 178q-74 0 -125 -90t-95 -241zM782 -29q-79 -259 -99 -303q-114 -16 -246 -50q-43 -12 -52 -12q-16 0 -16 16q0 10 10 30q71 142 134 319q-445 67 -445 395q0 259 180.5 435t500.5 188l-28 -96 q-141 -26 -228.5 -118t-126 -213t-38.5 -230q0 -114 48.5 -178.5t160.5 -93.5l144 502q70 245 198 336.5t294 91.5q173 0 265.5 -91.5t92.5 -250.5q0 -248 -167 -459t-582 -218z"/>
<glyph glyph-name="chi" horiz-adv-x="1210" unicode="χ" d="M147 650l-58 42q101 297 285 297q58 0 95 -28.5t55.5 -77t57.5 -205.5l55 -216q193 357 273.5 442t178.5 85q69 0 107.5 -39.5t38.5 -106.5q0 -68 -37.5 -110.5t-91.5 -42.5q-50 0 -89 52q-22 30 -40 30q-74 0 -308 -428l134 -496q24 -90 64 -90q69 0 164 179l63 -38 q-148 -302 -327 -302q-91 0 -133.5 58.5t-83.5 219.5l-66 260q-176 -342 -262 -440t-187 -98q-72 0 -114 40.5t-42 108.5q0 64 37 107t93 43q49 0 88 -52q22 -30 40 -30q42 0 136.5 142.5t175.5 304.5l-126 465q-25 93 -59 93q-54 0 -117 -169z"/>
<glyph glyph-name="psi" horiz-adv-x="1673" unicode="ψ" d="M895 -29q-89 -282 -100 -303q-114 -16 -246 -50q-43 -12 -52 -12q-16 0 -16 16q0 10 39 90q44 91 103 259q-467 20 -467 275q0 89 46 245l62 212q14 48 14 69q0 38 -26 54t-96 16l26 91l429 23l-134 -435q-65 -214 -65 -289q0 -98 66 -134t175 -38l273 876l258 22 l-265 -898q205 25 358.5 196t153.5 358q0 68 -36 140q-33 66 -33 104q0 55 39 93t106 38q142 0 142 -139q0 -130 -95.5 -340t-265 -359.5t-393.5 -179.5z"/>
<glyph glyph-name="afii10023" horiz-adv-x="1518" unicode="Ё" d="M311 1479h1262l-109 -481h-90q16 88 16 133q0 114 -70 183.5t-178 69.5h-219q-75 0 -99 -89l-133 -487h75q127 0 203 56.5t131 199.5h88l-178 -670h-87q14 84 14 140q0 88 -51.5 135.5t-140.5 47.5h-78l-144 -528q-5 -18 -5 -35q0 -30 22.5 -45.5t79.5 -15.5h153 q205 0 345 100t227 317h91l-159 -510h-1278l27 93h76q80 0 100 74l308 1128q4 16 4 30q0 28 -19.5 43.5t-64.5 15.5h-144zM1222 1944q55 0 94 -39.5t39 -95.5q0 -55 -39 -94.5t-94 -39.5t-94.5 39t-39.5 95q0 55 40 95t94 40zM820 1944q55 0 94 -39.5t39 -95.5t-39 -95 t-94 -39q-56 0 -95 39t-39 95q0 55 40 95t94 40z"/>
<glyph glyph-name="afii10051" horiz-adv-x="1790" unicode="Ђ" d="M1126 135q37 -59 81 -59q96 0 155 218.5t59 325.5q0 135 -174 135q-139 0 -315 -115l-119 -435q-10 -38 -10 -53q0 -59 95 -59h79l-23 -93h-740l23 93h144q89 0 116 97l297 1091q7 27 7 42q0 61 -94 61q-223 0 -438 -448h-87l199 543h1254l-131 -543h-92q29 134 29 222 q0 226 -203 226q-70 0 -94.5 -23t-36.5 -69l-148 -547q175 118 388 118q367 0 367 -334q0 -203 -121.5 -380.5t-341.5 -177.5q-149 0 -211 109z"/>
<glyph glyph-name="afii10052" horiz-adv-x="1370" unicode="Ѓ" d="M774 93l-25 -93h-744l22 93h84q80 0 102 81l305 1114q6 25 6 34q0 64 -91 64h-139l25 93h1237l-86 -480h-90q7 56 7 101q0 150 -82.5 218t-211.5 68h-167q-72 0 -99 -98l-300 -1114q-4 -17 -4 -24q0 -57 93 -57h158zM874 1593l-30 26l132 189q68 97 107.5 126t81.5 29 q49 0 83.5 -33t34.5 -77q0 -71 -113 -123z"/>
<glyph glyph-name="afii10053" horiz-adv-x="1505" unicode="Є" d="M530 803h463l-17 -100h-467q-15 -96 -15 -185q0 -231 114.5 -330.5t269.5 -99.5q132 0 261 94t203 284l84 -38q-84 -231 -254.5 -344t-390.5 -113q-273 0 -444 155t-171 439q0 234 105.5 464.5t300 357.5t424.5 127q261 0 421 -174q60 33 87 112h90l-114 -558h-88 q0 201 -35 304.5t-122 158t-196 54.5q-168 0 -302.5 -156t-206.5 -452z"/>
<glyph glyph-name="afii10054" horiz-adv-x="1403" unicode="Ѕ" d="M1209 1359l115 91h87l-114 -511h-88q-4 181 -48 279t-126 152t-186 54q-134 0 -216 -73t-82 -182q0 -84 51 -132t307 -143q170 -64 238 -116.5t104.5 -130t36.5 -175.5q0 -139 -70 -254t-202 -181t-307 -66q-137 0 -240.5 37t-206.5 125l-83 -92h-92l115 531h89 q1 -184 49.5 -287.5t143.5 -160t221 -56.5q150 0 244 82t94 197q0 95 -71 152q-39 32 -277 127q-185 73 -248 120.5t-96.5 119t-33.5 170.5q0 208 140 343t362 135q111 0 204 -36t186 -119z"/>
<glyph glyph-name="afii10055" horiz-adv-x="909" unicode="І" d="M330 1479h727l-24 -95h-85q-59 0 -84.5 -17.5t-36.5 -58.5l-301 -1129q-4 -16 -4 -28q0 -28 19 -40q29 -18 86 -18h108l-24 -93h-710l25 93h80q86 0 105 74l300 1124q5 19 5 36q0 27 -20.5 42t-71.5 15h-116z"/>
<glyph glyph-name="afii10056" horiz-adv-x="909" unicode="Ї" d="M330 1479h727l-24 -95h-85q-59 0 -84.5 -17.5t-36.5 -58.5l-301 -1129q-4 -16 -4 -28q0 -28 19 -40q29 -18 86 -18h108l-24 -93h-710l25 93h80q86 0 105 74l300 1124q5 19 5 36q0 27 -20.5 42t-71.5 15h-116zM938 1944q55 0 94 -39.5t39 -95.5q0 -55 -39 -94.5t-94 -39.5 t-94.5 39t-39.5 95q0 55 40 95t94 40zM536 1944q55 0 94 -39.5t39 -95.5t-39 -95t-94 -39q-56 0 -95 39t-39 95q0 55 40 95t94 40z"/>
<glyph glyph-name="afii10057" horiz-adv-x="1366" unicode="Ј" d="M804 1479h710l-25 -95h-64q-49 0 -75 -22t-42 -81l-205 -756q-61 -228 -137.5 -333.5t-204 -163t-294.5 -57.5q-196 0 -308.5 98.5t-112.5 244.5q0 133 84 222t201 89q84 0 139.5 -51.5t55.5 -125.5q0 -72 -48 -118t-129 -46q-57 0 -113 39q-35 24 -47 24 q-16 0 -29 -16.5t-13 -46.5q0 -83 75 -146.5t189 -63.5q127 0 214.5 78.5t138.5 269.5l237 888q3 11 3 22q0 25 -20 38.5t-75 13.5h-130z"/>
<glyph glyph-name="afii10058" horiz-adv-x="2384" unicode="Љ" d="M1485 739l-148 -548q-6 -22 -6 -32q0 -37 21.5 -51.5t93.5 -14.5h142q210 0 299.5 131.5t89.5 280.5q0 111 -76 172.5t-215 61.5h-201zM1512 831h173q316 0 470.5 -104.5t154.5 -278.5q0 -209 -171 -328.5t-428 -119.5h-902l25 93h80q86 0 106 74l323 1211h-226 q-134 0 -174.5 -25t-76 -88.5t-121.5 -316.5q-210 -620 -345.5 -798.5t-311.5 -178.5q-86 0 -147.5 44t-61.5 128q0 72 43 113.5t104 41.5q133 0 152 -131q8 -49 34 -49q126 0 297.5 457t171.5 630q0 88 -49.5 134.5t-126.5 46.5h-38l23 93h1375l-24 -93h-85 q-57 0 -83 -16.5t-37 -61.5z"/>
<glyph glyph-name="afii10059" horiz-adv-x="2460" unicode="Њ" d="M1566 730l-153 -539q-6 -21 -6 -27q0 -41 20.5 -56t94.5 -15h142q195 0 289 118t94 269q0 250 -281 250h-200zM1587 822h172q285 0 455 -95.5t170 -287.5q0 -193 -164 -316t-432 -123h-912l25 93h103q72 0 95 82l142 527h-579l-141 -499q-11 -38 -11 -52q0 -58 82 -58 h132l-23 -93h-705l23 93h72q90 0 109 67l299 1097q16 57 16 80q0 49 -84 49h-131l24 93h722l-24 -93h-89q-88 0 -108 -72l-132 -492h579l123 455q9 33 9 47q0 62 -99 62h-104l23 93h718l-24 -93h-87q-59 0 -85 -25.5t-42 -88.5z"/>
<glyph glyph-name="afii10060" horiz-adv-x="1925" unicode="Ћ" d="M1398 171l65 254q21 82 21 132q0 68 -54 107.5t-141 39.5q-157 0 -375 -120l-102 -383q-9 -34 -9 -48q0 -60 95 -60h137l-24 -93h-797l23 93h144q89 0 116 97l299 1102q6 22 6 30q0 62 -98 62q-220 0 -435 -448h-87l199 543h1254l-131 -543h-92q29 133 29 222 q0 226 -203 226q-70 0 -94.5 -23t-36.5 -69l-160 -593q264 147 478 147q170 0 270.5 -77.5t100.5 -207.5q0 -52 -28 -163l-53 -208q-5 -21 -5 -34q0 -63 91 -63h117l-23 -93h-727l24 93h86q59 0 84 18t36 60z"/>
<glyph glyph-name="afii10061" horiz-adv-x="1665" unicode="Ќ" d="M994 753q115 -14 183 -68.5t101 -138t41 -333.5q3 -91 55 -91q68 0 143 158l71 -19q-105 -273 -338 -273q-120 0 -185.5 68t-65.5 191q0 53 12 156q11 96 11 127q0 191 -185 191h-154l-147 -540q-6 -22 -6 -31q0 -57 83 -57h144l-22 -93h-739l25 93h84q91 0 116 91 l300 1095q9 32 9 47q0 60 -92 60h-148l25 93h799l-25 -93h-133q-96 0 -126 -114l-123 -460h148q159 0 228.5 48t122.5 177q85 207 128.5 280t111.5 120t143 47q80 0 133 -49.5t53 -116.5q0 -65 -39 -107t-105 -42q-79 0 -127 70q-27 40 -49 40q-28 0 -52.5 -35t-86.5 -191 q-55 -137 -84.5 -179t-82.5 -74t-155 -47zM994 1593l-30 26l132 189q68 97 107.5 126t81.5 29q49 0 83.5 -33t34.5 -77q0 -71 -113 -123z"/>
<glyph glyph-name="afii10062" horiz-adv-x="1460" unicode="Ў" d="M608 1784q0 77 46.5 135.5t125.5 58.5q54 0 83.5 -36.5t29.5 -78.5q0 -77 -88 -112q-48 -19 -48 -42q0 -34 77 -51t180 -17q134 0 188.5 27t54.5 60q0 19 -22 42q-36 37 -36 75q0 48 35 89.5t103 41.5q116 0 116 -129q0 -102 -94.5 -197.5t-360.5 -95.5q-235 0 -312.5 65 t-77.5 165zM714 245l-359 1039q-24 70 -54.5 86t-64.5 16h-55l26 93h641l-25 -93h-53q-114 0 -114 -81q0 -29 14 -70l238 -704l396 639q36 59 36 112q0 48 -33 76t-129 28l27 93h515l-24 -93q-134 -4 -227 -148l-679 -1050q-88 -136 -175.5 -176.5t-182.5 -40.5 q-144 0 -218.5 62.5t-74.5 157.5q0 70 43 122.5t117 52.5t117.5 -48t43.5 -111q0 -14 -3 -32q-3 -26 -3 -36q0 -56 73 -56q71 0 121 70z"/>
<glyph glyph-name="afii10145" horiz-adv-x="1782" unicode="Џ" d="M-4 0l23 93h72q90 0 109 67l296 1084q19 69 19 87q0 55 -84 55h-131l25 93h721l-24 -93h-89q-54 0 -77 -22t-42 -90l-318 -1170h579l320 1174q10 34 10 47q0 61 -100 61h-104l23 93h718l-24 -93h-87q-56 0 -82.5 -23t-44.5 -89l-285 -1070q-12 -43 -12 -61q0 -50 83 -50 h141l-30 -93h-286q-218 0 -314.5 -29t-165 -111t-128.5 -258h-113q8 59 8 115q0 160 -54.5 221.5t-222.5 61.5h-329z"/>
<glyph glyph-name="afii10017" horiz-adv-x="1518" unicode="А" d="M871 1110l-342 -529h415zM985 1479h135l179 -1275q8 -58 38 -80q42 -31 112 -31h46l-25 -93h-680l23 93h50q79 0 107.5 19.5t28.5 59.5q0 14 -3 32l-37 266h-501l-99 -154q-41 -65 -41 -119q0 -49 32.5 -76.5t99.5 -27.5h41l-23 -93h-531l23 93q69 4 109 32 q77 53 116 113z"/>
<glyph glyph-name="afii10018" horiz-adv-x="1554" unicode="Б" d="M628 739l-149 -548q-6 -22 -6 -32q0 -37 22 -51.5t93 -14.5h169q210 0 299.5 131.5t89.5 280.5q0 111 -75.5 172.5t-214.5 61.5h-228zM-49 93h101q87 0 111 86l301 1111q5 20 5 29q0 67 -102 67h-125l25 93h1273l-86 -480h-90q7 56 7 101q0 150 -82.5 218t-211.5 68h-203 q-73 0 -99 -96l-121 -459h200q310 0 467.5 -101t157.5 -283q0 -207 -170 -327t-428 -120h-953z"/>
<glyph glyph-name="afii10019" horiz-adv-x="1554" unicode="В" d="M622 720l-143 -529q-6 -22 -6 -42q0 -28 23 -42t92 -14h169q119 0 200 44t133 140.5t52 203.5q0 111 -74.5 175t-217.5 64h-228zM649 812h199q90 0 160 31q94 42 149.5 130t55.5 200q0 123 -77 176q-54 37 -198 37q-84 0 -113 -17t-42 -65zM264 1479h858q203 0 311.5 -89 t108.5 -229q0 -148 -111.5 -249t-369.5 -134q202 -17 307 -111.5t105 -240.5q0 -132 -81 -233q-59 -75 -202.5 -134t-308.5 -59h-953l23 93h101q88 0 111 86l301 1112q5 19 5 37q0 26 -22 41t-80 15h-125z"/>
<glyph glyph-name="afii10020" horiz-adv-x="1370" unicode="Г" d="M774 93l-25 -93h-744l22 93h84q80 0 102 81l305 1114q6 25 6 34q0 64 -91 64h-139l25 93h1237l-86 -480h-90q7 56 7 101q0 150 -82.5 218t-211.5 68h-167q-72 0 -99 -98l-300 -1114q-4 -17 -4 -24q0 -57 93 -57h158z"/>
<glyph glyph-name="afii10021" horiz-adv-x="1657" unicode="Д" d="M1291 1386h-226q-105 0 -144.5 -14t-74 -54.5t-73.5 -152.5l-82 -238q-113 -335 -186 -487t-146 -229.5t-141 -106.5h733zM1289 -373q18 74 18 165q0 130 -60 169t-205 39h-624q-151 0 -225.5 -24t-158 -113.5t-158.5 -235.5h-95l165 477q95 2 164 30.5t138.5 104.5 t160.5 266t159 436t68 322q0 123 -110 123h-81l24 93h1347l-22 -93h-101q-93 0 -119 -98l-293 -1105q-4 -15 -4 -20q0 -70 81 -70h137l-112 -466h-94z"/>
<glyph glyph-name="afii10022" horiz-adv-x="1518" unicode="Е" d="M311 1479h1262l-109 -481h-90q16 88 16 133q0 114 -70 183.5t-178 69.5h-219q-75 0 -99 -89l-133 -487h75q127 0 203 56.5t131 199.5h88l-178 -670h-87q14 84 14 140q0 88 -51.5 135.5t-140.5 47.5h-78l-144 -528q-5 -18 -5 -35q0 -30 22.5 -45.5t79.5 -15.5h153 q205 0 345 100t227 317h91l-159 -510h-1278l27 93h76q80 0 100 74l308 1128q4 16 4 30q0 28 -19.5 43.5t-64.5 15.5h-144z"/>
<glyph glyph-name="afii10024" horiz-adv-x="2316" unicode="Ж" d="M691 93h84q90 0 116 91l152 537h-131q-90 0 -153.5 -38t-106.5 -112.5t-115 -259.5q-51 -131 -85 -193t-93.5 -96t-145.5 -34q-119 0 -184.5 58.5t-92.5 215.5l80 18q25 -159 72 -159q33 0 80 94q115 226 182.5 318t169 152.5t235.5 79.5q-80 36 -105 93t-25 142 q0 36 9 164q3 97 3 103q0 72 -39 72q-28 0 -54 -63q-34 -85 -123 -85q-54 0 -90.5 37t-36.5 93q0 70 56 131.5t156 61.5q89 0 154.5 -58t65.5 -190q0 -24 -3 -68q-7 -129 -7 -190q0 -124 47 -164.5t155 -40.5h144l127 469q8 31 8 50q0 64 -89 64h-148l25 93h799l-25 -93 h-134q-93 0 -125 -116l-125 -467h99q166 0 225.5 29.5t91.5 67t122 262.5q57 144 95 207.5t99.5 104t132.5 40.5q77 0 131.5 -49t54.5 -120q0 -65 -39.5 -107t-104.5 -42q-79 0 -127 69q-28 41 -49 41q-31 0 -55.5 -42.5t-69.5 -161.5q-78 -208 -134 -266.5t-202 -82.5 q114 -14 183 -69t101.5 -139t40.5 -332q3 -91 55 -91q68 0 142 158l72 -18q-105 -274 -338 -274q-120 0 -186 68t-66 191q0 53 13 156q11 96 11 127q0 191 -187 191h-133l-151 -553q-3 -12 -3 -19q0 -56 84 -56h144l-22 -93h-739z"/>
<glyph glyph-name="afii10025" horiz-adv-x="1436" unicode="З" d="M341 1042h-84l106 456h83q41 -61 71 -96q178 112 371 112q227 0 380.5 -92t153.5 -256q0 -136 -110 -243t-389 -145q67 0 177 -37t172.5 -119t62.5 -197q0 -216 -203.5 -335t-480.5 -119q-211 0 -366.5 84t-233.5 339l83 27q43 -130 84 -193.5t136 -110.5t212 -47 q203 0 320.5 118.5t117.5 293.5q0 116 -78 177t-214 61h-195l27 92h184q176 0 270.5 109.5t94.5 252.5q0 133 -77 190t-190 57q-117 0 -228 -65t-257 -314z"/>
<glyph glyph-name="afii10026" horiz-adv-x="1796" unicode="И" d="M1351 1054l-807 -767l-30 -112q-5 -17 -5 -24q0 -58 82 -58h132l-23 -93h-705l23 93h72q90 0 109 67l308 1127q6 25 6 38q0 61 -83 61h-131l24 93h722l-25 -93h-88q-89 0 -108 -72l-222 -831l797 761l13 41q7 26 7 39q0 62 -99 62h-104l23 93h717l-23 -93h-88 q-56 0 -82.5 -23.5t-44.5 -90.5l-297 -1112q-3 -11 -3 -16q0 -51 86 -51h121l-25 -93h-709l24 93h105q71 0 93 82z"/>
<glyph glyph-name="afii10027" horiz-adv-x="1796" unicode="Й" d="M803 1783q0 83 47.5 138t122.5 55q53 0 83.5 -34t30.5 -75q0 -78 -88 -116q-48 -21 -48 -41q0 -36 80 -52.5t177 -16.5q243 0 243 89q0 18 -21 39q-37 37 -37 76q0 57 37.5 94t100.5 37q116 0 116 -129q0 -103 -95 -198t-360 -95q-228 0 -308.5 63.5t-80.5 165.5z M1351 1054l-807 -767l-30 -112q-5 -17 -5 -24q0 -58 82 -58h132l-23 -93h-705l23 93h72q90 0 109 67l308 1127q6 25 6 38q0 61 -83 61h-131l24 93h722l-25 -93h-88q-89 0 -108 -72l-222 -831l797 761l13 41q7 26 7 39q0 62 -99 62h-104l23 93h717l-23 -93h-88 q-56 0 -82.5 -23.5t-44.5 -90.5l-297 -1112q-3 -11 -3 -16q0 -51 86 -51h121l-25 -93h-709l24 93h105q71 0 93 82z"/>
<glyph glyph-name="afii10028" horiz-adv-x="1665" unicode="К" d="M994 753q115 -14 183 -68.5t101 -138t41 -333.5q3 -91 55 -91q68 0 143 158l71 -19q-105 -273 -338 -273q-120 0 -185.5 68t-65.5 191q0 53 12 156q11 96 11 127q0 191 -185 191h-154l-147 -540q-6 -22 -6 -31q0 -57 83 -57h144l-22 -93h-739l25 93h84q91 0 116 91 l300 1095q9 32 9 47q0 60 -92 60h-148l25 93h799l-25 -93h-133q-96 0 -126 -114l-123 -460h148q159 0 228.5 48t122.5 177q85 207 128.5 280t111.5 120t143 47q80 0 133 -49.5t53 -116.5q0 -65 -39 -107t-105 -42q-79 0 -127 70q-27 40 -49 40q-28 0 -52.5 -35t-86.5 -191 q-55 -137 -84.5 -179t-82.5 -74t-155 -47z"/>
<glyph glyph-name="afii10029" horiz-adv-x="1706" unicode="Л" d="M490 1479h1375l-24 -93h-85q-57 0 -82.5 -16.5t-37.5 -61.5l-298 -1118q-8 -27 -8 -38q0 -59 106 -59h107l-24 -93h-710l25 93h80q86 0 106 74l323 1211h-226q-153 0 -188.5 -34t-59.5 -71t-124 -325q-229 -665 -362.5 -821t-294.5 -156q-86 0 -147.5 44t-61.5 128 q0 72 43 113.5t104 41.5q133 0 152 -131q8 -49 34 -49q125 0 297 458.5t172 629.5q0 85 -47.5 132.5t-128.5 47.5h-38z"/>
<glyph glyph-name="afii10030" horiz-adv-x="1933" unicode="М" d="M299 1479h535l108 -1074l674 1074h486l-26 -95h-60q-112 0 -135 -91l-287 -1117q-3 -13 -3 -25q0 -27 18 -40q23 -18 62 -18h132l-26 -93h-722l22 93h90q100 0 122 83l283 1037l-757 -1213h-119l-125 1204l-234 -862q-13 -48 -13 -89q0 -152 194 -160l-24 -93h-545l25 93 q85 6 142 61q78 77 108 188l259 951q6 19 6 34q0 27 -20.5 42t-69.5 15h-125z"/>
<glyph glyph-name="afii10031" horiz-adv-x="1782" unicode="Н" d="M324 1479h722l-24 -95h-90q-88 0 -107 -70l-132 -491h579l130 477q3 12 3 23q0 28 -23 44.5t-77 16.5h-104l23 95h718l-24 -95h-87q-55 0 -82.5 -23t-44.5 -89l-297 -1112q-2 -8 -2 -15q0 -24 17 -35q26 -17 68 -17h121l-25 -93h-710l25 93h103q72 0 95 82l142 527h-579 l-147 -527q-3 -12 -3 -23q0 -28 19.5 -43.5t60.5 -15.5h132l-23 -93h-705l23 93h72q43 0 72 19.5t37 47.5l315 1154q4 14 -2.5 32t-27 28t-54.5 10h-131z"/>
<glyph glyph-name="afii10032" horiz-adv-x="1706" unicode="О" d="M1076 1418q-168 0 -304 -130t-230 -435q-74 -240 -74 -433q0 -174 81 -265t221 -91q163 0 297.5 128.5t218 406.5t83.5 458q0 177 -79.5 269t-213.5 92zM1073 1514q282 0 452 -165.5t170 -430.5q0 -226 -101 -434q-115 -238 -341.5 -375.5t-493.5 -137.5 q-311 0 -465 181.5t-154 427.5q0 193 101 411.5t327 370.5t505 152z"/>
<glyph glyph-name="afii10033" horiz-adv-x="1782" unicode="П" d="M324 1479h1618l-24 -93h-87q-55 0 -82 -22.5t-45 -91.5l-282 -1049q-17 -63 -17 -84q0 -46 85 -46h121l-25 -93h-710l25 93h103q72 0 95 82l328 1198h-580l-332 -1198q-5 -17 -5 -24q0 -58 82 -58h132l-23 -93h-705l23 93h72q90 0 109 67l297 1089q18 67 18 91 q0 46 -84 46h-131z"/>
<glyph glyph-name="afii10034" horiz-adv-x="1518" unicode="Р" d="M664 753q84 -14 148 -14q152 0 244 46.5t146 147t54 230.5q0 110 -68 165.5t-231 55.5q-76 0 -105 -19.5t-45 -76.5zM300 1479h772q262 0 383.5 -99t121.5 -274q0 -201 -165.5 -329t-517.5 -128q-93 0 -255 16l-130 -486q-4 -15 -4 -28q0 -29 20.5 -43.5t75.5 -14.5h116 l-25 -93h-722l23 93h83q92 0 112 72l308 1132q6 20 6 33q0 26 -24 40t-98 14h-104z"/>
<glyph glyph-name="afii10035" horiz-adv-x="1554" unicode="С" d="M1441 1340q59 35 87 112h90l-114 -558h-88q-1 218 -39 314.5t-120 149.5t-194 53q-124 0 -242.5 -96t-210.5 -325t-92 -475q0 -143 45 -233.5t135 -142t201 -51.5q142 0 266 94.5t201 283.5l84 -38q-86 -227 -251.5 -342t-394.5 -115q-284 0 -449 160.5t-165 430.5 q0 263 115.5 490t303 344.5t406.5 117.5q136 0 237 -41t189 -133z"/>
<glyph glyph-name="afii10036" horiz-adv-x="1479" unicode="Т" d="M381 1479h1254l-131 -540h-92q29 135 29 218q0 116 -51.5 171.5t-153.5 55.5q-61 0 -88 -20t-41 -72l-301 -1111q-3 -13 -3 -28q0 -28 22.5 -44t72.5 -16h137l-24 -93h-797l23 93h144q89 0 116 97l299 1102q5 15 5 30q0 31 -21.5 46.5t-72.5 15.5q-101 0 -191 -81 q-127 -115 -247 -364h-87z"/>
<glyph glyph-name="afii10037" horiz-adv-x="1460" unicode="У" d="M714 245l-359 1039q-24 70 -54.5 86t-64.5 16h-55l26 93h641l-25 -93h-53q-114 0 -114 -81q0 -29 14 -70l238 -704l396 639q36 59 36 112q0 48 -33 76t-129 28l27 93h515l-24 -93q-134 -4 -227 -148l-679 -1050q-88 -136 -175.5 -176.5t-182.5 -40.5q-144 0 -218.5 62.5 t-74.5 157.5q0 70 43 122.5t117 52.5t117.5 -48t43.5 -111q0 -14 -3 -32q-3 -26 -3 -36q0 -56 73 -56q71 0 121 70z"/>
<glyph glyph-name="afii10038" horiz-adv-x="1860" unicode="Ф" d="M1283 1197l-243 -915h89q123 0 235 79.5t167 262.5t55 335q0 106 -60 172t-182 66h-61zM722 282l243 915h-88q-228 0 -342.5 -206t-114.5 -425q0 -118 59.5 -201t181.5 -83h61zM992 1290q6 21 6 36q0 60 -92 60h-116l23 93h726l-24 -93h-85q-58 0 -85.5 -18.5 t-38.5 -77.5h43q250 0 390 -125.5t140 -337.5q0 -194 -113.5 -356.5t-298 -222t-360.5 -59.5h-96q-7 -24 -7 -37q0 -59 104 -59h109l-24 -93h-710l25 93h80q93 0 111 96h-44q-243 0 -386 125t-143 340q0 248 194 442t579 194h93z"/>
<glyph glyph-name="afii10039" horiz-adv-x="1518" unicode="Х" d="M299 1479h675l-22 -95h-46q-60 0 -84.5 -16.5t-24.5 -42.5q0 -22 9 -43l146 -343l261 275q46 49 46 94q0 36 -24 56t-74 20h-42l20 95h550l-24 -95q-77 -1 -128.5 -25t-111.5 -87l-430 -447l256 -611q21 -48 42 -69q30 -29 66 -43q25 -9 91 -9l-25 -93h-670l26 93h57 q65 0 94.5 19.5t29.5 47.5q0 11 -10 33l-171 413l-292 -314q-49 -53 -49 -104q0 -41 34.5 -67t118.5 -28l-24 -93h-599l24 93q157 12 271 132l472 491l-248 589q-17 41 -51 60t-100 19h-64z"/>
<glyph glyph-name="afii10040" horiz-adv-x="1782" unicode="Ц" d="M-4 0l23 93h72q90 0 109 67l297 1090q18 67 18 89q0 47 -84 47h-131l24 93h722l-24 -93h-89q-88 0 -108 -72l-328 -1210h578l322 1179q8 29 8 41q0 62 -100 62h-104l23 93h718l-24 -93h-87q-56 0 -82.5 -23t-44.5 -91l-293 -1095q-6 -24 -6 -34q0 -50 85 -50h286 l-139 -478h-90q20 130 20 182q0 71 -37 121t-99.5 66t-170.5 16h-1264z"/>
<glyph glyph-name="afii10041" horiz-adv-x="1651" unicode="Ч" d="M884 1386h-85q-58 0 -83.5 -17t-36.5 -61l-65 -253q-23 -89 -23 -130q0 -62 50 -106t152 -44q141 0 362 116l103 378q11 41 11 61q0 56 -91 56h-117l23 93h727l-25 -93h-85q-57 0 -82.5 -16.5t-37.5 -61.5l-299 -1119q-7 -26 -7 -38q0 -58 106 -58h107l-23 -93h-711 l25 93h80q86 0 106 74l165 613q-265 -146 -475 -146q-173 0 -274 78.5t-101 189.5q0 65 29 180l53 209q5 20 5 34q0 61 -92 61h-116l23 93h726z"/>
<glyph glyph-name="afii10042" horiz-adv-x="2456" unicode="Ш" d="M-4 0l23 93h72q90 0 111 77l302 1102q11 39 11 60q0 54 -84 54h-131l24 93h709l-23 -93h-77q-88 0 -108 -72l-331 -1221h473l318 1198q6 19 6 33q0 62 -92 62h-62l23 93h637l-24 -93h-50q-58 0 -83.5 -16.5t-37.5 -61.5l-324 -1215h468l324 1190q8 29 8 41q0 62 -100 62 h-78l23 93h692l-24 -93h-87q-56 0 -82.5 -23t-44.5 -91l-292 -1092q-7 -27 -7 -36q0 -51 84 -51h108l-28 -93h-2246z"/>
<glyph glyph-name="afii10043" horiz-adv-x="2458" unicode="Щ" d="M-5 0l23 93h72q90 0 109 67l284 1046q30 107 30 126q0 54 -83 54h-131l24 93h691l-24 -93h-58q-88 0 -108 -72l-331 -1221h473l318 1198q6 19 6 33q0 62 -92 62h-80l23 93h661l-24 -93h-56q-58 0 -83.5 -16.5t-37.5 -61.5l-324 -1215h472l328 1207q5 17 5 24 q0 62 -101 62h-77l24 93h689l-23 -93h-88q-55 0 -81.5 -23t-44.5 -91l-294 -1100q-5 -19 -5 -28q0 -51 84 -51h287l-139 -478h-91q2 21 10 67q11 70 11 107q0 96 -58 153.5t-249 57.5h-1941z"/>
<glyph glyph-name="afii10044" horiz-adv-x="1960" unicode="Ъ" d="M1034 739l-149 -548q-6 -22 -6 -27q0 -41 20.5 -56t94.5 -15h169q209 0 299 130.5t90 287.5q0 101 -74.5 164.5t-216.5 63.5h-227zM1475 1479l-27 -93h-168q-74 0 -99 -96l-121 -459h200q313 0 469 -102t156 -282q0 -207 -170.5 -327t-428.5 -120h-952l23 93h101 q87 0 111 86l301 1111q5 20 5 27q0 36 -20.5 52.5t-81.5 16.5h-46q-252 0 -461 -435l-84 33l169 495h1124z"/>
<glyph glyph-name="afii10045" horiz-adv-x="2370" unicode="Ы" d="M696 739l-149 -548q-6 -22 -6 -32q0 -37 22 -51.5t93 -14.5h169q210 0 299.5 131t89.5 285q0 104 -74.5 167t-215.5 63h-228zM1110 1386h-168q-73 0 -99 -96l-121 -459h200q316 0 470.5 -102.5t154.5 -281.5q0 -206 -170 -326.5t-428 -120.5h-953l23 93h101q87 0 111 86 l301 1111q5 20 5 27q0 36 -20.5 52.5t-81.5 16.5h-125l25 93h802zM1802 1479h727l-24 -95h-85q-59 0 -84.5 -17.5t-36.5 -58.5l-301 -1129q-4 -16 -4 -28q0 -28 19 -40q29 -18 86 -18h108l-24 -93h-710l25 93h80q86 0 105 74l300 1124q5 19 5 36q0 27 -20.5 42t-71.5 15 h-116z"/>
<glyph glyph-name="afii10046" horiz-adv-x="1622" unicode="Ь" d="M696 739l-149 -548q-6 -22 -6 -32q0 -37 22 -51.5t93 -14.5h169q210 0 299.5 131t89.5 285q0 104 -74.5 167t-215.5 63h-228zM1110 1386h-168q-73 0 -99 -96l-121 -459h200q316 0 470.5 -102.5t154.5 -281.5q0 -206 -170 -326.5t-428 -120.5h-953l23 93h101q87 0 111 86 l301 1111q5 20 5 27q0 36 -20.5 52.5t-81.5 16.5h-125l25 93h802z"/>
<glyph glyph-name="afii10047" horiz-adv-x="1444" unicode="Э" d="M1055 703h-458l26 100h455q40 154 40 292q0 146 -88 234t-223 88q-163 0 -302.5 -126.5t-231.5 -368.5h-92l184 592h75l45 -128q184 128 368 128q233 0 407 -147.5t174 -415.5q0 -378 -259.5 -679t-644.5 -301q-262 0 -378.5 142.5t-116.5 314.5q0 30 7 89h90 q-3 -43 -3 -64q0 -159 93 -272t262 -113q201 0 331.5 145.5t239.5 489.5z"/>
<glyph glyph-name="afii10048" horiz-adv-x="2445" unicode="Ю" d="M2108 1057q0 173 -78.5 267t-214.5 94q-289 0 -448.5 -346.5t-159.5 -651.5q0 -169 78.5 -262.5t223.5 -93.5q176 0 308.5 140t211.5 411.5t79 441.5zM660 702l-123 -462q-20 -75 -20 -94q0 -53 105 -53h108l-24 -93h-710l25 93h80q86 0 105 74l294 1104q11 39 11 56 q0 59 -92 59h-116l22 93h727l-24 -93h-85q-58 0 -83.5 -17t-37.5 -61l-131 -485h218q118 334 365 512.5t538 178.5q287 0 454.5 -167.5t167.5 -428.5q0 -213 -98.5 -429t-323.5 -367t-503 -151q-299 0 -462.5 169.5t-163.5 437.5q0 51 6 124h-229z"/>
<glyph glyph-name="afii10049" horiz-adv-x="1620" unicode="Я" d="M1090 803l124 463q11 40 11 61q0 36 -34 47.5t-153 11.5q-174 0 -260.5 -104t-86.5 -236q0 -123 76 -183t198 -60h125zM735 730q-190 37 -282.5 142.5t-92.5 220.5q0 111 71 207t199 137.5t393 41.5h757l-25 -93h-111q-82 0 -105 -89l-293 -1095q-10 -36 -10 -50 q0 -59 71 -59h117l-25 -93h-749l25 93h134q91 0 117 97l134 508h-154q-122 0 -176.5 -48t-115.5 -202q-123 -306 -202 -383t-197 -77q-111 0 -177.5 50t-101.5 227l84 15q21 -107 37 -125.5t37 -18.5q25 0 44 23t66 114q87 171 149.5 251.5t154.5 131t227 74.5z"/>
<glyph glyph-name="afii10065" horiz-adv-x="1366" unicode="а" d="M725 849q-122 0 -219.5 -171t-97.5 -392q0 -103 31 -145.5t89 -42.5q61 0 131 61.5t124 206t54 307.5q0 97 -29.5 136.5t-82.5 39.5zM894 795l54 144l256 19l-198 -714q-20 -73 -20 -93q0 -15 6.5 -23t19.5 -8q74 0 192 233l75 -41q-175 -341 -382 -341q-71 0 -110 43.5 t-46 129.5q-76 -96 -147.5 -134.5t-151.5 -38.5q-137 0 -226 98.5t-89 269.5q0 164 79.5 314t204.5 233.5t256 83.5q90 0 145 -42t82 -133z"/>
<glyph glyph-name="afii10066" horiz-adv-x="1161" unicode="б" d="M819 714q0 94 -45 142.5t-109 48.5q-150 0 -243 -246t-93 -414q0 -95 47 -140t111 -45q145 0 238.5 241t93.5 413zM1188 1498h94q-59 -172 -121.5 -238.5t-145 -82.5t-331.5 -18q-96 -1 -153 -11t-118 -55t-108.5 -118.5t-128.5 -301.5q128 206 234.5 261t237.5 55 q203 0 323 -120.5t120 -303.5q0 -231 -167 -412.5t-430 -181.5q-190 0 -308.5 117t-118.5 339q0 194 86.5 428.5t180 347t214 159.5t298.5 47l162 -1q152 0 180 90z"/>
<glyph glyph-name="afii10067" horiz-adv-x="1092" unicode="в" d="M365 397q-8 -62 -8 -101q0 -116 50.5 -179.5t126.5 -63.5q71 0 128.5 60.5t57.5 162.5q0 80 -38.5 126.5t-99.5 46.5q-63 0 -217 -52zM377 494q238 52 304.5 132t66.5 164q0 42 -25 74t-73 32q-92 0 -166 -113.5t-107 -288.5zM695 526q106 0 166 -14.5t104 -66.5t44 -121 q0 -123 -141.5 -238t-377.5 -115q-239 0 -333.5 115t-94.5 257q0 256 199 451t490 195q136 0 203.5 -54t67.5 -129q0 -81 -87.5 -157t-239.5 -123z"/>
<glyph glyph-name="afii10068" horiz-adv-x="936" unicode="г" d="M196 740l-51 63q226 186 477 186q295 0 295 -211q0 -68 -48 -132t-274 -156q-197 -79 -265 -134t-68 -133q0 -62 42.5 -102t123.5 -40q149 0 320 175l69 -48q-175 -162 -294 -199.5t-232 -37.5q-136 0 -214.5 55t-78.5 155q0 113 76.5 178.5t267.5 128.5 q181 60 240 113.5t59 140.5q0 53 -39.5 91.5t-112.5 38.5q-112 0 -293 -132z"/>
<glyph glyph-name="afii10069" horiz-adv-x="1196" unicode="д" d="M826 676q0 178 -140 178q-135 0 -235.5 -213t-100.5 -394q0 -186 135 -186q144 0 242.5 228t98.5 387zM430 1529q364 -25 541.5 -201.5t177.5 -450.5q0 -221 -92 -457.5t-246.5 -342.5t-332.5 -106q-192 0 -302 109t-110 289q0 234 160.5 422.5t388.5 188.5 q233 0 278 -190q18 84 18 150q0 191 -100.5 322t-411.5 162z"/>
<glyph glyph-name="afii10070" horiz-adv-x="1063" unicode="е" d="M384 452q171 33 249 106q107 101 107 227q0 52 -24.5 81.5t-61.5 29.5q-74 0 -138 -89q-94 -129 -132 -355zM372 369q-4 -38 -4 -63q0 -106 52 -163t139 -57q73 0 143.5 35t172.5 139l67 -52q-117 -129 -229.5 -183t-242.5 -54q-184 0 -289.5 105.5t-105.5 286.5 q0 161 88 308.5t240.5 232.5t328.5 85q129 0 200 -62t71 -157q0 -79 -57 -158.5t-185 -138t-389 -104.5z"/>
<glyph glyph-name="afii10072" horiz-adv-x="2245" unicode="ж" d="M1271 543h129q81 229 218 337.5t289 108.5q131 0 214.5 -71.5t83.5 -171.5q0 -86 -49.5 -130t-107.5 -44q-56 0 -91.5 36t-35.5 82q0 77 88 125q29 16 29 32q0 23 -29.5 38.5t-65.5 15.5q-119 0 -211.5 -166t-92.5 -401q0 -134 53.5 -189.5t116.5 -55.5q45 0 98.5 29 t160.5 161l63 -54q-178 -254 -402 -254q-148 0 -251.5 103t-103.5 280q0 29 4 86h-133l-125 -440l-255 -9l124 449h-135q-84 -246 -221 -357.5t-294 -111.5q-127 0 -212.5 70.5t-85.5 174.5q0 85 49 129.5t108 44.5q55 0 91 -36t36 -82q0 -68 -79 -119q-38 -24 -38 -39 q0 -20 28.5 -36.5t65.5 -16.5q119 0 212.5 165.5t93.5 401.5q0 134 -53.5 190t-117.5 56q-45 0 -98 -29.5t-160 -160.5l-64 54q180 251 400 251q146 0 253 -100t107 -291q0 -18 -2 -55h145l102 401l258 14z"/>
<glyph glyph-name="afii10073" horiz-adv-x="1083" unicode="з" d="M386 445l26 97q162 0 228.5 66.5t66.5 141.5q0 57 -45.5 92.5t-114.5 35.5q-179 0 -352 -165l-67 65q198 211 493 211q169 0 265 -57.5t96 -161.5q0 -94 -84.5 -172t-269.5 -102q151 -2 234.5 -58t83.5 -150q0 -139 -140.5 -228t-393.5 -89q-195 0 -296 67t-101 176 q0 70 43 113t107 43q55 0 92 -36.5t37 -85.5q0 -55 -52 -92q-29 -20 -29 -38q0 -67 167 -67q135 0 209 65.5t74 176.5q0 55 -34.5 104.5t-164.5 49.5q-22 0 -78 -2z"/>
<glyph glyph-name="afii10074" horiz-adv-x="1403" unicode="и" d="M643 958l-197 -600q-35 -106 -35 -155q0 -44 19 -65.5t53 -21.5q85 0 207 127.5t205 378.5l104 317h265l-234 -721q-15 -47 -15 -71q0 -18 7 -27t21 -9q80 0 208 233l75 -33q-93 -189 -190.5 -264.5t-204.5 -75.5q-81 0 -123.5 43t-42.5 126q0 39 12 92 q-193 -254 -427 -254q-96 0 -149 54t-53 146q0 83 42 211l122 378q4 11 4 22q0 27 -25 43.5t-86 16.5h-53l26 90z"/>
<glyph glyph-name="afii10075" horiz-adv-x="1403" unicode="й" d="M1174 1361l59 -52q-64 -102 -179 -158.5t-218 -56.5q-113 0 -179.5 51t-66.5 134q0 61 41 103t103 42q55 0 91 -31t36 -87q0 -40 -31 -78q-9 -11 -9 -17q0 -26 55 -26q157 0 298 176zM643 958l-197 -600q-35 -106 -35 -155q0 -44 19 -65.5t53 -21.5q85 0 207 127.5 t205 378.5l104 317h265l-234 -721q-15 -47 -15 -71q0 -18 7 -27t21 -9q80 0 208 233l75 -33q-93 -189 -190.5 -264.5t-204.5 -75.5q-81 0 -123.5 43t-42.5 126q0 39 12 92q-193 -254 -427 -254q-96 0 -149 54t-53 146q0 83 42 211l122 378q4 11 4 22q0 27 -25 43.5t-86 16.5 h-53l26 90z"/>
<glyph glyph-name="afii10076" horiz-adv-x="1327" unicode="к" d="M487 461l-131 -461l-266 -9l214 740q13 45 13 59q0 56 -110 56h-58l28 90l437 22l-107 -411h68q123 0 174 45.5t125 183.5q58 110 109 154t143 44q81 0 129.5 -46t48.5 -122q0 -67 -36.5 -104.5t-88.5 -37.5q-50 0 -86.5 27t-36.5 76q0 15 4 38q2 13 2 20q0 30 -23 30 q-17 0 -37 -27t-78 -136q-62 -118 -108 -148t-103 -43q143 -31 188.5 -78t59.5 -173q10 -95 19 -120.5t29 -25.5q15 0 31 14t54 104l78 -19q-37 -122 -98 -173t-171 -51q-88 0 -136 39.5t-58 184.5q-8 120 -19 163.5t-47 69t-98 25.5h-58z"/>
<glyph glyph-name="afii10077" horiz-adv-x="1448" unicode="л" d="M1374 311q-164 -340 -398 -340q-163 0 -163 170q0 55 18 114l181 588h-167q-94 0 -135.5 -34t-82.5 -151q-98 -283 -163.5 -423t-146.5 -202t-177 -62q-80 0 -134 38.5t-54 114.5q0 62 38.5 100t89.5 38q88 0 116 -93q18 -61 43 -61q41 0 93 74t121 266.5t69 305.5 q0 89 -107 89h-25l25 93h897l-235 -718q-15 -47 -15 -71q0 -36 28 -36q80 0 208 233z"/>
<glyph glyph-name="afii10078" horiz-adv-x="1833" unicode="м" d="M809 0h-89l-30 895q-187 -628 -294 -776t-255 -148q-83 0 -136 39t-53 114q0 59 38 98.5t91 39.5q51 0 76.5 -25t44.5 -88q12 -41 38 -41q78 0 179.5 258t101.5 381q0 96 -106 96h-25l25 93h498l21 -600l411 600h352l-234 -718q-15 -47 -15 -71q0 -36 28 -36 q80 0 208 233l75 -33q-163 -340 -397 -340q-164 0 -164 171q0 55 26 137l195 616z"/>
<glyph glyph-name="afii10079" horiz-adv-x="1403" unicode="н" d="M830 437h-347l-127 -437l-266 -9l218 751q9 33 9 47q0 57 -110 57h-58l28 90l437 22l-111 -418h367l131 396h265l-234 -718q-15 -47 -15 -71q0 -36 28 -36q80 0 208 233l76 -33q-164 -340 -398 -340q-164 0 -164 163q0 93 63 303z"/>
<glyph glyph-name="afii10080" d="M677 905q-78 0 -140 -67q-86 -92 -141 -283t-55 -307q0 -91 43.5 -139.5t114.5 -48.5q68 0 120 48q76 72 144 258.5t68 347.5q0 90 -43.5 140.5t-110.5 50.5zM667 989q193 0 314.5 -119t121.5 -302q0 -231 -164.5 -414t-432.5 -183q-196 0 -317 118.5t-121 303.5 q0 158 81.5 300t215.5 219t302 77z" unicode="о"/>
<glyph glyph-name="afii10081" horiz-adv-x="1403" unicode="п" d="M1248 355l81 -25q-74 -182 -173 -266.5t-202 -84.5q-86 0 -134 46.5t-48 125.5q0 70 52 224q76 230 89 283.5t13 86.5q0 37 -18.5 58t-46.5 21q-51 0 -108 -41q-95 -66 -180 -199t-127 -274l-90 -310l-266 -9l224 772q3 12 3 23q0 29 -23 44.5t-87 15.5h-58l28 93l437 19 l-73 -281q220 293 429 293q95 0 155.5 -61t60.5 -153q0 -74 -32 -176l-106 -337q-25 -79 -25 -100q0 -15 7.5 -22.5t21.5 -7.5q34 0 72 40q64 69 124 202z"/>
<glyph glyph-name="afii10082" horiz-adv-x="1327" unicode="р" d="M785 835q-59 0 -118 -52q-82 -72 -146 -226t-64 -278q0 -84 39 -127.5t103 -43.5q124 0 223 184.5t99 360.5q0 90 -37.5 136t-98.5 46zM564 773q82 107 162.5 152t173.5 45q134 0 223 -95.5t89 -255.5q0 -229 -148 -422q-169 -219 -400 -219q-97 0 -166 45t-101 127 l-95 -336q-8 -25 -8 -38q0 -32 21 -47.5t82 -15.5h62l-29 -94h-610l28 94h76q45 0 72 23.5t43 77.5l274 953q3 11 3 21q0 29 -21.5 45t-69.5 16h-76l28 90l435 19z"/>
<glyph glyph-name="afii10083" horiz-adv-x="1100" unicode="с" d="M893 265l69 -54q-95 -117 -216 -178.5t-251 -61.5q-181 0 -289 107t-108 284q0 161 85.5 311t222.5 233t295 83q151 0 232.5 -69t81.5 -175q0 -79 -44 -126.5t-110 -47.5q-60 0 -98.5 35.5t-38.5 89.5q0 37 19 62t90 63q22 11 22 23q0 18 -27 34q-37 22 -91 22 q-131 0 -225 -134q-119 -170 -119 -430q0 -124 53.5 -185.5t140.5 -61.5q150 0 306 176z"/>
<glyph glyph-name="afii10084" horiz-adv-x="1933" unicode="т" d="M1118 708q94 134 199.5 198t207.5 64t158.5 -54.5t56.5 -146.5q0 -70 -24 -146l-140 -431q-4 -15 -4 -29q0 -32 27 -32q65 0 195 216l70 -46q-181 -321 -390 -321q-76 0 -118.5 44t-42.5 128q0 40 14 84l119 366q33 101 33 148q0 37 -20.5 59.5t-51.5 22.5 q-48 0 -104 -39q-77 -54 -149 -175t-117 -271l-103 -347l-265 -7l184 630q17 61 17 117q0 45 -20 69.5t-52 24.5q-77 0 -185.5 -119t-171.5 -336l-108 -379l-267 -7l217 754q6 22 6 39q0 29 -23.5 45t-86.5 16h-45l26 92l428 19l-64 -244q116 147 208.5 201.5t186.5 54.5 q96 0 150.5 -52t54.5 -139q0 -25 -6 -71z"/>
<glyph glyph-name="afii10085" horiz-adv-x="1063" unicode="у" d="M675 284q85 123 131.5 239.5t46.5 159.5q0 24 -16 67q-32 79 -32 118q0 55 32 88t84 33q51 0 82 -33t31 -87q0 -103 -108 -325q-148 -304 -332 -543t-327 -328q-107 -67 -205 -67q-89 0 -143 46t-54 114q0 59 38 97t97 38q50 0 81 -35t32 -102q0 -29 7 -39t21 -10 q25 0 73 24t116 91q88 88 153 178l-51 231q-71 322 -95 396q-40 127 -78 164q-19 18 -37 18q-25 0 -48.5 -26t-66.5 -135l-78 33q120 300 293 300q94 0 158 -97q80 -122 195 -608z"/>
<glyph glyph-name="afii10086" horiz-adv-x="1843" unicode="ф" d="M1499 671q0 173 -120 173q-129 0 -238.5 -201t-109.5 -372q0 -85 40.5 -127.5t102.5 -42.5q119 0 222 199.5t103 370.5zM383 282q0 -173 120 -173q129 0 238.5 200.5t109.5 371.5q0 86 -41.5 128.5t-102.5 42.5q-117 0 -220.5 -198.5t-103.5 -371.5zM717 150 q-70 -87 -155.5 -129t-161.5 -42q-130 0 -207.5 94t-77.5 256q0 228 165 436.5t375 208.5q190 0 242 -164q77 363 221 533.5t332 170.5q95 0 147.5 -46t52.5 -111q0 -56 -37.5 -95.5t-92.5 -39.5q-103 0 -116 130q-6 62 -35 62q-38 0 -74 -71t-149 -567q163 198 334 198 q130 0 208 -93t78 -256q0 -224 -163 -435t-384 -211q-92 0 -152 46t-75 110l-16 -60q-53 -210 -188 -339.5t-311 -129.5q-91 0 -147 39t-56 113q0 58 38.5 93t90.5 35q100 0 103 -119q0 -41 6.5 -53.5t24.5 -12.5q41 0 77.5 65.5t130.5 418.5z"/>
<glyph glyph-name="afii10087" d="M661 657q127 210 204 271t155 61q68 0 111 -40t43 -102q0 -63 -37 -101.5t-94 -38.5q-80 0 -114 84q-13 32 -29 32q-18 0 -36 -20.5t-164 -247.5l112 -333q16 -46 35 -69t41 -23q76 0 179 182l69 -39q-84 -155 -182 -228.5t-191 -73.5q-85 0 -135 60q-28 35 -102 242 q-111 -179 -182.5 -240.5t-161.5 -61.5q-79 0 -126.5 44t-47.5 110q0 60 37.5 99t93.5 39q43 0 71 -20t49 -74q17 -42 33 -42q27 0 76.5 64t122.5 191l-118 344q-32 93 -66 93q-58 0 -130 -169l-65 42q58 156 138.5 226.5t166.5 70.5q60 0 102 -30.5t73 -98.5 q11 -24 69 -203z" unicode="х"/>
<glyph glyph-name="afii10088" horiz-adv-x="1403" unicode="ц" d="M1033 218q-15 -47 -15 -71q0 -36 28 -36q72 0 192 204l70 -31l-26 -78q-10 -31 -18 -187q-9 -191 -49.5 -265t-164.5 -74q-81 0 -238 55l35 72q71 -25 111 -25q29 0 60 20t99 134.5t94 182.5q-140 -148 -283 -148q-160 0 -160 171q0 40 12 90q-193 -253 -428 -253 q-99 0 -150 56.5t-51 151.5q0 75 42 202l122 378q6 15 6 24q0 58 -113 58h-53l26 87l465 22l-197 -600q-35 -106 -35 -156q0 -86 72 -86q93 0 213 135t199 371l104 314h265z"/>
<glyph glyph-name="afii10089" horiz-adv-x="1321" unicode="ч" d="M563 958l-91 -274q-29 -87 -29 -115q0 -41 29.5 -63t67.5 -22q157 0 288 186l91 266h265l-234 -718q-15 -46 -15 -70q0 -37 28 -37q80 0 208 233l76 -33q-164 -340 -398 -340q-163 0 -163 171q0 108 95 358q-191 -179 -373 -179q-100 0 -168.5 46t-68.5 147q0 61 31 156 l24 77q10 32 10 42q0 60 -110 60h-54l27 87z"/>
<glyph glyph-name="afii10090" horiz-adv-x="1976" unicode="ш" d="M1505 -29q-76 0 -118.5 43t-42.5 117q0 37 15 93q-176 -253 -385 -253q-97 0 -152 54t-55 147q0 25 6 70q-182 -271 -408 -271q-106 0 -160 59.5t-54 150.5q0 68 24 146l134 420q10 31 10 44q0 58 -111 58h-54l27 87l465 22l-201 -609q-33 -99 -33 -149q0 -82 72 -82 q95 0 201.5 137.5t168.5 347.5l103 347l265 8l-184 -631q-17 -61 -17 -112q0 -98 72 -98q86 0 193 128t164 326l109 379l267 8l-216 -719q-19 -66 -19 -87q0 -34 28 -34q43 0 108.5 79.5t98.5 151.5l76 -32q-163 -346 -397 -346z"/>
<glyph glyph-name="afii10091" horiz-adv-x="1976" unicode="щ" d="M1505 -29q-82 0 -122.5 47.5t-40.5 109.5q0 35 17 96q-176 -253 -386 -253q-96 0 -151 54t-55 147q0 25 6 70q-182 -271 -408 -271q-106 0 -160 59.5t-54 150.5q0 68 24 146l133 418q11 34 11 45q0 59 -111 59h-54l27 87l465 22l-201 -610q-33 -100 -33 -148 q0 -82 72 -82q96 0 202 138t168 347l103 347l265 8l-184 -631q-17 -61 -17 -117q0 -93 72 -93q86 0 193 128t164 326l109 379l266 8l-219 -734q-15 -51 -15 -70q0 -36 28 -36q65 0 193 197l69 -31l-18 -54q-18 -55 -25 -211q-8 -155 -29 -219.5t-64 -92t-122 -27.5 q-81 0 -238 55l36 72q71 -29 112 -29q53 0 116 89t139 275q-127 -171 -283 -171z"/>
<glyph glyph-name="afii10092" horiz-adv-x="1180" unicode="ъ" d="M707 521q-96 0 -181.5 -126t-85.5 -245q0 -116 96 -116t186 126.5t90 225.5q0 64 -30.5 99.5t-74.5 35.5zM647 846q-131 -93 -239 -93q-91 0 -154 41q-36 24 -55 24q-47 0 -90 -64l-61 24q105 211 250 211q41 0 102 -26q111 -46 190 -46q55 0 76 30q15 22 32 22 q53 0 53 -52q0 -174 -249 -427q152 129 304 129q130 0 208 -69t78 -182q0 -155 -153.5 -276t-388.5 -121q-174 0 -271.5 73t-97.5 180q0 93 60.5 210t213.5 228q57 42 86 65t106 119z"/>
<glyph glyph-name="afii10093" horiz-adv-x="1784" unicode="ы" d="M1382 936h265l-234 -718q-15 -47 -15 -71q0 -36 28 -36q80 0 208 233l76 -33q-164 -340 -398 -340q-93 0 -128.5 50.5t-35.5 158.5q0 14 12 52zM664 583q-103 0 -194.5 -133.5t-91.5 -274.5q0 -125 98 -125q107 0 195 138t88 274q0 50 -24 85.5t-71 35.5zM518 588 q109 97 248 97q121 0 197.5 -67t76.5 -186q0 -181 -156.5 -321t-395.5 -140q-165 0 -244.5 73.5t-79.5 193.5q0 76 31 170l108 333q12 36 12 50q0 58 -110 58h-54l27 87l464 22z"/>
<glyph glyph-name="afii10094" horiz-adv-x="1128" unicode="ь" d="M664 583q-103 0 -194.5 -133.5t-91.5 -274.5q0 -125 98 -125q107 0 195 138t88 274q0 50 -24 85.5t-71 35.5zM518 588q109 97 248 97q121 0 197.5 -67t76.5 -186q0 -181 -156.5 -321t-395.5 -140q-165 0 -244.5 73.5t-79.5 193.5q0 76 31 170l108 333q12 36 12 50 q0 58 -110 58h-54l27 87l464 22z"/>
<glyph glyph-name="afii10095" horiz-adv-x="1053" unicode="э" d="M677 527q8 77 8 114q0 110 -55 170.5t-141 60.5q-167 0 -304 -176l-73 56q131 154 237.5 195.5t216.5 41.5q209 0 311.5 -112t102.5 -280q0 -227 -167 -426.5t-447 -199.5q-170 0 -255.5 65.5t-85.5 178.5q0 78 43 126t110 48q62 0 100 -38t38 -90q0 -71 -98 -118 q-30 -15 -30 -31q0 -21 38 -37t81 -16q132 0 219 81.5t137 299.5h-292l25 87h281z"/>
<glyph glyph-name="afii10096" horiz-adv-x="1745" unicode="ю" d="M1400 714q0 90 -43.5 140.5t-111.5 50.5q-150 0 -242.5 -246.5t-92.5 -410.5q0 -103 48.5 -145.5t109.5 -42.5q145 0 238.5 241t93.5 413zM511 556h149q76 225 229.5 329t346.5 104q192 0 313.5 -119t121.5 -305q0 -231 -166.5 -412.5t-429.5 -181.5q-145 0 -244.5 61.5 t-147 159t-47.5 187.5q0 30 6 84h-152l-134 -463l-266 -9l217 748q9 34 9 50q0 57 -109 57h-58l28 90l437 22z"/>
<glyph glyph-name="afii10097" horiz-adv-x="1333" unicode="я" d="M781 510l66 232q10 35 10 53q0 48 -68 48h-48q-87 0 -128.5 -16t-73.5 -67t-32 -112q0 -60 46.5 -99t127.5 -39h100zM751 410h-37q-102 0 -148.5 -26.5t-98.5 -131.5l-57 -115q-52 -103 -113 -134.5t-132 -31.5q-201 0 -201 194q0 20 1 45h68v-35q0 -75 39 -75 q30 0 67 73l54 104q45 86 139 120t191 46q-281 65 -281 241q0 107 89 179.5t375 72.5h457l-210 -726q-14 -51 -14 -72q0 -36 28 -36q38 0 102.5 73.5t117.5 170.5l73 -42q-184 -333 -411 -333q-74 0 -119 43t-45 126q0 51 14 97z"/>
<glyph glyph-name="afii10071" horiz-adv-x="1063" unicode="ё" d="M384 452q171 33 249 106q107 101 107 227q0 52 -24.5 81.5t-61.5 29.5q-74 0 -138 -89q-94 -129 -132 -355zM372 369q-4 -38 -4 -63q0 -106 52 -163t139 -57q73 0 143.5 35t172.5 139l67 -52q-117 -129 -229.5 -183t-242.5 -54q-184 0 -289.5 105.5t-105.5 286.5 q0 161 88 308.5t240.5 232.5t328.5 85q129 0 200 -62t71 -157q0 -79 -57 -158.5t-185 -138t-389 -104.5zM935 1424q55 0 94 -39.5t39 -95.5q0 -55 -39 -94.5t-94 -39.5t-94.5 39t-39.5 95q0 55 40 95t94 40zM533 1424q55 0 94 -39.5t39 -95.5t-39 -95t-94 -39q-56 0 -95 39 t-39 95q0 55 40 95t94 40z"/>
<glyph glyph-name="afii10099" horiz-adv-x="1403" unicode="ђ" d="M714 1238h372l-29 -103h-374l-124 -427q206 281 425 281q93 0 151.5 -59.5t58.5 -155.5q0 -74 -32 -174l-132 -408q-107 -332 -243.5 -459t-310.5 -127q-92 0 -147.5 39.5t-55.5 112.5q0 58 38.5 93t90.5 35q100 0 103 -119q1 -42 7 -54t24 -12q33 0 58.5 34.5 t69.5 165.5l227 675q43 126 43 196q0 75 -73 75q-94 0 -228 -167.5t-200 -406.5l-76 -273l-267 -8l330 1143h-138l28 103h141q18 80 18 92q0 56 -103 56h-62l27 93l455 19z"/>
<glyph glyph-name="afii10100" horiz-adv-x="936" unicode="ѓ" d="M196 740l-51 63q226 186 477 186q295 0 295 -211q0 -68 -48 -132t-274 -156q-197 -79 -265 -134t-68 -133q0 -62 42.5 -102t123.5 -40q149 0 320 175l69 -48q-175 -162 -294 -199.5t-232 -37.5q-136 0 -214.5 55t-78.5 155q0 113 76.5 178.5t267.5 128.5 q181 60 240 113.5t59 140.5q0 53 -39.5 91.5t-112.5 38.5q-112 0 -293 -132zM557 1104l-30 26l132 189q68 97 107.5 126t81.5 29q49 0 83.5 -33t34.5 -77q0 -71 -113 -123z"/>
<glyph glyph-name="afii10101" horiz-adv-x="1057" unicode="є" d="M872 265l69 -54q-194 -240 -471 -240q-177 0 -285 107t-108 285q0 237 175.5 431.5t427.5 194.5q146 0 230 -68t84 -176q0 -77 -43.5 -125.5t-109.5 -48.5q-56 0 -97 33.5t-41 92.5q0 39 21.5 63.5t87.5 60.5q22 11 22 23q0 21 -35 38.5t-85 17.5q-108 0 -197.5 -102 t-124.5 -271h282l-14 -87h-281q-7 -67 -7 -111q0 -126 58 -183t136 -57q156 0 306 176z"/>
<glyph glyph-name="afii10102" horiz-adv-x="985" unicode="ѕ" d="M153 642q0 148 121.5 247.5t326.5 99.5q168 0 254 -63t86 -155q0 -60 -36 -97.5t-91 -37.5q-52 0 -86 33t-34 81q0 31 25 75q12 21 12 30q0 21 -27 37.5t-87 16.5q-98 0 -159.5 -51.5t-61.5 -118.5q0 -43 28.5 -67t191.5 -81q122 -42 167 -74t70 -82.5t25 -110.5 q0 -95 -53 -176.5t-155 -129t-247 -47.5q-200 0 -299.5 70t-99.5 179q0 66 41 109t100 43q52 0 86 -33t34 -85q0 -41 -37 -87q-17 -21 -17 -33q0 -28 36 -49q47 -28 130 -28q107 0 170.5 51.5t63.5 123.5q0 42 -28 70t-127 60q-211 68 -267 124.5t-56 155.5z"/>
<glyph glyph-name="afii10103" horiz-adv-x="797" unicode="і" d="M183 939l453 19l-215 -742q-14 -50 -14 -73q0 -18 7 -27.5t20 -9.5q29 0 74 43q75 71 147 201l73 -42q-187 -337 -411 -337q-76 0 -120 45t-44 123q0 54 14 102l149 518q5 14 5 29q0 28 -23 44.5t-79 16.5h-64zM544 1480q68 0 116 -48t48 -116t-48 -116t-116 -48t-116 48 t-48 116t48 116t116 48z"/>
<glyph glyph-name="afii10104" horiz-adv-x="797" unicode="ї" d="M183 939l453 19l-215 -742q-14 -50 -14 -73q0 -18 7 -27.5t20 -9.5q29 0 74 43q75 71 147 201l73 -42q-187 -337 -411 -337q-76 0 -120 45t-44 123q0 54 14 102l149 518q5 14 5 29q0 28 -23 44.5t-79 16.5h-64zM694 1424q55 0 94 -39.5t39 -95.5q0 -55 -39 -94.5 t-94 -39.5t-94.5 39t-39.5 95q0 55 40 95t94 40zM292 1424q55 0 94 -39.5t39 -95.5t-39 -95t-94 -39q-56 0 -95 39t-39 95q0 55 40 95t94 40z"/>
<glyph glyph-name="afii10105" horiz-adv-x="758" unicode="ј" d="M649 958l-193 -810q-48 -201 -122 -313t-177.5 -170.5t-217.5 -58.5q-99 0 -151 42t-52 110q0 55 36.5 91.5t91.5 36.5q49 0 75.5 -28.5t27.5 -90.5q1 -44 8 -55t24 -11q39 0 71 55q51 86 127 402l148 609q3 14 3 26q0 24 -25.5 40.5t-89.5 16.5h-53l25 89zM535 1481 q68 0 116 -48t48 -116q0 -69 -48 -117t-116 -48t-116.5 48t-48.5 117q0 68 48.5 116t116.5 48z"/>
<glyph glyph-name="afii10106" horiz-adv-x="1796" unicode="љ" d="M1324 583q-106 0 -196.5 -135.5t-90.5 -264.5q0 -133 98 -133q108 0 195.5 138.5t87.5 271.5q0 54 -25.5 88.5t-68.5 34.5zM1187 601q124 84 248 84q99 0 181.5 -61.5t82.5 -191.5q0 -181 -156.5 -321t-396.5 -140q-163 0 -243 74.5t-80 192.5q0 77 23 151l145 454h-145 q-80 0 -118.5 -22t-59.5 -66.5t-67 -172.5q-127 -360 -220.5 -485.5t-239.5 -125.5q-80 0 -134.5 38.5t-54.5 114.5q0 62 39.5 100t88.5 38q87 0 114 -88q20 -66 45 -66q81 0 182 258t101 386q0 91 -107 91h-25l25 93h876z"/>
<glyph glyph-name="afii10107" horiz-adv-x="1765" unicode="њ" d="M1291 583q-103 0 -194 -134t-91 -271q0 -128 100 -128q103 0 191.5 136.5t88.5 275.5q0 50 -24 85.5t-71 35.5zM503 540h359l116 396h268l-101 -348q109 97 251 97q118 0 195 -67.5t77 -180.5q0 -188 -158 -327t-395 -139q-162 0 -242.5 73t-80.5 194q0 84 40 199h-349 l-127 -437l-266 -9l217 748q10 36 10 49q0 58 -110 58h-58l28 90l437 22z"/>
<glyph glyph-name="afii10108" horiz-adv-x="1403" unicode="ћ" d="M1037 1074h-373l-105 -366q115 154 218 217.5t207 63.5q93 0 151.5 -59t58.5 -150q0 -80 -32 -180l-132 -408q-7 -23 -7 -43q0 -18 8.5 -27t22.5 -9q83 0 196 243l81 -27q-80 -185 -179.5 -267t-202.5 -82q-82 0 -129.5 46t-47.5 121q0 72 53 230q77 227 93 292.5 t16 100.5q0 36 -19.5 56.5t-52.5 20.5q-98 0 -228.5 -167t-199.5 -407l-77 -273l-267 -8l310 1082h-138l28 103h140l25 88q14 48 14 63q0 58 -103 58h-62l27 93l455 19l-92 -321h372z"/>
<glyph glyph-name="afii10109" horiz-adv-x="1327" unicode="ќ" d="M487 461l-131 -461l-266 -9l214 740q13 45 13 59q0 56 -110 56h-58l28 90l437 22l-107 -411h68q123 0 174 45.5t125 183.5q58 110 109 154t143 44q81 0 129.5 -46t48.5 -122q0 -67 -36.5 -104.5t-88.5 -37.5q-50 0 -86.5 27t-36.5 76q0 15 4 38q2 13 2 20q0 30 -23 30 q-17 0 -37 -27t-78 -136q-62 -118 -108 -148t-103 -43q143 -31 188.5 -78t59.5 -173q10 -95 19 -120.5t29 -25.5q15 0 31 14t54 104l78 -19q-37 -122 -98 -173t-171 -51q-88 0 -136 39.5t-58 184.5q-8 120 -19 163.5t-47 69t-98 25.5h-58zM701 1104l-30 26l132 189 q68 97 107.5 126t81.5 29q49 0 83.5 -33t34.5 -77q0 -71 -113 -123z"/>
<glyph glyph-name="afii10110" horiz-adv-x="1063" unicode="ў" d="M975 1361l59 -52q-58 -93 -170.5 -154t-215.5 -61q-127 0 -192 51.5t-65 135.5q0 53 37.5 98t102.5 45q63 0 97 -32.5t34 -83.5q0 -35 -13 -54q-28 -39 -28 -43q0 -9 16 -17.5t38 -8.5q160 0 300 176zM675 284q85 123 131.5 239.5t46.5 159.5q0 24 -16 67q-32 79 -32 118 q0 55 32 88t84 33q51 0 82 -33t31 -87q0 -103 -108 -325q-148 -304 -332 -543t-327 -328q-107 -67 -205 -67q-89 0 -143 46t-54 114q0 59 38 97t97 38q50 0 81 -35t32 -102q0 -29 7 -39t21 -10q25 0 73 24t116 91q88 88 153 178l-51 231q-71 322 -95 396q-40 127 -78 164 q-19 18 -37 18q-25 0 -48.5 -26t-66.5 -135l-78 33q120 300 293 300q94 0 158 -97q80 -122 195 -608z"/>
<glyph glyph-name="afii10193" horiz-adv-x="1403" unicode="џ" d="M1264 936l-234 -718q-15 -47 -15 -71q0 -36 28 -36q80 0 208 233l75 -33q-163 -340 -397 -340q-164 0 -164 171q0 40 12 90l-23 -29q-20 -56 -22 -139q-6 -234 -50 -309.5t-169 -75.5q-70 0 -184 41l36 71q40 -9 57 -9q63 0 124 92t135 258q-143 -153 -333 -153 q-95 0 -147.5 54.5t-52.5 153.5q0 75 42 202l122 378q6 15 6 24q0 58 -113 58h-53l26 87l465 22l-197 -600q-35 -106 -35 -156q0 -86 72 -86q93 0 213.5 136t198.5 370l104 314h265z"/>
<glyph glyph-name="afii10050" horiz-adv-x="1212" unicode="Ґ" d="M1375 1386h-410q-53 0 -79 -22.5t-39 -71.5l-292 -1092q-8 -30 -8 -44q0 -63 81 -63h140l-25 -93h-747l25 93h95q96 0 119 86l301 1125q6 24 6 35q0 47 -110 47h-101l25 93h587q213 0 324.5 117t152.5 268h94z"/>
<glyph glyph-name="afii10098" horiz-adv-x="948" unicode="ґ" d="M1033 843h-352q-83 0 -100 -65l-166 -618q-4 -14 -4 -21q0 -46 69 -46h63l-24 -93h-555l25 93h63q83 0 101 67l165 618q4 14 4 21q0 44 -69 44h-63l25 93h490q82 0 133 20t107 80.5t111 161.5h97z"/>
<glyph glyph-name="endash" horiz-adv-x="1024" unicode="–" d="M-25 587h1024v-130h-1024v130z"/>
<glyph glyph-name="emdash" horiz-adv-x="2048" unicode="—" d="M-35 590h2048v-128h-2048v128z"/>
<glyph glyph-name="quoteleft" horiz-adv-x="530" unicode="‘" d="M680 1515l24 -82q-154 -45 -219.5 -102.5t-65.5 -103.5q0 -29 30 -38q81 -25 103 -48q43 -45 43 -116t-51 -119.5t-131 -48.5q-82 0 -137 60t-55 156q0 163 142 293q106 97 317 149z"/>
<glyph glyph-name="quotesinglbase" horiz-adv-x="530" unicode="‚" d="M2 -381l-24 79q154 46 219.5 103.5t65.5 102.5q0 19 -8 28q-6 6 -39 16q-66 21 -89 46q-40 45 -40 112q0 72 51.5 120.5t131.5 48.5q81 0 136 -60t55 -156q0 -161 -142 -291q-105 -97 -317 -149z"/>
<glyph glyph-name="quotedblleft" horiz-adv-x="985" unicode="“" d="M1149 1512l25 -81q-155 -46 -220 -103.5t-65 -102.5q0 -19 8 -28q6 -6 39 -17q66 -20 89 -46q40 -45 40 -112q0 -71 -51.5 -119.5t-131.5 -48.5q-82 0 -137 60.5t-55 156.5q0 160 140 290q106 99 319 151zM651 1512l24 -81q-154 -46 -219.5 -103.5t-65.5 -102.5 q0 -19 9 -28q6 -6 39 -16q65 -21 88 -47q40 -44 40 -112q0 -71 -51 -119.5t-131 -48.5q-82 0 -137 60.5t-55 156.5q0 162 142 293q106 97 317 148z"/>
<glyph glyph-name="quotedblright" horiz-adv-x="985" unicode="”" d="M656 854l-24 85q154 46 219.5 103t65.5 102q0 19 -8 28q-6 6 -39 16q-66 21 -89 47q-40 44 -40 111q0 71 51.5 119.5t131.5 48.5q81 0 136 -60t55 -156q0 -162 -139 -292q-106 -99 -320 -152zM158 854l-24 85q154 46 219.5 103t65.5 102q0 19 -8 28q-6 6 -39 16 q-66 21 -89 46q-40 45 -40 112q0 71 51.5 119.5t131.5 48.5q81 0 136 -60t55 -157q0 -163 -142 -293q-106 -98 -317 -150z"/>
<glyph glyph-name="dagger" horiz-adv-x="1024" unicode="†" d="M630 958q37 2 63.5 10.5t88.5 41.5q64 35 90 43.5t57 8.5q64 0 103 -37.5t39 -98.5q0 -65 -38.5 -103.5t-101.5 -38.5q-53 0 -122 33q-88 42 -108 48q-34 9 -92 12q-10 -51 -10 -89q0 -120 64 -245q-123 -176 -198.5 -338t-145.5 -398l-60 -203h-91l57 223q73 288 73 537 q0 72 -10 179q162 127 239 334q-32 0 -54.5 -7.5t-77.5 -39.5q-60 -35 -88 -43.5t-60 -8.5q-64 0 -103 39t-39 103q0 62 42 102.5t108 40.5q54 0 121 -41q66 -40 97 -50.5t84 -13.5q18 93 18 167q0 36 -8 112q-8 68 -8 91q0 88 44 137t116 49q65 0 106 -38.5t41 -97.5 q0 -42 -21.5 -88t-87.5 -125t-89 -118t-38 -89z"/>
<glyph glyph-name="daggerdbl" horiz-adv-x="1024" unicode="‡" d="M720 1054q36 2 61 11q19 6 66 34q50 29 75.5 37t55.5 8q60 0 94 -33t34 -88q0 -58 -37.5 -95t-95.5 -37q-51 0 -126 41q-50 27 -73 33.5t-72 7.5q-4 -33 -4 -51q0 -83 67 -174q-183 -91 -183 -229q0 -69 67 -159q-76 -48 -114.5 -93t-62.5 -110q33 0 58 7q17 4 67 32 q52 29 69 34q22 7 46 7q57 0 93.5 -35t36.5 -90q0 -58 -37 -95t-96 -37q-26 0 -50 8t-76 38q-38 21 -64.5 29t-76.5 11q-7 -33 -7 -59q0 -25 9 -88q14 -96 14 -135q0 -81 -45 -129.5t-110 -48.5q-57 0 -93.5 36t-36.5 93q0 36 20 78.5t83 116.5q49 58 64.5 82.5t24.5 53.5 q-29 0 -51.5 -7.5t-75.5 -36.5q-75 -42 -132 -42q-59 0 -92.5 34.5t-33.5 90.5q0 55 39.5 92t102.5 37q45 0 106 -33q48 -26 78 -34t83 -10q5 26 5 48q0 88 -65 173q179 94 179 229q0 38 -13 69t-60 93q138 70 190 204q-44 -2 -90 -28q-67 -38 -91 -45q-31 -11 -63 -11 q-66 0 -101.5 35.5t-35.5 94.5q0 54 38 90.5t98 36.5q40 0 94 -29q73 -38 107 -49q25 -9 68 -14q5 28 5 55q0 36 -9 117q-10 79 -10 110q0 83 41.5 130.5t105.5 47.5q57 0 94 -36.5t37 -93.5q0 -40 -24 -87t-107 -140q-51 -55 -62 -103z"/>
<glyph glyph-name="ellipsis" horiz-adv-x="2048" unicode="…" d="M343 314q70 0 120 -50t50 -121t-50 -121.5t-120 -50.5t-120 50t-50 122q0 71 50 121t120 50zM1703 319q72 0 122.5 -51t50.5 -123t-50.5 -123t-121.5 -51q-72 0 -122.5 51t-50.5 123t50.5 123t121.5 51zM1022 319q71 0 122 -51t51 -123t-51 -123t-122 -51t-121.5 51 t-50.5 123t50.5 123t121.5 51z"/>
<glyph glyph-name="perthousand" horiz-adv-x="2390" unicode="‰" d="M1739 650q-18 0 -35 -13q-26 -20 -45 -71.5t-76 -266.5q-37 -143 -37 -209q0 -30 13 -45.5t34 -15.5q32 0 57 36t83 249.5t58 269.5q0 29 -15.5 47.5t-36.5 18.5zM1738 708q96 0 154.5 -65t58.5 -179q0 -134 -54.5 -254t-136 -179.5t-168.5 -59.5q-94 0 -152 66t-58 184 q0 131 55.5 251t136.5 178t164 58zM1088 650q-19 0 -35 -13q-27 -20 -46 -71.5t-75 -266.5q-38 -143 -38 -209q0 -30 13.5 -45.5t33.5 -15.5q32 0 57 36t83 249.5t58 269.5q0 29 -15.5 47.5t-35.5 18.5zM1086 708q97 0 155 -65t58 -179q0 -134 -54.5 -254t-136 -179.5 t-167.5 -59.5q-95 0 -153 66t-58 184q0 131 56 251t137 178t163 58zM1222 1395h93l-1015 -1395h-94zM579 1366q-19 0 -35 -13q-27 -20 -46 -71.5t-75 -266.5q-38 -143 -38 -209q0 -30 13.5 -45.5t33.5 -15.5q32 0 57 36t83 249.5t58 269.5q0 29 -15.5 47.5t-35.5 18.5z M577 1424q97 0 155 -65t58 -179q0 -134 -54.5 -254t-136 -179.5t-168.5 -59.5q-94 0 -152 66t-58 184q0 131 56 251t137 178t163 58z"/>
<glyph glyph-name="minute" horiz-adv-x="588" unicode="′" d="M371 739h-45l6 389q2 140 55.5 213t139.5 73q107 0 107 -96q0 -59 -67 -190z"/>
<glyph glyph-name="second" horiz-adv-x="819" unicode="″" d="M313 751h-45l6 388q2 141 55.5 214t139.5 73q107 0 107 -96q0 -59 -67 -191zM716 751h-45l5 388q2 141 56 214t140 73q107 0 107 -96q0 -59 -67 -191z"/>
<glyph glyph-name="guilsinglleft" horiz-adv-x="569" unicode="‹" d="M482 992h108l-229 -457l57 -410h-91l-272 448z"/>
<glyph glyph-name="guilsinglright" horiz-adv-x="569" unicode="›" d="M181 992h96l268 -448l-425 -419h-108l230 458z"/>
<glyph glyph-name="radicalex" d="M133 1869h1260v-74h-1260v74z" unicode="‾"/>
<glyph glyph-name="fraction" horiz-adv-x="342" unicode="⁄" d="M622 1395h93l-1015 -1395h-94z"/>
<glyph glyph-name="fraction" horiz-adv-x="342" unicode="∕" d="M622 1395h93l-1015 -1395h-94z"/>
<glyph glyph-name="Euro" d="M520 750q-8 -41 -16 -97h418l-45 -108h-381q-2 -24 -2 -64q0 -192 83.5 -295.5t217.5 -103.5q207 0 321 197l70 -43q-66 -125 -179 -195t-255 -70q-228 0 -384.5 161t-156.5 398v15h-117l41 108h80q2 24 18 97h-139l41 108h123q77 265 257.5 410t426.5 145 q75 0 149.5 -36.5t112.5 -88.5l74 84h74l-84 -418h-76q-4 181 -64 275t-167 94q-134 0 -248.5 -123.5t-167.5 -341.5h377l-45 -108h-357z" unicode="€"/>
<glyph glyph-name="trademark" horiz-adv-x="1946" unicode="™" d="M825 1479h368l231 -503l229 503h347v-40q-48 0 -66.5 -10.5t-27.5 -35.5q-7 -17 -7 -89v-476q0 -67 7.5 -86t28.5 -32.5t65 -15.5v-35h-461v35q73 1 93.5 24.5t20.5 109.5v509l-320 -678h-24l-318 678v-509q0 -71 8 -90t30.5 -31t76.5 -13v-35h-281v35q57 2 75 12 t26.5 31t8.5 91v476q0 70 -9 92.5t-27.5 32.5t-73.5 10v40zM-49 1479h777v-231h-35q-4 90 -49 133.5t-146 43.5h-37v-597q0 -85 20.5 -109.5t82.5 -24.5v-35h-454v35q60 4 74 12t21 28.5t7 93.5v597h-34q-95 0 -141 -41.5t-54 -135.5h-32v231z"/>
<glyph glyph-name="arrowleft" horiz-adv-x="2048" unicode="←" d="M492 876h76q-81 -170 -195 -309h1595v-101h-1595q102 -102 198 -309h-78q-223 253 -414 341v45q177 71 413 333z"/>
<glyph glyph-name="arrowup" horiz-adv-x="1024" unicode="↑" d="M153 1050q262 236 333 413h46q87 -192 340 -415v-77q-207 96 -309 197v-1597h-101v1597q-139 -114 -309 -195v77z"/>
<glyph glyph-name="arrowright" horiz-adv-x="2048" unicode="→" d="M1555 876q237 -262 413 -333v-45q-191 -88 -414 -341h-77q95 207 197 309h-1595v101h1595q-114 139 -195 309h76z"/>
<glyph glyph-name="arrowdown" horiz-adv-x="1024" unicode="↓" d="M153 -16v76q170 -81 309 -195v1598h101v-1598q102 102 309 197v-77q-253 -223 -340 -414h-46q-71 176 -333 413z"/>
<glyph glyph-name="partialdiff" horiz-adv-x="1012" unicode="∂" d="M886 691q-34 103 -89.5 147.5t-124.5 44.5q-70 0 -136 -61q-86 -80 -143.5 -262t-57.5 -348q0 -97 30 -132.5t89 -35.5q99 0 200 117q166 195 232 530zM371 1150h-42q52 146 142.5 215t205.5 69q152 0 223 -102t71 -291q0 -360 -106 -620.5t-238 -365.5q-97 -78 -232 -78 q-97 0 -169 39.5t-109.5 117t-37.5 159.5q0 130 61.5 252.5t151.5 211t185.5 133t188.5 44.5q164 0 236 -150q8 82 8 127q0 171 -116 265q-71 58 -197 58q-81 0 -131.5 -20t-94.5 -64z"/>
<glyph glyph-name="product" horiz-adv-x="1685" unicode="∏" d="M1240 1420h-795v-1608q0 -83 37 -119t125 -36h36v-38h-597v38h35q93 0 128 37.5t35 117.5v1493q0 84 -37 119.5t-126 35.5h-35v38h1594v-38h-35q-92 0 -127 -37.5t-35 -117.5v-1493q0 -83 37 -119t125 -36h35v-38h-597v38h35q93 0 127.5 37.5t34.5 117.5v1608z"/>
<glyph glyph-name="summation" horiz-adv-x="1460" unicode="∑" d="M1356 -381h-1313v37l669 917l-669 887v38h1278l27 -337h-40q-15 136 -76 196t-173 60h-740l562 -757l-629 -864h818q87 0 166 32q51 20 85.5 67t58.5 147l40 -8z"/>
<glyph glyph-name="minus" horiz-adv-x="1241" unicode="−" d="M157 774h1121v-187h-1121v187z"/>
<glyph glyph-name="radical" horiz-adv-x="1124" unicode="√" d="M1050 1869h74l-312 -1947l-496 1021l-198 -91l-34 64l301 151l405 -823z"/>
<glyph glyph-name="infinity" horiz-adv-x="1460" unicode="∞" d="M624 590q-49 110 -112 162t-155 52q-106 0 -177.5 -74.5t-71.5 -199.5q0 -133 70.5 -212.5t159.5 -79.5q95 0 168 85q47 56 118 267zM749 464q75 -156 148 -209.5t164 -53.5q123 0 205.5 88.5t82.5 237.5q0 147 -87 243t-195 96q-69 0 -120.5 -35t-93.5 -112 q-24 -45 -104 -255zM653 667q68 157 149 217t221 60q161 0 272 -116t111 -301q0 -183 -108 -301.5t-241 -118.5q-99 0 -184 73q-56 48 -153 213q-64 -124 -140 -178.5t-184 -54.5q-144 0 -243.5 103t-99.5 266q0 165 92 266t215 101q86 0 152 -44.5t141 -184.5z"/>
<glyph glyph-name="intersection" horiz-adv-x="1472" unicode="∩" d="M311 0h-129v590q1 119 2.5 228.5t20 193.5t60.5 154t117 131t166.5 94t187.5 33q146 0 272.5 -71.5t189.5 -170.5t77.5 -209.5t14.5 -382.5v-590h-128v596q0 231 -11.5 331t-58 180t-146 136t-210.5 56q-112 0 -211.5 -57.5t-144.5 -135t-57 -178.5t-12 -332v-596z"/>
<glyph glyph-name="approxequal" horiz-adv-x="1124" unicode="≈" d="M1049 587h63q-2 -163 -82.5 -253t-196.5 -90q-56 0 -118 17.5t-260 100.5q-141 60 -207 60t-110 -40.5t-61 -136.5h-64q8 166 80 254.5t191 88.5q58 0 110 -15q100 -27 274 -103q97 -42 144 -55q30 -8 65 -8q68 0 115 46t57 134zM1049 1096h63q-2 -163 -82.5 -253 t-197.5 -90q-56 0 -179 35l-198 84q-142 60 -207 60q-66 0 -109.5 -40.5t-61.5 -137.5h-64q8 167 80 255t192 88q57 0 110 -14q100 -28 273 -104q96 -41 144 -54q30 -8 65 -8q68 0 115 46t57 133z"/>
<glyph glyph-name="notequal" horiz-adv-x="1124" unicode="≠" d="M15 863h600l208 528h134l-205 -528h357v-157h-418l-123 -315h541v-156h-602l-208 -527h-135l207 527h-356v156h417l123 315h-540v157z"/>
<glyph glyph-name="equivalence" horiz-adv-x="1544" unicode="≡" d="M273 367h1118v-188h-1118v188zM273 791h1118v-188h-1118v188zM273 1216h1118v-188h-1118v188z"/>
<glyph glyph-name="lessequal" horiz-adv-x="1124" unicode="≤" d="M14 -29h1096v-156h-1096v156zM1109 220l-1094 460v141l1094 460v-170l-882 -360l882 -360v-171z"/>
<glyph glyph-name="greaterequal" horiz-adv-x="1124" unicode="≥" d="M14 -29h1096v-156h-1096v156zM15 1281l1094 -460v-141l-1094 -460v170l881 360l-881 360v171z"/>
<glyph glyph-name="lozenge" horiz-adv-x="1012" unicode="◊" d="M495 1325l-340 -616l340 -615l359 615zM549 1422l418 -713l-418 -709h-111l-391 709l391 713h111z"/>
<glyph glyph-name="spade" horiz-adv-x="1092" unicode="♠" d="M547 1231q19 -82 65 -169t203 -230q121 -111 169 -181t48 -155q0 -93 -65 -157t-154 -64q-155 0 -255 190q0 -229 102 -325t276 -103l7 -37h-792l7 37q176 0 280 102t104 293q0 11 -1 33q-90 -190 -261 -190q-92 0 -156 65t-64 155q0 92 52 165t137 141q261 215 298 430z "/>
<glyph glyph-name="club" horiz-adv-x="1354" unicode="♣" d="M1103 0h-848l8 34q153 32 219 68t126 139q58 103 58 228l-1 42q-54 -116 -143 -177t-185 -61q-113 1 -195 81t-82 199q0 111 72 193t170 82q63 0 163 -51q-67 107 -67 182q0 113 79 193t197 79q115 0 197 -78t82 -189q0 -94 -69 -187q106 53 162 53q105 0 176 -81 t71 -192q0 -119 -81 -201t-193 -82q-78 0 -167 50t-165 187q4 -157 48 -251q45 -94 123 -144q78 -51 237 -82z"/>
<glyph glyph-name="heart" horiz-adv-x="1210" unicode="♥" d="M607 -24q-33 122 -93 228t-275 390q-101 133 -140 212t-39 163q0 109 74 185t183 76q206 0 290 -251q34 127 113 189t172 63q110 0 184 -75t74 -175q0 -88 -40 -183t-174 -262q-285 -360 -329 -560z"/>
<glyph glyph-name="diamond" horiz-adv-x="1038" unicode="♦" d="M517 1231q193 -323 461 -627q-52 -52 -214 -265t-247 -363q-101 190 -457 628q324 383 457 627z"/>
<glyph glyph-name="foursuperior" horiz-adv-x="705" unicode="" d="M484 1194l-265 -252h193zM638 1424h76l-133 -482h90l-17 -62h-94l-17 -70l-2 -15q0 -16 14 -23q9 -6 67 -6l-17 -57h-333l17 57h38q12 0 28.5 15.5t22.5 41.5l15 57h-276l19 68z"/>
</font>
</defs>
</svg>
