<?xml version="1.0" encoding="UTF-8" standalone="no"?>
<!DOCTYPE svg  PUBLIC '-//W3C//DTD SVG 1.1//EN'  'http://www.w3.org/Graphics/SVG/1.1/DTD/svg11.dtd'>
<svg xmlns="http://www.w3.org/2000/svg">
<defs>
<font id="ITCAvantGardeW1G-Demi" horiz-adv-x="600">
<font-face underline-position="-50" font-weight="600" descent="-200" panose-1="2 11 7 2 2 2 2 2 2 4" units-per-em="1000" unicode-range="U+000D-25CA" bbox="-123 -251 1222 1021" x-height="555" underline-thickness="50" font-family="ITCAvantGardeW1G" ascent="800" cap-height="740"/>
<missing-glyph horiz-adv-x="1000"/>
<glyph glyph-name=".notdef" horiz-adv-x="1000"/>
<glyph glyph-name=".null" horiz-adv-x="0"/>
<glyph glyph-name="nonmarkingreturn" horiz-adv-x="1000" unicode=""/>
<glyph glyph-name="space" horiz-adv-x="280" unicode=" "/>
<glyph glyph-name="exclam" horiz-adv-x="280" unicode="!" d="M206 127v-127h-133v127h133zM206 740v-552h-133v552h133z"/>
<glyph glyph-name="quotedbl" horiz-adv-x="360" unicode='&quot;' d="M341 740l-26 -296h-82l-25 296h133zM125 444h-80l-26 296h133z"/>
<glyph glyph-name="numbersign" horiz-adv-x="560" unicode="#" d="M228 292h91l16 116h-91zM284 700l-27 -197h91l27 197h100l-27 -197h77l-4 -95h-86l-16 -116h76l-4 -95h-86l-27 -197h-100l27 197h-91l-27 -197h-100l27 197h-85l4 95h95l16 116h-85l4 95h94l27 197h100z"/>
<glyph glyph-name="dollar" horiz-adv-x="560" unicode="$" d="M349 857v-130q55 -18 89.5 -63t39.5 -108h-125q-18 61 -68 61q-28 0 -47 -20.5t-19 -51.5q0 -24 14 -39t34 -25t43.5 -16.5t43.5 -13.5q81 -29 114 -79t33 -122q0 -36 -10.5 -69t-30 -59.5t-47.5 -46t-64 -29.5v-132h-126v131q-82 23 -123.5 76t-41.5 128h132 q2 -40 27 -63t62 -23q38 0 63.5 25t25.5 62t-22 57.5t-68 32.5q-105 27 -148.5 79t-43.5 125q0 67 37 117.5t100 67.5v128h126z"/>
<glyph glyph-name="percent" horiz-adv-x="860" unicode="%" d="M572 166q0 -28 21 -49t49 -21t48.5 21t20.5 49t-20 49t-49 21t-49.5 -20.5t-20.5 -49.5zM642 347q37 0 70 -14.5t57.5 -39.5t38.5 -57.5t14 -69.5t-14 -70t-38.5 -57.5t-57.5 -39t-70 -14.5q-38 0 -71 14.5t-57.5 39.5t-38.5 58t-14 69q0 38 14.5 71t39.5 57.5t58 38.5 t69 14zM147 574q0 -28 21 -48.5t48 -20.5q28 0 48.5 20.5t20.5 49.5t-20 49t-50 20q-29 0 -48.5 -20.5t-19.5 -49.5zM632 740l-307 -740h-101l306 740h102zM216 755q38 0 71 -14.5t57 -39.5t38 -57.5t14 -69.5t-14.5 -70t-39 -57.5t-57 -38.5t-69.5 -14t-70 14.5t-57.5 39 t-38.5 57.5t-14 69q0 37 14.5 70t39 58t57 39t69.5 14z"/>
<glyph glyph-name="ampersand" horiz-adv-x="680" unicode="&amp;" d="M167 214q0 -45 30 -72t72 -27q30 0 55 18.5t49 63.5l-116 126q-51 -23 -70.5 -49.5t-19.5 -59.5zM237 568q0 -19 12 -39t41 -47q42 20 58 40t16 44q0 29 -18 46t-48 17q-25 0 -43 -18t-18 -43zM299 755q40 0 75 -14.5t61 -39t40.5 -58t14.5 -71.5q0 -58 -27 -102.5 t-90 -79.5l68 -76l72 123h148l-127 -224l131 -142l-97 -86l-102 111q-78 -111 -188 -111q-51 0 -95.5 18.5t-77.5 50.5t-52 75t-19 91q0 64 32.5 114.5t106.5 94.5q-36 42 -49 73t-13 66q0 40 14.5 74t40 59t59.5 39.5t74 14.5z"/>
<glyph glyph-name="quotesingle" horiz-adv-x="220" unicode="&apos;" d="M151 444h-81l-26 296h133z"/>
<glyph glyph-name="parenleft" horiz-adv-x="380" unicode="(" d="M350 610q-69 -57 -104 -138t-35 -174q0 -44 9.5 -90t27.5 -87.5t44 -76.5t58 -57v-144q-56 17 -106.5 61t-88 105.5t-59.5 135.5t-22 152q0 73 19 144.5t55 133t87 108.5t115 71v-144z"/>
<glyph glyph-name="parenright" horiz-adv-x="380" unicode=")" d="M37 -13q69 57 104 138t35 174q0 44 -9.5 90t-27.5 87.5t-44 76t-58 57.5v144q56 -17 106.5 -61t88 -105.5t59.5 -135.5t22 -152q0 -73 -19 -144.5t-55 -133t-87 -108.5t-115 -71v144z"/>
<glyph glyph-name="asterisk" horiz-adv-x="440" unicode="*" d="M373 571l-101 5l56 -83l-61 -36l-46 92l-47 -92l-61 36l57 83l-103 -5v67l102 -5l-55 83l56 39l51 -92l51 92l56 -39l-56 -83l101 5v-67z"/>
<glyph glyph-name="plus" d="M360 506v-193h192v-120h-192v-193h-120v193h-192v120h192v193h120z" unicode="+"/>
<glyph glyph-name="comma" horiz-adv-x="280" unicode="," d="M206 133v-144q0 -55 -34 -92.5t-98 -37.5v67q35 7 46.5 21.5t11.5 52.5h-59v133h133z"/>
<glyph glyph-name="hyphen" horiz-adv-x="420" unicode="-" d="M349 348v-118h-278v118h278z"/>
<glyph glyph-name="period" horiz-adv-x="280" unicode="." d="M206 133v-133h-133v133h133z"/>
<glyph glyph-name="slash" horiz-adv-x="460" unicode="/" d="M454 740l-314 -840h-134l313 840h135z"/>
<glyph glyph-name="zero" horiz-adv-x="560" unicode="0" d="M165 245q0 -58 30 -96t86 -38q55 0 85 37t30 94v266q0 24 -8.5 46t-23.5 38.5t-36.5 26.5t-46.5 10q-27 0 -48.5 -10t-36.5 -27t-23 -40t-8 -49v-258zM285 755q54 0 98.5 -19.5t77 -53t50.5 -78t18 -94.5v-281q0 -53 -18 -97.5t-51 -77t-79.5 -51t-102.5 -18.5 q-44 0 -88 15.5t-79 46.5t-57 76t-22 105v281q0 54 18.5 99t52 77.5t80 51t102.5 18.5z"/>
<glyph glyph-name="one" horiz-adv-x="560" unicode="1" d="M363 740v-740h-133v614h-93v126h226z"/>
<glyph glyph-name="two" horiz-adv-x="560" unicode="2" d="M279 755q52 0 96.5 -19.5t77.5 -52.5t51.5 -77t18.5 -94q0 -62 -31.5 -121.5t-111.5 -130.5l-150 -134h293v-126h-479v126l266 247q44 41 62 75t18 70q0 48 -30 79.5t-78 31.5q-19 0 -39 -7t-36.5 -22.5t-27 -41t-10.5 -62.5v-10h-132q-1 4 -1 9v7q0 60 20.5 107.5 t54.5 79.5t78 49t90 17z"/>
<glyph glyph-name="three" horiz-adv-x="560" unicode="3" d="M280 755q40 0 76 -16t63.5 -43t43.5 -63.5t16 -77.5q0 -42 -15 -74.5t-49 -56.5q58 -25 87.5 -75t29.5 -116q0 -53 -20 -98.5t-54.5 -78.5t-80.5 -52t-99 -19q-50 0 -94 17.5t-77.5 49t-54 75t-24.5 96.5h133q3 -24 13 -44.5t26 -35.5t36.5 -23.5t44.5 -8.5t45.5 10 t37.5 26.5t25.5 38t9.5 45.5q0 54 -38 88.5t-111 34.5h-20v126h21q48 0 71.5 22t23.5 57q0 32 -16.5 51t-49.5 19q-27 0 -45.5 -19t-20.5 -49h-133q4 48 21.5 84.5t45 60.5t61.5 36.5t71 12.5z"/>
<glyph glyph-name="four" horiz-adv-x="560" unicode="4" d="M332 515l-174 -278h176v278h-2zM467 740v-503h78v-126h-78v-111h-133v111h-319v109l340 520h112z"/>
<glyph glyph-name="five" horiz-adv-x="560" unicode="5" d="M463 740v-126h-235l-24 -136q24 10 47 15.5t48 5.5q51 0 94.5 -21.5t75 -57t49 -82t17.5 -95.5q0 -53 -20 -99.5t-54.5 -82t-81.5 -56t-101 -20.5q-48 0 -92.5 18t-79.5 50t-57 74.5t-24 92.5h133q9 -51 40.5 -80t76.5 -29q28 0 51 10.5t40 28.5t26.5 42t9.5 51 q0 25 -9.5 48.5t-26 41.5t-39.5 29t-50 11q-33 0 -56.5 -13.5t-43.5 -39.5l-119 33l70 387h335z"/>
<glyph glyph-name="six" horiz-adv-x="560" unicode="6" d="M156 244q0 -27 9.5 -51.5t26.5 -42.5t39.5 -28.5t48.5 -10.5t48.5 10t39 27.5t26 41t9.5 49.5t-9.5 49.5t-26.5 41.5t-40.5 28.5t-50.5 10.5q-24 0 -46 -10t-38.5 -27t-26 -40t-9.5 -48zM445 739l-164 -250q7 2 14.5 2.5t16.5 0.5q48 0 89 -19.5t71 -52.5t47 -77t17 -92 q0 -56 -20 -104.5t-54.5 -84.5t-81 -56.5t-100.5 -20.5q-56 0 -103 21t-81 57t-53.5 84.5t-19.5 102.5q0 46 15.5 88t45.5 88l205 313h156z"/>
<glyph glyph-name="seven" horiz-adv-x="560" unicode="7" d="M498 740v-126l-267 -614h-148l276 614h-297v126h436z"/>
<glyph glyph-name="eight" horiz-adv-x="560" unicode="8" d="M166 225q0 -24 9 -44.5t24.5 -36t36 -24.5t44.5 -9t44.5 9t36 25t24.5 36.5t9 43.5q0 22 -9 43t-24.5 36.5t-36.5 25t-45 9.5q-23 0 -43.5 -9t-36 -24.5t-24.5 -36.5t-9 -44zM202 549q0 -16 6.5 -30.5t17 -25t24.5 -17t30 -6.5q32 0 55.5 23.5t23.5 55.5q0 33 -23.5 56.5 t-56.5 23.5q-30 0 -53.5 -23.5t-23.5 -56.5zM280 755q43 0 80 -16t64.5 -43.5t43.5 -64.5t16 -80q0 -39 -15 -71t-52 -69q110 -60 110 -186q0 -50 -20 -93.5t-53.5 -76t-78.5 -51.5t-95 -19t-95 19t-78.5 51.5t-53.5 76t-20 93.5q0 127 110 186q-32 30 -49 62.5t-17 77.5 q0 42 15.5 79.5t43 65t64.5 43.5t80 16z"/>
<glyph glyph-name="nine" horiz-adv-x="560" unicode="9" d="M157 500q0 -28 9 -52t25.5 -41t39.5 -27t50 -10q26 0 48.5 10t39 27.5t26 40t9.5 47.5q0 26 -9 50t-25.5 42.5t-39 29.5t-50.5 11q-26 0 -48 -10.5t-39 -28t-26.5 -40.5t-9.5 -49zM280 754q55 0 102.5 -21t81.5 -57t53.5 -84t19.5 -103q0 -48 -16.5 -92t-44.5 -86 l-205 -311h-156l164 250q-4 -1 -12.5 -2t-19.5 -1q-47 0 -87.5 18.5t-70.5 51t-47.5 76.5t-17.5 95q0 54 19.5 102.5t54 84.5t81 57.5t101.5 21.5z"/>
<glyph glyph-name="colon" horiz-adv-x="280" unicode=":" d="M206 133v-133h-133v133h133zM206 555v-133h-133v133h133z"/>
<glyph glyph-name="semicolon" horiz-adv-x="280" unicode=";" d="M206 133v-144q0 -55 -34 -92t-98 -38v67q35 7 46.5 21.5t11.5 52.5h-59v133h133zM206 555v-133h-133v133h133z"/>
<glyph glyph-name="less" d="M554 399l-352 -146l352 -146v-115l-508 214v94l508 214v-115z" unicode="&lt;"/>
<glyph glyph-name="equal" d="M552 201v-120h-504v120h504zM552 425v-120h-504v120h504z" unicode="="/>
<glyph glyph-name="greater" d="M46 514l508 -214v-94l-508 -214v115l352 146l-352 146v115z" unicode="&gt;"/>
<glyph glyph-name="question" horiz-adv-x="560" unicode="?" d="M326 133v-133h-133v133h133zM270 755q47 0 87.5 -17.5t70 -48t46.5 -72t17 -90.5q0 -56 -27 -97.5t-70 -80.5q-23 -20 -36 -35.5t-20.5 -30.5t-9.5 -32.5t-2 -42.5v-21h-133v19q0 36 4.5 65t16 55.5t31 50.5t49.5 50q19 16 31.5 29t19.5 24.5t10 22.5t3 24q0 45 -24.5 70 t-69.5 25q-43 0 -64.5 -22t-28.5 -76h-133q4 61 26 104.5t54.5 71.5t72 41.5t79.5 13.5z"/>
<glyph glyph-name="at" horiz-adv-x="740" unicode="@" d="M283 308q0 -40 21.5 -64.5t57.5 -24.5q28 0 51.5 15t40.5 38t26.5 51.5t9.5 55.5q0 37 -21.5 61t-56.5 24q-27 0 -50.5 -14t-41 -36.5t-27.5 -50t-10 -55.5zM416 712q67 0 127.5 -21.5t106.5 -61t73 -94t27 -120.5q0 -78 -35 -142q-17 -31 -41.5 -56.5t-52.5 -43.5 t-56 -28t-52 -10q-26 0 -41.5 16t-16.5 41h-2q-20 -27 -47.5 -42t-61.5 -15q-32 0 -59.5 13t-47 35.5t-30.5 51.5t-11 61q0 49 16 94.5t44.5 80.5t68 56t86.5 21q36 0 64 -17t40 -52h2l15 55h83l-72 -273q-3 -12 -3 -22q0 -20 18 -20q20 0 40.5 16t37 42t26.5 58t10 64 q0 55 -19 99.5t-52.5 76.5t-81 49.5t-104.5 17.5q-60 0 -112 -23t-90 -63t-59.5 -93.5t-21.5 -114.5q0 -57 19.5 -109.5t57 -92.5t92 -64t124.5 -24q60 0 117.5 23t99.5 68h76q-49 -76 -126.5 -118.5t-170.5 -42.5q-76 0 -143.5 27.5t-118.5 76t-80 115t-29 144.5 q0 74 29 139.5t78.5 114.5t116 78t142.5 29z"/>
<glyph glyph-name="A" horiz-adv-x="740" unicode="A" d="M367 547l-84 -227h170l-84 227h-2zM422 740l310 -740h-151l-79 191h-265l-79 -191h-151l308 740h107z"/>
<glyph glyph-name="B" horiz-adv-x="580" unicode="B" d="M279 128q63 0 99 23.5t36 74.5q0 48 -37.5 73t-94.5 25h-75v-196h72zM207 452h48q60 0 87.5 21t27.5 59t-27.5 59t-75.5 21h-60v-160zM245 740q75 0 124 -15t79 -46q59 -61 59 -135q0 -94 -83 -140q66 -24 96.5 -69t30.5 -115q0 -41 -14.5 -80t-46.5 -70.5t-83 -50.5 t-125 -19h-212v740h175z"/>
<glyph glyph-name="C" horiz-adv-x="780" unicode="C" d="M417 755q55 0 108 -15.5t99 -44.5t82.5 -71t59.5 -95h-156q-40 46 -87.5 72t-110.5 26q-50 0 -94 -21.5t-76.5 -57.5t-51.5 -82t-19 -95q0 -50 19.5 -96.5t52.5 -82.5t78 -57.5t96 -21.5q52 0 96 21t90 72h159q-21 -50 -57 -90.5t-81.5 -69.5t-97.5 -45t-106 -16 q-77 0 -147 30t-123 82.5t-84.5 123.5t-31.5 152q0 77 30 146.5t82 122t122 83t149 30.5z"/>
<glyph glyph-name="D" horiz-adv-x="700" unicode="D" d="M200 128h44q74 0 127 19t86 54q18 19 30 40.5t19.5 43.5t10.5 43.5t3 39.5q0 46 -16.5 89.5t-48.5 78.5q-34 37 -86.5 56.5t-128.5 19.5h-40v-484zM240 740q47 0 93 -5.5t87.5 -18.5t77 -34t62.5 -52q32 -36 51.5 -74.5t29.5 -73t13 -62t3 -43.5q0 -85 -26.5 -151 t-69.5 -113q-27 -29 -58 -50.5t-69.5 -35.5t-86 -20.5t-106.5 -6.5h-178v740h177z"/>
<glyph glyph-name="E" horiz-adv-x="520" unicode="E" d="M459 740v-128h-261v-181h250v-128h-250v-175h261v-128h-398v740h398z"/>
<glyph glyph-name="F" horiz-adv-x="480" unicode="F" d="M438 740v-128h-240v-181h229v-128h-229v-303h-137v740h377z"/>
<glyph glyph-name="G" horiz-adv-x="840" unicode="G" d="M421 755q53 0 108.5 -16t104.5 -46t87.5 -73t58.5 -97h-164q-32 49 -86 76.5t-112 27.5q-54 0 -100 -20.5t-80.5 -55.5t-54 -82t-19.5 -100q0 -46 17.5 -91.5t50.5 -82t81.5 -59.5t111.5 -23q69 0 128 36t91 100h-310v128h483v-12q0 -75 -29 -145t-89 -126 q-59 -55 -130 -82t-144 -27q-77 0 -149 28t-127.5 79t-88.5 122t-33 156q0 79 31.5 149t85 122.5t125 83t152.5 30.5z"/>
<glyph glyph-name="H" horiz-adv-x="680" unicode="H" d="M208 740v-301h265v301h137v-740h-137v311h-265v-311h-137v740h137z"/>
<glyph glyph-name="I" horiz-adv-x="280" unicode="I" d="M209 740v-740h-137v740h137z"/>
<glyph glyph-name="J" horiz-adv-x="480" unicode="J" d="M409 740v-534q0 -54 -16 -95.5t-43.5 -69t-65.5 -42t-81 -14.5q-77 0 -131 48t-70 141h138q6 -26 21 -43.5t44 -17.5q34 0 50.5 24.5t16.5 60.5v542h137z"/>
<glyph glyph-name="K" horiz-adv-x="620" unicode="K" d="M226 740v-320h2l231 320h161l-279 -364l279 -376h-161l-231 325h-2v-325h-137v740h137z"/>
<glyph glyph-name="L" horiz-adv-x="440" unicode="L" d="M209 740v-612h226v-128h-363v740h137z"/>
<glyph glyph-name="M" horiz-adv-x="900" unicode="M" d="M253 740l197 -560h2l195 560h190v-740h-137v555h-3l-189 -555h-116l-190 555h-2v-555h-137v740h190z"/>
<glyph glyph-name="N" horiz-adv-x="740" unicode="N" d="M226 740l306 -538h2v538h137v-740h-153l-309 538h-2v-538h-137v740h156z"/>
<glyph glyph-name="O" horiz-adv-x="840" unicode="O" d="M170 369q0 -51 19 -97.5t53 -82t79.5 -56t98.5 -20.5q54 0 99.5 21t79 56t52.5 81.5t19 97.5q0 52 -19 98.5t-53 82t-79.5 56.5t-99.5 21q-51 0 -96.5 -20.5t-79.5 -56t-53.5 -82.5t-19.5 -99zM420 755q81 0 151.5 -30.5t123 -83t82.5 -123t30 -150.5q0 -79 -30 -148.5 t-82.5 -121.5t-123 -82.5t-151.5 -30.5q-76 0 -146 29t-123.5 80t-85.5 121t-32 153q0 77 29 147t80.5 123.5t122.5 85t155 31.5z"/>
<glyph glyph-name="P" horiz-adv-x="560" unicode="P" d="M209 410h48q48 0 77.5 8t46 22t22 32.5t5.5 38.5q0 22 -6 40.5t-22.5 32t-46 21t-75.5 7.5h-49v-202zM297 740q62 0 108.5 -17.5t77.5 -48t46.5 -72.5t15.5 -91q0 -51 -16 -93t-47 -72.5t-77.5 -47t-106.5 -16.5h-89v-282h-137v740h225z"/>
<glyph glyph-name="Q" horiz-adv-x="840" unicode="Q" d="M212 227q34 -54 89 -84t118 -30q28 0 51 5.5t50 16.5q-73 54 -132.5 77.5t-117.5 23.5q-15 0 -29.5 -2t-28.5 -7zM169 373q0 -5 0.5 -10.5t1.5 -7.5q26 6 51 7.5t49 1.5q44 0 90 -10.5t90.5 -30t86 -47t77.5 -61.5h2q28 38 40 72t12 82q0 54 -19.5 101t-53.5 82t-80 55 t-98 20q-51 0 -96 -20.5t-79 -55t-54 -81t-20 -97.5zM419 755q78 0 148 -29.5t123 -81t84.5 -121.5t31.5 -150q0 -69 -19 -125t-62 -111q20 -13 41 -18.5t58 -5.5v-128h-11q-27 0 -50.5 3.5t-45 11t-43 19t-45.5 27.5q-96 -61 -210 -61q-76 0 -146 28.5t-123.5 79.5 t-85.5 121t-32 154q0 79 30 149.5t82 123t123 83.5t152 31z"/>
<glyph glyph-name="R" horiz-adv-x="580" unicode="R" d="M292 386q58 0 93.5 29.5t35.5 84.5q0 27 -10 48t-27.5 35t-41 21.5t-50.5 7.5h-91v-226h91zM315 740q55 0 99.5 -18t76.5 -49.5t49.5 -73.5t17.5 -90q0 -26 -8 -62t-29.5 -71t-59.5 -63.5t-97 -39.5l201 -273h-166l-196 283h-2v-283h-137v740h251z"/>
<glyph glyph-name="S" horiz-adv-x="520" unicode="S" d="M256 755q43 0 81.5 -15.5t68 -43t48 -66.5t21.5 -86h-140v1q-3 36 -23.5 59t-59.5 23q-32 0 -54 -21t-22 -54q0 -36 23.5 -58t71.5 -36q117 -35 169.5 -90.5t52.5 -146.5q0 -54 -18.5 -98t-51 -74.5t-76 -47t-94.5 -16.5q-48 0 -91 16.5t-75 46.5t-52 72t-23 92h144 q5 -46 30.5 -72.5t67.5 -26.5q21 0 39.5 7t32.5 20t22 30t8 37q0 41 -25 66t-70 41q-44 16 -84 32t-71 40.5t-49 62t-18 95.5q0 47 17.5 86t47 66.5t69 43t83.5 15.5z"/>
<glyph glyph-name="T" horiz-adv-x="420" unicode="T" d="M418 740v-128h-138v-612h-137v612h-137v128h412z"/>
<glyph glyph-name="U" horiz-adv-x="640" unicode="U" d="M192 740v-474q0 -75 32 -114t96 -39q66 0 97 40t31 113v474h137v-488q0 -74 -25.5 -125t-64.5 -82.5t-85.5 -45.5t-88.5 -14q-41 0 -87.5 13.5t-86.5 45t-66 83t-26 127.5v486h137z"/>
<glyph glyph-name="V" horiz-adv-x="700" unicode="V" d="M152 740l198 -563h2l199 563h144l-287 -740h-112l-288 740h144z"/>
<glyph glyph-name="W" horiz-adv-x="900" unicode="W" d="M147 740l128 -517h2l127 517h100l124 -517h2l129 517h140l-215 -740h-109l-120 489h-2l-122 -489h-108l-216 740h140z"/>
<glyph glyph-name="X" horiz-adv-x="680" unicode="X" d="M167 740l173 -258l178 258h158l-256 -371l256 -369h-158l-178 256l-173 -256h-163l255 369l-255 371h163z"/>
<glyph glyph-name="Y" horiz-adv-x="620" unicode="Y" d="M148 740l161 -340l162 340h151l-244 -467v-273h-137v273l-243 467h150z"/>
<glyph glyph-name="Z" horiz-adv-x="500" unicode="Z" d="M462 740v-119l-281 -493h300v-128h-462v112l283 500h-268v128h428z"/>
<glyph glyph-name="bracketleft" horiz-adv-x="320" unicode="[" d="M284 608q-27 -12 -43 -29.5t-24.5 -42.5t-11 -57.5t-2.5 -74.5v-253q0 -74 21.5 -111t59.5 -51v-146q-111 26 -164.5 111t-53.5 220v280q0 111 51.5 188.5t166.5 111.5v-146z"/>
<glyph glyph-name="backslash" horiz-adv-x="640" unicode="\" d="M231 740l313 -840h-134l-314 840h135z"/>
<glyph glyph-name="bracketright" horiz-adv-x="320" unicode="]" d="M36 -11q27 12 43 29.5t24.5 42.5t11 57.5t2.5 74.5v253q0 74 -21.5 111t-59.5 51v146q111 -26 164.5 -111t53.5 -220v-280q0 -111 -51.5 -188.5t-166.5 -111.5v146z"/>
<glyph glyph-name="asciicircum" d="M353 740l174 -365h-120l-107 248l-108 -248h-119l174 365h106z" unicode="^"/>
<glyph glyph-name="underscore" horiz-adv-x="500" unicode="_" d="M500 -75v-50h-500v50h500z"/>
<glyph glyph-name="grave" horiz-adv-x="420" unicode="`" d="M329 686l-53 -92l-226 125l57 102z"/>
<glyph glyph-name="a" horiz-adv-x="660" unicode="a" d="M160 275q0 -35 12.5 -66t34.5 -54.5t52.5 -37t65.5 -13.5q36 0 66 14t51.5 38t33 55.5t11.5 67.5t-12 68t-33.5 55t-51.5 36.5t-66 13.5q-35 0 -65 -13.5t-52 -37.5t-34.5 -56.5t-12.5 -69.5zM305 574q29 0 57.5 -8t53 -20.5t43.5 -28.5t30 -32h2v70h122v-555h-122v69 q-17 -20 -39.5 -36t-48.5 -27t-53.5 -17.5t-53.5 -6.5q-59 0 -108 23t-85 63.5t-56 95t-20 117.5q0 60 21 113.5t58 93.5t88 63t111 23z"/>
<glyph glyph-name="b" horiz-adv-x="660" unicode="b" d="M172 285q0 -38 12 -70.5t34 -57.5t53 -39t68 -14q35 0 64.5 13t50.5 36.5t33 55.5t12 70q0 36 -12.5 68t-34 55t-51.5 36.5t-65 13.5q-34 0 -63.5 -13.5t-52 -36t-35.5 -53t-13 -64.5zM180 740v-235q33 33 79 51t94 18q61 0 112 -24t88 -64.5t58 -92.5t21 -107 q0 -59 -18.5 -113.5t-54 -97t-87 -68t-116.5 -25.5q-60 0 -103.5 19.5t-83.5 65.5v-67h-122v740h133z"/>
<glyph glyph-name="c" horiz-adv-x="640" unicode="c" d="M331 574q47 0 90.5 -13.5t80 -40t64.5 -64t44 -85.5h-150q-22 39 -52.5 60t-76.5 21q-35 0 -64.5 -13.5t-51 -36.5t-33.5 -55t-12 -69t12.5 -69t35 -55t53 -36.5t66.5 -13.5q42 0 72 21.5t51 55.5h150q-35 -95 -109 -147t-169 -52q-62 0 -115.5 23.5t-93.5 64t-63 95 t-23 115.5q0 60 23 113.5t63 93.5t93.5 63.5t114.5 23.5z"/>
<glyph glyph-name="d" horiz-adv-x="660" unicode="d" d="M167 282q0 -37 12.5 -69.5t35 -56.5t52 -38t64.5 -14q34 0 63.5 14t52 37.5t35.5 55t13 67.5q0 34 -12.5 65.5t-34.5 55.5t-52.5 38.5t-65.5 14.5q-32 0 -61 -13.5t-52 -37t-36.5 -54.5t-13.5 -65zM618 740v-740h-122v68h-2q-27 -42 -74.5 -64t-102.5 -22 q-58 0 -109.5 23t-90 62.5t-61 93.5t-22.5 116q0 66 24 120.5t64 94t91.5 61t106.5 21.5q51 0 89.5 -15.5t75.5 -52.5v234h133z"/>
<glyph glyph-name="e" horiz-adv-x="640" unicode="e" d="M474 325q-10 60 -49 93.5t-102 33.5q-55 0 -97.5 -31.5t-58.5 -95.5h307zM323 574q60 0 112.5 -22.5t91.5 -61.5t61 -91.5t22 -113.5q0 -29 -8 -67h-431q4 -18 16.5 -38.5t33 -37t46.5 -27.5t57 -11q42 0 75 17t53 54h140q-14 -42 -40.5 -77.5t-62.5 -61t-78.5 -40 t-86.5 -14.5q-63 0 -116.5 23t-92.5 62.5t-61.5 93t-22.5 115.5q0 61 22 115.5t61 95t92.5 64t116.5 23.5z"/>
<glyph glyph-name="f" horiz-adv-x="280" unicode="f" d="M280 624q-26 0 -42 -3.5t-25 -12t-13 -21.5t-5 -32h78v-118h-78v-437h-133v437h-47v118h47q4 59 23.5 97.5t46.5 61.5t57 32t55 9h36v-131z"/>
<glyph glyph-name="g" horiz-adv-x="660" unicode="g" d="M165 282q0 -36 12.5 -68.5t34.5 -56.5t52.5 -38.5t66.5 -14.5q35 0 64 14.5t50 39.5t33 57t12 68q0 33 -12.5 63.5t-35 54t-52.5 37.5t-64 14q-33 0 -62 -13t-51 -36t-35 -54t-13 -67zM315 574q54 0 100.5 -21t76.5 -66h2v68h129v-463q0 -75 -24.5 -134.5t-66 -100 t-96.5 -62t-116 -21.5q-47 0 -90 13t-79.5 37t-65 58t-44.5 76h152q28 -33 61.5 -47.5t75.5 -14.5q34 0 64 12.5t52.5 35t36.5 54.5t17 71l-2 2q-33 -48 -79 -68.5t-103 -20.5q-54 0 -105 22.5t-90.5 62t-64 95t-24.5 121.5q0 59 22.5 112t60.5 92.5t89.5 63t110.5 23.5z "/>
<glyph glyph-name="h" d="M187 740v-224q61 58 144 58q25 0 62 -10.5t71 -36.5t58 -72t24 -116v-339h-133v289q0 87 -28.5 125t-85.5 38q-112 0 -112 -165v-287h-133v740h133z" unicode="h"/>
<glyph glyph-name="i" horiz-adv-x="240" unicode="i" d="M186 555v-555h-133v555h133zM186 740v-122h-133v122h133z"/>
<glyph glyph-name="j" horiz-adv-x="260" unicode="j" d="M205 555v-535q0 -42 -12.5 -79.5t-37 -65t-59.5 -44t-80 -16.5v130q15 1 26 4.5t17.5 11.5t9.5 22t3 38v534h133zM205 740v-122h-133v122h133z"/>
<glyph glyph-name="k" horiz-adv-x="580" unicode="k" d="M213 740v-446h2l177 261h153l-200 -272l226 -283h-168l-188 260h-2v-260h-133v740h133z"/>
<glyph glyph-name="l" horiz-adv-x="240" unicode="l" d="M187 740v-740h-133v740h133z"/>
<glyph glyph-name="m" horiz-adv-x="940" unicode="m" d="M323 574q51 0 92 -22.5t68 -64.5q34 48 78 67.5t101 19.5q44 0 85 -13.5t72 -42.5t49.5 -74.5t18.5 -109.5v-334h-133v312q0 66 -25 103t-76 37q-17 0 -37 -5.5t-37.5 -21t-29.5 -44.5t-12 -77v-304h-133v312q0 63 -27.5 101.5t-82.5 38.5q-53 0 -80 -38t-27 -131v-283 h-133v555h122v-47h2q20 32 58 49t87 17z"/>
<glyph glyph-name="n" d="M330 574q27 0 64.5 -10t71 -37.5t57.5 -75.5t24 -123v-328h-133v279q0 85 -27.5 129t-84.5 44q-15 0 -35 -6t-38 -22.5t-30 -45.5t-12 -75v-303h-133v555h123v-48q33 32 69 49.5t84 17.5z" unicode="n"/>
<glyph glyph-name="o" horiz-adv-x="640" unicode="o" d="M158 277q0 -35 12 -66.5t34 -55t51.5 -37.5t65.5 -14q35 0 64.5 14t51 37.5t33.5 54.5t12 66q0 34 -12 66t-33.5 56.5t-51.5 39t-65 14.5q-33 0 -62.5 -14.5t-51.5 -38.5t-35 -55.5t-13 -66.5zM321 574q63 0 117 -23.5t93 -64t61.5 -94t22.5 -113.5q0 -62 -22 -116.5 t-61 -94.5t-93 -63t-118 -23q-61 0 -115 23.5t-94 64t-63.5 94t-23.5 113.5t23 114t62.5 94.5t93.5 64.5t117 24z"/>
<glyph glyph-name="p" horiz-adv-x="660" unicode="p" d="M172 278q0 -44 15.5 -76.5t39.5 -54.5t52.5 -32.5t54.5 -10.5q34 0 63.5 14t51.5 38t34.5 55.5t12.5 66.5q0 34 -12 65.5t-33.5 55.5t-51 38.5t-64.5 14.5t-64.5 -13.5t-51.5 -37.5t-34.5 -55.5t-12.5 -67.5zM351 574q61 0 112 -24t88 -64.5t57.5 -93.5t20.5 -112 q0 -61 -21.5 -115.5t-59 -95t-88 -64t-109.5 -23.5q-53 0 -92 16t-79 55v-238h-133v740h122v-65h2q35 45 80 64.5t100 19.5z"/>
<glyph glyph-name="q" horiz-adv-x="660" unicode="q" d="M164 280q0 -37 12 -69t34 -56t51.5 -37.5t65.5 -13.5q35 0 64.5 14.5t50.5 38.5t33 55.5t12 64.5q0 34 -12 66t-33 56t-51 38.5t-66 14.5q-33 0 -62 -13.5t-51 -36.5t-35 -54.5t-13 -67.5zM312 574q57 0 101 -20.5t76 -68.5h2v70h122v-740h-133v238q-34 -36 -77.5 -53.5 t-91.5 -17.5q-60 0 -111.5 24t-89 65.5t-58.5 96t-21 115.5q0 58 22 111t60.5 93t89.5 63.5t109 23.5z"/>
<glyph glyph-name="r" horiz-adv-x="320" unicode="r" d="M317 445q-121 -5 -121 -129v-316h-133v555h122v-49h2q26 39 53 53.5t74 14.5h3v-129z"/>
<glyph glyph-name="s" horiz-adv-x="440" unicode="s" d="M225 574q35 0 67 -12t56.5 -34.5t40 -54t17.5 -69.5h-130q-5 22 -17.5 35t-35.5 13q-21 0 -36 -13.5t-15 -34.5q0 -10 3 -17.5t12.5 -14t27.5 -13.5t48 -16q49 -14 79.5 -32t48 -39t24 -45t6.5 -51q0 -42 -15 -77.5t-41 -61.5t-61.5 -40.5t-76.5 -14.5q-39 0 -75.5 11.5 t-65 35t-46.5 60t-21 86.5h136q8 -38 26 -54.5t47 -16.5q26 0 43 16t17 40q0 15 -5.5 25t-18.5 18t-33 16t-48 17q-42 13 -69.5 31t-44 39.5t-23.5 45.5t-7 50q0 37 15 68.5t40.5 54.5t59 36t71.5 13z"/>
<glyph glyph-name="t" horiz-adv-x="300" unicode="t" d="M219 740v-185h80v-118h-80v-437h-133v437h-65v118h65v185h133z"/>
<glyph glyph-name="u" d="M183 555v-287q0 -81 28 -122.5t88 -41.5q58 0 85 45t27 118v288h133v-555h-122v56h-2q-28 -38 -62.5 -56t-72.5 -18q-50 0 -93 13.5t-74.5 43.5t-49.5 77t-18 113v326h133z" unicode="u"/>
<glyph glyph-name="v" horiz-adv-x="560" unicode="v" d="M147 555l134 -368h3l126 368h146l-225 -555h-104l-224 555h144z"/>
<glyph glyph-name="w" horiz-adv-x="800" unicode="w" d="M153 555l101 -339h2l91 339h106l90 -339h2l102 339h142l-203 -555h-82l-104 360h-2l-105 -360h-82l-200 555h142z"/>
<glyph glyph-name="x" horiz-adv-x="560" unicode="x" d="M177 555l102 -167l101 167h149l-172 -269l199 -286h-158l-119 190l-118 -190h-158l197 286l-172 269h149z"/>
<glyph glyph-name="y" horiz-adv-x="580" unicode="y" d="M160 555l126 -356l134 356h151l-319 -740h-143l102 236l-203 504h152z"/>
<glyph glyph-name="z" horiz-adv-x="460" unicode="z" d="M425 555v-122l-246 -311h263v-122h-422v122l246 311h-218v122h377z"/>
<glyph glyph-name="braceleft" horiz-adv-x="340" unicode="{" d="M317 747v-90h-47q-16 0 -27.5 -14t-11.5 -48v-217q0 -40 -30.5 -65.5t-94.5 -28.5v-3q69 -3 97 -29t28 -74v-217q0 -31 11 -46.5t28 -15.5h47v-90h-85q-24 0 -49 10t-44.5 28t-32 42.5t-12.5 54.5v221q0 28 -24.5 47.5t-72.5 20.5v99q48 1 72.5 17.5t24.5 41.5v221 q0 33 14 58t35 42.5t44.5 26t41.5 8.5h88z"/>
<glyph glyph-name="bar" d="M366 750v-1000h-133v1000h133z" unicode="|"/>
<glyph glyph-name="braceright" horiz-adv-x="340" unicode="}" d="M111 747q18 0 41.5 -8.5t44.5 -26t35 -42.5t14 -58v-221q0 -25 24.5 -41.5t72.5 -17.5v-99q-48 -1 -72.5 -20.5t-24.5 -47.5v-221q0 -30 -12.5 -54.5t-32 -42.5t-44.5 -28t-49 -10h-85v90h47q17 0 28 15.5t11 46.5v217q0 48 28 74t97 29v3q-64 3 -94.5 28.5t-30.5 65.5 v217q0 34 -11.5 48t-27.5 14h-47v90h88z"/>
<glyph glyph-name="asciitilde" d="M533 249q-37 -51 -65 -69.5t-62 -18.5q-30 0 -55 10.5t-50 23.5t-52 23.5t-60 10.5q-25 0 -46 -16.5t-40 -52.5l-36 96q26 47 56.5 68t70.5 21q27 0 56 -10.5t57.5 -23.5t54.5 -23.5t45 -10.5q22 0 42.5 16t47.5 54z" unicode="~"/>
<glyph glyph-name="uni00A0" horiz-adv-x="280" unicode=" "/>
<glyph glyph-name="exclamdown" horiz-adv-x="280" unicode="¡" d="M207 366v-551h-133v551h133zM207 555v-127h-133v127h133z"/>
<glyph glyph-name="cent" horiz-adv-x="560" unicode="¢" d="M349 715v-102q40 -12 69 -31t49.5 -42t32.5 -48t17 -49h-140q-14 21 -39.5 33.5t-53.5 12.5q-23 0 -42.5 -8.5t-34 -23.5t-23 -35t-8.5 -43t8.5 -43t23.5 -34.5t35 -23t43 -8.5t42 8t43 32h146q-26 -68 -65 -105t-103 -57v-109h-126v109q-41 9 -74 32t-56.5 55 t-36.5 70.5t-13 77.5q0 40 13.5 78t37.5 69t57 53t72 30v102h126z"/>
<glyph glyph-name="sterling" horiz-adv-x="560" unicode="£" d="M278 755q52 0 94.5 -20.5t73.5 -52t48.5 -69t18.5 -70.5h-135q-9 40 -36.5 63t-62.5 23q-48 0 -78 -34t-30 -85q0 -23 7.5 -41t20.5 -32h208v-126h-109q10 -20 16 -35t9.5 -28t4.5 -26.5t1 -29.5q0 -37 -11 -66h9q46 0 74 28.5t28 70.5q0 12 -2.5 25t-7.5 25h133 q6 -12 8 -24t2 -25q0 -44 -16 -85t-46.5 -72.5t-74.5 -50t-99 -18.5h-288v126h139q19 36 19 72q0 29 -11.5 54t-45.5 59h-141v126h56q-16 39 -16 80q0 49 19.5 92.5t52.5 75.5t76.5 51t91.5 19z"/>
<glyph glyph-name="currency" horiz-adv-x="602" unicode="¤" d="M174 341q0 -26 10 -49t27 -40.5t40.5 -28t49.5 -10.5t49 10.5t40.5 28t27.5 41t10 49.5t-10 49.5t-27.5 41t-40.5 27.5t-50 10q-26 0 -48.5 -10t-40 -27.5t-27.5 -41t-10 -50.5zM162 548q63 43 139 43q37 0 72.5 -10.5t65.5 -31.5l85 83l65 -66l-83 -83 q23 -31 34.5 -67.5t11.5 -74.5q0 -76 -43 -137l83 -82l-66 -67l-81 81q-32 -23 -69 -34.5t-75 -11.5q-39 0 -75.5 12t-68.5 34l-81 -80l-66 65l83 83q-43 61 -43 137q0 38 11.5 74t33.5 67l-85 84l66 67z"/>
<glyph glyph-name="yen" horiz-adv-x="560" unicode="¥" d="M127 740l154 -288l155 288h134l-138 -251h88v-105h-142l-31 -57v-33h164v-105h-164v-189h-133v189h-166v105h166v33l-32 57h-142v105h88l-138 251h137z"/>
<glyph glyph-name="brokenbar" d="M366 175v-350h-133v350h133zM366 675v-350h-133v350h133z" unicode="¦"/>
<glyph glyph-name="section" horiz-adv-x="560" unicode="§" d="M153 355q0 -34 56 -62l156 -79q16 12 28 28t12 37q0 16 -11.5 30.5t-43.5 30.5l-157 80q-17 -12 -28.5 -31t-11.5 -34zM289 755q93 0 144.5 -48.5t62.5 -139.5h-125q-12 66 -82 66q-35 0 -55.5 -15t-20.5 -39q0 -17 11 -29.5t33 -26t55.5 -29.5t77.5 -39q28 -15 53 -29 t44.5 -32.5t31 -43t11.5 -59.5q0 -38 -21.5 -75t-60.5 -66q26 -26 38 -54.5t12 -65.5q0 -43 -16.5 -78t-46 -59.5t-68.5 -37.5t-84 -13q-48 0 -88 15t-70 42.5t-47.5 66.5t-19.5 88h125q0 -43 27 -66.5t74 -23.5q37 0 63 17.5t26 47.5q0 19 -15.5 35t-45 33t-73 38t-98.5 51 q-42 23 -64.5 47t-33.5 46t-13 40t-2 28q0 48 21.5 82t67.5 65q-14 23 -21.5 44.5t-7.5 49.5q0 39 15 69.5t42 52.5t64 33.5t80 11.5z"/>
<glyph glyph-name="dieresis" horiz-adv-x="500" unicode="¨" d="M422 762v-133h-133v133h133zM212 762v-133h-134v133h134z"/>
<glyph glyph-name="copyright" horiz-adv-x="740" unicode="©" d="M375 599q36 0 69 -11t59.5 -31t43.5 -48t21 -62h-90q-13 40 -36.5 58.5t-65.5 18.5q-57 0 -91 -42t-34 -111q0 -72 32.5 -112.5t92.5 -40.5q42 0 66 17.5t36 59.5h90q-4 -33 -21 -61t-43 -48.5t-59.5 -31.5t-69.5 -11q-47 0 -86.5 17t-68 47t-44 72t-15.5 92t15.5 92 t44 72t68 47t86.5 17zM78 370q0 -61 22.5 -114.5t62 -94t93 -64t114.5 -23.5t114.5 23.5t93 64t62 94.5t22.5 114q0 61 -23 115t-62.5 94t-93 63.5t-114.5 23.5q-60 0 -113 -23t-92.5 -63.5t-62.5 -94.5t-23 -115zM371 752q79 0 148.5 -30t121 -82t81.5 -121.5t30 -148.5 q0 -76 -29 -145.5t-80 -122t-121 -83.5t-151 -31q-77 0 -146.5 29t-122 80t-83.5 121t-31 152q0 80 30.5 150t82.5 121.5t121.5 81t148.5 29.5z"/>
<glyph glyph-name="ordfeminine" horiz-adv-x="360" unicode="ª" d="M109 595q0 -30 20 -51t49 -21q31 0 50.5 22t19.5 52q0 31 -20 52t-50 21t-49.5 -22t-19.5 -53zM168 755q21 0 42.5 -8.5t33.5 -27.5h2v26h88v-297h-88v25h-2q-13 -19 -33.5 -27t-42.5 -8q-33 0 -60.5 12.5t-47 34.5t-30.5 51t-11 62t11.5 61.5t32 49.5t47.5 33.5t58 12.5 z"/>
<glyph glyph-name="guillemotleft" horiz-adv-x="460" unicode="«" d="M400 469v-123l-68 -57l68 -58v-123l-140 131v101zM201 469v-123l-68 -57l68 -58v-123l-140 131v101z"/>
<glyph glyph-name="logicalnot" d="M552 425v-317h-120v197h-384v120h504z" unicode="¬"/>
<glyph glyph-name="uni00AD" horiz-adv-x="420" unicode="­" d="M349 348v-118h-278v118h278z"/>
<glyph glyph-name="registered" horiz-adv-x="740" unicode="®" d="M78 370q0 -61 22.5 -114.5t62 -94t93 -64t114.5 -23.5t114.5 23.5t93 64t62 94.5t22.5 114q0 61 -23 115t-62.5 94t-93 63.5t-114.5 23.5q-60 0 -113 -23t-92.5 -63.5t-62.5 -94.5t-23 -115zM371 752q79 0 148.5 -30t121 -82t81.5 -121.5t30 -148.5q0 -76 -29 -145.5 t-80 -122t-121 -83.5t-151 -31q-77 0 -146.5 29t-122 80t-83.5 121t-31 152q0 80 30.5 150t82.5 121.5t121.5 81t148.5 29.5zM381 393q75 0 75 67q0 4 -1.5 13t-8 18t-20 16t-36.5 7h-96v-121h87zM398 585q69 0 108 -31t39 -88q0 -41 -19.5 -68.5t-61.5 -37.5v-2 q19 -6 33 -14.5t23 -22t13 -33.5t4 -49q0 -41 4 -61t9 -30h-88q-7 11 -9.5 29t-2.5 34q-1 38 -5.5 60.5t-17.5 33.5t-31 14.5t-32 3.5h-70v-175h-87v437h191z"/>
<glyph glyph-name="macron" horiz-adv-x="420" unicode="¯" d="M349 749v-111h-277v111h277z"/>
<glyph glyph-name="degree" horiz-adv-x="400" unicode="°" d="M129 569q0 -29 21 -51.5t50 -22.5t50 22.5t21 51.5q0 15 -6 28t-15.5 23.5t-22.5 16.5t-27 6t-27 -6t-22.5 -16.5t-15.5 -23.5t-6 -28zM200 712q31 0 57.5 -11.5t45.5 -31.5t29.5 -46t10.5 -54q0 -29 -11 -55t-30 -45.5t-45.5 -31t-56.5 -11.5t-56 11t-45.5 30.5 t-30.5 45.5t-11 56t11 56.5t30.5 45.5t45.5 30t56 11z"/>
<glyph glyph-name="plusminus" d="M552 120v-120h-504v120h504zM360 618v-156h192v-120h-192v-150h-120v150h-192v120h192v156h120z" unicode="±"/>
<glyph glyph-name="twosuperior" horiz-adv-x="336" unicode="²" d="M167 874q31 0 59.5 -11.5t49.5 -31.5t33.5 -47t12.5 -57q0 -37 -19 -71.5t-68 -77.5l-80 -71h167v-86h-304v81l159 147q31 28 40 45.5t9 34.5q0 26 -16.5 42.5t-42.5 16.5q-58 0 -58 -80h-95q-1 3 -1 16q0 34 13 61.5t34.5 47t49.5 30.5t57 11z"/>
<glyph glyph-name="threesuperior" horiz-adv-x="336" unicode="³" d="M167 874q25 0 48.5 -10t41 -26.5t28 -39t10.5 -46.5q0 -23 -8 -42t-26 -34q32 -14 49.5 -45t17.5 -69q0 -32 -13 -59t-35 -47.5t-51.5 -32t-62.5 -11.5q-32 0 -60 10.5t-49 30t-34 47t-15 60.5h96q2 -28 20 -45t45 -17q28 0 45.5 18.5t17.5 45.5q0 34 -21 50t-72 16h-6 v86h11q32 0 43.5 9.5t11.5 29.5q0 35 -34 35q-16 0 -22 -11t-6 -25h-96q3 57 38.5 89.5t87.5 32.5z"/>
<glyph glyph-name="acute" horiz-adv-x="420" unicode="´" d="M311 821l57 -102l-226 -125l-53 92z"/>
<glyph glyph-name="mu" horiz-adv-x="623" unicode="µ" d="M189 555v-303q0 -71 32 -104.5t89 -33.5q58 0 91 41.5t33 113.5v286h133v-555h-126v73h-3q-22 -39 -59.5 -62.5t-82.5 -23.5q-71 0 -107 39v-211h-133v740h133z"/>
<glyph glyph-name="paragraph" d="M607 740v-103h-79v-740h-113v740h-97v-740h-113v458q-102 1 -157 51t-55 138q0 100 63 148t186 48h365z" unicode="¶"/>
<glyph glyph-name="periodcentered" horiz-adv-x="280" unicode="·" d="M206 320v-133h-133v133h133z"/>
<glyph glyph-name="cedilla" horiz-adv-x="340" unicode="¸" d="M154 6l50 -7l-24 -54q7 1 13 1.5t12 0.5q42 0 67.5 -28.5t25.5 -71.5q0 -45 -27.5 -71.5t-72.5 -26.5q-18 0 -36 7t-32 18.5t-23 27.5t-9 34h53q3 -18 16.5 -27.5t30.5 -9.5q21 0 33.5 14t12.5 34t-13.5 35t-33.5 15q-13 0 -24.5 -5t-18.5 -17l-49 19z"/>
<glyph glyph-name="onesuperior" horiz-adv-x="248" unicode="¹" d="M176 865v-444h-96v358h-55v86h151z"/>
<glyph glyph-name="ordmasculine" horiz-adv-x="360" unicode="º" d="M113 596q0 -29 19.5 -51t48.5 -22q28 0 47.5 21t19.5 51q0 15 -5.5 28.5t-14.5 24t-21 16.5t-26 6q-29 0 -48.5 -22t-19.5 -52zM181 755q33 0 62 -12.5t50 -34.5t33 -50.5t12 -60.5q0 -33 -12 -62t-33 -50.5t-50 -34t-62 -12.5t-61.5 13t-50 34.5t-34 50t-12.5 60.5 q0 33 12.5 61.5t33.5 50.5t50 34.5t62 12.5z"/>
<glyph glyph-name="guillemotright" horiz-adv-x="460" unicode="»" d="M400 340v-101l-140 -131v123l68 58l-68 57v123zM201 340v-101l-140 -131v123l68 58l-68 57v123z"/>
<glyph glyph-name="onequarter" horiz-adv-x="706" unicode="¼" d="M431 147h99v159h-2zM620 444v-297h49v-82h-49v-65h-90v65h-198v70l212 309h76zM515 740l-307 -740h-98l306 740h99zM176 740v-444h-96v358h-55v86h151z"/>
<glyph glyph-name="onehalf" horiz-adv-x="756" unicode="½" d="M569 453q31 0 59.5 -11.5t49.5 -31.5t33.5 -47t12.5 -57q0 -37 -19 -71.5t-68 -77.5l-80 -71h167v-86h-304v81l159 147q31 28 40 45.5t9 34.5q0 26 -16.5 42.5t-42.5 16.5q-58 0 -58 -80h-95q-1 3 -1 16q0 34 13 61.5t34.5 47t49.5 30.5t57 11zM515 740l-307 -740h-98 l306 740h99zM176 740v-444h-96v358h-55v86h151z"/>
<glyph glyph-name="threequarters" horiz-adv-x="840" unicode="¾" d="M662 306l-97 -159h99v159h-2zM754 444v-297h49v-82h-49v-65h-90v65h-198v70l212 309h76zM649 740l-307 -740h-98l306 740h99zM177 749q26 0 49 -10t40.5 -26.5t28 -38.5t10.5 -47q0 -23 -8 -42t-26 -34q32 -14 49.5 -45t17.5 -69q0 -32 -13 -59.5t-35 -47.5t-51.5 -31.5 t-62.5 -11.5q-32 0 -60 10.5t-49 30t-34 47t-15 60.5h96q2 -28 20 -45t45 -17q28 0 45.5 18.5t17.5 45.5q0 34 -21 50t-72 16h-6v86h6q35 0 47.5 9t12.5 30q0 35 -34 35q-16 0 -22 -11t-6 -25h-96q4 57 39 89.5t87 32.5z"/>
<glyph glyph-name="questiondown" horiz-adv-x="560" unicode="¿" d="M366 368v-19q0 -36 -4.5 -65.5t-16 -55.5t-31 -50t-49.5 -50q-38 -33 -51 -54t-13 -47q0 -43 24.5 -68.5t69.5 -25.5q42 0 64 22t29 76h133q-5 -65 -28 -109t-56 -71t-71.5 -39t-74.5 -12q-48 0 -89 17t-71 47.5t-46.5 72.5t-16.5 91q0 21 4 41t14.5 41t29.5 44.5 t48 50.5q23 21 36.5 36.5t21 30t9.5 32t2 43.5v21h133zM366 555v-133h-133v133h133z"/>
<glyph glyph-name="Agrave" horiz-adv-x="740" unicode="À" d="M367 547l-84 -227h170l-84 227h-2zM422 740l310 -740h-151l-79 191h-265l-79 -191h-151l308 740h107zM489 886l-53 -92l-226 125l57 102z"/>
<glyph glyph-name="Aacute" horiz-adv-x="740" unicode="Á" d="M367 547l-84 -227h170l-84 227h-2zM422 740l310 -740h-151l-79 191h-265l-79 -191h-151l308 740h107zM471 1021l57 -102l-226 -125l-53 92z"/>
<glyph glyph-name="Acircumflex" horiz-adv-x="740" unicode="Â" d="M367 547l-84 -227h170l-84 227h-2zM422 740l310 -740h-151l-79 191h-265l-79 -191h-151l308 740h107zM425 944l146 -138h-145l-53 64l-57 -64h-144l148 138h105z"/>
<glyph glyph-name="Atilde" horiz-adv-x="740" unicode="Ã" d="M367 547l-84 -227h170l-84 227h-2zM422 740l310 -740h-151l-79 191h-265l-79 -191h-151l308 740h107zM290 937q17 0 36 -4.5t38 -10t37.5 -10t35.5 -4.5q41 0 76 23l54 -78q-25 -21 -52 -34t-62 -13q-17 0 -35.5 4t-37.5 9.5t-37 9.5t-35 4q-22 0 -40.5 -5t-39.5 -15 l-54 81q24 18 54 30.5t62 12.5z"/>
<glyph glyph-name="Adieresis" horiz-adv-x="740" unicode="Ä" d="M367 547l-84 -227h170l-84 227h-2zM422 740l310 -740h-151l-79 191h-265l-79 -191h-151l308 740h107zM542 939v-133h-133v133h133zM332 939v-133h-134v133h134z"/>
<glyph glyph-name="Aring" horiz-adv-x="740" unicode="Å" d="M367 547l-84 -227h170l-84 227h-2zM422 740l310 -740h-151l-79 191h-265l-79 -191h-151l308 740h107zM330 861q0 -17 12 -28.5t28 -11.5q17 0 29 11.5t12 28.5t-12 29t-29 12t-28.5 -12t-11.5 -29zM370 969q23 0 42.5 -8.5t34 -23.5t23 -34.5t8.5 -41.5t-8.5 -41.5 t-23.5 -34t-34.5 -23t-41.5 -8.5t-41.5 8.5t-34 23.5t-23 34.5t-8.5 40.5q0 22 8 41.5t22.5 34.5t34 23.5t42.5 8.5z"/>
<glyph glyph-name="AE" horiz-adv-x="900" unicode="Æ" d="M352 319h115v195h-2zM824 740v-128h-220v-181h209v-128h-209v-175h220v-128h-357v191h-196l-115 -191h-161l489 740h340z"/>
<glyph glyph-name="Ccedilla" horiz-adv-x="780" unicode="Ç" d="M34 373q0 77 30 146.5t82 122t122 83t149 30.5q55 0 108 -15.5t99 -44.5t82.5 -71t59.5 -95h-156q-40 46 -87.5 72t-110.5 26q-50 0 -94 -21.5t-76.5 -57.5t-51.5 -82t-19 -95q0 -50 19.5 -96.5t52.5 -82.5t78 -57.5t96 -21.5q52 0 96 21t90 72h159q-22 -49 -57.5 -89.5 t-80.5 -70t-98 -45.5t-110 -16h-8l-18 -40q7 1 13 1.5t12 0.5q42 0 67.5 -28.5t25.5 -71.5q0 -45 -27 -71.5t-72 -26.5q-18 0 -36 7t-32.5 18.5t-23.5 27.5t-9 34h53q3 -17 16.5 -27t30.5 -10q21 0 33.5 14t12.5 34t-13.5 35t-33.5 15q-13 0 -24.5 -5t-18.5 -17l-49 19 l42 96q-69 12 -128 47t-102.5 86.5t-68 115.5t-24.5 134z"/>
<glyph glyph-name="Egrave" horiz-adv-x="520" unicode="È" d="M459 740v-128h-261v-181h250v-128h-250v-175h261v-128h-398v740h398zM379 886l-53 -92l-226 125l57 102z"/>
<glyph glyph-name="Eacute" horiz-adv-x="520" unicode="É" d="M459 740v-128h-261v-181h250v-128h-250v-175h261v-128h-398v740h398zM361 1021l57 -102l-226 -125l-53 92z"/>
<glyph glyph-name="Ecircumflex" horiz-adv-x="520" unicode="Ê" d="M459 740v-128h-261v-181h250v-128h-250v-175h261v-128h-398v740h398zM315 944l146 -138h-145l-53 64l-57 -64h-144l148 138h105z"/>
<glyph glyph-name="Edieresis" horiz-adv-x="520" unicode="Ë" d="M459 740v-128h-261v-181h250v-128h-250v-175h261v-128h-398v740h398zM432 939v-133h-133v133h133zM222 939v-133h-134v133h134z"/>
<glyph glyph-name="Igrave" horiz-adv-x="280" unicode="Ì" d="M209 740v-740h-137v740h137zM234 886l-53 -92l-226 125l57 102z"/>
<glyph glyph-name="Iacute" horiz-adv-x="280" unicode="Í" d="M209 740v-740h-137v740h137zM266 1021l57 -102l-226 -125l-53 92z"/>
<glyph glyph-name="Icircumflex" horiz-adv-x="280" unicode="Î" d="M209 740v-740h-137v740h137zM195 944l146 -138h-145l-53 64l-57 -64h-144l148 138h105z"/>
<glyph glyph-name="Idieresis" horiz-adv-x="280" unicode="Ï" d="M209 740v-740h-137v740h137zM312 939v-133h-133v133h133zM102 939v-133h-134v133h134z"/>
<glyph glyph-name="Eth" horiz-adv-x="734" unicode="Ð" d="M234 439h137v-128h-137v-183h44q74 0 127 19t86 54q18 19 30 40.5t19.5 43.5t10.5 43.5t3 39.5q0 46 -16.5 89.5t-48.5 78.5q-34 37 -86.5 56.5t-128.5 19.5h-40v-173zM274 740q47 0 93 -5.5t87.5 -18.5t77 -34t62.5 -52q32 -36 51.5 -74.5t29.5 -73t13 -62t3 -43.5 q0 -85 -26.5 -151t-69.5 -113q-27 -29 -58 -50.5t-69.5 -35.5t-86 -20.5t-106.5 -6.5h-178v311h-72v128h72v301h177z"/>
<glyph glyph-name="Ntilde" horiz-adv-x="740" unicode="Ñ" d="M226 740l306 -538h2v538h137v-740h-153l-309 538h-2v-538h-137v740h156zM290 937q17 0 36 -4.5t38 -10t37.5 -10t35.5 -4.5q41 0 76 23l54 -78q-25 -21 -52 -34t-62 -13q-17 0 -35.5 4t-37.5 9.5t-37 9.5t-35 4q-22 0 -40.5 -5t-39.5 -15l-54 81q24 18 54 30.5t62 12.5z "/>
<glyph glyph-name="Ograve" horiz-adv-x="840" unicode="Ò" d="M170 369q0 -51 19 -97.5t53 -82t79.5 -56t98.5 -20.5q54 0 99.5 21t79 56t52.5 81.5t19 97.5q0 52 -19 98.5t-53 82t-79.5 56.5t-99.5 21q-51 0 -96.5 -20.5t-79.5 -56t-53.5 -82.5t-19.5 -99zM420 755q81 0 151.5 -30.5t123 -83t82.5 -123t30 -150.5q0 -79 -30 -148.5 t-82.5 -121.5t-123 -82.5t-151.5 -30.5q-76 0 -146 29t-123.5 80t-85.5 121t-32 153q0 77 29 147t80.5 123.5t122.5 85t155 31.5zM539 886l-53 -92l-226 125l57 102z"/>
<glyph glyph-name="Oacute" horiz-adv-x="840" unicode="Ó" d="M170 369q0 -51 19 -97.5t53 -82t79.5 -56t98.5 -20.5q54 0 99.5 21t79 56t52.5 81.5t19 97.5q0 52 -19 98.5t-53 82t-79.5 56.5t-99.5 21q-51 0 -96.5 -20.5t-79.5 -56t-53.5 -82.5t-19.5 -99zM420 755q81 0 151.5 -30.5t123 -83t82.5 -123t30 -150.5q0 -79 -30 -148.5 t-82.5 -121.5t-123 -82.5t-151.5 -30.5q-76 0 -146 29t-123.5 80t-85.5 121t-32 153q0 77 29 147t80.5 123.5t122.5 85t155 31.5zM521 1021l57 -102l-226 -125l-53 92z"/>
<glyph glyph-name="Ocircumflex" horiz-adv-x="840" unicode="Ô" d="M170 369q0 -51 19 -97.5t53 -82t79.5 -56t98.5 -20.5q54 0 99.5 21t79 56t52.5 81.5t19 97.5q0 52 -19 98.5t-53 82t-79.5 56.5t-99.5 21q-51 0 -96.5 -20.5t-79.5 -56t-53.5 -82.5t-19.5 -99zM420 755q81 0 151.5 -30.5t123 -83t82.5 -123t30 -150.5q0 -79 -30 -148.5 t-82.5 -121.5t-123 -82.5t-151.5 -30.5q-76 0 -146 29t-123.5 80t-85.5 121t-32 153q0 77 29 147t80.5 123.5t122.5 85t155 31.5zM474 944l146 -138h-145l-53 64l-57 -64h-144l148 138h105z"/>
<glyph glyph-name="Otilde" horiz-adv-x="840" unicode="Õ" d="M170 369q0 -51 19 -97.5t53 -82t79.5 -56t98.5 -20.5q54 0 99.5 21t79 56t52.5 81.5t19 97.5q0 52 -19 98.5t-53 82t-79.5 56.5t-99.5 21q-51 0 -96.5 -20.5t-79.5 -56t-53.5 -82.5t-19.5 -99zM420 755q81 0 151.5 -30.5t123 -83t82.5 -123t30 -150.5q0 -79 -30 -148.5 t-82.5 -121.5t-123 -82.5t-151.5 -30.5q-76 0 -146 29t-123.5 80t-85.5 121t-32 153q0 77 29 147t80.5 123.5t122.5 85t155 31.5zM340 937q17 0 36 -4.5t38 -10t37.5 -10t35.5 -4.5q41 0 76 23l54 -78q-25 -21 -52 -34t-62 -13q-17 0 -35.5 4t-37.5 9.5t-37 9.5t-35 4 q-22 0 -40.5 -5t-39.5 -15l-54 81q24 18 54 30.5t62 12.5z"/>
<glyph glyph-name="Odieresis" horiz-adv-x="840" unicode="Ö" d="M170 369q0 -51 19 -97.5t53 -82t79.5 -56t98.5 -20.5q54 0 99.5 21t79 56t52.5 81.5t19 97.5q0 52 -19 98.5t-53 82t-79.5 56.5t-99.5 21q-51 0 -96.5 -20.5t-79.5 -56t-53.5 -82.5t-19.5 -99zM420 755q81 0 151.5 -30.5t123 -83t82.5 -123t30 -150.5q0 -79 -30 -148.5 t-82.5 -121.5t-123 -82.5t-151.5 -30.5q-76 0 -146 29t-123.5 80t-85.5 121t-32 153q0 77 29 147t80.5 123.5t122.5 85t155 31.5zM592 939v-133h-133v133h133zM382 939v-133h-134v133h134z"/>
<glyph glyph-name="multiply" d="M541 412l-160 -159l160 -159l-82 -82l-159 160l-159 -160l-82 82l159 159l-159 159l82 82l159 -159l159 159z" unicode="×"/>
<glyph glyph-name="Oslash" horiz-adv-x="840" unicode="Ø" d="M338 127q42 -14 82 -14q52 0 98 20.5t79.5 56t53 82t19.5 97.5q0 45 -14.5 86.5t-41.5 76.5zM170 369q0 -92 60 -164l277 406q-41 16 -88 16q-51 0 -96.5 -20t-79.5 -55t-53.5 -82t-19.5 -101zM754 739l-64 -94q58 -55 87.5 -126.5t29.5 -150.5q0 -83 -32 -153.5 t-85.5 -121.5t-123.5 -79.5t-146 -28.5q-42 0 -80.5 8t-74.5 25l-62 -89l-110 75l60 88q-58 55 -89 126t-31 150q0 82 31.5 153t84.5 123t123 81.5t148 29.5q84 0 162 -35l63 94z"/>
<glyph glyph-name="Ugrave" horiz-adv-x="640" unicode="Ù" d="M192 740v-474q0 -75 32 -114t96 -39q66 0 97 40t31 113v474h137v-488q0 -74 -25.5 -125t-64.5 -82.5t-85.5 -45.5t-88.5 -14q-41 0 -87.5 13.5t-86.5 45t-66 83t-26 127.5v486h137zM404 886l-53 -92l-226 125l57 102z"/>
<glyph glyph-name="Uacute" horiz-adv-x="640" unicode="Ú" d="M192 740v-474q0 -75 32 -114t96 -39q66 0 97 40t31 113v474h137v-488q0 -74 -25.5 -125t-64.5 -82.5t-85.5 -45.5t-88.5 -14q-41 0 -87.5 13.5t-86.5 45t-66 83t-26 127.5v486h137zM456 1021l57 -102l-226 -125l-53 92z"/>
<glyph glyph-name="Ucircumflex" horiz-adv-x="640" unicode="Û" d="M192 740v-474q0 -75 32 -114t96 -39q66 0 97 40t31 113v474h137v-488q0 -74 -25.5 -125t-64.5 -82.5t-85.5 -45.5t-88.5 -14q-41 0 -87.5 13.5t-86.5 45t-66 83t-26 127.5v486h137zM374 944l146 -138h-145l-53 64l-57 -64h-144l148 138h105z"/>
<glyph glyph-name="Udieresis" horiz-adv-x="640" unicode="Ü" d="M192 740v-474q0 -75 32 -114t96 -39q66 0 97 40t31 113v474h137v-488q0 -74 -25.5 -125t-64.5 -82.5t-85.5 -45.5t-88.5 -14q-41 0 -87.5 13.5t-86.5 45t-66 83t-26 127.5v486h137zM492 939v-133h-133v133h133zM282 939v-133h-134v133h134z"/>
<glyph glyph-name="Yacute" horiz-adv-x="620" unicode="Ý" d="M148 740l161 -340l162 340h151l-244 -467v-273h-137v273l-243 467h150zM446 1021l57 -102l-226 -125l-53 92z"/>
<glyph glyph-name="Thorn" horiz-adv-x="560" unicode="Þ" d="M209 270h48q48 0 77.5 8t46 22t22 32.5t5.5 38.5q0 22 -6 40.5t-22.5 32t-46 21t-75.5 7.5h-49v-202zM297 600q62 0 108.5 -17.5t77.5 -48t46.5 -72.5t15.5 -91q0 -51 -16 -93t-47 -72.5t-77.5 -47t-106.5 -16.5h-89v-142h-137v740h137v-140h88z"/>
<glyph glyph-name="germandbls" d="M184 189h86q6 -37 32.5 -61t59.5 -24q39 0 64.5 28t25.5 68q0 60 -43.5 88t-143.5 28h-7v118q47 0 73.5 28.5t26.5 76.5q0 42 -23 68t-63 26q-43 0 -65.5 -32.5t-22.5 -93.5v-318zM278 755q45 0 83.5 -16.5t67.5 -45t45.5 -67t16.5 -81.5q0 -46 -17.5 -82t-48.5 -54 q78 -20 119 -70t41 -125q0 -52 -15.5 -94.5t-44.5 -73t-70.5 -47.5t-93.5 -17q-69 0 -114.5 22.5t-71.5 68.5h-2v-73h-122v493q0 65 18 114t48.5 82t72 49.5t88.5 16.5z" unicode="ß"/>
<glyph glyph-name="agrave" horiz-adv-x="660" unicode="à" d="M160 275q0 -35 12.5 -66t34.5 -54.5t52.5 -37t65.5 -13.5q36 0 66 14t51.5 38t33 55.5t11.5 67.5t-12 68t-33.5 55t-51.5 36.5t-66 13.5q-35 0 -65 -13.5t-52 -37.5t-34.5 -56.5t-12.5 -69.5zM305 574q29 0 57.5 -8t53 -20.5t43.5 -28.5t30 -32h2v70h122v-555h-122v69 q-17 -20 -39.5 -36t-48.5 -27t-53.5 -17.5t-53.5 -6.5q-59 0 -108 23t-85 63.5t-56 95t-20 117.5q0 60 21 113.5t58 93.5t88 63t111 23zM449 716l-53 -92l-226 125l57 102z"/>
<glyph glyph-name="aacute" horiz-adv-x="660" unicode="á" d="M160 275q0 -35 12.5 -66t34.5 -54.5t52.5 -37t65.5 -13.5q36 0 66 14t51.5 38t33 55.5t11.5 67.5t-12 68t-33.5 55t-51.5 36.5t-66 13.5q-35 0 -65 -13.5t-52 -37.5t-34.5 -56.5t-12.5 -69.5zM305 574q29 0 57.5 -8t53 -20.5t43.5 -28.5t30 -32h2v70h122v-555h-122v69 q-17 -20 -39.5 -36t-48.5 -27t-53.5 -17.5t-53.5 -6.5q-59 0 -108 23t-85 63.5t-56 95t-20 117.5q0 60 21 113.5t58 93.5t88 63t111 23zM431 851l57 -102l-226 -125l-53 92z"/>
<glyph glyph-name="acircumflex" horiz-adv-x="660" unicode="â" d="M160 275q0 -35 12.5 -66t34.5 -54.5t52.5 -37t65.5 -13.5q36 0 66 14t51.5 38t33 55.5t11.5 67.5t-12 68t-33.5 55t-51.5 36.5t-66 13.5q-35 0 -65 -13.5t-52 -37.5t-34.5 -56.5t-12.5 -69.5zM305 574q29 0 57.5 -8t53 -20.5t43.5 -28.5t30 -32h2v70h122v-555h-122v69 q-17 -20 -39.5 -36t-48.5 -27t-53.5 -17.5t-53.5 -6.5q-59 0 -108 23t-85 63.5t-56 95t-20 117.5q0 60 21 113.5t58 93.5t88 63t111 23zM385 774l146 -138h-145l-53 64l-57 -64h-144l148 138h105z"/>
<glyph glyph-name="atilde" horiz-adv-x="660" unicode="ã" d="M160 275q0 -35 12.5 -66t34.5 -54.5t52.5 -37t65.5 -13.5q36 0 66 14t51.5 38t33 55.5t11.5 67.5t-12 68t-33.5 55t-51.5 36.5t-66 13.5q-35 0 -65 -13.5t-52 -37.5t-34.5 -56.5t-12.5 -69.5zM305 574q29 0 57.5 -8t53 -20.5t43.5 -28.5t30 -32h2v70h122v-555h-122v69 q-17 -20 -39.5 -36t-48.5 -27t-53.5 -17.5t-53.5 -6.5q-59 0 -108 23t-85 63.5t-56 95t-20 117.5q0 60 21 113.5t58 93.5t88 63t111 23zM250 767q17 0 36 -4.5t38 -10t37.5 -10t35.5 -4.5q41 0 76 23l54 -78q-25 -21 -52 -34t-62 -13q-17 0 -35.5 4t-37.5 9.5t-37 9.5t-35 4 q-22 0 -40.5 -5t-39.5 -15l-54 81q24 18 54 30.5t62 12.5z"/>
<glyph glyph-name="adieresis" horiz-adv-x="660" unicode="ä" d="M160 275q0 -35 12.5 -66t34.5 -54.5t52.5 -37t65.5 -13.5q36 0 66 14t51.5 38t33 55.5t11.5 67.5t-12 68t-33.5 55t-51.5 36.5t-66 13.5q-35 0 -65 -13.5t-52 -37.5t-34.5 -56.5t-12.5 -69.5zM305 574q29 0 57.5 -8t53 -20.5t43.5 -28.5t30 -32h2v70h122v-555h-122v69 q-17 -20 -39.5 -36t-48.5 -27t-53.5 -17.5t-53.5 -6.5q-59 0 -108 23t-85 63.5t-56 95t-20 117.5q0 60 21 113.5t58 93.5t88 63t111 23zM502 769v-133h-133v133h133zM292 769v-133h-134v133h134z"/>
<glyph glyph-name="aring" horiz-adv-x="660" unicode="å" d="M160 275q0 -35 12.5 -66t34.5 -54.5t52.5 -37t65.5 -13.5q36 0 66 14t51.5 38t33 55.5t11.5 67.5t-12 68t-33.5 55t-51.5 36.5t-66 13.5q-35 0 -65 -13.5t-52 -37.5t-34.5 -56.5t-12.5 -69.5zM305 574q29 0 57.5 -8t53 -20.5t43.5 -28.5t30 -32h2v70h122v-555h-122v69 q-17 -20 -39.5 -36t-48.5 -27t-53.5 -17.5t-53.5 -6.5q-59 0 -108 23t-85 63.5t-56 95t-20 117.5q0 60 21 113.5t58 93.5t88 63t111 23zM290 726q0 -17 12 -28.5t28 -11.5q17 0 29 11.5t12 28.5t-12 29t-29 12t-28.5 -12t-11.5 -29zM330 834q23 0 42.5 -8.5t34 -23.5 t23 -34.5t8.5 -41.5t-8.5 -41.5t-23.5 -34t-34.5 -23t-41.5 -8.5t-41.5 8.5t-34 23.5t-23 34.5t-8.5 40.5q0 22 8 41.5t22.5 34.5t34 23.5t42.5 8.5z"/>
<glyph glyph-name="ae" horiz-adv-x="1080" unicode="æ" d="M915 325q-9 60 -52.5 93.5t-101.5 33.5q-27 0 -51.5 -8.5t-44.5 -25t-35 -40t-22 -53.5h307zM162 276q0 -33 12 -64t33.5 -55t50.5 -38.5t63 -14.5q35 0 64.5 14.5t50.5 38.5t33 55.5t12 65.5t-12 65.5t-33 55.5t-50.5 38.5t-64.5 14.5t-64 -14.5t-50 -38.5t-33 -56 t-12 -67zM315 574q27 0 49.5 -3.5t43 -11.5t39 -21.5t38.5 -32.5v50h122v-50q36 39 77 54t92 15q54 0 103.5 -24t87 -64.5t59.5 -94t22 -111.5q0 -26 -1 -38.5t-3 -23.5h-432q6 -24 20.5 -45t34.5 -36.5t44 -24t50 -8.5q43 0 79.5 18t52.5 53h140q-14 -40 -41 -75 t-61.5 -61.5t-75.5 -41.5t-84 -15q-49 0 -90 17t-72 57h-2v-56h-122v56h-2q-54 -74 -170 -74q-59 0 -111 24t-90.5 65t-60.5 94t-22 112q0 60 22.5 113.5t61 94.5t90.5 65t112 24z"/>
<glyph glyph-name="ccedilla" horiz-adv-x="640" unicode="ç" d="M37 280q0 60 23 113.5t63 93.5t93.5 63.5t114.5 23.5q47 0 90.5 -13.5t80 -40t64.5 -64t44 -85.5h-150q-22 39 -52.5 60t-76.5 21q-35 0 -64.5 -13.5t-51 -36.5t-33.5 -55t-12 -69t12.5 -69t35 -55t53 -36.5t66.5 -13.5q42 0 72 21.5t51 55.5h150q-36 -97 -108.5 -148 t-172.5 -51l-17 -37q7 1 13 1.5t12 0.5q42 0 67.5 -29t25.5 -71q0 -45 -27 -71.5t-72 -26.5q-20 0 -38 6.5t-32 18.5t-22.5 28t-8.5 34h53q3 -17 16.5 -27t30.5 -10q21 0 33.5 14t12.5 34t-13.5 35t-33.5 15q-13 0 -24.5 -4.5t-18.5 -17.5l-49 19l41 94q-55 11 -99.5 38.5 t-76 66t-48.5 86.5t-17 101z"/>
<glyph glyph-name="egrave" horiz-adv-x="640" unicode="è" d="M474 325q-10 60 -49 93.5t-102 33.5q-55 0 -97.5 -31.5t-58.5 -95.5h307zM323 574q60 0 112.5 -22.5t91.5 -61.5t61 -91.5t22 -113.5q0 -29 -8 -67h-431q4 -18 16.5 -38.5t33 -37t46.5 -27.5t57 -11q42 0 75 17t53 54h140q-14 -42 -40.5 -77.5t-62.5 -61t-78.5 -40 t-86.5 -14.5q-63 0 -116.5 23t-92.5 62.5t-61.5 93t-22.5 115.5q0 61 22 115.5t61 95t92.5 64t116.5 23.5zM439 716l-53 -92l-226 125l57 102z"/>
<glyph glyph-name="eacute" horiz-adv-x="640" unicode="é" d="M474 325q-10 60 -49 93.5t-102 33.5q-55 0 -97.5 -31.5t-58.5 -95.5h307zM323 574q60 0 112.5 -22.5t91.5 -61.5t61 -91.5t22 -113.5q0 -29 -8 -67h-431q4 -18 16.5 -38.5t33 -37t46.5 -27.5t57 -11q42 0 75 17t53 54h140q-14 -42 -40.5 -77.5t-62.5 -61t-78.5 -40 t-86.5 -14.5q-63 0 -116.5 23t-92.5 62.5t-61.5 93t-22.5 115.5q0 61 22 115.5t61 95t92.5 64t116.5 23.5zM421 851l57 -102l-226 -125l-53 92z"/>
<glyph glyph-name="ecircumflex" horiz-adv-x="640" unicode="ê" d="M474 325q-10 60 -49 93.5t-102 33.5q-55 0 -97.5 -31.5t-58.5 -95.5h307zM323 574q60 0 112.5 -22.5t91.5 -61.5t61 -91.5t22 -113.5q0 -29 -8 -67h-431q4 -18 16.5 -38.5t33 -37t46.5 -27.5t57 -11q42 0 75 17t53 54h140q-14 -42 -40.5 -77.5t-62.5 -61t-78.5 -40 t-86.5 -14.5q-63 0 -116.5 23t-92.5 62.5t-61.5 93t-22.5 115.5q0 61 22 115.5t61 95t92.5 64t116.5 23.5zM374 774l146 -138h-145l-53 64l-57 -64h-144l148 138h105z"/>
<glyph glyph-name="edieresis" horiz-adv-x="640" unicode="ë" d="M474 325q-10 60 -49 93.5t-102 33.5q-55 0 -97.5 -31.5t-58.5 -95.5h307zM323 574q60 0 112.5 -22.5t91.5 -61.5t61 -91.5t22 -113.5q0 -29 -8 -67h-431q4 -18 16.5 -38.5t33 -37t46.5 -27.5t57 -11q42 0 75 17t53 54h140q-14 -42 -40.5 -77.5t-62.5 -61t-78.5 -40 t-86.5 -14.5q-63 0 -116.5 23t-92.5 62.5t-61.5 93t-22.5 115.5q0 61 22 115.5t61 95t92.5 64t116.5 23.5zM492 769v-133h-133v133h133zM282 769v-133h-134v133h134z"/>
<glyph glyph-name="igrave" horiz-adv-x="240" unicode="ì" d="M186 555v-555h-133v555h133zM214 716l-53 -92l-226 125l57 102z"/>
<glyph glyph-name="iacute" horiz-adv-x="240" unicode="í" d="M186 555v-555h-133v555h133zM246 851l57 -102l-226 -125l-53 92z"/>
<glyph glyph-name="icircumflex" horiz-adv-x="240" unicode="î" d="M186 555v-555h-133v555h133zM175 774l146 -138h-145l-53 64l-57 -64h-144l148 138h105z"/>
<glyph glyph-name="idieresis" horiz-adv-x="240" unicode="ï" d="M186 555v-555h-133v555h133zM292 769v-133h-133v133h133zM82 769v-133h-134v133h134z"/>
<glyph glyph-name="eth" horiz-adv-x="640" unicode="ð" d="M160 277q0 -35 12 -66.5t33.5 -55t51.5 -37.5t66 -14t65.5 14.5t50.5 38.5t33 55t12 64t-12 64.5t-33.5 56.5t-51 40t-64.5 15q-33 0 -62.5 -13.5t-52 -37.5t-35.5 -56t-13 -68zM262 754q24 -7 46.5 -17.5t44.5 -22.5l131 40l86 -60l-132 -39q90 -76 134 -167t44 -193 q0 -66 -21.5 -123t-60 -99t-92.5 -66.5t-119 -24.5q-61 0 -114.5 23.5t-94 64t-64 94t-23.5 113.5q0 62 23.5 116t63.5 94t93 63t112 23q17 0 29.5 -2t26.5 -9l2 2q-12 12 -29 26t-37 27l-151 -45l-86 56l144 44q-26 12 -52.5 22.5t-53.5 18.5z"/>
<glyph glyph-name="ntilde" d="M330 574q27 0 64.5 -10t71 -37.5t57.5 -75.5t24 -123v-328h-133v279q0 85 -27.5 129t-84.5 44q-15 0 -35 -6t-38 -22.5t-30 -45.5t-12 -75v-303h-133v555h123v-48q33 32 69 49.5t84 17.5zM220 767q17 0 36 -4.5t38 -10t37.5 -10t35.5 -4.5q41 0 76 23l54 -78 q-25 -21 -52 -34t-62 -13q-17 0 -35.5 4t-37.5 9.5t-37 9.5t-35 4q-22 0 -40.5 -5t-39.5 -15l-54 81q24 18 54 30.5t62 12.5z" unicode="ñ"/>
<glyph glyph-name="ograve" horiz-adv-x="640" unicode="ò" d="M158 277q0 -35 12 -66.5t34 -55t51.5 -37.5t65.5 -14q35 0 64.5 14t51 37.5t33.5 54.5t12 66q0 34 -12 66t-33.5 56.5t-51.5 39t-65 14.5q-33 0 -62.5 -14.5t-51.5 -38.5t-35 -55.5t-13 -66.5zM321 574q63 0 117 -23.5t93 -64t61.5 -94t22.5 -113.5q0 -62 -22 -116.5 t-61 -94.5t-93 -63t-118 -23q-61 0 -115 23.5t-94 64t-63.5 94t-23.5 113.5t23 114t62.5 94.5t93.5 64.5t117 24zM439 716l-53 -92l-226 125l57 102z"/>
<glyph glyph-name="oacute" horiz-adv-x="640" unicode="ó" d="M158 277q0 -35 12 -66.5t34 -55t51.5 -37.5t65.5 -14q35 0 64.5 14t51 37.5t33.5 54.5t12 66q0 34 -12 66t-33.5 56.5t-51.5 39t-65 14.5q-33 0 -62.5 -14.5t-51.5 -38.5t-35 -55.5t-13 -66.5zM321 574q63 0 117 -23.5t93 -64t61.5 -94t22.5 -113.5q0 -62 -22 -116.5 t-61 -94.5t-93 -63t-118 -23q-61 0 -115 23.5t-94 64t-63.5 94t-23.5 113.5t23 114t62.5 94.5t93.5 64.5t117 24zM421 851l57 -102l-226 -125l-53 92z"/>
<glyph glyph-name="ocircumflex" horiz-adv-x="640" unicode="ô" d="M158 277q0 -35 12 -66.5t34 -55t51.5 -37.5t65.5 -14q35 0 64.5 14t51 37.5t33.5 54.5t12 66q0 34 -12 66t-33.5 56.5t-51.5 39t-65 14.5q-33 0 -62.5 -14.5t-51.5 -38.5t-35 -55.5t-13 -66.5zM321 574q63 0 117 -23.5t93 -64t61.5 -94t22.5 -113.5q0 -62 -22 -116.5 t-61 -94.5t-93 -63t-118 -23q-61 0 -115 23.5t-94 64t-63.5 94t-23.5 113.5t23 114t62.5 94.5t93.5 64.5t117 24zM374 774l146 -138h-145l-53 64l-57 -64h-144l148 138h105z"/>
<glyph glyph-name="otilde" horiz-adv-x="640" unicode="õ" d="M158 277q0 -35 12 -66.5t34 -55t51.5 -37.5t65.5 -14q35 0 64.5 14t51 37.5t33.5 54.5t12 66q0 34 -12 66t-33.5 56.5t-51.5 39t-65 14.5q-33 0 -62.5 -14.5t-51.5 -38.5t-35 -55.5t-13 -66.5zM321 574q63 0 117 -23.5t93 -64t61.5 -94t22.5 -113.5q0 -62 -22 -116.5 t-61 -94.5t-93 -63t-118 -23q-61 0 -115 23.5t-94 64t-63.5 94t-23.5 113.5t23 114t62.5 94.5t93.5 64.5t117 24zM240 767q17 0 36 -4.5t38 -10t37.5 -10t35.5 -4.5q41 0 76 23l54 -78q-25 -21 -52 -34t-62 -13q-17 0 -35.5 4t-37.5 9.5t-37 9.5t-35 4q-22 0 -40.5 -5 t-39.5 -15l-54 81q24 18 54 30.5t62 12.5z"/>
<glyph glyph-name="odieresis" horiz-adv-x="640" unicode="ö" d="M158 277q0 -35 12 -66.5t34 -55t51.5 -37.5t65.5 -14q35 0 64.5 14t51 37.5t33.5 54.5t12 66q0 34 -12 66t-33.5 56.5t-51.5 39t-65 14.5q-33 0 -62.5 -14.5t-51.5 -38.5t-35 -55.5t-13 -66.5zM321 574q63 0 117 -23.5t93 -64t61.5 -94t22.5 -113.5q0 -62 -22 -116.5 t-61 -94.5t-93 -63t-118 -23q-61 0 -115 23.5t-94 64t-63.5 94t-23.5 113.5t23 114t62.5 94.5t93.5 64.5t117 24zM492 769v-133h-133v133h133zM282 769v-133h-134v133h134z"/>
<glyph glyph-name="divide" d="M360 100v-120h-120v120h120zM552 313v-120h-504v120h504zM360 526v-120h-120v120h120z" unicode="÷"/>
<glyph glyph-name="oslash" horiz-adv-x="660" unicode="ø" d="M291 109q11 -3 20.5 -4t19.5 -1q34 0 63.5 14t51.5 37.5t34 54.5t12 66q0 47 -25 91zM168 277q0 -26 6.5 -49.5t20.5 -46.5l180 264q-21 7 -45 7q-33 0 -62 -14t-51.5 -38t-35.5 -56t-13 -67zM585 539l-40 -58q80 -86 80 -202q0 -63 -22.5 -117.5t-62 -94t-93 -62.5 t-116.5 -23q-29 0 -56.5 6t-54.5 16l-38 -54l-99 68l37 54q-42 42 -63.5 94.5t-21.5 110.5q0 61 23.5 115t64 94.5t94 64t114.5 23.5q30 0 58.5 -6t57.5 -18l39 58z"/>
<glyph glyph-name="ugrave" d="M183 555v-287q0 -81 28 -122.5t88 -41.5q58 0 85 45t27 118v288h133v-555h-122v56h-2q-28 -38 -62.5 -56t-72.5 -18q-50 0 -93 13.5t-74.5 43.5t-49.5 77t-18 113v326h133zM384 716l-53 -92l-226 125l57 102z" unicode="ù"/>
<glyph glyph-name="uacute" d="M183 555v-287q0 -81 28 -122.5t88 -41.5q58 0 85 45t27 118v288h133v-555h-122v56h-2q-28 -38 -62.5 -56t-72.5 -18q-50 0 -93 13.5t-74.5 43.5t-49.5 77t-18 113v326h133zM436 851l57 -102l-226 -125l-53 92z" unicode="ú"/>
<glyph glyph-name="ucircumflex" d="M183 555v-287q0 -81 28 -122.5t88 -41.5q58 0 85 45t27 118v288h133v-555h-122v56h-2q-28 -38 -62.5 -56t-72.5 -18q-50 0 -93 13.5t-74.5 43.5t-49.5 77t-18 113v326h133zM354 774l146 -138h-145l-53 64l-57 -64h-144l148 138h105z" unicode="û"/>
<glyph glyph-name="udieresis" d="M183 555v-287q0 -81 28 -122.5t88 -41.5q58 0 85 45t27 118v288h133v-555h-122v56h-2q-28 -38 -62.5 -56t-72.5 -18q-50 0 -93 13.5t-74.5 43.5t-49.5 77t-18 113v326h133zM472 769v-133h-133v133h133zM262 769v-133h-134v133h134z" unicode="ü"/>
<glyph glyph-name="yacute" horiz-adv-x="580" unicode="ý" d="M160 555l126 -356l134 356h151l-319 -740h-143l102 236l-203 504h152zM426 851l57 -102l-226 -125l-53 92z"/>
<glyph glyph-name="thorn" horiz-adv-x="660" unicode="þ" d="M172 278q0 -44 15.5 -76.5t39.5 -54.5t52.5 -32.5t54.5 -10.5q34 0 63.5 14t51.5 38t34.5 55.5t12.5 66.5q0 34 -12 65.5t-33.5 55.5t-51 38.5t-64.5 14.5t-64.5 -13.5t-51.5 -37.5t-34.5 -55.5t-12.5 -67.5zM351 574q61 0 112 -24t88 -64.5t57.5 -93.5t20.5 -112 q0 -61 -21.5 -115.5t-59 -95t-88 -64t-109.5 -23.5q-53 0 -92 16t-79 55v-238h-133v925h133v-247h2q35 45 78 63t91 18z"/>
<glyph glyph-name="dotlessi" horiz-adv-x="240" unicode="ı" d="M186 555v-555h-133v555h133z"/>
<glyph glyph-name="OE" horiz-adv-x="1060" unicode="Œ" d="M174 356q0 -45 18 -88.5t50 -78t76.5 -55.5t97.5 -21q50 0 93.5 20.5t76 55t51 80.5t18.5 96q0 51 -18.5 98t-50.5 83.5t-77 58.5t-97 22t-96 -21.5t-75.5 -58.5t-49 -86.5t-17.5 -104.5zM414 755q65 0 129.5 -25t106.5 -70v80h357v-128h-220v-181h208v-128h-208v-175 h220v-128h-357v79q-20 -22 -48 -39.5t-60.5 -29.5t-66.5 -18.5t-67 -6.5q-76 0 -143.5 29.5t-118 81t-80 122t-29.5 153.5q0 79 28.5 149t79 122t119.5 82.5t150 30.5z"/>
<glyph glyph-name="oe" horiz-adv-x="1080" unicode="œ" d="M915 325q-15 60 -56 93.5t-98 33.5q-54 0 -94.5 -32t-58.5 -95h307zM163 282q0 -36 12 -68t34 -56.5t51.5 -39t64.5 -14.5t64.5 14.5t51 38.5t33.5 55t12 65t-12.5 66t-34.5 56t-52 38.5t-64 14.5q-32 0 -61 -14t-51 -37.5t-35 -54t-13 -64.5zM323 574q136 0 220 -114 q43 59 96 86.5t122 27.5q60 0 112.5 -23t92 -62t62 -91t22.5 -110q0 -36 -6 -70h-434q7 -26 22 -47t35.5 -36t44.5 -23t50 -8q45 0 80 19t51 52h138q-14 -42 -41 -77.5t-62.5 -61t-78 -40t-87.5 -14.5q-66 0 -124 29.5t-95 86.5q-40 -60 -95 -88t-128 -28q-61 0 -114 23.5 t-92 63t-61.5 92t-22.5 110.5q0 63 22.5 118t62 96.5t93 65t115.5 23.5z"/>
<glyph glyph-name="Scaron" horiz-adv-x="520" unicode="Š" d="M256 755q43 0 81.5 -15.5t68 -43t48 -66.5t21.5 -86h-140v1q-3 36 -23.5 59t-59.5 23q-32 0 -54 -21t-22 -54q0 -36 23.5 -58t71.5 -36q117 -35 169.5 -90.5t52.5 -146.5q0 -54 -18.5 -98t-51 -74.5t-76 -47t-94.5 -16.5q-48 0 -91 16.5t-75 46.5t-52 72t-23 92h144 q5 -46 30.5 -72.5t67.5 -26.5q21 0 39.5 7t32.5 20t22 30t8 37q0 41 -25 66t-70 41q-44 16 -84 32t-71 40.5t-49 62t-18 95.5q0 47 17.5 86t47 66.5t69 43t83.5 15.5zM205 944l57 -64l53 64h145l-146 -138h-105l-149 138h145z"/>
<glyph glyph-name="scaron" horiz-adv-x="440" unicode="š" d="M225 574q35 0 67 -12t56.5 -34.5t40 -54t17.5 -69.5h-130q-5 22 -17.5 35t-35.5 13q-21 0 -36 -13.5t-15 -34.5q0 -10 3 -17.5t12.5 -14t27.5 -13.5t48 -16q49 -14 79.5 -32t48 -39t24 -45t6.5 -51q0 -42 -15 -77.5t-41 -61.5t-61.5 -40.5t-76.5 -14.5q-39 0 -75.5 11.5 t-65 35t-46.5 60t-21 86.5h136q8 -38 26 -54.5t47 -16.5q26 0 43 16t17 40q0 15 -5.5 25t-18.5 18t-33 16t-48 17q-42 13 -69.5 31t-44 39.5t-23.5 45.5t-7 50q0 37 15 68.5t40.5 54.5t59 36t71.5 13zM165 774l57 -64l53 64h145l-146 -138h-105l-149 138h145z"/>
<glyph glyph-name="Ydieresis" horiz-adv-x="620" unicode="Ÿ" d="M148 740l161 -340l162 340h151l-244 -467v-273h-137v273l-243 467h150zM482 939v-133h-133v133h133zM272 939v-133h-134v133h134z"/>
<glyph glyph-name="circumflex" horiz-adv-x="540" unicode="ˆ" d="M324 769l146 -138h-145l-53 64l-57 -64h-144l148 138h105z"/>
<glyph glyph-name="caron" horiz-adv-x="540" unicode="ˇ" d="M215 761l57 -64l53 64h145l-146 -138h-105l-149 138h145z"/>
<glyph glyph-name="ring" horiz-adv-x="360" unicode="˚" d="M140 698q0 -17 12 -28.5t28 -11.5q17 0 29 11.5t12 28.5t-12 29t-29 12t-28.5 -12t-11.5 -29zM180 806q23 0 42.5 -8.5t34 -23.5t23 -34.5t8.5 -41.5t-8.5 -41.5t-23.5 -34t-34.5 -23t-41.5 -8.5t-41.5 8.5t-34 23.5t-23 34.5t-8.5 40.5q0 22 8 41.5t22.5 34.5t34 23.5 t42.5 8.5z"/>
<glyph glyph-name="tilde" horiz-adv-x="480" unicode="˜" d="M160 767q17 0 36 -4.5t38 -10t37.5 -10t35.5 -4.5q41 0 76 23l54 -78q-25 -21 -52 -34t-62 -13q-17 0 -35.5 4t-37.5 9.5t-37 9.5t-35 4q-22 0 -40.5 -5t-39.5 -15l-54 81q24 18 54 30.5t62 12.5z"/>
<glyph glyph-name="Alpha" horiz-adv-x="740" unicode="Α" d="M367 547l-84 -227h170l-84 227h-2zM422 740l310 -740h-151l-79 191h-265l-79 -191h-151l308 740h107z"/>
<glyph glyph-name="Beta" horiz-adv-x="580" unicode="Β" d="M279 128q63 0 99 23.5t36 74.5q0 48 -37.5 73t-94.5 25h-75v-196h72zM207 452h48q60 0 87.5 21t27.5 59t-27.5 59t-75.5 21h-60v-160zM245 740q75 0 124 -15t79 -46q59 -61 59 -135q0 -94 -83 -140q66 -24 96.5 -69t30.5 -115q0 -41 -14.5 -80t-46.5 -70.5t-83 -50.5 t-125 -19h-212v740h175z"/>
<glyph glyph-name="Gamma" horiz-adv-x="475" unicode="Γ" d="M467 740v-128h-269v-612h-137v740h406z"/>
<glyph glyph-name="uni0394" horiz-adv-x="740" unicode="Δ" d="M208 128h321l-160 422zM311 740h118l303 -740h-725z"/>
<glyph glyph-name="Epsilon" horiz-adv-x="520" unicode="Ε" d="M459 740v-128h-261v-181h250v-128h-250v-175h261v-128h-398v740h398z"/>
<glyph glyph-name="Zeta" horiz-adv-x="500" unicode="Ζ" d="M462 740v-119l-281 -493h300v-128h-462v112l283 500h-268v128h428z"/>
<glyph glyph-name="Eta" horiz-adv-x="680" unicode="Η" d="M208 740v-301h265v301h137v-740h-137v311h-265v-311h-137v740h137z"/>
<glyph glyph-name="Theta" horiz-adv-x="840" unicode="Θ" d="M170 369q0 -51 19 -97.5t53 -82t79.5 -56t98.5 -20.5q54 0 99.5 21t79 56t52.5 81.5t19 97.5q0 52 -19 98.5t-53 82t-79.5 56.5t-99.5 21q-51 0 -96.5 -20.5t-79.5 -56t-53.5 -82.5t-19.5 -99zM420 755q81 0 151.5 -30.5t123 -83t82.5 -123t30 -150.5q0 -79 -30 -148.5 t-82.5 -121.5t-123 -82.5t-151.5 -30.5q-76 0 -146 29t-123.5 80t-85.5 121t-32 153q0 77 29 147t80.5 123.5t122.5 85t155 31.5zM578 434v-109h-315v109h315z"/>
<glyph glyph-name="Iota" horiz-adv-x="280" unicode="Ι" d="M209 740v-740h-137v740h137z"/>
<glyph glyph-name="Kappa" horiz-adv-x="631" unicode="Κ" d="M625 740l-264 -368l270 -372h-168l-255 372v-372h-137v740h137v-368l257 368h160z"/>
<glyph glyph-name="Lambda" horiz-adv-x="740" unicode="Λ" d="M369 550l-210 -550h-152l304 740h118l303 -740h-154z"/>
<glyph glyph-name="Mu" horiz-adv-x="900" unicode="Μ" d="M253 740l197 -560h2l195 560h190v-740h-137v555h-3l-189 -555h-116l-190 555h-2v-555h-137v740h190z"/>
<glyph glyph-name="Nu" horiz-adv-x="740" unicode="Ν" d="M226 740l306 -538h2v538h137v-740h-153l-309 538h-2v-538h-137v740h156z"/>
<glyph glyph-name="Xi" horiz-adv-x="638" unicode="Ξ" d="M583 128v-128h-528v128h528zM72 740h494v-128h-494v128zM505 311h-372v128h372v-128z"/>
<glyph glyph-name="Omicron" horiz-adv-x="840" unicode="Ο" d="M170 369q0 -51 19 -97.5t53 -82t79.5 -56t98.5 -20.5q54 0 99.5 21t79 56t52.5 81.5t19 97.5q0 52 -19 98.5t-53 82t-79.5 56.5t-99.5 21q-51 0 -96.5 -20.5t-79.5 -56t-53.5 -82.5t-19.5 -99zM420 755q81 0 151.5 -30.5t123 -83t82.5 -123t30 -150.5q0 -79 -30 -148.5 t-82.5 -121.5t-123 -82.5t-151.5 -30.5q-76 0 -146 29t-123.5 80t-85.5 121t-32 153q0 77 29 147t80.5 123.5t122.5 85t155 31.5z"/>
<glyph glyph-name="Pi" horiz-adv-x="722" unicode="Π" d="M651 740v-740h-137v612h-306v-612h-137v740h580z"/>
<glyph glyph-name="Rho" horiz-adv-x="560" unicode="Ρ" d="M209 410h48q48 0 77.5 8t46 22t22 32.5t5.5 38.5q0 22 -6 40.5t-22.5 32t-46 21t-75.5 7.5h-49v-202zM297 740q62 0 108.5 -17.5t77.5 -48t46.5 -72.5t15.5 -91q0 -51 -16 -93t-47 -72.5t-77.5 -47t-106.5 -16.5h-89v-282h-137v740h225z"/>
<glyph glyph-name="Sigma" horiz-adv-x="510" unicode="Σ" d="M468 740v-128h-256l191 -237l-205 -247h282v-128h-463v102l225 271l-209 260v107h435z"/>
<glyph glyph-name="Tau" horiz-adv-x="420" unicode="Τ" d="M418 740v-128h-138v-612h-137v612h-137v128h412z"/>
<glyph glyph-name="Upsilon" horiz-adv-x="620" unicode="Υ" d="M148 740l161 -340l162 340h151l-244 -467v-273h-137v273l-243 467h150z"/>
<glyph glyph-name="Phi" horiz-adv-x="884" unicode="Φ" d="M170 371q0 -47 14.5 -85.5t41.5 -66t64.5 -43.5t83.5 -17v422q-45 -2 -82.5 -17.5t-64.5 -42.5t-42 -65.5t-15 -84.5zM714 369q0 47 -14.5 85.5t-41.5 66t-64.5 43t-83.5 17.5v-422q45 1 82.5 17t64.5 43t42 65t15 85zM374 43q-70 2 -132 24t-108.5 63t-73.5 100.5 t-27 136.5q0 74 26 134.5t71.5 103.5t108 67t135.5 26v102h136v-103q70 -2 132 -24t108.5 -63t73.5 -100.5t27 -136.5q0 -74 -26 -134.5t-71.5 -103.5t-108 -67t-135.5 -26v-102h-136v103z"/>
<glyph glyph-name="Chi" horiz-adv-x="680" unicode="Χ" d="M167 740l173 -258l178 258h158l-256 -371l256 -369h-158l-178 256l-173 -256h-163l255 369l-255 371h163z"/>
<glyph glyph-name="Psi" horiz-adv-x="833" unicode="Ψ" d="M485 294q49 3 80.5 17t49.5 40.5t24.5 67t6.5 96.5v225h137v-275q0 -71 -23 -124.5t-63.5 -89.5t-94.5 -55t-117 -21v-175h-137v175q-63 2 -117 21t-94.5 55t-63.5 89.5t-23 124.5v275h137v-225q0 -56 6.5 -96.5t24.5 -67t49 -40.5t81 -17v446h137v-446z"/>
<glyph glyph-name="alpha" horiz-adv-x="670" unicode="α" d="M160 276q0 -38 13 -69.5t35 -54t50.5 -35.5t59.5 -13q32 0 60 13t49 36t33 55t12 70q0 37 -12.5 69t-33.5 55t-49.5 36.5t-60.5 13.5q-30 0 -58.5 -13t-50 -36t-34.5 -55.5t-13 -71.5zM301 574q48 0 83.5 -15t59.5 -34t37.5 -37.5t18.5 -25.5h2l17 93h123l-47 -268 l47 -287h-123l-16 95h-2q-5 -7 -18.5 -25.5t-37.5 -38t-59.5 -34.5t-83.5 -15q-57 0 -107.5 22.5t-87.5 62t-58.5 93.5t-21.5 117q0 62 22 116.5t59.5 94.5t87.5 63t105 23z"/>
<glyph glyph-name="beta" horiz-adv-x="638" unicode="β" d="M264 445q68 0 103.5 25.5t35.5 69.5q0 42 -30.5 68.5t-76.5 26.5q-47 0 -78 -34t-31 -103v-310q24 -37 66.5 -60.5t94.5 -23.5q27 0 51.5 6.5t43 20t29.5 33.5t11 46q0 24 -10.5 45.5t-33 37t-58 24.5t-86.5 9h-31v119zM429 400q31 -3 64 -15.5t60.5 -36t45 -58 t17.5 -80.5q0 -49 -17 -91t-49 -72.5t-79 -47.5t-107 -17q-31 0 -58 6t-49 15.5t-39 20.5t-29 22h-2v-231h-133v679q0 66 20 115.5t53.5 82.5t77 50t91.5 17q49 0 92.5 -15t76 -42t51 -64.5t18.5 -82.5q0 -32 -9 -57.5t-24 -44t-34 -32t-38 -21.5z"/>
<glyph glyph-name="gamma" horiz-adv-x="575" unicode="γ" d="M-2 555h29q42 0 70.5 -6.5t48 -22t33 -41t25.5 -63.5l83 -261q15 20 36 57.5t40.5 88.5t33 114t13.5 134h133q0 -77 -16 -147t-44 -135.5t-66.5 -128.5t-82.5 -126l3 -203h-132l2 205l-131 376q-8 23 -20.5 32.5t-34.5 9.5h-23v117z"/>
<glyph glyph-name="delta" horiz-adv-x="595" unicode="δ" d="M386 591q-6 20 -23.5 33t-47.5 13q-36 0 -55.5 -15t-19.5 -39q0 -12 8 -23.5t21.5 -22t30 -20t33.5 -19.5q50 -29 84 -50t60 -42q43 -34 68 -74.5t25 -99.5q0 -55 -20.5 -101t-57 -79t-86.5 -51.5t-109 -18.5q-57 0 -107 18.5t-86.5 51.5t-57.5 78t-21 98q0 51 17 88.5 t41.5 64t52.5 43t50 25.5q-12 8 -26 20.5t-25 29t-18.5 38t-7.5 48.5q0 41 15.5 73.5t42.5 55t63.5 34t79.5 11.5t80 -9.5t64 -30t43.5 -52.5t18.5 -76h-130zM437 227q0 28 -14.5 49t-37 37.5t-49 31t-50.5 29.5q-25 -7 -48 -19.5t-41 -30.5t-28.5 -41.5t-10.5 -53.5 q0 -27 10.5 -50t29.5 -39.5t44 -26t55 -9.5q29 0 54.5 8.5t44.5 24.5t30 38.5t11 51.5z"/>
<glyph glyph-name="epsilon" horiz-adv-x="470" unicode="ε" d="M245 455q-34 0 -54.5 -14t-20.5 -40q0 -27 25.5 -43t70.5 -16h22.5t16.5 1q8 0 13 1v-113q-8 0 -17 1q-8 0 -18.5 0.5t-21.5 0.5q-48 0 -77.5 -16.5t-29.5 -48.5q0 -16 8 -28t20.5 -20t29 -12t33.5 -4q39 0 60.5 14t29.5 37h126q-2 -38 -19 -69.5t-46.5 -54.5t-69 -36 t-86.5 -13q-53 0 -93.5 13.5t-68.5 36.5t-42.5 55t-14.5 68q0 28 9.5 50.5t25 39.5t36 28.5t41.5 17.5q-39 13 -67 46t-28 78q0 36 15.5 65t42.5 50t64 32.5t80 11.5q46 0 84 -11.5t65.5 -32.5t42.5 -51t15 -67h-124q-3 20 -21 31.5t-57 11.5z"/>
<glyph glyph-name="zeta" horiz-adv-x="518" unicode="ζ" d="M91 618v122h406v-122l-233 -219q-39 -37 -67 -69t-28 -72q0 -34 17.5 -56.5t44.5 -37.5t59.5 -24.5t62.5 -18.5q34 -11 60.5 -23.5t45 -29.5t28.5 -40.5t10 -55.5q0 -69 -54 -113t-160 -44v115q38 0 62 5t24 25q0 10 -7.5 17t-19.5 12t-28.5 8.5t-34.5 7.5 q-44 9 -88.5 26.5t-80 46.5t-58 71t-22.5 99q0 60 29.5 109.5t80.5 97.5l174 163h-223z"/>
<glyph glyph-name="eta" d="M330 574q27 0 64.5 -10t71 -37.5t57.5 -75.5t24 -123v-513h-133v464q0 85 -27.5 129t-84.5 44q-15 0 -35 -6t-38 -22.5t-30 -45.5t-12 -75v-303h-133v555h123v-48q33 32 69 49.5t84 17.5z" unicode="η"/>
<glyph glyph-name="theta" horiz-adv-x="669" unicode="θ" d="M335 637q-33 0 -59.5 -14.5t-45 -40t-30.5 -61t-16 -77.5h301q-4 42 -15.5 77.5t-30 61t-44.5 40t-60 14.5zM335 104q35 0 62 16t45.5 44t30 66.5t14.5 83.5h-305q3 -45 14 -83.5t30 -66.5t46 -44t63 -16zM335 -18q-68 0 -121 28t-89.5 79t-55.5 122.5t-19 157.5 q0 88 19 160t55.5 123t89.5 79t121 28t121 -28.5t89 -79.5t55 -122.5t19 -157.5q0 -88 -19 -159.5t-55.5 -122.5t-89.5 -79t-120 -28z"/>
<glyph glyph-name="iota" horiz-adv-x="270" unicode="ι" d="M265 6q-10 -5 -22 -9q-11 -3 -27 -5.5t-36 -2.5q-27 0 -50 8.5t-40 26.5t-26.5 46t-9.5 67v418h133v-390q0 -30 9.5 -42t31.5 -12q8 0 14.5 1t11.5 3q6 2 11 4v-113z"/>
<glyph glyph-name="kappa" horiz-adv-x="540" unicode="κ" d="M511 436q-4 2 -9 4t-10.5 3t-12.5 1q-16 0 -29 -7.5t-27 -27.5l-87 -121l192 -288h-155l-181 286l127 189q29 45 61.5 67.5t77.5 22.5q11 0 20 -1t17 -2q9 -2 16 -3v-123zM187 555v-555h-133v555h133z"/>
<glyph glyph-name="lambda" horiz-adv-x="562" unicode="λ" d="M198 581q-10 24 -24 33t-39 9h-45v117h84q62 0 96 -31.5t54 -86.5l233 -622h-143l-127 340h-2l-141 -340h-142l220 520z"/>
<glyph glyph-name="uni03BC" horiz-adv-x="623" unicode="μ" d="M189 555v-303q0 -71 32 -104.5t89 -33.5q58 0 91 41.5t33 113.5v286h133v-555h-126v73h-3q-22 -39 -59.5 -62.5t-82.5 -23.5q-71 0 -107 39v-211h-133v740h133z"/>
<glyph glyph-name="nu" horiz-adv-x="575" unicode="ν" d="M-2 555h54q35 0 59.5 -8t41.5 -24.5t28.5 -42t22.5 -59.5l83 -272q15 20 36 59t40.5 92.5t33 118.5t13.5 136h133q0 -79 -16 -151t-44.5 -140.5t-67.5 -133.5t-84 -130h-122l-133 395q-8 23 -20.5 33t-34.5 10h-23v117z"/>
<glyph glyph-name="xi" horiz-adv-x="500" unicode="ξ" d="M404 320h-34q-108 0 -157.5 -25t-49.5 -66q0 -28 22 -47t54.5 -31.5t69.5 -21.5t66 -17q53 -16 83 -49t30 -88q0 -72 -53.5 -116t-154.5 -44v115q16 0 30.5 1t25.5 4t17.5 9t6.5 16q0 20 -23.5 28t-61.5 16q-44 9 -87.5 24t-78.5 39.5t-57 60.5t-22 87q0 39 13 69.5 t36 52t54 34.5t67 16q-18 5 -38 15.5t-36.5 26t-27 36.5t-10.5 48q0 25 9 43t22.5 31t30 21.5t31.5 13.5h-131v118h406v-118h-22q-61 0 -102.5 -7.5t-67 -20.5t-36.5 -30.5t-11 -38.5q0 -41 46.5 -65t140.5 -24v-116z"/>
<glyph glyph-name="omicron" horiz-adv-x="640" unicode="ο" d="M158 277q0 -35 12 -66.5t34 -55t51.5 -37.5t65.5 -14q35 0 64.5 14t51 37.5t33.5 54.5t12 66q0 34 -12 66t-33.5 56.5t-51.5 39t-65 14.5q-33 0 -62.5 -14.5t-51.5 -38.5t-35 -55.5t-13 -66.5zM321 574q63 0 117 -23.5t93 -64t61.5 -94t22.5 -113.5q0 -62 -22 -116.5 t-61 -94.5t-93 -63t-118 -23q-61 0 -115 23.5t-94 64t-63.5 94t-23.5 113.5t23 114t62.5 94.5t93.5 64.5t117 24z"/>
<glyph glyph-name="pi" horiz-adv-x="653" unicode="π" d="M547 165q0 -30 9.5 -42t31.5 -12q8 0 14.5 1t11.5 3q6 2 11 4v-113q-10 -5 -22 -9q-11 -3 -27 -5.5t-36 -2.5q-27 0 -50 8.5t-40 26.5t-26.5 46t-9.5 67v296h-190v-433h-133v433h-87v122h630v-122h-87v-268z"/>
<glyph glyph-name="rho" horiz-adv-x="668" unicode="ρ" d="M48 270q0 70 22 126.5t61 96t93.5 60.5t119.5 21q63 0 118 -23t95 -62.5t63 -94t23 -117.5q0 -62 -20.5 -115.5t-57.5 -93.5t-88 -63t-112 -23q-54 0 -101 19t-82 60h-1v-246h-133v455zM178 277q0 -36 12.5 -67.5t34.5 -55t52.5 -37t65.5 -13.5q36 0 67 13.5t53 37 t34.5 55t12.5 67.5t-12.5 68t-35 56t-53 37.5t-67.5 13.5q-34 0 -64 -13.5t-52 -37t-35 -55.5t-13 -69z"/>
<glyph glyph-name="sigma1" horiz-adv-x="512" unicode="ς" d="M158 280q0 -43 16 -69t40.5 -41.5t54 -24.5t57.5 -19q36 -13 64.5 -26.5t48.5 -31.5t30.5 -41t10.5 -55q0 -35 -13.5 -63.5t-39.5 -49.5t-63 -32.5t-83 -11.5v115q13 0 26 1.5t23 4.5t16 8.5t6 15.5q0 20 -23 28t-60 17q-42 11 -85.5 28t-79 48t-57.5 78.5t-22 118.5 q0 66 22.5 120.5t61.5 93.5t93 60.5t117 21.5q49 0 89 -9.5t72 -26.5v-133q-27 22 -63.5 34.5t-78.5 12.5q-41 0 -74 -13t-56.5 -35.5t-36.5 -54.5t-13 -69z"/>
<glyph glyph-name="sigma" horiz-adv-x="694" unicode="σ" d="M158 270q0 -35 12.5 -65t34 -52.5t51 -35.5t64.5 -13t64.5 13t51 35.5t33.5 52.5t12 63q0 37 -10 65t-23 48t-26.5 33t-19.5 19h-89q-33 0 -61.5 -13t-49.5 -35t-32.5 -51.5t-11.5 -63.5zM614 266q0 -62 -23 -114.5t-62.5 -90t-93.5 -58.5t-116 -21t-115.5 22t-93.5 60.5 t-62.5 91t-22.5 113.5t21 113t59.5 90.5t91 60.5t115.5 22h370v-122h-128q28 -32 44 -75t16 -92z"/>
<glyph glyph-name="tau" horiz-adv-x="436" unicode="τ" d="M272 169q0 -30 8 -44t34 -14q19 0 32 5q7 3 13 6v-113q-9 -6 -22 -10q-11 -4 -27.5 -7t-39.5 -3q-28 0 -52 8.5t-41.5 26.5t-27.5 46t-10 67v296h-128v122h393v-122h-132v-264z"/>
<glyph glyph-name="upsilon" horiz-adv-x="582" unicode="υ" d="M342 564q42 0 79 -19.5t65 -56t44 -88.5t16 -117q0 -58 -14.5 -112t-45.5 -96t-79 -67.5t-115 -25.5q-43 0 -86 12t-77 40t-55.5 75t-21.5 116v330h133v-331q0 -56 26.5 -88t81.5 -32q63 0 91.5 48t28.5 127q0 58 -15.5 99t-55.5 51v135z"/>
<glyph glyph-name="phi" horiz-adv-x="777" unicode="φ" d="M619 279q0 36 -12.5 66t-34 52t-52 35t-66.5 16v-344q73 8 119 53t46 122zM321 -185v168q-62 4 -115.5 27.5t-94 62t-63.5 90.5t-23 113q0 63 21.5 112t55 84.5t74.5 57.5t79 31v-135q-43 -19 -70 -55t-27 -94q0 -38 12.5 -68t34.5 -52t51.5 -35.5t64.5 -17.5v464 q9 1 22 3q11 1 27 2t36 1q78 0 142 -22.5t109.5 -62.5t70 -94t24.5 -118t-23.5 -116.5t-64 -91t-95 -61t-115.5 -25.5v-168h-133z"/>
<glyph glyph-name="chi" horiz-adv-x="574" unicode="χ" d="M288 93l-129 -278h-156l201 388l-102 193q-12 23 -25 32.5t-38 9.5h-23v117h70q50 0 76.5 -17.5t44.5 -56.5l80 -170l115 244h156l-189 -352l202 -388h-155z"/>
<glyph glyph-name="psi" horiz-adv-x="819" unicode="ψ" d="M343 -185v168q-54 7 -107 25t-94 51.5t-66.5 84t-25.5 121.5v290h133v-255q0 -47 11.5 -81t32.5 -57.5t50.5 -37t65.5 -19.5v581h133v-581q35 6 64.5 19.5t50.5 37t33 57.5t12 81v255h133v-290q0 -71 -25.5 -121.5t-67 -84t-94 -51.5t-106.5 -25v-168h-133z"/>
<glyph glyph-name="uni0400" horiz-adv-x="520" unicode="Ѐ" d="M379 886l-53 -92l-226 125l57 102zM459 740v-128h-261v-181h250v-128h-250v-175h261v-128h-398v740h398z"/>
<glyph glyph-name="uni0401" horiz-adv-x="520" unicode="Ё" d="M432 939v-133h-133v133h133zM222 939v-133h-134v133h134zM459 740v-128h-261v-181h250v-128h-250v-175h261v-128h-398v740h398z"/>
<glyph glyph-name="uni0402" horiz-adv-x="696" unicode="Ђ" d="M280 0h-137v612h-137v128h460v-128h-186v-159h145q59 0 105 -16t77.5 -45t48 -69.5t16.5 -88.5q0 -54 -17.5 -98t-54.5 -76q-21 -18 -42 -29.5t-47.5 -18t-60 -9.5t-78.5 -3v128h33q25 0 48.5 6.5t41.5 19.5t29 32t11 45q0 46 -33 70t-93 24h-129v-325z"/>
<glyph glyph-name="uni0403" horiz-adv-x="475" unicode="Ѓ" d="M365 1021l57 -102l-226 -125l-53 92zM467 740v-128h-269v-612h-137v740h406z"/>
<glyph glyph-name="uni0404" horiz-adv-x="779" unicode="Є" d="M416 -15q-79 0 -149 30.5t-122 83t-82 122t-30 146.5q0 81 31.5 151.5t84.5 123t123 83t147 30.5q54 0 107 -16t99 -46t81.5 -71.5t55.5 -92.5h-159q-40 53 -87.5 75.5t-99.5 22.5q-43 0 -81.5 -15.5t-70 -42.5t-54 -62.5t-32.5 -75.5h357v-128h-356q11 -39 33 -74 t52.5 -60.5t67.5 -40.5t79 -15q60 0 107 24t87 69h158q-23 -51 -59.5 -92t-82 -69.5t-98 -44t-107.5 -15.5z"/>
<glyph glyph-name="uni0405" horiz-adv-x="520" unicode="Ѕ" d="M256 755q43 0 81.5 -15.5t68 -43t48 -66.5t21.5 -86h-140v1q-3 36 -23.5 59t-59.5 23q-32 0 -54 -21t-22 -54q0 -36 23.5 -58t71.5 -36q117 -35 169.5 -90.5t52.5 -146.5q0 -54 -18.5 -98t-51 -74.5t-76 -47t-94.5 -16.5q-48 0 -91 16.5t-75 46.5t-52 72t-23 92h144 q5 -46 30.5 -72.5t67.5 -26.5q21 0 39.5 7t32.5 20t22 30t8 37q0 41 -25 66t-70 41q-44 16 -84 32t-71 40.5t-49 62t-18 95.5q0 47 17.5 86t47 66.5t69 43t83.5 15.5z"/>
<glyph glyph-name="uni0406" horiz-adv-x="280" unicode="І" d="M209 740v-740h-137v740h137z"/>
<glyph glyph-name="uni0407" horiz-adv-x="280" unicode="Ї" d="M312 939v-133h-133v133h133zM102 939v-133h-134v133h134zM209 740v-740h-137v740h137z"/>
<glyph glyph-name="uni0408" horiz-adv-x="480" unicode="Ј" d="M409 740v-534q0 -54 -16 -95.5t-43.5 -69t-65.5 -42t-81 -14.5q-77 0 -131 48t-70 141h138q6 -26 21 -43.5t44 -17.5q34 0 50.5 24.5t16.5 60.5v542h137z"/>
<glyph glyph-name="uni0409" horiz-adv-x="1040" unicode="Љ" d="M732 128q32 0 59.5 5t47.5 17.5t31 33.5t11 53q0 54 -37.5 77t-108.5 23h-99v-209h96zM497 516l-347 -516h-164l511 740h139v-284h139q57 0 102.5 -16t76.5 -45t47.5 -69.5t16.5 -89.5q0 -51 -14.5 -94.5t-47.5 -75t-86 -49t-129 -17.5h-242v516h-2z"/>
<glyph glyph-name="uni040A" horiz-adv-x="1042" unicode="Њ" d="M737 128q32 0 59 3.5t46.5 14t30 29t10.5 48.5q0 51 -36 69.5t-107 18.5h-102v-183h99zM208 311v-311h-137v740h137v-301h293v301h137v-301h139q57 0 102.5 -15.5t76.5 -43.5t47.5 -67t16.5 -86q0 -49 -14.5 -90.5t-47.5 -72t-86 -47.5t-129 -17h-242v311h-293z"/>
<glyph glyph-name="uni040B" horiz-adv-x="720" unicode="Ћ" d="M280 0h-137v612h-137v128h460v-128h-186v-159h143q59 0 103.5 -17t74.5 -48t45.5 -73.5t15.5 -93.5v-221h-137v219q0 52 -33.5 79t-90.5 27h-121v-325z"/>
<glyph glyph-name="uni040C" horiz-adv-x="631" unicode="Ќ" d="M456 1021l57 -102l-226 -125l-53 92zM625 740l-264 -368l270 -372h-168l-255 372v-372h-137v740h137v-368l257 368h160z"/>
<glyph glyph-name="uni040D" horiz-adv-x="741" unicode="Ѝ" d="M507 886l-53 -92l-226 125l57 102zM671 740v-740h-137v538h-2l-309 -538h-153v740h137v-538h2l306 538h156z"/>
<glyph glyph-name="uni040E" horiz-adv-x="662" unicode="Ў" d="M337 775q-44 0 -78.5 12.5t-59 35t-38 52t-15.5 64.5h116q2 -33 23.5 -50t51.5 -17t51.5 17t23.5 50h116q-2 -35 -16 -64.5t-38 -52t-58.5 -35t-78.5 -12.5zM334 357h2l171 383h146l-341 -740h-146l100 206q-67 136 -131.5 267t-130.5 267h150z"/>
<glyph glyph-name="uni040F" horiz-adv-x="707" unicode="Џ" d="M71 740h137v-612h292v612h137v-740h-218v-175h-129v175h-219v740z"/>
<glyph glyph-name="uni0410" horiz-adv-x="740" unicode="А" d="M367 547l-84 -227h170l-84 227h-2zM422 740l310 -740h-151l-79 191h-265l-79 -191h-151l308 740h107z"/>
<glyph glyph-name="uni0411" horiz-adv-x="603" unicode="Б" d="M290 128q31 0 58 5t47 16.5t31 31.5t11 50q0 49 -37.5 71.5t-106.5 22.5h-86v-197h83zM331 444q57 0 102.5 -15.5t76.5 -44t47.5 -67.5t16.5 -87q0 -50 -15 -92.5t-48 -73t-85.5 -47.5t-128.5 -17h-227v740h440v-128h-303v-168h124z"/>
<glyph glyph-name="uni0412" horiz-adv-x="580" unicode="В" d="M279 128q63 0 99 23.5t36 74.5q0 48 -37.5 73t-94.5 25h-75v-196h72zM207 452h48q60 0 87.5 21t27.5 59t-27.5 59t-75.5 21h-60v-160zM245 740q75 0 124 -15t79 -46q59 -61 59 -135q0 -94 -83 -140q66 -24 96.5 -69t30.5 -115q0 -41 -14.5 -80t-46.5 -70.5t-83 -50.5 t-125 -19h-212v740h175z"/>
<glyph glyph-name="uni0413" horiz-adv-x="475" unicode="Г" d="M467 740v-128h-269v-612h-137v740h406z"/>
<glyph glyph-name="uni0414" horiz-adv-x="820" unicode="Д" d="M410 558h-2l-183 -430h367zM77 128q70 155 136.5 305.5t136.5 306.5h119l273 -612h82v-277h-129v149h-570v-149h-129v277h81z"/>
<glyph glyph-name="uni0415" horiz-adv-x="520" unicode="Е" d="M459 740v-128h-261v-181h250v-128h-250v-175h261v-128h-398v740h398z"/>
<glyph glyph-name="uni0416" horiz-adv-x="975" unicode="Ж" d="M172 740l233 -367l-238 -373h-162l252 373l-243 367h158zM958 740l-240 -366l252 -374h-168l-232 373l234 367h154zM556 740v-740h-137v740h137z"/>
<glyph glyph-name="uni0417" horiz-adv-x="570" unicode="З" d="M216 449q13 -1 25 -1h14q24 0 45 6t37 17.5t25.5 29t9.5 40.5q0 35 -25.5 60.5t-67.5 25.5q-48 0 -76.5 -26t-28.5 -72h-136q0 51 18 92.5t50.5 70.5t77.5 45t99 16q47 0 88 -14.5t71.5 -41t48 -63.5t17.5 -82q0 -63 -30.5 -102.5t-79.5 -56.5q27 -8 51 -23t42 -37 t28.5 -52t10.5 -69q0 -49 -20 -90.5t-54.5 -72t-81 -47.5t-99.5 -17q-47 0 -92 14.5t-81 44.5t-59 75t-25 107h139q4 -51 36.5 -82t84.5 -31q54 0 84.5 29.5t30.5 77.5q0 51 -35.5 78t-104.5 27h-37v124z"/>
<glyph glyph-name="uni0418" horiz-adv-x="741" unicode="И" d="M671 740v-740h-137v538h-2l-309 -538h-153v740h137v-538h2l306 538h156z"/>
<glyph glyph-name="uni0419" horiz-adv-x="741" unicode="Й" d="M671 740v-740h-137v538h-2l-309 -538h-153v740h137v-538h2l306 538h156zM367 775q-44 0 -78.5 12.5t-59 35t-38 52t-15.5 64.5h116q2 -33 23.5 -50t51.5 -17t51.5 17t23.5 50h116q-2 -35 -16 -64.5t-38 -52t-58.5 -35t-78.5 -12.5z"/>
<glyph glyph-name="uni041A" horiz-adv-x="631" unicode="К" d="M625 740l-264 -368l270 -372h-168l-255 372v-372h-137v740h137v-368l257 368h160z"/>
<glyph glyph-name="uni041B" horiz-adv-x="740" unicode="Л" d="M369 550l-210 -550h-152l304 740h118l303 -740h-154z"/>
<glyph glyph-name="uni041C" horiz-adv-x="900" unicode="М" d="M253 740l197 -560h2l195 560h190v-740h-137v555h-3l-189 -555h-116l-190 555h-2v-555h-137v740h190z"/>
<glyph glyph-name="uni041D" horiz-adv-x="680" unicode="Н" d="M208 740v-301h265v301h137v-740h-137v311h-265v-311h-137v740h137z"/>
<glyph glyph-name="uni041E" horiz-adv-x="840" unicode="О" d="M170 369q0 -51 19 -97.5t53 -82t79.5 -56t98.5 -20.5q54 0 99.5 21t79 56t52.5 81.5t19 97.5q0 52 -19 98.5t-53 82t-79.5 56.5t-99.5 21q-51 0 -96.5 -20.5t-79.5 -56t-53.5 -82.5t-19.5 -99zM420 755q81 0 151.5 -30.5t123 -83t82.5 -123t30 -150.5q0 -79 -30 -148.5 t-82.5 -121.5t-123 -82.5t-151.5 -30.5q-76 0 -146 29t-123.5 80t-85.5 121t-32 153q0 77 29 147t80.5 123.5t122.5 85t155 31.5z"/>
<glyph glyph-name="uni041F" horiz-adv-x="722" unicode="П" d="M651 740v-740h-137v612h-306v-612h-137v740h580z"/>
<glyph glyph-name="uni0420" horiz-adv-x="560" unicode="Р" d="M209 410h48q48 0 77.5 8t46 22t22 32.5t5.5 38.5q0 22 -6 40.5t-22.5 32t-46 21t-75.5 7.5h-49v-202zM297 740q62 0 108.5 -17.5t77.5 -48t46.5 -72.5t15.5 -91q0 -51 -16 -93t-47 -72.5t-77.5 -47t-106.5 -16.5h-89v-282h-137v740h225z"/>
<glyph glyph-name="uni0421" horiz-adv-x="780" unicode="С" d="M417 755q55 0 108 -15.5t99 -44.5t82.5 -71t59.5 -95h-156q-40 46 -87.5 72t-110.5 26q-50 0 -94 -21.5t-76.5 -57.5t-51.5 -82t-19 -95q0 -50 19.5 -96.5t52.5 -82.5t78 -57.5t96 -21.5q52 0 96 21t90 72h159q-21 -50 -57 -90.5t-81.5 -69.5t-97.5 -45t-106 -16 q-77 0 -147 30t-123 82.5t-84.5 123.5t-31.5 152q0 77 30 146.5t82 122t122 83t149 30.5z"/>
<glyph glyph-name="uni0422" horiz-adv-x="420" unicode="Т" d="M418 740v-128h-138v-612h-137v612h-137v128h412z"/>
<glyph glyph-name="uni0423" horiz-adv-x="657" unicode="У" d="M334 357h2l171 383h146l-341 -740h-146l100 206q-67 136 -131.5 267t-130.5 267h150z"/>
<glyph glyph-name="uni0424" horiz-adv-x="884" unicode="Ф" d="M170 371q0 -47 14.5 -85.5t41.5 -66t64.5 -43.5t83.5 -17v422q-45 -2 -82.5 -17.5t-64.5 -42.5t-42 -65.5t-15 -84.5zM714 369q0 47 -14.5 85.5t-41.5 66t-64.5 43t-83.5 17.5v-422q45 1 82.5 17t64.5 43t42 65t15 85zM374 43q-70 2 -132 24t-108.5 63t-73.5 100.5 t-27 136.5q0 74 26 134.5t71.5 103.5t108 67t135.5 26v102h136v-103q70 -2 132 -24t108.5 -63t73.5 -100.5t27 -136.5q0 -74 -26 -134.5t-71.5 -103.5t-108 -67t-135.5 -26v-102h-136v103z"/>
<glyph glyph-name="uni0425" horiz-adv-x="680" unicode="Х" d="M167 740l173 -258l178 258h158l-256 -371l256 -369h-158l-178 256l-173 -256h-163l255 369l-255 371h163z"/>
<glyph glyph-name="uni0426" horiz-adv-x="738" unicode="Ц" d="M71 740h137v-612h292v612h137v-612h105v-277h-129v149h-542v740z"/>
<glyph glyph-name="uni0427" horiz-adv-x="653" unicode="Ч" d="M46 740h137v-236q0 -52 33.5 -79t90.5 -27h138v342h137v-740h-137v270h-160q-59 0 -103.5 17t-74.5 48t-45.5 73.5t-15.5 93.5v238z"/>
<glyph glyph-name="uni0428" horiz-adv-x="1020" unicode="Ш" d="M71 740h137v-612h234v612h136v-612h234v612h137v-740h-878v740z"/>
<glyph glyph-name="uni0429" horiz-adv-x="1050" unicode="Щ" d="M71 740h137v-612h234v612h136v-612h234v612h137v-612h105v-277h-129v149h-854v740z"/>
<glyph glyph-name="uni042A" horiz-adv-x="693" unicode="Ъ" d="M385 128q32 0 59.5 5t47.5 17.5t31 33.5t11 53q0 54 -37.5 77t-108.5 23h-99v-209h96zM428 456q57 0 102.5 -16t76.5 -45t47.5 -69.5t16.5 -89.5q0 -51 -14.5 -94.5t-47.5 -75t-86 -49t-129 -17.5h-242v612h-152v128h289v-284h139z"/>
<glyph glyph-name="uni042B" horiz-adv-x="863" unicode="Ы" d="M303 128q32 0 59.5 5t47.5 17.5t31 33.5t11 53q0 54 -37.5 77t-108.5 23h-99v-209h96zM346 456q57 0 102.5 -16t76.5 -45t47.5 -69.5t16.5 -89.5q0 -51 -14.5 -94.5t-47.5 -75t-86 -49t-129 -17.5h-242v740h137v-284h139zM792 740v-740h-137v740h137z"/>
<glyph glyph-name="uni042C" horiz-adv-x="611" unicode="Ь" d="M303 128q32 0 59.5 5t47.5 17.5t31 33.5t11 53q0 54 -37.5 77t-108.5 23h-99v-209h96zM346 456q57 0 102.5 -16t76.5 -45t47.5 -69.5t16.5 -89.5q0 -51 -14.5 -94.5t-47.5 -75t-86 -49t-129 -17.5h-242v740h137v-284h139z"/>
<glyph glyph-name="uni042D" horiz-adv-x="779" unicode="Э" d="M363 -15q-55 0 -107.5 15.5t-98 44t-82 69.5t-59.5 92h158q40 -45 87 -69t107 -24q42 0 79 15t67.5 40.5t52.5 60.5t33 74h-356v128h357q-10 40 -32.5 75.5t-54 62.5t-70 42.5t-81.5 15.5q-52 0 -99.5 -22.5t-87.5 -75.5h-159q19 51 55 92.5t82 71.5t99 46t107 16 q77 0 147 -30.5t123 -83t84.5 -123t31.5 -151.5q0 -77 -30 -146.5t-82 -122t-122 -83t-149 -30.5z"/>
<glyph glyph-name="uni042E" horiz-adv-x="1106" unicode="Ю" d="M455 369q0 -52 18 -98.5t50 -81.5t76.5 -55.5t97.5 -20.5q52 0 96 20.5t76 55.5t49.5 81.5t17.5 98.5t-18 98.5t-49.5 82t-76 56.5t-96.5 21q-53 0 -97 -21t-76 -56t-50 -82t-18 -99zM695 755q79 0 148 -30t120 -82t80.5 -121.5t29.5 -148.5q0 -81 -29 -151.5t-79.5 -123 t-119 -83t-146.5 -30.5q-71 0 -136 24.5t-116.5 69t-85.5 105.5t-41 135h-112v-319h-137v740h137v-300h118q12 67 44.5 124.5t81 100t110.5 66.5t133 24z"/>
<glyph glyph-name="uni042F" horiz-adv-x="586" unicode="Я" d="M203 276q-55 13 -90 41t-55.5 62t-28 69t-7.5 61q0 48 17.5 90t49.5 73.5t76.5 49.5t99.5 18h251v-740h-137v310h-2l-208 -310h-163zM379 386v226h-91q-27 0 -50.5 -7.5t-41 -21.5t-27.5 -35t-10 -48q0 -55 35.5 -84.5t93.5 -29.5h91z"/>
<glyph glyph-name="uni0430" horiz-adv-x="660" unicode="а" d="M160 275q0 -35 12.5 -66t34.5 -54.5t52.5 -37t65.5 -13.5q36 0 66 14t51.5 38t33 55.5t11.5 67.5t-12 68t-33.5 55t-51.5 36.5t-66 13.5q-35 0 -65 -13.5t-52 -37.5t-34.5 -56.5t-12.5 -69.5zM305 574q29 0 57.5 -8t53 -20.5t43.5 -28.5t30 -32h2v70h122v-555h-122v69 q-17 -20 -39.5 -36t-48.5 -27t-53.5 -17.5t-53.5 -6.5q-59 0 -108 23t-85 63.5t-56 95t-20 117.5q0 60 21 113.5t58 93.5t88 63t111 23z"/>
<glyph glyph-name="uni0431" horiz-adv-x="636" unicode="б" d="M153 434q4 7 17 22.5t36.5 32t56.5 29t76 12.5q59 0 109 -21t86 -57.5t56.5 -85.5t20.5 -106q0 -59 -22.5 -109.5t-61.5 -88t-91 -59t-111 -21.5q-47 0 -87 12.5t-72.5 35t-57.5 53.5t-42 68q-22 47 -29 98t-7 111q0 27 4.5 63.5t15 75t29 75t45.5 65.5q26 27 55.5 44 t61.5 27.5t66 15.5t70 7q30 2 65 3t66 3q35 2 71 3v-129l-74 -2q-32 -1 -68 -2.5t-66 -2.5q-40 -2 -75 -11.5t-63.5 -30t-49 -52.5t-32.5 -78h2zM175 265q0 -32 11.5 -59t32 -46.5t48.5 -30.5t60 -11q34 0 62 11.5t48 31.5t31 47t11 58q0 29 -11.5 55t-32 45.5t-48.5 31 t-61 11.5q-32 0 -59.5 -10.5t-48 -30t-32 -46t-11.5 -57.5z"/>
<glyph glyph-name="uni0432" horiz-adv-x="520" unicode="в" d="M403 297q47 -17 70 -50.5t23 -80.5q0 -36 -11 -66t-35.5 -52.5t-65 -35t-99.5 -12.5h-231v555h220q43 0 79 -8t62.5 -25.5t41 -45t14.5 -67.5q0 -35 -16.5 -63.5t-51.5 -48.5zM259 115q21 0 40 1.5t33.5 7.5t23 18.5t8.5 34.5q0 35 -28.5 45.5t-76.5 10.5h-75v-118h75z M265 341q44 0 59 13.5t15 37.5q0 23 -16 35.5t-60 12.5h-79v-99h81z"/>
<glyph glyph-name="uni0433" horiz-adv-x="405" unicode="г" d="M400 555v-122h-213v-433h-133v555h346z"/>
<glyph glyph-name="uni0434" horiz-adv-x="670" unicode="д" d="M71 122l212 430h129l191 -430h64v-256h-125v134h-414v-134h-125v256h68zM460 122l-118 271h-2l-127 -271h247z"/>
<glyph glyph-name="uni0435" horiz-adv-x="640" unicode="е" d="M474 325q-10 60 -49 93.5t-102 33.5q-55 0 -97.5 -31.5t-58.5 -95.5h307zM323 574q60 0 112.5 -22.5t91.5 -61.5t61 -91.5t22 -113.5q0 -29 -8 -67h-431q4 -18 16.5 -38.5t33 -37t46.5 -27.5t57 -11q42 0 75 17t53 54h140q-14 -42 -40.5 -77.5t-62.5 -61t-78.5 -40 t-86.5 -14.5q-63 0 -116.5 23t-92.5 62.5t-61.5 93t-22.5 115.5q0 61 22 115.5t61 95t92.5 64t116.5 23.5z"/>
<glyph glyph-name="uni0436" horiz-adv-x="826" unicode="ж" d="M173 555l164 -270l-176 -285h-149l183 294l-182 261h160zM814 555l-185 -261l183 -294h-152l-170 285l166 270h158zM480 555v-555h-133v555h133z"/>
<glyph glyph-name="uni0437" horiz-adv-x="475" unicode="з" d="M233 455q-39 0 -57 -16t-21 -43h-124q0 41 15.5 74t43.5 56t67 35.5t85 12.5q40 0 75 -11t60.5 -31.5t40.5 -49t15 -63.5q0 -48 -26 -78.5t-68 -44.5q46 -12 79 -45.5t33 -93.5q0 -38 -17 -70t-46 -55t-68.5 -36.5t-84.5 -13.5q-40 0 -78.5 11.5t-69.5 35t-50.5 58.5 t-20.5 83h126q5 -29 28.5 -48t61.5 -19q40 0 63 18.5t23 47.5q0 32 -26.5 48.5t-74.5 16.5h-26v103h15q48 0 71 16.5t23 45.5q0 24 -19.5 40t-47.5 16z"/>
<glyph glyph-name="uni0438" horiz-adv-x="629" unicode="и" d="M190 0h-136v556h133l-4 -359h2l244 359h146v-556h-133l3 360h-2z"/>
<glyph glyph-name="uni0439" horiz-adv-x="629" unicode="й" d="M190 0h-136v556h133l-4 -359h2l244 359h146v-556h-133l3 360h-2zM315 621q-43 0 -77 12.5t-58 35t-38 53t-17 66.5h112q4 -35 26.5 -52.5t51.5 -17.5t52 17.5t27 52.5h111q-3 -36 -17 -66.5t-38 -53t-58 -35t-77 -12.5z"/>
<glyph glyph-name="uni043A" horiz-adv-x="530" unicode="к" d="M518 555l-192 -261l189 -294h-152l-176 285v-285h-133v555h133v-270l173 270h158z"/>
<glyph glyph-name="uni043B" horiz-adv-x="595" unicode="л" d="M448 0l-151 385h-2l-152 -385h-141l232 555h128l231 -555h-145z"/>
<glyph glyph-name="uni043C" horiz-adv-x="762" unicode="м" d="M54 0v555h193l133 -395h2l133 395h193v-555h-131l4 398h-2l-138 -398h-122l-135 398h-2l3 -398h-131z"/>
<glyph glyph-name="uni043D" horiz-adv-x="599" unicode="н" d="M188 555v-207h224v207h133v-555h-133v226h-224v-226h-134v555h134z"/>
<glyph glyph-name="uni043E" horiz-adv-x="640" unicode="о" d="M158 277q0 -35 12 -66.5t34 -55t51.5 -37.5t65.5 -14q35 0 64.5 14t51 37.5t33.5 54.5t12 66q0 34 -12 66t-33.5 56.5t-51.5 39t-65 14.5q-33 0 -62.5 -14.5t-51.5 -38.5t-35 -55.5t-13 -66.5zM321 574q63 0 117 -23.5t93 -64t61.5 -94t22.5 -113.5q0 -62 -22 -116.5 t-61 -94.5t-93 -63t-118 -23q-61 0 -115 23.5t-94 64t-63.5 94t-23.5 113.5t23 114t62.5 94.5t93.5 64.5t117 24z"/>
<glyph glyph-name="uni043F" horiz-adv-x="599" unicode="п" d="M545 555v-555h-133v433h-225v-433h-133v555h491z"/>
<glyph glyph-name="uni0440" horiz-adv-x="660" unicode="р" d="M172 278q0 -44 15.5 -76.5t39.5 -54.5t52.5 -32.5t54.5 -10.5q34 0 63.5 14t51.5 38t34.5 55.5t12.5 66.5q0 34 -12 65.5t-33.5 55.5t-51 38.5t-64.5 14.5t-64.5 -13.5t-51.5 -37.5t-34.5 -55.5t-12.5 -67.5zM351 574q61 0 112 -24t88 -64.5t57.5 -93.5t20.5 -112 q0 -61 -21.5 -115.5t-59 -95t-88 -64t-109.5 -23.5q-53 0 -92 16t-79 55v-238h-133v740h122v-65h2q35 45 80 64.5t100 19.5z"/>
<glyph glyph-name="uni0441" horiz-adv-x="640" unicode="с" d="M331 574q47 0 90.5 -13.5t80 -40t64.5 -64t44 -85.5h-150q-22 39 -52.5 60t-76.5 21q-35 0 -64.5 -13.5t-51 -36.5t-33.5 -55t-12 -69t12.5 -69t35 -55t53 -36.5t66.5 -13.5q42 0 72 21.5t51 55.5h150q-35 -95 -109 -147t-169 -52q-62 0 -115.5 23.5t-93.5 64t-63 95 t-23 115.5q0 60 23 113.5t63 93.5t93.5 63.5t114.5 23.5z"/>
<glyph glyph-name="uni0442" horiz-adv-x="419" unicode="т" d="M403 555v-122h-127v-433h-133v433h-128v122h388z"/>
<glyph glyph-name="uni0443" horiz-adv-x="580" unicode="у" d="M160 555l126 -356l134 356h151l-319 -740h-143l102 236l-203 504h152z"/>
<glyph glyph-name="uni0444" horiz-adv-x="798" unicode="ф" d="M158 276q0 -36 13.5 -67t37 -54t55 -37t68.5 -15v346q-39 -2 -71 -16t-55 -37t-35.5 -53.5t-12.5 -66.5zM640 277q0 36 -13.5 67t-37 54t-55.5 36.5t-69 15.5v-347q39 3 71 17t55 37t36 53.5t13 66.5zM465 740v-166q65 0 121.5 -22t98 -61t65 -92.5t23.5 -116.5 q0 -71 -24.5 -127t-66.5 -94.5t-98 -58.5t-119 -20v-167h-133v167q-66 0 -122 22t-97 61t-64.5 92t-23.5 115q0 71 24 127t65.5 95t97.5 59.5t120 20.5v166h133z"/>
<glyph glyph-name="uni0445" horiz-adv-x="560" unicode="х" d="M177 555l102 -167l101 167h149l-172 -269l199 -286h-158l-119 190l-118 -190h-158l197 286l-172 269h149z"/>
<glyph glyph-name="uni0446" horiz-adv-x="619" unicode="ц" d="M54 0v555h133v-433h216v433h133v-433h80v-256h-125v134h-437z"/>
<glyph glyph-name="uni0447" horiz-adv-x="548" unicode="ч" d="M36 555h130v-168q0 -69 89 -69h106v237h133v-555h-133v196h-144q-45 0 -79 12.5t-56.5 35t-34 53.5t-11.5 67v191z"/>
<glyph glyph-name="uni0448" horiz-adv-x="857" unicode="ш" d="M54 555h133v-433h175v433h133v-433h175v433h133v-555h-749v555z"/>
<glyph glyph-name="uni0449" horiz-adv-x="886" unicode="щ" d="M54 555h133v-433h175v433h133v-433h175v433h133v-433h80v-256h-125v134h-704v555z"/>
<glyph glyph-name="uni044A" horiz-adv-x="594" unicode="ъ" d="M354 122q18 0 34.5 3t28.5 10.5t19 19.5t7 31q0 33 -22.5 46.5t-63.5 13.5h-94v-124h91zM389 364q44 0 79 -13.5t59 -37t36.5 -55.5t12.5 -69q0 -42 -11 -76.5t-36 -59.5t-66 -39t-101 -14h-232v437h-130v118h263v-191h126z"/>
<glyph glyph-name="uni044B" horiz-adv-x="737" unicode="ы" d="M278 122q18 0 34.5 3t28.5 10.5t19 19.5t7 31q0 33 -22.5 46.5t-63.5 13.5h-94v-124h91zM313 364q44 0 79 -13.5t59 -37t36.5 -55.5t12.5 -69q0 -42 -11 -76.5t-36 -59.5t-66 -39t-101 -14h-232v555h133v-191h126zM550 555h133v-555h-133v555z"/>
<glyph glyph-name="uni044C" horiz-adv-x="518" unicode="ь" d="M278 122q18 0 34.5 3t28.5 10.5t19 19.5t7 31q0 33 -22.5 46.5t-63.5 13.5h-94v-124h91zM313 364q44 0 79 -13.5t59 -37t36.5 -55.5t12.5 -69q0 -42 -11 -76.5t-36 -59.5t-66 -39t-101 -14h-232v555h133v-191h126z"/>
<glyph glyph-name="uni044D" horiz-adv-x="640" unicode="э" d="M309 574q61 0 114.5 -23.5t93.5 -63.5t63 -93.5t23 -113.5q0 -61 -23 -115.5t-63 -95t-94 -64t-115 -23.5q-95 0 -169 52t-109 147h150q21 -34 51 -55.5t72 -21.5q59 0 102.5 34.5t58.5 89.5h-239v108h237q-15 51 -55.5 83.5t-97.5 32.5q-46 0 -76.5 -21t-52.5 -60h-150 q16 48 44 85.5t64.5 64t80 40t90.5 13.5z"/>
<glyph glyph-name="uni044E" horiz-adv-x="863" unicode="ю" d="M551 104q36 0 64.5 14t48.5 38t30.5 55.5t10.5 67.5q0 35 -10.5 66.5t-30.5 55t-49 37.5t-65 14t-64.5 -14t-48 -38t-30 -55.5t-10.5 -67.5q0 -35 10.5 -66.5t30 -55t48.5 -37.5t65 -14zM187 226v-226h-133v555h133v-207h84q10 50 35.5 91.5t62 71.5t83 46.5t98.5 16.5 q61 0 114 -23t91.5 -62.5t60.5 -93.5t22 -116q0 -64 -22 -118.5t-61 -94t-91.5 -62t-113.5 -22.5q-55 0 -103 18t-85.5 50t-62 77t-31.5 99h-81z"/>
<glyph glyph-name="uni044F" horiz-adv-x="516" unicode="я" d="M167 207q-41 9 -67.5 30.5t-41.5 47t-21 51.5t-6 46q0 36 13 67.5t37 55t58 37t75 13.5h248v-555h-133v220h-1l-153 -220h-156zM329 316v124h-79q-40 0 -63 -14t-23 -47q0 -35 21 -49t65 -14h79z"/>
<glyph glyph-name="uni0450" horiz-adv-x="640" unicode="ѐ" d="M439 716l-53 -92l-226 125l57 102zM474 325q-10 60 -49 93.5t-102 33.5q-55 0 -97.5 -31.5t-58.5 -95.5h307zM323 574q60 0 112.5 -22.5t91.5 -61.5t61 -91.5t22 -113.5q0 -29 -8 -67h-431q4 -18 16.5 -38.5t33 -37t46.5 -27.5t57 -11q42 0 75 17t53 54h140 q-14 -42 -40.5 -77.5t-62.5 -61t-78.5 -40t-86.5 -14.5q-63 0 -116.5 23t-92.5 62.5t-61.5 93t-22.5 115.5q0 61 22 115.5t61 95t92.5 64t116.5 23.5z"/>
<glyph glyph-name="uni0451" horiz-adv-x="640" unicode="ё" d="M492 769v-133h-133v133h133zM282 769v-133h-134v133h134zM474 325q-10 60 -49 93.5t-102 33.5q-55 0 -97.5 -31.5t-58.5 -95.5h307zM323 574q60 0 112.5 -22.5t91.5 -61.5t61 -91.5t22 -113.5q0 -29 -8 -67h-431q4 -18 16.5 -38.5t33 -37t46.5 -27.5t57 -11q42 0 75 17 t53 54h140q-14 -42 -40.5 -77.5t-62.5 -61t-78.5 -40t-86.5 -14.5q-63 0 -116.5 23t-92.5 62.5t-61.5 93t-22.5 115.5q0 61 22 115.5t61 95t92.5 64t116.5 23.5z"/>
<glyph glyph-name="uni0452" horiz-adv-x="625" unicode="ђ" d="M556 3q0 -54 -21.5 -92t-55.5 -63t-76.5 -36.5t-83.5 -11.5h-8v129h6q48 0 77 21.5t29 78.5v210q0 64 -33 99t-84 35q-59 0 -89 -33.5t-30 -93.5v-246h-133v576h-98v101h98v63h133v-63h273v-101h-273v-156q21 35 61 55t91 20q102 0 159.5 -60.5t57.5 -172.5v-259z"/>
<glyph glyph-name="uni0453" horiz-adv-x="405" unicode="ѓ" d="M322 821l57 -102l-226 -125l-53 92zM400 555v-122h-213v-433h-133v555h346z"/>
<glyph glyph-name="uni0454" horiz-adv-x="640" unicode="є" d="M331 574q47 0 90.5 -13.5t80 -40t64.5 -64t44 -85.5h-150q-22 39 -52.5 60t-76.5 21q-57 0 -97.5 -32.5t-55.5 -83.5h237v-108h-239q15 -55 58.5 -89.5t102.5 -34.5q42 0 72 21.5t51 55.5h150q-35 -95 -109 -147t-169 -52q-62 0 -115.5 23.5t-93.5 64t-63 95t-23 115.5 q0 60 23 113.5t63 93.5t93.5 63.5t114.5 23.5z"/>
<glyph glyph-name="uni0455" horiz-adv-x="440" unicode="ѕ" d="M225 574q35 0 67 -12t56.5 -34.5t40 -54t17.5 -69.5h-130q-5 22 -17.5 35t-35.5 13q-21 0 -36 -13.5t-15 -34.5q0 -10 3 -17.5t12.5 -14t27.5 -13.5t48 -16q49 -14 79.5 -32t48 -39t24 -45t6.5 -51q0 -42 -15 -77.5t-41 -61.5t-61.5 -40.5t-76.5 -14.5q-39 0 -75.5 11.5 t-65 35t-46.5 60t-21 86.5h136q8 -38 26 -54.5t47 -16.5q26 0 43 16t17 40q0 15 -5.5 25t-18.5 18t-33 16t-48 17q-42 13 -69.5 31t-44 39.5t-23.5 45.5t-7 50q0 37 15 68.5t40.5 54.5t59 36t71.5 13z"/>
<glyph glyph-name="uni0456" horiz-adv-x="240" unicode="і" d="M186 555v-555h-133v555h133zM186 740v-122h-133v122h133z"/>
<glyph glyph-name="uni0457" horiz-adv-x="240" unicode="ї" d="M292 769v-133h-133v133h133zM82 769v-133h-134v133h134zM186 555v-555h-133v555h133z"/>
<glyph glyph-name="uni0458" horiz-adv-x="260" unicode="ј" d="M205 555v-535q0 -42 -12.5 -79.5t-37 -65t-59.5 -44t-80 -16.5v130q15 1 26 4.5t17.5 11.5t9.5 22t3 38v534h133zM205 740v-122h-133v122h133z"/>
<glyph glyph-name="uni0459" horiz-adv-x="875" unicode="љ" d="M635 122q18 0 34.5 3t28.5 10.5t19 19.5t7 31q0 33 -22.5 46.5t-63.5 13.5h-94v-124h91zM670 364q44 0 79 -13.5t59 -37t36.5 -55.5t12.5 -69q0 -42 -11 -76.5t-36 -59.5t-66 -39t-101 -14h-232v374h-2l-255 -374h-164l390 555h164v-191h126z"/>
<glyph glyph-name="uni045A" horiz-adv-x="864" unicode="њ" d="M624 122q18 0 34.5 3t28.5 10.5t19 19.5t7 31q0 33 -22.5 46.5t-63.5 13.5h-94v-124h91zM659 364q44 0 79 -13.5t59 -37t36.5 -55.5t12.5 -69q0 -42 -11 -76.5t-36 -59.5t-66 -39t-101 -14h-232v246h-212v-246h-134v555h134v-191h212v191h133v-191h126z"/>
<glyph glyph-name="uni045B" horiz-adv-x="610" unicode="ћ" d="M187 576v-156q21 35 61 55t91 20q103 0 160 -61t57 -172v-262h-133v239q0 64 -31 99t-86 35q-59 0 -89 -33.5t-30 -93.5v-246h-133v576h-98v101h98v63h133v-63h273v-101h-273z"/>
<glyph glyph-name="uni045C" horiz-adv-x="530" unicode="ќ" d="M389 821l57 -102l-226 -125l-53 92zM518 555l-192 -261l189 -294h-152l-176 285v-285h-133v555h133v-270l173 270h158z"/>
<glyph glyph-name="uni045D" horiz-adv-x="629" unicode="ѝ" d="M448 716l-53 -92l-226 125l57 102zM190 0h-136v556h133l-4 -359h2l244 359h146v-556h-133l3 360h-2z"/>
<glyph glyph-name="uni045E" horiz-adv-x="580" unicode="ў" d="M289 621q-43 0 -77 12.5t-58 35t-38 53t-17 66.5h112q4 -35 26.5 -52.5t51.5 -17.5t52 17.5t27 52.5h111q-3 -36 -17 -66.5t-38 -53t-58 -35t-77 -12.5zM160 555l126 -356l134 356h151l-319 -740h-143l102 236l-203 504h152z"/>
<glyph glyph-name="uni045F" horiz-adv-x="590" unicode="џ" d="M536 0h-176v-151h-129v151h-177v555h133v-433h216v433h133v-555z"/>
<glyph glyph-name="uni0490" horiz-adv-x="479" unicode="Ґ" d="M198 612v-612h-137v740h280v120h126v-248h-269z"/>
<glyph glyph-name="uni0491" horiz-adv-x="405" unicode="ґ" d="M271 555v128h129v-250h-213v-433h-133v555h217z"/>
<glyph glyph-name="endash" horiz-adv-x="500" unicode="–" d="M465 348v-118h-430v118h430z"/>
<glyph glyph-name="emdash" horiz-adv-x="1000" unicode="—" d="M965 348v-118h-930v118h930z"/>
<glyph glyph-name="quoteleft" horiz-adv-x="280" unicode="‘" d="M72 466v144q0 55 33 92t99 38v-67q-17 -3 -28 -7.5t-18 -13t-9.5 -21t-2.5 -32.5h59v-133h-133z"/>
<glyph glyph-name="quotesinglbase" horiz-adv-x="280" unicode="‚" d="M205 133v-144q0 -55 -33 -92t-99 -38v67q17 3 28 7.5t18 13t9.5 21t2.5 32.5h-59v133h133z"/>
<glyph glyph-name="quotedblleft" horiz-adv-x="480" unicode="“" d="M277 466v144q0 55 33 92t99 38v-67q-17 -3 -28 -7.5t-18 -13t-9.5 -21t-2.5 -32.5h59v-133h-133zM70 466v144q0 55 33 92t99 38v-67q-17 -3 -28 -7.5t-18 -13t-9.5 -21t-2.5 -32.5h59v-133h-133z"/>
<glyph glyph-name="quotedblright" horiz-adv-x="480" unicode="”" d="M410 740v-144q0 -55 -33 -92t-99 -38v67q17 3 28 7.5t18 13t9.5 21t2.5 32.5h-59v133h133zM203 740v-144q0 -55 -33 -92t-99 -38v67q17 3 28 7.5t18 13t9.5 21t2.5 32.5h-59v133h133z"/>
<glyph glyph-name="dagger" horiz-adv-x="560" unicode="†" d="M347 740v-185h162v-113h-162v-584h-133v584h-163v113h163v185h133z"/>
<glyph glyph-name="daggerdbl" horiz-adv-x="560" unicode="‡" d="M346 740v-153h163v-112h-163v-296h163v-112h-163v-209h-133v209h-162v112h162v296h-162v112h162v153h133z"/>
<glyph glyph-name="ellipsis" horiz-adv-x="1000" unicode="…" d="M899 133v-133h-133v133h133zM566 133v-133h-133v133h133zM233 133v-133h-133v133h133z"/>
<glyph glyph-name="perthousand" horiz-adv-x="1280" unicode="‰" d="M972 166q0 -28 21 -49t49 -21t48.5 21t20.5 49t-20 49t-49 21t-49.5 -20.5t-20.5 -49.5zM572 166q0 -28 21 -49t49 -21t48.5 21t20.5 49t-20 49t-49 21t-49.5 -20.5t-20.5 -49.5zM1042 347q37 0 70 -14.5t57.5 -39.5t38.5 -57.5t14 -69.5t-14 -70t-38.5 -57.5t-57.5 -39 t-70 -14.5q-38 0 -71 14.5t-57.5 39.5t-38.5 58t-14 69q0 38 14.5 71t39.5 57.5t58 38.5t69 14zM642 347q37 0 70 -14.5t57.5 -39.5t38.5 -57.5t14 -69.5t-14 -70t-38.5 -57.5t-57.5 -39t-70 -14.5q-38 0 -71 14.5t-57.5 39.5t-38.5 58t-14 69q0 38 14.5 71t39.5 57.5 t58 38.5t69 14zM147 574q0 -28 21 -48.5t48 -20.5q28 0 48.5 20.5t20.5 49.5t-20 49t-50 20q-29 0 -48.5 -20.5t-19.5 -49.5zM632 740l-307 -740h-101l306 740h102zM216 755q37 0 70 -14.5t57.5 -39.5t38.5 -57.5t14 -69.5q0 -36 -14 -68.5t-38 -57t-57 -39.5t-71 -15 q-37 0 -70 14.5t-57.5 39t-38.5 57.5t-14 69t14 69t38.5 58t57 39.5t70.5 14.5z"/>
<glyph glyph-name="guilsinglleft" horiz-adv-x="240" unicode="‹" d="M190 469v-123l-67 -57l67 -58v-123l-140 131v101z"/>
<glyph glyph-name="guilsinglright" horiz-adv-x="240" unicode="›" d="M190 340v-101l-140 -131v123l68 58l-68 57v123z"/>
<glyph glyph-name="fraction" horiz-adv-x="160" unicode="⁄" d="M282 740l-307 -740h-98l306 740h99z"/>
<glyph glyph-name="Euro" horiz-adv-x="560" unicode="€" d="M323 754q91 0 146.5 -53t68.5 -153h-125q-9 46 -32.5 63t-57.5 17q-21 0 -39.5 -6t-33 -22.5t-24 -45t-13.5 -74.5h272l-34 -95h-243v-55h223l-35 -95h-180q4 -37 13.5 -61t23.5 -37.5t32 -19t40 -5.5q35 0 59.5 16.5t32.5 65.5h124q-16 -109 -72.5 -158.5t-148.5 -49.5 q-46 0 -85.5 13.5t-70 43.5t-51.5 77.5t-30 114.5h-83l34 95h41v55h-75l34 95h48q8 76 31 128.5t55.5 84.5t72.5 46.5t82 14.5z"/>
<glyph glyph-name="trademark" horiz-adv-x="1000" unicode="™" d="M459 740l119 -322l118 322h125v-444h-94v306h-2l-109 -306h-78l-109 306h-2v-306h-94v444h126zM274 740v-83h-86v-361h-94v361h-85v83h265z"/>
<glyph glyph-name="partialdiff" horiz-adv-x="582" unicode="∂" d="M163 183q0 -45 21 -71t56 -26q54 0 101 67t69 190q-25 67 -91 67q-30 0 -58 -18t-50 -48.5t-35 -72t-13 -88.5zM323 728q105 0 164.5 -66t59.5 -187q0 -97 -22.5 -185t-63 -155t-97.5 -106.5t-126 -39.5q-44 0 -80.5 14.5t-62 41t-39.5 63t-14 80.5q0 70 22 127.5 t58.5 98.5t84 63.5t99.5 22.5q40 0 70 -13t51 -33q1 4 1 12v19q0 80 -33.5 114.5t-85.5 34.5q-23 0 -49 -8.5t-49 -22.5l-29 86q27 18 65.5 28.5t75.5 10.5z"/>
<glyph glyph-name="product" horiz-adv-x="721" unicode="∏" d="M645 700v-924h-123v818h-322v-818h-123v924h568z"/>
<glyph glyph-name="summation" horiz-adv-x="633" unicode="∑" d="M565 700v-101h-370l252 -354l-269 -368h409v-101h-567v62l297 404l-277 390v68h525z"/>
<glyph glyph-name="minus" d="M552 313v-120h-504v120h504z" unicode="−"/>
<glyph glyph-name="radical" horiz-adv-x="542" unicode="√" d="M543 728l-184 -740h-112l-126 310l-51 -32l-43 68l165 105l107 -267l138 556h106z"/>
<glyph glyph-name="infinity" horiz-adv-x="790" unicode="∞" d="M448 295q26 -37 54 -57.5t55 -20.5q32 0 51 22t19 56q0 32 -18.5 53t-52.5 21t-59.5 -19.5t-48.5 -54.5zM154 292q0 -32 20.5 -53.5t51.5 -21.5q26 0 54 20t52 57q-21 33 -49.5 54t-58.5 21q-32 0 -51 -21t-19 -56zM218 472q45 0 88.5 -21.5t85.5 -66.5q32 43 75 65.5 t94 22.5q40 0 73 -13t57 -36.5t37 -56t13 -70.5t-13 -71t-36.5 -57.5t-56 -38.5t-71.5 -14q-49 0 -93.5 24t-80.5 67q-36 -45 -79 -68t-91 -23q-39 0 -72 13.5t-57 37.5t-37.5 56.5t-13.5 70.5q0 40 13.5 73t37.5 56.5t56.5 36.5t70.5 13z"/>
<glyph glyph-name="approxequal" d="M566 195q-38 -55 -75.5 -77.5t-87.5 -22.5q-39 0 -66 9.5t-49 21.5t-42.5 21.5t-45.5 9.5q-41 0 -87 -71l-80 91q40 54 77 76.5t85 22.5q39 0 66.5 -9.5t49.5 -21.5t42.5 -21.5t45.5 -9.5q21 0 42 17t45 54zM566 423q-38 -55 -75.5 -77.5t-87.5 -22.5q-39 0 -66 9.5 t-49 21.5t-42.5 21.5t-45.5 9.5q-41 0 -87 -71l-80 91q40 54 77 76.5t85 22.5q39 0 66.5 -9.5t49.5 -21.5t42.5 -21.5t45.5 -9.5q21 0 42 17t45 54z" unicode="≈"/>
<glyph glyph-name="notequal" d="M506 551l-61 -126h107v-120h-166l-50 -104h216v-120h-275l-50 -104h-133l50 104h-96v120h155l50 104h-205v120h264l61 126h133z" unicode="≠"/>
<glyph glyph-name="lessequal" d="M552 120v-120h-504v120h504zM552 504l-335 -115l335 -113v-124l-504 188v103l504 187v-126z" unicode="≤"/>
<glyph glyph-name="greaterequal" d="M552 120v-120h-504v120h504zM48 630l504 -187v-103l-504 -188v124l335 113l-335 115v126z" unicode="≥"/>
<glyph glyph-name="lozenge" d="M300 579l-133 -229l132 -228l133 228zM351 700l202 -349l-202 -351h-103l-201 348l202 352h102z" unicode="◊"/>
</font>
</defs>
</svg>
