<?xml version="1.0" encoding="utf-8"?>
<!-- Generator: Adobe Illustrator 19.0.0, SVG Export Plug-In . SVG Version: 6.00 Build 0)  -->
<svg version="1.1" id="Слой_1" xmlns="http://www.w3.org/2000/svg" xmlns:xlink="http://www.w3.org/1999/xlink" x="0px" y="0px"
	 viewBox="-96 112 156 58" style="enable-background:new -96 112 156 58;" xml:space="preserve">
<style type="text/css">
	.st0{fill:#00A0D0;}
</style>
<g>
	<polygon class="st0" points="-56,127 -61.2,138.2 -66.5,126.9 -73.7,126.9 -73.7,155.2 -66.5,155.2 -66.5,140.7 -62.8,149 
		-62.7,149 -59.8,149 -59.7,149 -56,140.9 -56,155.2 -48.8,155.2 -48.8,126.9 -56,126.9 	"/>
	<rect x="6.9" y="126.9" class="st0" width="7.2" height="28.3"/>
	<path class="st0" d="M-33.9,126.4c-8.8,0-11.7,6.3-11.7,14.6s2.9,14.6,11.7,14.6s11.7-6.2,11.7-14.6S-25.1,126.4-33.9,126.4z
		 M-33.9,149.6c-2.6,0-4.4-0.9-4.4-8.6c0-7.6,1.8-8.6,4.4-8.6c2.6,0,4.4,0.9,4.4,8.6C-29.6,148.7-31.4,149.6-33.9,149.6z"/>
	<path class="st0" d="M-11.6,126.9h-7.2v28.3h7.2c11.8,0,15.3-6.1,15.3-14.2S-0.5,126.9-11.6,126.9z M-11.6,149.3v-16.5
		c5,0,7.8,0.9,7.8,8.3C-3.8,148.4-6.6,149.3-11.6,149.3z"/>
	<path class="st0" d="M36.4,141.3c-1.6-2.2-4.1-3.2-7.5-4c-2.3-0.6-3.6-1.4-3-3.2c0.4-1.2,1.2-2,3.6-1.6c2.3,0.4,4.9,2.7,4.9,2.7
		l3.2-4.4c0,0-3.8-4.5-9.2-4.4c-3.2,0.1-5.8,0.7-7.7,3.1c-2.5,3-2.4,7.6-0.7,10.4c1.9,3.3,7.2,4.1,8.7,4.7c1.3,0.5,2.2,1.3,1.9,2.9
		c-0.3,1.4-1.2,2.2-4,2.2c-2.5,0-6.1-3.3-6.1-3.3l-3.7,4.9c0,0,1.4,1.2,2.5,2s3.7,2.3,7.4,2.3c5.7,0,8.1-2,9.2-3.8
		c0.7-1.1,1.4-2.6,1.6-4.3C37.9,145.2,37.4,142.6,36.4,141.3z"/>
</g>
</svg>
